<svg data-name="Connected Now" width="32" height="32" fill="none" xmlns="http://www.w3.org/2000/svg">
    <rect width="32" height="32" rx="4" fill="#3d3c62"/>
    <path d="M9.665 9h12.67a3 3 0 012.992 2.783l.666 9.194A1.886 1.886 0 0124.112 23a2.606 2.606 0 01-2.527-1.966L21.07 19H10.93l-.515 2.034A2.606 2.606 0 017.888 23a1.886 1.886 0 01-1.881-2.023l.666-9.194A3 3 0 019.665 9zm8.835 5a1.5 1.5 0 100-3 1.5 1.5 0 000 3zm4 3a1.5 1.5 0 100-3 1.5 1.5 0 000 3zM10 13H8v2h2v2h2v-2h2v-2h-2v-2h-2v2z" fill="#B9BBBE"/>
</svg>