<svg data-name="No Communities" width="80" height="64" fill="none" xmlns="http://www.w3.org/2000/svg">
    <rect x="20" y="12" width="40" height="40" rx="8" fill="#161621"/>
    <path d="M40 30.9c-.61 0-1.1.49-1.1 1.1 0 .61.49 1.1 1.1 1.1.61 0 1.1-.49 1.1-1.1 0-.61-.49-1.1-1.1-1.1zm0-8.9c-5.52 0-10 4.48-10 10s4.48 10 10 10 10-4.48 10-10-4.48-10-10-10zm2.19 12.19L34 38l3.81-8.19L46 26l-3.81 8.19z" fill="white"/>
    <path d="M73.337 1.445a1.445 1.445 0 00-2.89 0v1.47a1.445 1.445 0 002.89 0v-1.47zM73.337 13.086a1.445 1.445 0 00-2.89 0v1.469a1.445 1.445 0 102.89 0v-1.47zM78.555 9.473a1.445 1.445 0 100-2.89h-1.47a1.445 1.445 0 100 2.89h1.47zM66.914 9.393a1.445 1.445 0 100-2.89h-1.469a1.445 1.445 0 100 2.89h1.47z" fill="#ADF3FF"/>
    <path d="M8.363 59.843l3.123-1.042a.881.881 0 000-1.602l-3.123-1.042a.961.961 0 01-.48-.48L6.76 52.55a.802.802 0 00-1.522 0l-1.121 3.125a.961.961 0 01-.48.481L.513 57.199a.881.881 0 000 1.602l3.123 1.042a.72.72 0 01.48.48L5.24 63.45a.802.802 0 001.522 0l1.121-3.125a.72.72 0 01.48-.481z" fill="#FFD01A"/>
</svg>