<svg data-name="System Messages" xmlns="http://www.w3.org/2000/svg" width="41" height="36" viewBox="0 0 41 36" fill="none">
    <g clip-path="url(#clip0)">
    <path d="M35.1414 7.37108C35.5097 7.43693 35.8425 7.62936 36.081 7.91433C36.3194 8.19929 36.4481 8.55839 36.4443 8.92808V14.0761C36.4452 19.2491 34.6293 24.2622 31.3062 28.2603C27.9832 32.2584 23.3589 34.9939 18.2221 36.0001C13.0861 34.9923 8.46273 32.2564 5.13998 28.2586C1.81723 24.2608 0.000662863 19.2486 -0.000160918 14.0761V8.92808C-0.00399422 8.55839 0.124706 8.19929 0.36316 7.91433C0.601613 7.62936 0.93444 7.43693 1.30273 7.37108C1.633 7.3165 1.95882 7.23829 2.27762 7.13708C3.43759 6.7723 4.49216 6.13819 5.35295 5.2879C6.21373 4.43761 6.85567 3.39591 7.22495 2.25008C7.32742 1.93517 7.40659 1.61332 7.46184 1.28708C7.5285 0.923285 7.72331 0.594517 8.01179 0.358972C8.30027 0.123427 8.66381 -0.00370435 9.03806 8.22073e-05H27.4061C27.7803 -0.00370435 28.1439 0.123427 28.4324 0.358972C28.7208 0.594517 28.9156 0.923285 28.9823 1.28708C29.0376 1.61332 29.1167 1.93517 29.2192 2.25008C29.5885 3.39591 30.2304 4.43761 31.0912 5.2879C31.952 6.13819 33.0066 6.7723 34.1665 7.13708C34.4853 7.23829 34.8111 7.3165 35.1414 7.37108Z" fill="#3F3F65"/>
    <path d="M35.1414 7.37108C35.5097 7.43693 35.8425 7.62936 36.081 7.91433C36.3194 8.19929 36.4481 8.55839 36.4443 8.92808V14.0761C36.4452 19.2491 34.6293 24.2622 31.3062 28.2603C27.9832 32.2584 23.3589 34.9939 18.2221 36.0001C13.0861 34.9923 8.46273 32.2564 5.13998 28.2586C1.81723 24.2608 0.000662863 19.2486 -0.000160918 14.0761V8.92808C-0.00399422 8.55839 0.124706 8.19929 0.36316 7.91433C0.601613 7.62936 0.93444 7.43693 1.30273 7.37108C1.633 7.3165 1.95882 7.23829 2.27762 7.13708C3.43759 6.7723 4.49216 6.13819 5.35295 5.2879C6.21373 4.43761 6.85567 3.39591 7.22495 2.25008C7.32742 1.93517 7.40659 1.61332 7.46184 1.28708C7.5285 0.923285 7.72331 0.594517 8.01179 0.358972C8.30027 0.123427 8.66381 -0.00370435 9.03806 8.22073e-05H27.4061C27.7803 -0.00370435 28.1439 0.123427 28.4324 0.358972C28.7208 0.594517 28.9156 0.923285 28.9823 1.28708C29.0376 1.61332 29.1167 1.93517 29.2192 2.25008C29.5885 3.39591 30.2304 4.43761 31.0912 5.2879C31.952 6.13819 33.0066 6.7723 34.1665 7.13708C34.4853 7.23829 34.8111 7.3165 35.1414 7.37108Z" fill="#292841"/>
    <path d="M25.8299 3.60008C26.3901 5.193 27.3082 6.63993 28.5154 7.83234C29.7225 9.02475 31.1873 9.93167 32.7999 10.4851V14.0851C32.7978 18.3005 31.3582 22.3922 28.7134 25.7004C26.0686 29.0085 22.3728 31.3401 18.2221 32.3191C14.0745 31.3311 10.383 28.9957 7.7396 25.6877C5.09618 22.3797 3.65398 18.2905 3.64429 14.0761V10.4761C5.25657 9.92477 6.72138 9.01962 7.9286 7.82868C9.13583 6.63774 10.0541 5.19198 10.6143 3.60008H25.8299ZM27.4061 8.22073e-05H9.03806C8.66381 -0.00370435 8.30027 0.123427 8.01179 0.358972C7.72331 0.594517 7.5285 0.923285 7.46184 1.28708C7.40659 1.61332 7.32742 1.93517 7.22495 2.25008C6.85567 3.39591 6.21373 4.43761 5.35295 5.2879C4.49216 6.13819 3.43759 6.7723 2.27762 7.13708C1.95882 7.23829 1.633 7.3165 1.30273 7.37108C0.93444 7.43693 0.601613 7.62936 0.36316 7.91433C0.124706 8.19929 -0.00399422 8.55839 -0.000160918 8.92808V14.0761C0.000662863 19.2486 1.81723 24.2608 5.13998 28.2586C8.46273 32.2564 13.0861 34.9923 18.2221 36.0001C23.3589 34.9939 27.9832 32.2584 31.3062 28.2603C34.6293 24.2622 36.4452 19.2491 36.4443 14.0761V8.92808C36.4481 8.55839 36.3194 8.19929 36.081 7.91433C35.8425 7.62936 35.5097 7.43693 35.1414 7.37108C34.8111 7.3165 34.4853 7.23829 34.1665 7.13708C33.0066 6.7723 31.952 6.13819 31.0912 5.2879C30.2304 4.43761 29.5885 3.39591 29.2192 2.25008C29.1167 1.93517 29.0376 1.61332 28.9823 1.28708C28.9156 0.923285 28.7208 0.594517 28.4324 0.358972C28.1439 0.123427 27.7803 -0.00370435 27.4061 8.22073e-05Z" fill="#3F3F65"/>
    <path d="M35.1233 36C38.3689 36 40.9999 33.401 40.9999 30.195C40.9999 26.989 38.3689 24.39 35.1233 24.39C31.8777 24.39 29.2466 26.989 29.2466 30.195C29.2466 33.401 31.8777 36 35.1233 36Z" fill="#5865F2"/>
    <path d="M32.6814 30.582L34.2485 32.13L37.565 28.269" stroke="white" stroke-width="2" stroke-linecap="round" stroke-linejoin="round"/>
    <path d="M9.11092 12.6721L12.2725 15.7951C12.3458 15.8654 12.4325 15.9205 12.5276 15.9571L14.5685 16.6231C14.6675 16.6575 14.7577 16.7128 14.8327 16.7851L23.4427 25.2901C23.5671 25.4027 23.7296 25.4652 23.8983 25.4652C24.067 25.4652 24.2295 25.4027 24.3538 25.2901L24.9734 24.6781C25.0874 24.5553 25.1506 24.3947 25.1506 24.2281C25.1506 24.0615 25.0874 23.901 24.9734 23.7781L16.3998 15.2461C16.3266 15.172 16.2706 15.0829 16.2358 14.9851L15.5616 12.9781C15.5269 12.8804 15.4709 12.7913 15.3976 12.7171L12.2361 9.59409C12.1138 9.4775 11.9505 9.41235 11.7805 9.41235C11.6106 9.41235 11.4472 9.4775 11.325 9.59409L9.11092 11.7541C9.04976 11.8143 9.00124 11.8859 8.96813 11.9646C8.93502 12.0434 8.91797 12.1278 8.91797 12.2131C8.91797 12.2984 8.93502 12.3829 8.96813 12.4616C9.00124 12.5404 9.04976 12.6119 9.11092 12.6721Z" fill="white"/>
    <path d="M23.8983 26.1L25.7752 24.246C25.8932 24.1252 25.9592 23.9639 25.9592 23.796C25.9592 23.6281 25.8932 23.4668 25.7752 23.346C25.6508 23.2334 25.4883 23.171 25.3196 23.171C25.151 23.171 24.9884 23.2334 24.8641 23.346L22.9963 25.191C22.8823 25.3138 22.8191 25.4744 22.8191 25.641C22.8191 25.8076 22.8823 25.9682 22.9963 26.091C23.117 26.2061 23.2777 26.2713 23.4455 26.2729C23.6133 26.2746 23.7753 26.2127 23.8983 26.1Z" fill="white"/>
    <path d="M24.1887 10.6783L10.9493 23.7563C10.6042 24.0972 10.6042 24.65 10.9493 24.9909L11.7224 25.7546C12.0675 26.0955 12.6271 26.0955 12.9722 25.7546L26.2116 12.6766C26.5568 12.3357 26.5568 11.7829 26.2116 11.442L25.4385 10.6783C25.0934 10.3374 24.5338 10.3374 24.1887 10.6783Z" fill="white"/>
    <path d="M19.68 12.6L18.4136 9.30601C18.3849 9.22778 18.3793 9.14315 18.3973 9.06189C18.4153 8.98062 18.4561 8.90605 18.5152 8.84676C18.5743 8.78747 18.6491 8.74589 18.7311 8.72683C18.813 8.70776 18.8988 8.71198 18.9784 8.73901L22.3222 9.99001C22.4937 10.061 22.6511 10.1616 22.7869 10.287L28.3447 15.786C28.4627 15.9068 28.5286 16.0681 28.5286 16.236C28.5286 16.4039 28.4627 16.5652 28.3447 16.686L26.4769 18.531C26.3546 18.6476 26.1913 18.7127 26.0213 18.7127C25.8514 18.7127 25.6881 18.6476 25.5658 18.531L19.9989 13.032C19.8607 12.9138 19.7517 12.7661 19.68 12.6Z" fill="white"/>
    <path d="M18.7207 15.2394L17.5481 16.3976L21.259 20.0633L22.4316 18.905L18.7207 15.2394Z" fill="#292841"/>
    <path d="M15.9873 17.9417L14.8147 19.0999L18.5256 22.7655L19.6982 21.6073L15.9873 17.9417Z" fill="#292841"/>
    </g>
    <defs>
    <clipPath id="clip0">
    <rect width="41" height="36" fill="white"/>
    </clipPath>
    </defs>
</svg>