<svg data-name="Accessibility" xmlns="http://www.w3.org/2000/svg" width="24" height="24" viewBox="0 0 24 24">
    <path d="M12.78 0A12 12 0 1024 11.22 12 12 0 0012.78 0zm-1.24 4.41a2 2 0 11-1.47 1.47 1.94 1.94 0 011.47-1.47zm6.37 4.79a.66.66 0 01-.4.6L14 11.3v2.57l1.71 4a3.4 3.4 0 01.27 1.3v.06a1 1 0 01-.95.95 1 1 0 01-.93-.66l-1.45-4.06a.33.33 0 00-.31-.21h-.62a.33.33 0 00-.31.21l-1.49 4.02a1 1 0 01-.92.66 1 1 0 01-1-.95v-.06a3.4 3.4 0 01.27-1.3l1.71-4V11.3L6.47 9.8a.66.66 0 01-.4-.6.83.83 0 01.93-.83 3 3 0 01.92.18l1.2.45a5.19 5.19 0 001.75.3h2.24a5.19 5.19 0 001.75-.3l1.25-.44a3 3 0 01.89-.19.83.83 0 01.88.83z"/>
</svg>