<svg data-name="Appearance" xmlns="http://www.w3.org/2000/svg" width="24" height="24" viewBox="0 0 24 24">
    <path d="M12 0C5.373 0 0 5.373 0 12s5.373 12 12 12c1.107 0 2-.893 2-2 0-.52-.2-.987-.52-1.347a2.003 2.003 0 01-.507-1.32c0-1.106.894-2 2-2h2.36A6.67 6.67 0 0024 10.667C24 4.773 18.627 0 12 0zM4.667 12c-1.107 0-2-.893-2-2s.893-2 2-2c1.106 0 2 .893 2 2s-.894 2-2 2zm4-5.333c-1.107 0-2-.894-2-2 0-1.107.893-2 2-2 1.106 0 2 .893 2 2 0 1.106-.894 2-2 2zm6.666 0c-1.106 0-2-.894-2-2 0-1.107.894-2 2-2 1.107 0 2 .893 2 2 0 1.106-.893 2-2 2zm4 5.333c-1.106 0-2-.893-2-2s.894-2 2-2c1.107 0 2 .893 2 2s-.893 2-2 2z"/>
</svg>