<svg data-name="Authorised Apps" xmlns="http://www.w3.org/2000/svg" width="24" height="24" viewBox="0 0 24 24">
    <path d="M10.413 22.472a5.016 5.016 0 01-4.359-3.935c-.28-1.37-.027-2.709.73-3.851a5.01 5.01 0 013.12-2.12c2.412-.495 4.744.72 5.694 2.964.045.106.09.215.099.242.016.045.239.048 4.16.048H24v3.259H22.647V22.392h-3.618V19.08h-3.287l-.026.062c-.238.578-.345.79-.569 1.127a5.01 5.01 0 01-3.121 2.12 5.33 5.33 0 01-1.613.084zm.949-3.269a1.851 1.851 0 001.348-1.201c.081-.248.1-.751.04-.997a1.815 1.815 0 00-1.304-1.324 1.928 1.928 0 00-1.157.076c-.703.298-1.163 1.04-1.11 1.788a1.815 1.815 0 002.183 1.658zm-9.565-.166A2.225 2.225 0 01.033 17.21c-.044-.281-.044-13.654 0-13.935A2.223 2.223 0 011.87 1.435c.143-.022 2.729-.03 9.2-.03 7.65 0 9.033.005 9.205.039.933.18 1.645.909 1.788 1.83.022.14.03 1.856.03 5.917v5.718H19.62l.063-.19c.153-.456.15-.34.142-4.728l-.008-4.044-.073-.265a2.786 2.786 0 00-1.978-1.98l-.269-.074H4.49l-.268.074A2.783 2.783 0 002.232 5.73l-.062.245v8.257l.062.245a2.769 2.769 0 002.01 2.031l.113.03-.012.546c-.016.72.046 1.304.202 1.919l.02.076-1.295-.003c-.95-.002-1.341-.012-1.473-.039zm2.458-8.305c0-2.887.007-3.433.041-3.597.13-.622.649-1.14 1.27-1.27.291-.061 10.618-.061 10.909 0 .621.13 1.14.648 1.27 1.27.034.164.04.71.041 3.597v3.403h-.818l-.065-.117a7.15 7.15 0 00-1.45-1.789c-.956-.85-2.232-1.417-3.604-1.604-.338-.046-1.291-.046-1.63 0a7.172 7.172 0 00-1.982.564 6.67 6.67 0 00-1.167.682c-.035.023-.182.14-.328.26-.48.4-.93.895-1.244 1.37l-.221.331a2.079 2.079 0 00-.108.187l-.06.116h-.854z"/>
</svg>