<svg data-name="Connections" xmlns="http://www.w3.org/2000/svg" width="24" height="24" viewBox="0 0 24 24">
    <path d="M10.17 13.83a1.26 1.26 0 010 1.84 1.3 1.3 0 01-1.84 0 6.47 6.47 0 010-9.17l4.59-4.6a6.491 6.491 0 019.18 9.18L20.17 13a9.12 9.12 0 00-.52-3.14l.61-.62a3.88 3.88 0 000-5.48 3.88 3.88 0 00-5.48 0l-4.61 4.57a3.87 3.87 0 000 5.47zm3.66-5.5a1.3 1.3 0 011.84 0 6.47 6.47 0 010 9.17l-4.59 4.6a6.491 6.491 0 01-9.18-9.18L3.83 11a9.21 9.21 0 00.52 3.15l-.61.61a3.88 3.88 0 000 5.48 3.88 3.88 0 005.48 0l4.58-4.59a3.87 3.87 0 000-5.47 1.27 1.27 0 01-.06-1.79z"/>
</svg>