<svg data-name="Developer Options" xmlns="http://www.w3.org/2000/svg" width="24" height="24" viewBox="0 0 24 24">
    <path d="M4.216 0C3.123 0 2.03.398 1.233 1.195a4.224 4.224 0 000 5.966A4.24 4.24 0 005.31 8.253l2.713 2.752 2.984-2.983-2.714-2.751A4.235 4.235 0 007.2 1.195C6.403.398 5.31 0 4.216 0zm15.547 0A4.23 4.23 0 0016.8 1.234a4.236 4.236 0 00-1.092 4.076L5.31 15.706H5.31a4.254 4.254 0 00-4.075 1.092 4.245 4.245 0 00-1.194 3.58.704.704 0 001.194.398l.994-.995c.531-.531 1.458-.531 1.99 0 .55.55.549 1.439 0 1.989l-.995.994a.703.703 0 00.398 1.193 4.201 4.201 0 003.579-1.193 4.236 4.236 0 001.092-4.075L18.69 8.293h.001a4.245 4.245 0 004.075-1.092 4.245 4.245 0 001.194-3.58.704.704 0 00-1.194-.398l-.994.995c-.531.531-1.458.531-1.99 0a1.405 1.405 0 010-1.989l.995-.994a.703.703 0 00-.398-1.193A4.226 4.226 0 0019.763 0zM4.633 1.94c.184 0 .363.072.496.206l1.142 1.142a.702.702 0 01.182.679l-.418 1.56a.704.704 0 01-.497.497l-1.56.418a.703.703 0 01-.68-.182L2.158 5.118a.702.702 0 01-.182-.679l.418-1.56a.705.705 0 01.497-.497l1.56-.418a.693.693 0 01.184-.024zm11.345 11.054l-2.984 2.984 2.725 2.725a4.16 4.16 0 00-.156 1.078A4.223 4.223 0 0019.78 24 4.223 4.223 0 0024 19.781a4.223 4.223 0 00-4.219-4.218c-.333 0-.675.05-1.078.156zm4.29 4.619c.183 0 .363.073.497.207l1.141 1.141a.702.702 0 01.182.68l-.418 1.56a.705.705 0 01-.497.497l-1.56.418a.703.703 0 01-.679-.182l-1.142-1.142a.702.702 0 01-.182-.68l.418-1.56a.705.705 0 01.497-.496l1.56-.418a.68.68 0 01.183-.025z"/>
</svg>