<svg data-name="Experiments" xmlns="http://www.w3.org/2000/svg" width="24" height="24" viewBox="0 0 24 24">
    <path d="M9 0a1 1 0 000 2v5.09a3 3 0 01-.53 1.7l-5.73 8.33A4.4 4.4 0 002 19.84C2.15 22.33 4.35 24 7.47 24h10A4.51 4.51 0 0022 19.83a4.38 4.38 0 00-.74-2.72l-5.73-8.32a3 3 0 01-.53-1.7V2a1 1 0 000-2zm2 2h2v5.09a5 5 0 00.88 2.83l5.71 8.31a2.39 2.39 0 01.41 1.49A2.54 2.54 0 0117.42 22h-10c-2 0-3.39-.89-3.47-2.28a2.4 2.4 0 01.4-1.48l5.72-8.32A5 5 0 0011 7.09zm1 11.5a2.84 2.84 0 00-1.23.28l-.62.31a1.31 1.31 0 01-.5.12.77.77 0 00-.56.29l-2.82 3.69a1 1 0 00-.23.65A1.14 1.14 0 007.15 20h9.7a1.11 1.11 0 00.93-1.77l-.05-.05-2.82-3.68a.77.77 0 00-.56-.29 1.41 1.41 0 01-.49-.12l-.63-.31A2.74 2.74 0 0012 13.5z"/>
</svg>