<svg data-name="Gift Inventory" xmlns="http://www.w3.org/2000/svg" width="24" height="24" viewBox="0 0 24 24">
    <path d="M17.86 7.18h3.74a2.4 2.4 0 012.4 2.4V12H0V9.58a2.4 2.4 0 012.4-2.4h3.74a6.3 6.3 0 01-1.49-1.06 3.62 3.62 0 010-5.1 3.7 3.7 0 015.1 0C11.71 3 12 6.69 12 7.11c0-.42.29-4.11 2.25-6.11a3.7 3.7 0 015.1 0 3.62 3.62 0 010 5.1 6.3 6.3 0 01-1.49 1.08zM6.35 4.42a1.2 1.2 0 010-1.7 1.21 1.21 0 011.7 0 6.35 6.35 0 011.34 3 6.4 6.4 0 01-3.04-1.3zm8.26 1.34a6.35 6.35 0 011.34-3 1.21 1.21 0 011.7 0 1.2 1.2 0 010 1.7 6.35 6.35 0 01-3.04 1.3zM1.2 14.39v7.21A2.41 2.41 0 003.6 24h7.2v-9.61zm12 0V24h7.2a2.41 2.41 0 002.4-2.4v-7.21z" fill-rule="evenodd"/>
</svg>