<svg data-name="Plugin Repo" xmlns="http://www.w3.org/2000/svg" width="24" height="24" viewBox="0 0 24 24">
    <path d="M4.08 0C2.49 0 1.2 1.343 1.2 3v18c0 1.657 1.29 3 2.88 3H22.8V3h-1.44v19.5H4.08c-.795 0-1.44-.67-1.44-1.5s.645-1.5 1.44-1.5h15.84V0H4.08zm6.086 2.5c.92 0 1.666.746 1.666 1.666v1h2.67c.733 0 1.332.599 1.332 1.332v2.67h1a1.666 1.666 0 010 3.334h-1v2.664c0 .733-.599 1.334-1.332 1.334h-2.535v-1a1.8 1.8 0 00-3.6 0v1H5.832c-.733 0-1.332-.6-1.332-1.334v-2.533h1a1.8 1.8 0 100-3.6h-.994V6.498a1.33 1.33 0 011.326-1.332h2.666v-1c0-.92.748-1.666 1.668-1.666z"/>
</svg>