<svg data-name="Plugins" xmlns="http://www.w3.org/2000/svg" width="24" height="24" viewBox="0 0 24 24">
    <path d="M21.143 11.429h-1.714V6.857a2.292 2.292 0 00-2.286-2.286H12.57V2.857a2.858 2.858 0 00-5.714 0v1.714H2.286A2.283 2.283 0 00.01 6.857V11.2h1.703A3.087 3.087 0 014.8 14.286a3.087 3.087 0 01-3.086 3.085H0v4.343A2.292 2.292 0 002.286 24h4.343v-1.714A3.087 3.087 0 019.714 19.2a3.087 3.087 0 013.086 3.086V24h4.343a2.292 2.292 0 002.286-2.286v-4.571h1.714a2.858 2.858 0 000-5.714z"/>
</svg>