<svg data-name="Settings" xmlns="http://www.w3.org/2000/svg" width="24" height="24" viewBox="0 0 24 24">
    <path d="M23.65 14.88l-2.17-1.47a.8.8 0 01-.35-.72V12a8.46 8.46 0 00-.05-.87.83.83 0 01.35-.73l2.19-1.49a.78.78 0 00.24-1L21.45 3.6a.8.8 0 00-1-.32l-2.57 1.23a.78.78 0 01-.77 0 10 10 0 00-1.06-.6.79.79 0 01-.44-.65L15.44.74a.8.8 0 00-.8-.74H9.76A.8.8 0 009 .74l-.22 2.49a.76.76 0 01-.45.65 8.67 8.67 0 00-1.18.69.83.83 0 01-.82 0L3.59 3.28a.8.8 0 00-1 .32L.11 7.85a.79.79 0 00.24 1.06l2.57 1.75a.78.78 0 01.34.72v1.06a.82.82 0 01-.36.72L.35 14.88A.81.81 0 00.11 16l2.44 4.2a.8.8 0 001 .32l2.59-1.26a.78.78 0 01.83.08 9 9 0 001.31.77.83.83 0 01.47.67L9 23.26a.8.8 0 00.8.74h4.88a.8.8 0 00.8-.74l.17-2.49a.77.77 0 01.46-.65 8.67 8.67 0 001.18-.69.8.8 0 01.79-.07l2.37 1.16a.8.8 0 001-.32l2.44-4.2a.81.81 0 00-.24-1.12zM12 16.4a4.4 4.4 0 114.38-4.4A4.39 4.39 0 0112 16.4z"/>
</svg>