<svg data-name="Integrations" xmlns="http://www.w3.org/2000/svg" viewBox="0 0 24 24">
    <path d="M4.45 3.5h15.1a3.64 3.64 0 013.64 3.38l.8 11.2a2.25 2.25 0 01-2.09 2.41h-.17a3.11 3.11 0 01-3-2.36l-.63-2.5H5.92l-.63 2.5a3.11 3.11 0 01-3 2.36A2.26 2.26 0 010 18.24a.81.81 0 010-.16l.8-11.2A3.64 3.64 0 014.45 3.5zM15 9.57a1.82 1.82 0 10-1.82-1.82A1.82 1.82 0 0015 9.57zm4.87 3.64a1.82 1.82 0 10-1.83-1.82 1.81 1.81 0 001.87 1.82zM4.7 8.36H2.27v2.43H4.7v2.42h2.43v-2.42h2.44V8.36H7.13V5.93H4.7z"/>
</svg>