<svg data-name="Partner Program" xmlns="http://www.w3.org/2000/svg" viewBox="0 0 24 24">
    <path d="M17.68,8.48l-3,2a1,1,0,0,1-1.09,0c-.22-.22-.65-.44-.87-.66a2.52,2.52,0,0,0-2.18.44l-1.09.65L4,14.59a2.47,2.47,0,0,1-3.49-.87,2.51,2.51,0,0,1,.66-3.49L7.66,5.87a8,8,0,0,1,5.88-1.1,7.59,7.59,0,0,1,4.14,2.62A.71.71,0,0,1,17.68,8.48Z" transform="translate(0)"/><path class="cls-2" d="M24,11.54a2.7,2.7,0,0,1-1.09,2.18l-6.76,4.36A7.09,7.09,0,0,1,12,19.39a4.74,4.74,0,0,1-1.74-.22,7.52,7.52,0,0,1-4.14-2.61,1,1,0,0,1,.22-1.09l3.05-2a.66.66,0,0,1,.87,0,4.71,4.71,0,0,1,1.09.66,3.55,3.55,0,0,0,2.18-.44l1.52-.87,4.36-3.06.66-.43a2.66,2.66,0,0,1,3.48.65A2.35,2.35,0,0,1,24,11.54Z"/>
</svg>