<svg data-name="Server Templates" xmlns="http://www.w3.org/2000/svg" viewBox="0 0 24 24">
    <path d="M13.7 7.5l-.52 3h3l.52-3zm0 0l-.52 3h3l.52-3zM18 0h-6a6 6 0 00-6 6v6a6 6 0 006 6h6a6 6 0 006-6V6a6 6 0 00-6-6zm1.74 7.29a.25.25 0 01-.25.21h-1.78l-.53 3h1.7a.24.24 0 01.24.29l-.08.5a.27.27 0 01-.25.21H17l-.32 1.79a.25.25 0 01-.25.21H16a.25.25 0 01-.25-.29L16 11.5h-3l-.32 1.79a.25.25 0 01-.24.21h-.5a.25.25 0 01-.24-.29l.3-1.71h-1.7a.25.25 0 01-.25-.29l.09-.5a.25.25 0 01.25-.21h1.78l.54-3H11a.25.25 0 01-.24-.29l.09-.5a.24.24 0 01.24-.21h1.79l.32-1.79a.25.25 0 01.25-.21h.49a.25.25 0 01.24.29l-.3 1.71h3l.32-1.79a.25.25 0 01.25-.21h.49a.25.25 0 01.24.29l-.3 1.71h1.7a.25.25 0 01.25.29zm-6.56 3.21h3l.52-3h-3z"/><path class="prefix__cls-1" d="M4 7.52A9 9 0 1016.48 20h-1.23A8 8 0 114 8.75z"/>
</svg>