<svg data-name="Stickers" xmlns="http://www.w3.org/2000/svg" width="24" height="24" viewBox="0 0 24 24">
    <defs><style>.cls-1{fill-rule:evenodd}</style></defs>
    <path class="cls-1" d="M23.77 8.26l-8-8A.79.79 0 0014.4.8v5.68a3.11 3.11 0 003.12 3.12h5.69a.78.78 0 00.56-1.34z"/>
    <path class="cls-1" d="M17.54 12A5.54 5.54 0 0112 6.46V0H2.4A2.41 2.41 0 000 2.4v19.19A2.41 2.41 0 002.4 24h19.19A2.41 2.41 0 0024 21.59V12zM6.25 16.91a1.34 1.34 0 01-.82.47.86.86 0 01-.28 0 1.46 1.46 0 01-1.41-1.11.91.91 0 01-.06-.27 1.58 1.58 0 01.42-1.06A1.48 1.48 0 016.64 16a1.38 1.38 0 01-.39.91zM12 18.16a2.66 2.66 0 01-2.63-2.66h.21a2.67 2.67 0 004.91 0h.21a2.66 2.66 0 01-2.7 2.66zm6.88-.74A1.49 1.49 0 1120.39 16a1.47 1.47 0 01-1.47 1.42z"/>
</svg>