<svg data-name="Settings" xmlns="http://www.w3.org/2000/svg" width="16" height="16" viewBox="0 0 16 16">
    <path d="M14.31 9.56l-1.17-.8a.39.39 0 01-.14-.38V8a3.59 3.59 0 000-.47.47.47 0 01.19-.4l1.19-.8a.43.43 0 00.13-.57l-1.39-2.31a.44.44 0 00-.56-.18l-1.37.67a.42.42 0 01-.42 0 4.71 4.71 0 00-.58-.32.45.45 0 01-.19-.38L9.86 1.9a.42.42 0 00-.43-.4H6.79a.44.44 0 00-.44.4l-.09 1.35A.42.42 0 016 3.6a5.14 5.14 0 00-.63.4.46.46 0 01-.44 0l-1.49-.73a.44.44 0 00-.56.18l-1.32 2.3a.44.44 0 00.13.58l1.39 1a.4.4 0 01.19.38V8.29a.44.44 0 01-.19.39l-1.38.93a.44.44 0 00-.13.58l1.32 2.3a.44.44 0 00.56.18l1.41-.69a.43.43 0 01.45 0 4.57 4.57 0 00.71.42.45.45 0 01.25.37l.09 1.34a.44.44 0 00.44.4h2.63a.42.42 0 00.43-.4l.1-1.35a.4.4 0 01.24-.35 4.5 4.5 0 00.64-.38.47.47 0 01.43 0l1.29.64a.44.44 0 00.56-.18l1.32-2.3a.44.44 0 00-.13-.63zM8 10.38A2.38 2.38 0 1110.37 8 2.37 2.37 0 018 10.38z"/>
</svg>