<svg data-name="Settings" xmlns="http://www.w3.org/2000/svg" width="24" height="24" viewBox="0 0 24 24">
    <path d="M22.19 14.52l-1.89-1.29a.69.69 0 01-.31-.62V12a6.64 6.64 0 00-.05-.77.73.73 0 01.31-.63l1.91-1.3a.68.68 0 00.21-.92l-2.1-3.73a.7.7 0 00-.91-.28l-2.21 1.08a.69.69 0 01-.68 0 7.65 7.65 0 00-.93-.52.72.72 0 01-.38-.58L15 2.15a.7.7 0 00-.7-.65H10a.7.7 0 00-.7.65l-.12 2.17a.65.65 0 01-.39.57 7.55 7.55 0 00-1 .61.74.74 0 01-.72 0L4.64 4.37a.7.7 0 00-.91.28L1.6 8.37a.69.69 0 00.21.93l2.24 1.53a.65.65 0 01.3.62V12.39A.69.69 0 014 13l-2.19 1.52a.7.7 0 00-.21.94l2.13 3.72a.7.7 0 00.91.28l2.27-1.11a.67.67 0 01.72.07 9.4 9.4 0 001.15.68.72.72 0 01.41.59l.15 2.16a.7.7 0 00.7.65h4.27a.7.7 0 00.7-.65l.15-2.17a.66.66 0 01.4-.57 7.55 7.55 0 001-.61.7.7 0 01.7-.06l2.07 1a.7.7 0 00.91-.28l2.13-3.72a.7.7 0 00-.18-.92zM12 15.85A3.85 3.85 0 1115.83 12 3.83 3.83 0 0112 15.85z"/>
</svg>