<svg xmlns="http://www.w3.org/2000/svg" width="20" height="20" viewBox="0 0 172 172">
<g fill="none" stroke-miterlimit="10" font-family="none" font-weight="none" font-size="none" text-anchor="none" style="mix-blend-mode:normal">
    <path d="M0 172V0h172v172z"/>
    <g fill="#9b59b6">
        <path d="M43 7.167h14.333v28.666H43zm71.667 0H129v28.666h-14.333z"/>
        <path d="M57.333 136.167h-21.5V64.5h100.334v35.833H150.5v-64.5c0-7.883-6.45-14.333-14.333-14.333H35.833C27.95 21.5 21.5 27.95 21.5 35.833v100.334c0 7.883 6.45 14.333 14.333 14.333h21.5zm-21.5-100.334h100.334v14.334H35.833z"/>
        <path d="M121.833 121.833H107.5V129h11.467v7.167H107.5v7.166h14.333v7.167h-21.5v-35.833h21.5zm17.917-7.166H129V150.5h7.167v-14.333h3.583c5.934 0 10.75-4.816 10.75-10.75s-4.816-10.75-10.75-10.75zm0 14.333h-3.583v-7.167h3.583a3.585 3.585 0 013.583 3.584A3.585 3.585 0 01139.75 129zm-57.498 6.393c-3.727-1.792-9.625-3.992-9.732-10.972-.094-6.286 4.529-9.926 10.936-9.747 10.198.294 10.821 9.195 10.821 10.779H87.34c0-.739.122-5.003-4.006-5.003-1.254 0-4.07.56-3.856 4.02.208 3.161 4.393 4.659 5.16 5.003 1.606.588 9.546 4.128 9.61 11.352.015 1.534-.379 9.568-10.649 9.675-11.173.122-11.932-9.489-11.932-11.474h6.987c0 1.054.093 6.142 4.945 5.748 2.917-.244 3.548-2.344 3.648-3.906.158-2.623-2.344-4.2-4.995-5.475z"/>
        <path d="M28.667 28.667h114.666v28.666H28.667z" opacity=".3"/>
    </g>
</g>
</svg>
