<svg xmlns="http://www.w3.org/2000/svg" width="20" height="20" viewBox="0 0 172 172">
<g fill="none" stroke-width="none" stroke-miterlimit="10" font-family="none" font-weight="none" font-size="none" text-anchor="none" style="mix-blend-mode:normal">
    <path d="M0 172V0h172v172z"/>
    <path d="M119.762 64.5l-10.671 78.833-46.734.043s-.115-.114-.222-.43L52.116 64.5h67.646m16.405-14.333H35.833l12.184 95.316c1.433 7.167 7.166 12.184 14.333 12.184h47.3c7.167 0 12.9-5.017 13.617-12.184l12.9-95.316z" fill="#f1c40f"/>
    <path d="M119.683 35.833l-2.866-9.316c-1.434-2.867-4.3-5.017-7.167-5.017h-47.3c-2.867 0-5.733 2.15-6.45 5.017l-3.583 9.316H43c-4.3 0-7.167 2.867-7.167 7.167v14.333h100.334V43c0-4.3-2.867-7.167-7.167-7.167z" stroke="#f1c40f" stroke-width="14.333"/><path d="M107.5 57.333H129c-4.78 31.053-9.553 62.114-14.333 93.167H57.333C52.553 119.447 47.78 88.386 43 57.333h64.5z" fill="#f1c40f" opacity=".3"/>
</g>
</svg>