<svg xmlns="http://www.w3.org/2000/svg" width="20" height="20" viewBox="0 0 172 172">
<g fill="none" stroke-miterlimit="10" font-family="none" font-weight="none" font-size="none" text-anchor="none" style="mix-blend-mode:normal">
    <path d="M0 172V0h172v172z"/>
    <g fill="#f7839c">
        <path d="M118.25 21.5C97.503 21.5 86 36.478 86 36.478S74.498 21.5 53.75 21.5c-21.772 0-39.417 17.644-39.417 39.417 0 29.892 35.203 58.86 45.014 68.011C70.65 139.463 86 153.008 86 153.008s15.351-13.545 26.653-24.08c9.811-9.151 45.014-38.12 45.014-68.011 0-21.773-17.645-39.417-39.417-39.417zm-12.105 93.955c-1.268 1.147-2.372 2.143-3.267 2.981C97.495 123.453 91.13 129.208 86 133.81c-5.131-4.601-11.502-10.363-16.878-15.373a338.794 338.794 0 00-3.267-2.981c-10.177-9.195-37.188-33.619-37.188-54.538 0-13.832 11.251-25.084 25.083-25.084 13.094 0 20.683 9.138 20.884 9.374L86 57.333l11.366-12.126c.072-.093 7.79-9.374 20.884-9.374 13.832 0 25.083 11.252 25.083 25.084 0 20.92-27.01 45.343-37.188 54.538z"/>
        <path d="M108.668 119.29c-1.426 1.29-2.666 2.407-3.676 3.353-6.049 5.64-13.216 12.119-18.992 17.293-5.77-5.174-12.936-11.653-18.992-17.293-1.01-.946-2.257-2.071-3.676-3.354C51.894 108.94 21.5 81.456 21.5 57.93c0-15.56 12.656-28.223 28.215-28.223 14.728 0 23.27 10.277 23.493 10.55L86 53.9l12.785-13.638c.08-.107 8.765-10.549 23.493-10.549 15.566 0 28.222 12.656 28.222 28.215 0 23.528-30.394 51.013-41.832 61.361z" opacity=".3"/>
    </g>
</g>
</svg>
