<svg xmlns="http://www.w3.org/2000/svg" width="20" height="20" viewBox="0 0 172 172">
<g fill="none" stroke-miterlimit="10" font-family="none" font-weight="none" font-size="none" text-anchor="none" style="mix-blend-mode:normal">
    <path d="M0 172V0h172v172z"/>
    <g fill="#e74c3c">
        <path d="M14.333 21.5H43v129H14.333z"/>
        <path d="M107.5 28.667c-23.748 0-43 19.251-43 43 0 23.748 19.252 43 43 43s43-19.252 43-43c0-23.749-19.252-43-43-43z" opacity=".3"/>
        <path d="M107.5 121.833c-27.663 0-50.167-22.51-50.167-50.166 0-27.664 22.504-50.167 50.167-50.167 27.656 0 50.167 22.503 50.167 50.167 0 27.656-22.51 50.166-50.167 50.166zm0-86c-19.759 0-35.833 16.075-35.833 35.834 0 19.758 16.075 35.833 35.833 35.833 19.759 0 35.833-16.075 35.833-35.833 0-19.759-16.075-35.834-35.833-35.834z"/>
    </g>
</g>
</svg>