<svg xmlns="http://www.w3.org/2000/svg" width="20" height="20" viewBox="0 0 172 172">
<g fill="none" stroke-miterlimit="10" font-family="none" font-weight="none" font-size="none" text-anchor="none" style="mix-blend-mode:normal">
    <path d="M0 172V0h172v172z"/>
    <g fill="#e67e22">
        <path d="M86 21.5c-35.622 0-64.5 28.878-64.5 64.5s28.878 64.5 64.5 64.5 64.5-28.878 64.5-64.5S121.622 21.5 86 21.5z" opacity=".3"/>
        <path d="M86 157.667c-39.417 0-71.667-32.25-71.667-71.667S46.583 14.333 86 14.333 157.667 46.583 157.667 86 125.417 157.667 86 157.667zm0-129c-31.533 0-57.333 25.8-57.333 57.333 0 31.533 25.8 57.333 57.333 57.333 31.533 0 57.333-25.8 57.333-57.333 0-31.533-25.8-57.333-57.333-57.333z"/><path d="M86 43c-15.767 0-28.667 12.9-28.667 28.667h14.334c0-7.884 6.45-14.334 14.333-14.334s14.333 6.45 14.333 14.334c0 14.333-21.5 17.2-21.5 35.833h14.334c0-12.183 21.5-17.917 21.5-35.833C114.667 55.9 101.767 43 86 43zm-7.167 71.667h14.334V129H78.833z"/>
    </g>
</g>
</svg>
