<svg data-name="ADD_FRIEND-tab" xmlns="http://www.w3.org/2000/svg" width="415" height="250" viewBox="0 0 415 250" fill="none">
    <defs>
    <clipPath id="a">
    <path fill="#fff" d="M0 0h678v440H0z"/>
    </clipPath>
    </defs>
    <g clip-path="url(#a)" stroke="null">
    <path d="M303.03 226.206h-38.537v6.426h38.538v-6.426zM346.863 226.206h-38.538v6.426h38.538v-6.426z" fill="#6B392B"/>
    <path d="M300.43 175.224l7.43 73.176h-9.378l-7.523-73.176h9.472z" fill="#6B392B"/>
    <path d="M345.47 175.224l7.336 73.176h-9.286l-7.615-73.176h9.564zM309.438 175.224L302.01 248.4h9.379l7.522-73.176h-9.473zM264.493 175.224l-7.43 73.176h9.38l7.523-73.176h-9.473 0z" fill="#542518"/>
    <path d="M346.027 170.673h-87.384c-2.41 0-4.365 1.94-4.365 4.332 0 2.393 1.954 4.333 4.365 4.333h87.384c2.41 0 4.365-1.94 4.365-4.333 0-2.392-1.955-4.332-4.365-4.332z" fill="#6E2B17"/>
    <path d="M238.863 150.151H223.17v98.203h15.694V150.15z" fill="#783522"/>
    <path d="M101.705 78.46l5.478-34.823a5.014 5.014 0 015.108-4.18 5.11 5.11 0 014.828 5.758l-5.386 35.938-10.028-2.693h0z" fill="#E66CA5"/>
    <path d="M107.554 72.053l4.737-21.822a.838.838 0 01.835-.558.746.746 0 01.557.836l-2.97 21.266-3.159.278h0z" fill="#F085B7"/>
    <path d="M107.183 43.637a4.655 4.655 0 011.857-3.065c-.929 5.572-2.414 15.787-4.735 32.688l-1.765.186 4.643-29.809z" fill="#FFABBB"/>
    <path d="M231.434 248.4l-1.115-76.798a18.394 18.394 0 00-7.8-14.766l-9.38-6.685-63.146-3.529 5.943 5.2c-4.086 2.693-3.993 4.55-4.365 12.073l-5.943 84.505h85.806z" fill="#244AB0"/>
    <path d="M230.32 171.602a18.394 18.394 0 00-7.8-14.766l-3.252-2.32h-63.89l7.337 5.478a14.572 14.572 0 015.758 13.094l-7.151 75.312h70.112l-1.115-76.798h0z" fill="#203D87"/>
    <path d="M145.628 248.4c11.794-9.843 15.602-9.936 20.802-9.936 5.2 0 5.943 9.936 5.943 9.936h-26.745z" fill="#203D87"/>
    <path d="M182.588 163.895c11.608 11.143 19.5 16.994 21.451 18.293 1.95 1.3 4.457-3.064 6.594-9.192 2.135-6.13 3.807-12.259 4.55-14.395.743-2.135 3.993-6.222-8.73-6.222-12.721 0-42.252-4.364-23.865 11.516z" fill="#1A3578"/>
    <path d="M224.284 167.887c-9.38 13.651-22.752 30.46-26.56 35.567-3.807 5.108-9.471.93-13.65-3.435-4.18-4.366-2.415-2.322-.371 3.806a28.69 28.69 0 008.45 12.166c2.136 1.857 5.571 6.315 14.022-9.287 8.45-15.601 22.844-45.781 18.109-38.817h0z" fill="#1A3578"/>
    <path d="M155.007 248.4c8.73-10.215 18.201-10.865 25.259 0h-25.259z" fill="#30868C"/>
    <path d="M162.622 241.992c6.408 2.137 8.358 5.758 8.636 6.408h9.008c-5.014-7.707-11.33-9.564-17.644-6.408h0zM216.854 242.271c-7.057-.372-12.35 2.6-18.85 6.129h25.165c.836-4.643-1.578-5.85-6.315-6.129z" fill="#2B7585"/>
    <path d="M140.057 215.712H70.874v5.099h69.183v-5.1z" fill="#3D1A10"/>
    <path d="M109.876 166.866l7.429 81.534h-9.379l-7.522-81.534h9.472zM139.685 166.866l7.429 81.534h-9.379l-7.522-81.534h9.472zM72.08 163.895L64.653 248.4h9.379l7.522-84.505H72.08z" fill="#542518"/>
    <path d="M72.08 170.488l-13.279-64.354a1.302 1.302 0 011.3-1.672h6.594a1.3 1.3 0 011.3 1.114l13.558 64.912H72.08h0z" fill="#6E2B17"/>
    <path d="M105.697 110.034H65.302v7.113h40.395v-7.113zM70.13 163.895h62.22v7.336H70.13a3.728 3.728 0 01-2.654-1.022 3.704 3.704 0 01-1.153-2.6 3.807 3.807 0 013.808-3.714h0z" fill="#6E2B17"/>
    <path d="M90.468 163.895h51.539c.484-.001.962.096 1.407.284.446.187.85.463 1.187.81a3.609 3.609 0 011.027 2.62 3.534 3.534 0 01-1.032 2.589 3.533 3.533 0 01-2.59 1.033H90.469v-7.336h0z" fill="#542113"/>
    <path d="M83.967 42.615a6.033 6.033 0 00-3.529 7.616l10.03 29.623 13.093-3.9L91.953 46.05a6.133 6.133 0 00-5.626-3.877c-.808-.01-1.61.14-2.36.441h0z" fill="#E66CA5"/>
    <path d="M93.996 72.424l5.2-.65-7.15-17.83a2.04 2.04 0 00-2.693-1.02 2.041 2.041 0 00-1.021 2.414l5.664 17.086h0z" fill="#F085B7"/>
    <path d="M91.118 72.424L81.18 44.936a5.95 5.95 0 00-.743 5.295l7.708 22.565 2.972-.372h0z" fill="#FFA3B5"/>
    <path d="M116.048 68.251l-38.126 4.952c-5.492.713-9.367 5.744-8.654 11.237l.033.25c.713 5.492 5.744 9.366 11.237 8.653l38.125-4.952c5.493-.713 9.367-5.744 8.654-11.237l-.031-.249c-.715-5.493-5.746-9.367-11.238-8.654z" fill="#FF85AB"/>
    <path d="M86.103 127.678c-2.321-2.043-4.457-3.993-4.922-4.829-.464-.836.279-1.022 1.486-1.392 1.207-.372 2.043 1.021 3.25 3.342 1.208 2.321 2.229 4.83.186 2.88h0z" fill="#F2C591"/>
    <path d="M118.048 102.883l-34.174 5.48c-2.228 1.95-2.414 2.321-3.993 3.807-4.55 4.085-5.85 7.336-5.943 10.865-.279 5.014.279 4.736-.836 6.5-1.114 1.765-2.043 2.508-1.114 5.015a12.905 12.905 0 002.786 4.271h53.954c12.071-14.115 1.206-25.63-10.68-35.938z" fill="#F7E5BC"/>
    <path d="M123.156 138.821h-36.31s.186-3.157.371-11.329c.186-8.172-1.393-13.744-7.336-15.322a52.92 52.92 0 013.993-3.808l34.174-5.386a82.142 82.142 0 016.593 6.036c.51 9.962.012 19.949-1.485 29.81h0z" fill="#1F3A70"/>
    <path d="M118.048 102.976h-.464l-.465.557a90.115 90.115 0 01-5.386 14.859s.186 1.857 2.693-1.765a43.718 43.718 0 005.85-11.793l-2.228-1.858zM87.682 108.362c6.686 7.986 8.914 9.75 11.33 11.422 2.414 1.673.463-.836-2.137-4.642-2.6-3.808-5.479-8.451-5.479-8.451l-3.714 1.671zM108.02 130.928c-2.416-.836-12.816-4.271-20.803-6.222.094.927.094 1.86 0 2.786-.185 8.172-.371 11.33-.371 11.33h36.31c.556-3.993 1.114-8.544 1.392-13.466l-16.529 5.572z" fill="#172E5C"/>
    <path d="M90.375 113.006a5.763 5.763 0 01-1.765 1.578c-1.485 1.022-1.857 1.393-1.95 1.115a8.64 8.64 0 00-5.757-4.644c.928-.928 1.95-1.95 3.157-2.972 5.015 2.23 6.315 4.923 6.315 4.923z" fill="#244AB0"/>
    <path d="M115.077 102.883l-6.873 25.91-17.736-25.074 24.609-.836z" fill="#D4BF9B"/>
    <path d="M100.032 111.984l13.187 3.436-4.829 7.894s-7.336-8.544-8.358-9.844c-1.021-1.3-2.135-2.043 0-1.486z" fill="#CCAC89"/>
    <path d="M94.368 107.805l16.065 2.229c1.858.186 1.858-1.765 2.786-5.572l-17.365 1.207-1.486 2.136z" fill="#DE5D98"/>
    <path d="M120.005 85.447l-39.23 5.095c-5.188.673-8.848 5.417-8.176 10.595.673 5.177 5.423 8.828 10.61 8.154l39.231-5.095c5.188-.674 8.849-5.417 8.176-10.594-.672-5.178-5.423-8.83-10.61-8.155z" fill="#FF85AB"/>
    <path d="M122.134 104.277a9.472 9.472 0 002.043-18.388 9.947 9.947 0 003.25-8.635v-.28a9.846 9.846 0 00-7.247-8.4 9.831 9.831 0 00-3.897-.235L85.174 72.33c6.687 4.55 6.687 8.544 5.572 16.066a5.108 5.108 0 00.743 3.25 14.67 14.67 0 01-1.579 16.808l32.224-4.178h0z" fill="#F06EA8"/>
    <path d="M108.576 195.004c0 3.435-1.95 6.221 1.578 7.8 5.294 2.322 7.709 4.829 11.608 5.944 3.9 1.114 9.937 2.878 6.873-3.158-3.065-6.036-5.386-11.608-5.386-11.608l-14.673 1.022zM127.984 190.453c-.278 3.158-2.321 5.665.836 7.43 4.736 2.6 6.78 5.107 10.4 6.5 3.622 1.393 9.009 3.529 6.594-2.415-2.415-5.943-3.993-11.236-3.993-11.236l-13.837-.279h0z" fill="#914343"/>
    <path d="M119.348 164.173h-1.392l7.335 31.76-4.179 1.95a17.916 17.916 0 01-13.837.371l-7.52-33.988h-9.659a4.356 4.356 0 01-3.093-1.377 4.357 4.357 0 01-1.179-3.174l.558-8.356h42.438a10.117 10.117 0 0110.029 9.192l4.365 33.153-3.621.37a44.87 44.87 0 01-13.187-.37l-7.058-29.531h0z" fill="#1C1B29"/>
    <path d="M100.96 150.151H83.875v98.203h17.087V150.15zM277.215 248.4h17.087v-98.203h-17.087V248.4z" fill="#AD482C"/>
    <path d="M90.468 150.151h-6.594v98.203h6.594V150.15z" fill="#EB9151"/>
    <path d="M100.96 150.151H83.875v17.83h17.087v-17.83z" fill="#AD482C"/>
    <path d="M175.901 7.977l-10.12-5.107-6.966 9.008 10.494 6.686L175.9 7.977z" fill="#133DBD"/>
    <path d="M177.759 29.15l20.244 37.981a4.83 4.83 0 01-.742 5.293l-.28.28a28.522 28.522 0 01-26.466 8.078 3.065 3.065 0 01-2.414-2.972l-1.021-45.78c0-17.366.835-21.267 10.679-2.88h0z" fill="#33BEB5"/>
    <path d="M196.982 72.703a5.204 5.204 0 00.835-5.944L177.76 29.15c-4.829-8.914-7.43-12.63-8.915-11.98 3.808 26.56 11.7 61.197 11.7 61.197l5.387 1.394a27.492 27.492 0 0011.05-7.058z" fill="#33A2BE"/>
    <path d="M192.06 56.08c-1.207-2.32-1.765-3.065-2.322-1.95-8.358-13.279-12.35-10.586-12.35 2.322 0 0-5.758-3.065-5.201 8.357a3.812 3.812 0 00-4.365 1.765l.28 11.236a3.068 3.068 0 001.857 2.786 32.785 32.785 0 0027.672-8.636 4.736 4.736 0 00.372-4.828L192.06 56.08h0z" fill="#F7E5BC"/>
    <path d="M198.003 67.131l-5.944-11.05c-1.206-2.322-1.764-3.065-2.32-1.95-8.359-13.28-12.351-10.587-12.351 2.321a4.005 4.005 0 00-1.58-.372c1.58.372 1.58 1.95 2.601 5.386a67.11 67.11 0 011.579 6.594l14.764 6.315a35.9 35.9 0 002.88-2.415 4.736 4.736 0 00.372-4.828h0z" fill="#F7D197"/>
    <path d="M197.354 67.595c-7.152-7.707-13.558-10.4-27.952 10.68a1.663 1.663 0 00-.13 1.514c.1.244.257.462.456.635.2.172.439.295.694.358a28.32 28.32 0 0026.56-8.079l.279-.279.556-.835a3.257 3.257 0 00.46-2.077 3.26 3.26 0 00-.923-1.917z" fill="#242236"/>
    <path d="M196.053 74.096l-1.857-9.565c-5.2-4.272-10.68-4.364-20.059 7.337l3.9 9.007a36.31 36.31 0 0018.016-6.78h0z" fill="#90423B"/>
    <path d="M196.517 73.817l-6.779-.65-.928 2.6-1.672-3.621c-1.671-3.715-1.764-3.622-3.158-.464-1.392 3.157-7.614 2.135-7.614 2.135l-1.393-2.971c8.172-9.843 13.373-10.401 18.108-7.15l3.436 10.12z" fill="#7A2F28"/>
    <path d="M154.543 93.505c-4.178 3.064-5.107 2.693-4.085 8.636 1.02 5.942 4.085-8.636 4.085-8.636z" fill="#3EE8DD"/>
    <path d="M215.276 138.821h-73.083a33.272 33.272 0 01-2.23-7.428c-.742-5.572-1.392-6.594 2.694-13.837.278-5.48 2.043-8.915 6.314-14.3a84.903 84.903 0 017.986-10.495l52.19 1.857a46.21 46.21 0 016.036 4.922l4.271.186c.28 10.308-3.064 28.416-4.178 39.095h0z" fill="#244AB0"/>
    <path d="M253.72 94.618l-4.085-6.407a13.745 13.745 0 00-12.352-6.407h-.184a3.244 3.244 0 00-2.972 2.414l-3.343 12.536-1.114 1.208a2.13 2.13 0 00-.558 1.857l.279 2.507-.557-.835a2.884 2.884 0 00-2.043-1.487c-1.672-.464-4.922-1.3-8.265-2.507-.743-1.207-2.321-3.064-8.265-3.157v3.715l6.965 6.872-.186 20.058 14.022 5.107a8.448 8.448 0 009.008-2.32 63.89 63.89 0 0014.116-30.554 3.626 3.626 0 00-.465-2.6h0z" fill="#1E397D"/>
    <path d="M163.458 112.913l-1.3 5.757-15.415 1.579a1.952 1.952 0 00-1.764 1.857v1.486a1.39 1.39 0 001.764 1.3l15.415-5.015 13.65 2.136a1.296 1.296 0 011.022 1.393l-2.042 15.415h40.488c4.828-29.437 6.686-35.38-2.415-42.81l-35.752 8.544-14.95-9.008 1.485 9.194a22.009 22.009 0 01-.186 8.172h0z" fill="#1E397D"/>
    <path d="M171.073 121.27c.929-4.086 1.95-9.379 1.95-12.536l-4.365-2.6c.108 4.895-.048 9.793-.464 14.672l2.88.465h0z" fill="#152D69"/>
    <path d="M176.273 127.678a88.624 88.624 0 008.729 4.828c2.043.93 7.43 2.693 9.1 3.251 1.672.557 2.973 1.486 2.044 3.064H174.88l1.393-11.143z" fill="#7A2F28"/>
    <path d="M178.966 129.257l-2.693-1.579-1.393 11.143h1.95l2.136-9.564h0z" fill="#5E221D"/>
    <path d="M169.773 81.06c-3.157.929-3.436 0-5.572 6.037l4.457.37 1.115-6.407z" fill="#3EE8DD"/>
    <path d="M165.501 86.818l1.3-3.25a4.282 4.282 0 012.972-2.508l4.736-1.021 18.944-.278 10.307 5.2a2.869 2.869 0 011.58 2.136l.37 2.414 5.016 3.343a1.767 1.767 0 01.742 1.764c-1.3 11.33-13 28.788-29.345 20.988-12.164-5.85-23.401-14.208-28.787-18.48l-2.136 2.785c-.557-2.693 0-3.806 1.672-5.2l1.671-1.206c.147-.484.241-.983.28-1.487.37-2.135-.094-2.693 2.506-3.25l8.172-1.95h0z" fill="#33BEB5"/>
    <path d="M169.309 84.125l5.943 3.994c2.043 1.3 3.157 3.713.279 2.6a48.957 48.957 0 01-6.873-3.251c-1.671-1.114-1.022-1.486-.836-2.414.186-.929.465-1.579 1.487-.929z" fill="#37CFC5"/>
    <path d="M210.726 92.854l-5.016-3.343-.37-2.414a2.886 2.886 0 00-1.58-2.136l-10.307-5.2h-2.972l-11.887 25.722c1.115 5.572 2.786 6.315 4.18 7.616 1.392 1.299 1.392 1.392.929 3.063 15.508 6.037 26.558-10.679 27.765-21.637a1.77 1.77 0 00-.742-1.671h0z" fill="#33A2BE"/>
    <path d="M204.132 87.84c.557 1.392.929 1.485 0 3.992a50.763 50.763 0 01-5.479 9.473c-1.3 1.671-2.043 1.671 0-3.436 2.043-5.108 2.507-6.315 3.065-8.637.557-2.32 1.485-4.085 2.414-1.392h0z" fill="#2B98B3"/>
    <path d="M167.544 89.883a48.466 48.466 0 0011.422 11.422c3.529 2.414 2.321 1.114.743-1.672-1.578-2.786-4.457-4.179-7.707-7.243-3.251-3.065-7.15-6.222-4.458-2.507h0z" fill="#319BB5"/>
    <path d="M155.379 93.226a.931.931 0 00.465 1.021c8.543 4.737 20.708 10.68 25.073 12.165 4.364 1.486 1.764 0-3.715-3.622-5.48-3.621-14.859-9.471-17.83-11.236-2.971-1.764-2.971-2.136-3.993 1.672z" fill="#33A2BE"/>
    <path d="M174.602 81.246c-4.365.743-6.78.743 0 4.736 6.778 3.994 0-4.736 0-4.736z" fill="#1E6470"/>
    <path d="M186.673 67.41l.93 3.9 2.135.279-1.392-2.972-.093-2.043-1.58.835h0z" fill="#90423B"/>
    <path d="M179.988 71.03l2.507.373c-.929 1.393-2.043 1.207-2.507-.372zM189.275 70.103l2.507-.743c-.28 1.67-1.394 2.043-2.507.743z" fill="#5E221D"/>
    <path d="M181.66 71.496c.41 0 .742-.582.742-1.3 0-.718-.333-1.3-.743-1.3s-.742.582-.742 1.3c0 .718.332 1.3.742 1.3zM190.667 69.824c.41 0 .743-.582.743-1.3 0-.718-.333-1.3-.743-1.3s-.743.582-.743 1.3c0 .718.333 1.3.743 1.3z" fill="#201E2F"/>
    <path d="M193.081 63.696c.726.5 1.41 1.06 2.043 1.671.743 2.043 1.022 4.921 1.858 7.336.835 2.414 1.671 6.036 1.3 8.172-.372 2.136-.093 2.228 1.207 4.922 1.3 2.693 3.714 5.386 2.879 8.636 1.392 2.043 1.021 3.436.556 5.386-.463 1.95-1.949 7.244-5.57 7.058a9.933 9.933 0 01-10.773 3.993c-5.757-1.486-11.515-5.387-10.773-10.587-1.949-1.485-1.485-5.386-1.3-7.522a12.538 12.538 0 00-.742-5.664c-.743-1.857-.743-3.715-.186-7.615a32.452 32.452 0 01-1.393-5.014 42.977 42.977 0 012.786-3.715l1.393 3.064a34.634 34.634 0 011.672 3.715c.466-.206.982-.27 1.485-.185a4.557 4.557 0 013.715-2.694l5.572 1.114.928-2.6c2.6-.279 3.994-.37 4.83.28a8.545 8.545 0 00.184-4.644c-.463-1.672-1.67-5.107-1.67-5.107h0z" fill="#fff"/>
    <path d="M189.275 77.996l-2.137-.464c-1.114-.278-.928-.371-3.9-2.88l5.572 1.115.928-2.6c2.6-.279 3.994-.37 4.83.28a7.71 7.71 0 00.184-4.644c-.463-1.672-1.67-5.107-1.67-5.107.725.5 1.408 1.06 2.042 1.671.743 2.043 1.022 4.921 1.858 7.336.835 2.414 1.671 6.036 1.3 8.172-.372 2.136-.093 2.228 1.207 4.922 1.3 2.693 3.714 5.386 2.879 8.636 1.392 2.043 1.021 3.436.556 5.386-.463 1.95-1.949 7.244-5.57 7.058a9.93 9.93 0 01-10.772 3.993c-5.758-1.486-11.516-5.387-10.774-10.587 1.765 4.922 5.48 3.994 5.48 3.994a29.729 29.729 0 016.965-.651c1.3-2.321 2.878-4.642 4.271-5.57 2.693-5.295.65-10.959-.742-14.21-1.394-3.25-2.507-5.85-2.507-5.85h0z" fill="#D6DFFF"/>
    <path d="M189.275 77.996c1.392.278 1.299-.928 1.206-2.229a7.987 7.987 0 00-.743-2.6l-.928 2.6-5.572-1.113c2.972 2.507 2.786 2.6 3.9 2.878l2.137.464z" fill="#CAD5FC"/>
    <path d="M178.594 69.452l5.293-1.578a3.992 3.992 0 00-5.293 1.578h0zM187.602 67.41l5.293-1.021a3.705 3.705 0 00-2.865-.628 3.706 3.706 0 00-2.428 1.65z" fill="#CFDEFF"/>
    <path d="M184.816 72.703l1.766 1.114-2.323-.464c-.279 0-.279-.093-.186-.465.093-.37.372-.37.743-.185h0z" fill="#5E221D"/>
    <path d="M191.503 79.854a1.483 1.483 0 01-1.3 1.485c-5.665.836-8.08-.65-9.009-1.3a.932.932 0 01-.277-.836v-.185c2.97 1.022 7.429.557 8.542.37 1.115-.185.651-.463.558-.928a1.488 1.488 0 011.486 1.394h0z" fill="#DE5D70"/>
    <path d="M189.275 81.432a23.78 23.78 0 00-2.044-1.857 16.429 16.429 0 01-6.314-.557v.185a.929.929 0 00.277.836h.093c.836.65 3.065 1.95 7.988 1.393h0z" fill="#B83D50"/>
    <path d="M181.103 132.506H159.65v6.269h21.453v-6.269z" fill="#BA4E5D"/>
    <path d="M165.687 132.506l-1.671 4.458h-2.786l1.857-4.458h2.6z" fill="#D65A6B"/>
    <path d="M181.01 132.506h-12.352v6.269h12.352v-6.269z" fill="#AD4452"/>
    <path d="M184.577 55.351c.971-.464 1.094-2.229.274-3.94-.82-1.712-2.272-2.722-3.243-2.256-.971.465-1.094 2.23-.274 3.94.82 1.712 2.272 2.722 3.243 2.256z" fill="#FF9CCD"/>
    <path d="M117.584 128.793l-6.5 5.107a.927.927 0 01-1.393-.186l-7.337-9.936a1.11 1.11 0 01.186-1.393l6.5-5.015a.931.931 0 011.393.186l7.337 9.843a.938.938 0 01.225.74.943.943 0 01-.411.654h0zM127.984 128.885l-7.8-.557a.651.651 0 01-.65-.65l.557-13.001a.742.742 0 01.743-.65l7.8.557a.742.742 0 01.65.743l-.556 12.908a.639.639 0 01-.223.495.632.632 0 01-.243.135.634.634 0 01-.278.02h0z" fill="#BA4E5D"/>
    <path d="M128.109 120.143l-3.317-3.883-4.075 3.48 3.318 3.883 4.074-3.48z" fill="#AD3B4B"/>
    <path d="M128.077 127.12a.743.743 0 00.558-.835l-3.065-11.887-4.736-.37a.74.74 0 00-.743.649l-.557 13.001a.36.36 0 00.093.278c.054.068.13.113.216.13a.363.363 0 00.248-.037l7.986-.929h0z" fill="#872C39"/>
    <path d="M127.055 127.027l-7.893.93a.55.55 0 01-.661-.23.565.565 0 01-.082-.235l-3.157-12.63a.56.56 0 01.29-.691.555.555 0 01.267-.05l7.893-1.022a.739.739 0 01.743.463l3.158 12.63a.663.663 0 01-.081.55.654.654 0 01-.477.285h0z" fill="#BA4E5D"/>
    <path d="M124.78 118.942l-4.084-3.067-3.217 4.285 4.085 3.066 3.217-4.284h0zM112.662 122.663h-5.108v5.359h5.108v-5.359z" fill="#AD3B4B"/>
    <path d="M122.32 125.263l-5.201-11.329-1.3.186a.555.555 0 00-.583.472.56.56 0 00.026.27l3.157 12.537 3.53-1.207a.636.636 0 00.243-.144.646.646 0 00.128-.785h0zM110.433 117.556a.94.94 0 00-.654-.412.939.939 0 00-.74.226l-2.413 1.857 5.015 10.958a.652.652 0 00.836.372l5.107-1.672a.928.928 0 00.186-1.393l-7.337-9.936h0z" fill="#872C39"/>
    <path d="M121.391 126.75l-8.45 2.786c-.372.093-.743 0-.836-.372l-5.48-11.794a.645.645 0 01.05-.52.65.65 0 01.416-.316l8.45-2.879a.74.74 0 01.835.372l5.386 11.794a.66.66 0 01.078.271.657.657 0 01-.449.657z" fill="#BA4E5D"/>
    <path d="M102.354 133.435c-1.207-1.485-2.136-2.693-3.807-3.157-3.343-.835-7.244-1.393-11.794-2.136a5.569 5.569 0 00-3.25.372c-3.157 1.3-4.272 3.436-2.229 10.307h19.037a13.454 13.454 0 001.578-1.485c1.394-1.765 1.487-2.507.465-3.901h0z" fill="#FF8FB1"/>
    <path d="M124.177 121.827c3.157 1.579 7.522 4.18 7.522 4.18a5.47 5.47 0 012.693 4.457v.836a5.567 5.567 0 01-3.245 5.347c-.673.308-1.4.48-2.141.503h-.65a5.019 5.019 0 01-3.715-2.135 26.802 26.802 0 00-3.436-3.901c-.65-.65-2.414-1.671-2.972-2.322-.556-.65-1.485-2.971 0-5.293 1.487-2.321 2.323-3.436 5.944-1.672h0z" fill="#F57FB5"/>
    <path d="M102.506 87.78c.807-.633.715-2.095-.204-3.264-.92-1.168-2.32-1.602-3.126-.968-.806.634-.714 2.096.206 3.265.92 1.17 2.318 1.603 3.124.968zM119.546 83.69c.256-1.36-.311-2.61-1.268-2.791-.958-.182-1.943.775-2.2 2.136-.256 1.36.31 2.61 1.268 2.791.958.18 1.943-.775 2.2-2.136z" fill="#1E1C2B"/>
    <path d="M192.152 150.151h-16.714v98.203h16.714V150.15z" fill="#EB9151"/>
    <path d="M192.152 150.151h-11.05v98.203h11.05V150.15z" fill="#AD482C"/>
    <path d="M192.152 150.151h-16.714v17.83h16.714v-17.83z" fill="#AD482C"/>
    <path d="M329.033 138.821H51.187c-.872 0-1.58.707-1.58 1.58v12.517c0 .872.708 1.578 1.58 1.578h277.846c.872 0 1.579-.706 1.579-1.578V140.4c0-.873-.707-1.58-1.579-1.58z" fill="#EB9151"/>
    <path d="M329.033 138.821H185.931c-.872 0-1.579.707-1.579 1.58v12.517c0 .872.707 1.578 1.579 1.578h143.102c.872 0 1.579-.706 1.579-1.578V140.4c0-.873-.707-1.58-1.579-1.58z" fill="#C45F3D"/>
    <path d="M142.47 32.586l3.808-1.671c.093-.093.093-.186 0-.186l-3.807-1.672-1.765-3.9c0-.093-.093-.093-.093 0l-1.764 3.807-3.807 1.765c-.093 0-.093.093 0 .186l3.807 1.671 1.764 3.808h.093l1.765-3.808z" fill="#6ADBC6"/>
    <path d="M399.794 216.223l3.901-1.671v-.186l-3.9-1.671-1.672-3.808h-.186l-1.671 3.808h-.093l-3.807 1.671c-.093 0-.093.093 0 .186l3.807 1.671h.093l1.671 3.9h.186l1.671-3.9z" fill="#133DBD"/>
    <path d="M18.499 140.678l3.807-1.764c.093 0 .093-.093 0-.093l-3.807-1.764h-.093l-1.672-3.807h-.185l-1.672 3.807-3.807 1.764c-.093 0-.093.093 0 .093l3.807 1.764 1.672 3.808h.185l1.672-3.808h.093z" fill="#FFB869"/>
    <path d="M184.91 51.437c-.837-1.764-2.322-2.786-3.25-2.321a.93.93 0 00-.465.557c1.579-.093.743 1.764 3.714 1.764h0z" fill="#FFEBF5"/>
    <path d="M180.917 50.88a4.92 4.92 0 00.556 2.135l.28.558c.37 0 .928-.186 1.299.28.372.463.558 1.206 1.672 1.392a1.864 1.864 0 00.65-1.672h-.186c-1.95 0-3.157-2.043-4.271-2.693h0z" fill="#FF70B7"/>
    <path d="M175.066 61.373c.513 0 .928-.54.928-1.206 0-.668-.415-1.208-.928-1.208-.513 0-.929.54-.929 1.208 0 .667.416 1.206.929 1.206zM170.052 69.452c.512 0 .928-.54.928-1.206 0-.668-.416-1.208-.928-1.208-.514 0-.93.54-.93 1.208 0 .667.416 1.206.93 1.206z" fill="#F7D197"/>
    <path d="M165.78 2.87l-2.043 6.315-4.922 2.693 6.965-9.008z" fill="#179DE0"/>
    <path d="M172.187 74.468a32.915 32.915 0 001.114 4.271c.093-1.207.558-2.507 1.3-2.693.744-.186.837-2.23 1.765-2.23l-1.393-3.063a42.979 42.979 0 00-2.786 3.715h0z" fill="#A8C3FF"/>
    <path d="M175.252 99.726c.135.23.327.422.556.557l-.556-.557zM181.752 84.497c2.321 1.3 3.343 2.135 3.343 4.364a11.326 11.326 0 01-3.343-4.364z" fill="#D6DFFF"/>
    <path d="M192.152 84.868c2.323 2.322 3.251 3.993 3.344 5.293a8.916 8.916 0 01-2.6-1.486l-.744-3.807h0z" fill="#fff"/>
    <path d="M174.602 81.246c.148 1.455.557 2.87 1.206 4.18-1.671-1.208-1.671-2.23-1.206-4.18zM180.174 92.297c1.392 2.136 4.735 2.136 4.735 2.136-3.064 1.579-4.364 1.672-4.735-2.136z" fill="#D6DFFF"/>
    <path d="M195.217 74.746a6.503 6.503 0 011.022 3.993s2.6-2.23-1.022-3.993zM199.489 93.876c.558 1.95 0 3.714-1.207 4.18a9.38 9.38 0 011.207-4.18z" fill="#C7D3FC"/>
    <path d="M183.145 66.203a60.733 60.733 0 016.221-1.487c-3.25-.278-5.2.28-6.221 1.487zM177.202 70.474c.557-.186 1.208-.557 1.764 0h-1.764zM177.48 71.682c.372-.465.837-1.022 1.58-.743l-1.58.743zM193.639 67.038c-.558.186-1.3.28-1.394 1.115l1.394-1.115zM194.196 68.153c-.557-.093-1.3-.279-1.765.464l1.765-.464z" fill="#5E221D"/>
    <path d="M185.281 70.288a4.088 4.088 0 001.208 2.322c.37.278.091-.372-.465-1.486-.557-1.114-.929-1.579-.743-.836z" fill="#A25751"/>
    <path d="M181.938 78.367a1.017 1.017 0 00-1.022.65c2.971 1.022 7.43.558 8.543.372 1.115-.186.651-.464.558-.929h-.093a33.11 33.11 0 01-7.986-.093z" fill="#D6DFFF"/>
    <path d="M195.124 65.367a16.06 16.06 0 00-2.043-1.671s.743 2.135 1.3 3.9l1.579.928c-.2-1.071-.48-2.127-.836-3.157h0z" fill="#A8C3FF"/>
    <path d="M159.465 124.15c-8.45 3.806-11.515 4.085-12.815 4.364-1.3.278-2.879.65 0 2.6 2.88 1.95 3.343 2.228 7.893-1.3 4.55-3.53 8.729-7.337 4.922-5.665h0z" fill="#1A3E9C"/>
    <path d="M162.158 118.67a78.25 78.25 0 00-3.53-10.494c-.835-1.764-.37-2.6.373-3.064.742-.464 1.021-.092 1.578 1.95l2.415 11.05-.836.559h0z" fill="#1E397D"/>
    <path d="M151.571 107.155c3.065 3.807 4.737 5.572 5.665 7.058.929 1.486.65 1.114-3.714.743-4.365-.372-6.872-.28-6.501-1.857a58.703 58.703 0 012.23-5.944c.37-1.02 1.207-1.393 2.32 0z" fill="#1A3E9C"/>
    <path d="M194.196 136.5l-6.594-2.043c-2.042-.65 1.208.835 3.715 1.486 2.507.65 2.879 1.3 2.879 1.765a1.578 1.578 0 01-.836 1.113h1.671l.28-.743c.278-.835-.094-1.3-1.115-1.578h0z" fill="#5E221D"/>
    <path d="M181.01 133.807h-19.688v.455h19.688v-.455zM181.103 135.664H159.65v.456h21.453v-.456zM181.103 137.708H159.65v.454h21.453v-.454z" fill="#913945"/>
    <path d="M261.614 132.229h-22.659v6.63h22.659v-6.63z" fill="#BA4E5D"/>
    <path d="M245.363 132.229l-1.764 4.55h-2.971l1.949-4.55h2.786z" fill="#D65A6B"/>
    <path d="M261.614 133.528h-20.801v.483h20.801v-.483zM261.614 135.478h-22.659v.483h22.659v-.483zM261.614 137.708h-22.659v.482h22.659v-.482z" fill="#913945"/>
    <path d="M159.743 172.903c-7.057 31.015-5.85 27.951-4.643 31.944 1.208 3.993 1.95 4.364 3.437-3.993 1.485-8.358 2.32-15.415 3.25-23.31.928-7.892.371-15.413-2.044-4.641z" fill="#1A40A1"/>
    <path d="M199.954 242.271a93.347 93.347 0 0112.35-3.807c2.136-.557 2.972-.65 3.808-6.501.835-5.85 1.392-12.35 1.485-13.744.093-1.392-4.457 6.037-7.986 11.051-3.529 5.015-14.766 14.952-9.657 13.001z" fill="#1A3578"/>
    <path d="M107.275 91.183l2.416 1.578a3.157 3.157 0 004.55-1.3l.836-1.578" stroke-width="2" stroke-miterlimit="10" stroke-linecap="round" stroke="#BA4173"/>
    <path d="M77.838 91.461c-2.228-.557-4.922-1.3-6.036-1.393a9.279 9.279 0 003.9 2.786l-.371.372c2.786 0 4.829-.186 5.85-.28 1.022-.092 1.208-.463-3.343-1.485h0z" fill="#F071AB"/>
    <path d="M75.745 79.393c1.461-1.583 2.156-3.317 1.553-3.874-.603-.557-2.276.276-3.737 1.86-1.46 1.582-2.156 3.317-1.553 3.872.603.557 2.276-.275 3.737-1.858z" fill="#FFA1BD"/>
    <path d="M75.33 128.7l5.108-2.136c1.115-.372.186-.743-2.135-1.765-2.322-1.021-2.88-1.393-3.065.65-.186 2.043-.836 3.622.093 3.25z" fill="#FAD596"/>
    <path d="M81.367 127.678c-5.2 1.393-5.293 2.135-5.386 2.971-.093.837 0 1.765 1.95.279a28.984 28.984 0 015.108-3.064c.928-.465.464-.744-1.672-.186h0z" fill="#F7D08D"/>
    <path d="M88.146 127.585c.929-5.2.836-6.593 1.3-6.686.464-.093 1.3 1.114 2.043 2.786.743 1.671-3.343 3.9-3.343 3.9z" fill="#172E5C"/>
    <path d="M83.503 128.514c-3.157 1.3-4.272 3.436-2.229 10.307h.557c-1.578-10.4 2.88-10.4 4.922-10.679a5.569 5.569 0 00-3.25.372zM99.01 130.464c1.208.743.651 2.042-.37 4.272l-2.044 4.085h3.715a13.366 13.366 0 001.578-1.485c1.394-1.765 1.487-2.507.465-3.9a8.449 8.449 0 00-3.343-2.972z" fill="#F278B0"/>
    <path d="M134.392 130.464a5.47 5.47 0 00-2.693-4.457s-3.53-2.136-6.501-3.715a24.278 24.278 0 00-4.364 5.664 8.938 8.938 0 00-.743 2.23c.42.207.797.49 1.114.835a26.802 26.802 0 013.436 3.9 5.02 5.02 0 002.6 1.95 5.39 5.39 0 003.808-.185 5.572 5.572 0 003.343-5.572v-.65h0z" fill="#F073AB"/>
    <path d="M118.175 120.202l-4.563-2.294-2.407 4.787 4.563 2.294 2.407-4.787z" fill="#AD3B4B"/>
    <path d="M140.706 185.067l2.322 2.414a2.326 2.326 0 01.464 2.415l-1.114 2.508-1.672-7.337h0zM105.418 185.067l-.464 6.129a2.417 2.417 0 00.836 2.136l2.6 2.414-2.972-10.679z" fill="#1C1B29"/>
    <path d="M128.635 187.574l13.558 1.208-4.365 2.229a5.76 5.76 0 01-6.407-.836l-2.786-2.6zM117.305 188.782l-7.986 4.086s5.943 5.014 7.986-4.086z" fill="#13121C"/>
    <path d="M62.237 106.97a3.436 3.436 0 100-6.872 3.436 3.436 0 000 6.872z" fill="#6E2B17"/>
    <path d="M110.061 138.821l4.18 3.622 2.693-3.622h-6.873z" fill="#DB704C"/>
    <path d="M237.284 81.804h-.185a3.244 3.244 0 00-2.972 2.414l-3.343 12.537-1.114 1.207a2.13 2.13 0 00-.558 1.857l.279 2.507c1.021 5.387.928.464 4.178-.371 3.251-.836.837-2.693 1.3-3.9a27.207 27.207 0 004.086-10.587l2.786-5.107a12.25 12.25 0 00-4.457-.557h0z" fill="#244AB0"/>
    <path d="M237.006 82.733a1.665 1.665 0 00-1.354.769 1.667 1.667 0 00-.132 1.552c2.043 3.528 8.172 7.522 12.815 9.007 4.643 1.486 4.736.28 1.764-3.064-2.972-3.343-5.85-8.822-13.093-8.264h0z" fill="#242236"/>
    <path d="M248.335 94.061a30.928 30.928 0 01-11.608-7.336l-1.207-1.671a1.67 1.67 0 01.714-2.105c.235-.134.5-.208.772-.216h.093c6.222-.465 8.822 2.97 11.7 6.5.406.631.873 1.223 1.393 1.764 2.88 3.343 3.808 4.829-1.857 3.065h0z" fill="#242236"/>
    <path d="M248.335 94.061h-.28a28.425 28.425 0 01-9.007-5.107l-1.857-1.672-.464-.557a10.122 10.122 0 01-1.207-1.578 1.67 1.67 0 01.714-2.105c.235-.134.5-.208.772-.217h.836a7.26 7.26 0 012.507.186c3.993.65 6.129 3.435 8.45 6.314l.279.465 1.021 1.207c2.972 3.343 3.9 4.829-1.764 3.064h0z" fill="#242236"/>
    <path d="M217.783 123.778c.204-6.29.018-12.585-.557-18.851-.372-3.158.929-1.579 2.228 1.207 1.301 2.786.557 7.336 0 12.165-.556 4.829-1.764 7.615-1.67 5.479h0zM215.369 113.284c-4.643 13.93-16.344 25.537-16.344 25.537h5.107a32.591 32.591 0 0011.237-18.758c1.3-6.686 1.671-11.98 0-6.779zM228.927 105.205a107.086 107.086 0 00-.279 16.901c.37 4.458-1.393 1.765-2.6-.65-1.208-2.415-.279-3.157.464-7.615.743-4.457.836-5.665 1.207-7.986.372-2.322 1.393-3.621 1.208-.65h0z" fill="#152D69"/>
    <path d="M233.012 106.041c-.092 5.572 1.208 9.844 3.715 9.75a11.146 11.146 0 005.572-1.95c1.115-.742.464-.928-1.578-1.857a12.431 12.431 0 01-4.737-4.271c-.928-1.672-2.879-5.48-2.972-1.672z" fill="#173275"/>
    <path d="M250.192 84.775l-1.114 4.922-.93 4.086c0 .093-10.864-7.058-10.864-7.244.107-.266.169-.548.186-.835.114-.392.176-.8.186-1.207.093-.279.093-.65.186-.929v-.835c.121-.986.153-1.981.093-2.972v-.929a947.342 947.342 0 01-.372-10.586c10.215-.465 13.558 2.878 13.558 2.878.557 9.1-.28 11.237-.929 13.65h0z" fill="#7A2F28"/>
    <path d="M238.12 82.547a7.884 7.884 0 00-2.786-6.222c-1.486-1.022-1.672-1.671-2.507-3.065-.836-1.392-1.207-1.857-1.672-2.414a1.114 1.114 0 01.28-1.486c.463-.464 1.392-.65 2.6.092 1.207.743 3.528 2.693 5.2 3.808 1.67 1.115 3.342 7.522-1.115 9.287h0z" fill="#7A2F28"/>
    <path d="M237.935 74.746c-.186-3.622-.836-10.494-.929-11.979a26.732 26.732 0 01-.093-4.643c.093-.743.093-1.3 1.115-1.3 1.02 0 1.671 1.207 1.949 3.528.279 2.322.372 3.621.372 3.621a40.666 40.666 0 011.392 5.665c.093 1.95-3.806 5.108-3.806 5.108h0z" fill="#7A2F28"/>
    <path d="M241.463 68.896c.093-3.065.836-10.494 1.022-12.166.185-1.671.464-2.042 1.392-1.95.93.093 1.858.279 1.486 5.479-.278 2.693-.278 4.365-.278 4.365s0 4.55-.093 5.85c-.093 1.3-3.529-1.578-3.529-1.578z" fill="#7A2F28"/>
    <path d="M244.806 69.267c.372-3.25 1.115-8.264 1.3-9.75.186-1.486.557-2.322 1.58-2.043 1.02.278 1.578 1.02 1.299 3.714-.278 2.693-.464 4.55-.557 5.294-.093.742-.28 4.828-.28 4.828l-3.342-2.043z" fill="#7A2F28"/>
    <path d="M247.778 71.032c.65-2.879 1.579-7.151 1.857-8.544.278-1.392.65-1.95 1.672-1.671 1.021.279 1.392 1.021.928 3.435-.34 1.5-.59 3.02-.742 4.55l-.651 4.272-3.064-2.042z" fill="#7A2F28"/>
    <path d="M237.656 72.053c2.228 1.393 4.736 1.95 5.665 3.436a10.856 10.856 0 011.857 3.529c.185 1.02.464.65 1.393-.65.928-1.3 1.764-2.322 2.136-3.53.37-1.206-.093-2.042-3.9-2.6l-7.151-1.021v.836h0z" fill="#5E221D"/>
    <path d="M240.442 82.175c0 .25-.03.5-.093.743-.186 1.114-.65 3.25-1.022 5.015-.093.278-2.043-1.208-2.043-1.394.107-.266.169-.548.186-.835.114-.392.176-.8.186-1.207.093-.279.093-.65.186-.929v-.835c.077-.616.107-1.237.093-1.858a8.832 8.832 0 00-1.208-3.065l1.208 1.022c2.32 2.043 2.507 2.321 2.507 3.343h0z" fill="#91423B"/>
    <path d="M236.541 84.497l-.65 1.114.836 1.114a30.928 30.928 0 0011.608 7.337h.557c-9.286-4.923-12.35-9.565-12.35-9.565h0z" fill="#242236"/>
    <path d="M238.491 65.181a3.803 3.803 0 001.95-.372s-1.486-1.764-1.95.372zM238.213 61.652a3.436 3.436 0 001.67-.186s-1.392-1.021-1.67.186zM242.949 64.345c.623.228 1.295.29 1.95.186 0 0-1.3-1.58-1.95-.186zM239.884 68.71c3.221.002 6.43.376 9.565 1.114 1.765.557 1.672 1.115-1.021.557a74.16 74.16 0 00-7.43-1.206c-1.485-.186-2.785-.465-1.114-.465zM243.599 60.074c.557-.744 1.3-.093 1.393.464.093.557-1.207.742-1.393-.464z" fill="#5E221D"/>
    <path d="M220.29 123.592a4.457 4.457 0 100-8.915 4.457 4.457 0 000 8.915z" fill="#F7E9CB"/>
    <path d="M224.747 120.713a2.229 2.229 0 10.001-4.458 2.229 2.229 0 000 4.458z" fill="#F7E9CB"/>
    <path d="M225.583 118.02h-13.186a28.039 28.039 0 000 20.894h13.186a28.971 28.971 0 000-20.894z" fill="#DB7B47"/>
    <path d="M216.112 118.02a59.726 59.726 0 00-.558 20.894h.65l.65-20.894h-.742zM221.962 118.02c2.136 7.987.928 20.894.928 20.894h-.928l-.836-20.894h.836z" fill="#C2612C"/>
    <path d="M211.375 135.757c-.371-5.572 1.672-13.558 3.436-17.737h-2.414a28.319 28.319 0 00-1.022 17.737z" fill="#FFAE82"/>
    <path d="M219.361 118.02c2.786 2.508 3.622 0 3.622 0l-2.507-.929-1.115.929h0z" fill="#F7E9CB"/>
    <path d="M34.935 213.39c3.344-7.985 19.13-9.379 11.515 8.45H36.421l-1.486-8.45z" fill="#1A606E"/>
    <path d="M31.592 221.84s-9.564-11.607-5.2-18.571c4.365-6.965 14.858-2.508 13.28 18.572h-8.08z" fill="#216C7A"/>
    <path d="M28.342 204.197c-6.129-7.707-16.53-7.43-16.437-.928.093 6.5 16.437 2.6 16.437 2.6v-1.672zM36.514 180.238c-7.522 1.3-3.064 10.308-5.479 22.474l3.993 2.693c8.637-11.794 9.008-26.467 1.486-25.167h0z" fill="#216C7A"/>
    <path d="M22.694 196.912c.416-2.009-.387-3.874-1.793-4.165-1.406-.29-2.884 1.102-3.3 3.11-.416 2.009.387 3.873 1.793 4.165 1.406.291 2.884-1.101 3.3-3.11z" fill="#216C7A"/>
    <path d="M42.922 211.069c0-13 1.3-18.387 4.921-18.294 3.622.092-2.507 18.851-2.507 18.851l-2.414-.557z" fill="#1A606E"/>
    <path d="M38.65 185.16c3.436-6.593 9.472-5.014 7.336 0a4.546 4.546 0 01-4.77 3.062 4.553 4.553 0 01-1.916-.648l-.65-2.414zM44.965 216.548c5.943-11.515 11.515-20.151 16.25-13.836 4.737 6.314-13.372 21.637-13.372 21.637h-2.878v-7.801h0z" fill="#216C7A"/>
    <path d="M55.458 203.732c-2.693-5.478-4.457-9.936-2.693-14.022 1.765-4.085 10.308-3.621 5.386 13.559l-2.693.463z" fill="#216C7A"/>
    <path d="M37.814 223.698c2.322-8.729 8.45-9.379 10.308-6.778 1.857 2.6-3.529 6.5-3.529 6.5l-6.779.278z" fill="#2A858C"/>
    <path d="M52.765 248.4h-23.03L22.4 235.12l1.3-13.28h35.102l1.486 13.28-7.522 13.28z" fill="#F77C7C"/>
    <path d="M22.399 235.12h10.122l1.3-13.28H23.7l-1.3 13.28z" fill="#FF9191"/>
    <path d="M20.913 192.867c-1.393-.278-2.879 1.115-3.343 3.158a5.292 5.292 0 00.186 2.414c-2.6-.093-4.736.929-5.48 2.88a12.635 12.635 0 016.316-.743s-.558-4.83 2.507-7.616l-.186-.093zM38.65 185.16l6.593-4.085c-1.671-.837-4.55.185-6.593 4.085zM31.871 195.19c.836-6.501 1.486-11.144 4.643-14.951-5.85 1.02-4.457 6.685-4.643 14.95zM52.765 189.71a9.843 9.843 0 00-.371 6.13l3.993-8.173a3.442 3.442 0 00-3.622 2.043h0zM28.992 206.426l-.65 1.486 1.95-.372-1.3-1.114zM37.814 190.453l-1.857 2.322 2.693.093-.836-2.415zM54.901 206.426l-1.393 1.486 2.043.464-.65-1.95z" fill="#2A858C"/>
    <path d="M36.421 211.997v2.137l1.858-1.022-1.858-1.115z" fill="#1A606E"/>
    <path d="M31.685 177.73a4.406 4.406 0 003.624 3.289 4.406 4.406 0 004.92-5.423l-8.544 2.135h0z" fill="#FFB869"/>
    </g>
</svg>