<svg data-name="ALL-tab Card Party" xmlns="http://www.w3.org/2000/svg" width="415" height="250" viewBox="0 0 415 250" fill="none">
    <g stroke="null">
    <path fill="#E66CA5" d="M127.174 80.469l5.403-34.563a4.845 4.845 0 015.03-4.192 4.93 4.93 0 014.627 3.608c.188.675.23 1.382.125 2.075l-5.31 35.773-9.875-2.701z"/>
    <path fill="#F085B7" d="M132.95 74.134l4.658-21.706a.747.747 0 01.838-.56c.373.094.652.373.559.746l-2.981 21.24-3.074.28z"/>
    <path fill="#FFABBB" d="M132.577 45.905a4.937 4.937 0 011.77-3.167c-.839 5.683-2.422 15.744-4.658 32.513l-1.77.28 4.658-29.626z"/>
    <path fill="#133DBD" d="M200.863 10.41l-10.061-5.123-6.894 9.036 10.434 6.521 6.521-10.433z"/>
    <path fill="#33BEB5" d="M202.726 31.465l20.123 37.73a4.474 4.474 0 01-.745 5.31l-.28.28a28.035 28.035 0 01-26.27 8.01 3.074 3.074 0 01-2.423-2.98l-.932-45.555c-.093-17.235.746-21.055 10.527-2.795z"/>
    <path fill="#33A2BE" d="M221.824 74.785a5.122 5.122 0 00.839-5.869l-19.937-37.45c-4.75-8.85-7.36-12.577-8.85-11.925 3.82 26.458 11.645 60.927 11.645 60.927l5.404 1.304a27.759 27.759 0 0010.9-6.987z"/>
    <path fill="#F7E5BC" d="M216.98 58.202c-1.211-2.236-1.77-2.981-2.33-1.864-8.29-13.228-12.296-10.62-12.296 2.236 0 0-5.776-3.074-5.124 8.292a3.916 3.916 0 00-4.379 1.77l.28 11.179a3.075 3.075 0 001.863 2.795 32.417 32.417 0 0027.482-8.571 4.568 4.568 0 00.373-4.844l-5.87-10.993z"/>
    <path fill="#F7D197" d="M222.849 69.195l-5.87-10.993c-1.21-2.236-1.77-2.981-2.328-1.864-8.291-13.228-12.297-10.62-12.297 2.236a3.453 3.453 0 00-1.584-.372c1.584.372 1.677 1.956 2.609 5.403.931 3.447 1.583 6.521 1.583 6.521l14.72 6.242a21.757 21.757 0 002.794-2.33 4.568 4.568 0 00.373-4.843z"/>
    <path fill="#242236" d="M222.197 69.661c-7.08-7.639-13.415-10.34-27.762 10.62a1.67 1.67 0 00-.13 1.52 1.674 1.674 0 001.154.996 28.323 28.323 0 0026.365-8.012l.28-.28.652-.838a3.36 3.36 0 00-.56-4.006z"/>
    <path fill="#9E4B34" d="M220.986 76.182l-1.863-9.502c-5.217-4.285-10.714-4.378-19.937 7.173l3.82 9.037a36.8 36.8 0 0017.98-6.708z"/>
    <path fill="#7A2F28" d="M221.452 75.81l-6.801-.56-.932 2.61-1.677-3.634c-1.583-3.726-1.676-3.633-3.074-.466-1.397 3.168-7.639 2.05-7.639 2.05l-1.304-2.888c8.105-9.782 13.229-10.34 17.98-7.08l3.447 9.968z"/>
    <path fill="#3EE8DD" d="M179.623 95.373c-4.192 3.168-5.03 2.795-4.006 8.664 1.025 5.87 4.006-8.664 4.006-8.664z"/>
    <path fill="#274BA3" d="M252.66 126.115c1.211 11.739-2.236 11.739-7.546 14.44H167.42a29.07 29.07 0 01-2.236-7.453c-.745-5.59-1.397-6.52 2.608-13.694.28-5.497 2.143-8.85 6.335-14.254a82.663 82.663 0 017.919-10.434l51.89 1.864a46.114 46.114 0 016.055 4.844c2.888 2.702 4.565 5.124 4.845 6.987.102.773.164 1.55.186 2.329 6.987 2.981 6.987 9.595 7.64 15.371z"/>
    <path fill="#1E397D" d="M234.215 114.657c5.496-5.776 6.428-7.36 6.987-8.105.559-.746-.373-1.398-1.212-2.05-.838-.652-.745-1.025-2.701 2.33-1.957 3.353-6.335 11.178-3.074 7.825z"/>
    <path fill="#1E397D" d="M236.264 112.329c8.85.559 10.713.745 12.11 2.329 1.398 1.583 1.585 2.888 1.957 4.285.373 1.397-.28 1.397-5.03-.932-4.752-2.329-10.248-4.378-10.248-4.378l1.211-1.304z"/>
    <path fill="#1A3578" d="M188.473 114.75l-1.304 5.777-15.279 1.49a1.863 1.863 0 00-1.677 1.863v1.491a1.307 1.307 0 001.677 1.304l15.279-4.937 13.694 2.142a1.116 1.116 0 01.932 1.305l-2.05 15.371h37.264c7.08-8.012-.093-23.756-3.167-29.811l-31.674-4.286-15-9.036 1.584 9.223a19.744 19.744 0 01-.279 8.105z"/>
    <path fill="#7A2F28" d="M201.236 129.47c3.82 2.236 6.707 3.913 8.664 4.844 1.956.932 7.453 2.609 9.13 3.168 1.676.559 2.98 1.397 1.956 3.074h-21.054l1.304-11.086z"/>
    <path fill="#5E221D" d="M203.938 131.054l-2.702-1.584-1.304 11.086h1.863l2.143-9.502z"/>
    <path fill="#3EE8DD" d="M194.808 83.075c-3.168.932-3.447 0-5.59 6.056l4.472.28 1.118-6.336z"/>
    <path fill="#33BEB5" d="M190.616 88.76l1.21-3.167a4.288 4.288 0 012.982-2.516l4.751-.931 18.818-.373 10.248 5.217a2.886 2.886 0 011.584 2.143l.372 2.422 4.938 3.26a1.675 1.675 0 01.745 1.677c-1.304 11.366-12.95 28.694-29.159 20.961-12.11-5.776-23.29-14.16-28.693-18.445l-2.05 2.794c-.559-2.701-.093-3.726 1.677-5.123a11.069 11.069 0 001.584-1.305c.163-.449.257-.92.28-1.397.465-2.143 0-2.702 2.515-3.26l8.198-1.957z"/>
    <path fill="#37CFC5" d="M194.342 86.152c2.702 1.77 3.913 2.701 5.962 3.912 2.05 1.211 3.075 3.727.187 2.609a52.614 52.614 0 01-6.801-3.26c-1.677-1.026-1.025-1.398-.839-2.423.187-1.025.466-1.49 1.491-.838z"/>
    <path fill="#33A2BE" d="M235.519 94.815l-4.938-3.26-.372-2.422a2.876 2.876 0 00-.53-1.265 2.871 2.871 0 00-1.054-.878l-10.248-5.217h-2.888l-11.831 25.526c1.025 5.59 2.702 6.335 4.1 7.639 1.396 1.304 1.396 1.397.93 3.074 15.372 5.963 26.365-10.62 27.576-21.613a1.67 1.67 0 00-.745-1.584z"/>
    <path fill="#2B98B3" d="M228.998 89.784c.559 1.397.931 1.49 0 4.006a50.023 50.023 0 01-5.497 9.409c-1.304 1.677-1.956 1.677 0-3.447 1.956-5.124 2.515-6.242 3.074-8.57.56-2.33 1.491-4.007 2.423-1.398z"/>
    <path fill="#319BB5" d="M192.572 91.927a47.151 47.151 0 0011.366 11.273c3.446 2.422 2.329 1.118.745-1.677s-4.472-4.1-7.64-7.173c-3.167-3.075-7.173-6.149-4.471-2.423z"/>
    <path fill="#33A2BE" d="M180.554 95.187a.75.75 0 00.123.852c.071.074.156.133.25.173a247.103 247.103 0 0024.967 12.11c4.472 1.584 1.77-.092-3.727-3.633-5.496-3.54-14.719-9.409-17.7-11.179-2.981-1.77-2.981-2.05-3.913 1.677z"/>
    <path fill="#1E6470" d="M199.652 83.263c-4.378.745-6.8.652 0 4.658s0-4.658 0-4.658z"/>
    <path fill="#66251F" d="M211.67 69.754l.745 3.353c.093.093.186.28.373.28l1.397.186-1.211-2.795v-.186l.28-1.956-1.305.745-.28.372z"/>
    <path fill="#5E221D" d="M204.962 73.108l2.516.373c-.932 1.397-2.05 1.21-2.516-.373zM214.185 72.176l2.515-.746c-.279 1.677-1.397 1.957-2.515.746z"/>
    <path fill="#000" d="M206.64 73.573c.41 0 .744-.584.744-1.304 0-.72-.333-1.304-.745-1.304s-.745.584-.745 1.304c0 .72.333 1.304.745 1.304zM215.583 71.897c.411 0 .745-.583.745-1.304 0-.72-.334-1.304-.745-1.304s-.746.584-.746 1.304c0 .72.335 1.304.746 1.304z"/>
    <path fill="#fff" d="M218.005 65.84l2.05 1.584c.744 2.05 1.024 4.938 1.77 7.36.745 2.422 1.77 6.056 1.303 8.105-.465 2.05-.093 2.236 1.212 4.844 1.304 2.609 3.726 5.404 2.888 8.571 1.397 2.143.931 3.447.558 5.403-.372 1.957-1.956 7.174-5.496 7.08a10.15 10.15 0 01-10.807 3.913c-5.682-1.397-11.365-5.31-10.713-10.434-1.863-1.49-1.49-5.403-1.211-7.546.2-1.904-.089-3.828-.838-5.59-.653-1.862-.653-3.726-.094-7.638a23.27 23.27 0 01-1.397-5.031l2.795-3.633 1.304 2.98a39.975 39.975 0 011.677 3.82c.469-.205.979-.3 1.49-.279a4.664 4.664 0 013.727-2.608l5.496 1.117.932-2.608c2.608-.373 3.913-.373 4.844.28a8.194 8.194 0 00.187-4.565c-.466-1.77-1.677-5.124-1.677-5.124z"/>
    <path fill="#D6DFFF" d="M214.185 80.001l-2.143-.466c-1.024-.28-.931-.372-3.82-2.794l5.497 1.117.932-2.608c2.608-.373 3.913-.373 4.844.28a8.194 8.194 0 00.187-4.565c-.466-1.77-1.677-5.124-1.677-5.124l1.956 1.584c.838 2.049 1.118 4.937 1.863 7.36.746 2.421 1.77 6.055 1.304 8.104-.465 2.05-.093 2.236 1.212 4.844 1.304 2.609 3.726 5.404 2.888 8.571 1.397 2.143.931 3.447.558 5.403-.372 1.957-1.956 7.174-5.496 7.08a10.15 10.15 0 01-10.807 3.913c-5.682-1.397-11.365-5.31-10.713-10.434 1.77 4.845 5.496 3.913 5.496 3.913a29.297 29.297 0 016.894-.652c1.305-2.329 2.888-4.565 4.193-5.496 2.794-5.31.652-10.993-.653-14.16L214.185 80z"/>
    <path fill="#CAD5FC" d="M214.185 80.003c1.398.28 1.304-.932 1.211-2.143a6.148 6.148 0 00-.745-2.608l-.932 2.608-5.496-1.118c2.888 2.423 2.795 2.516 3.82 2.795l2.142.466z"/>
    <path fill="#CFDEFF" d="M203.658 71.524l5.124-1.49a3.726 3.726 0 00-5.124 1.49zM212.508 69.474l5.31-1.025a3.913 3.913 0 00-5.31 1.025z"/>
    <path fill="#7A2F28" d="M209.9 75.158l1.863 1.024-2.329-.372c-.28-.093-.373-.093-.186-.466.186-.373.28-.373.652-.186z"/>
    <path fill="#DE5D70" d="M216.421 81.958a1.49 1.49 0 01-1.304 1.398c-5.59.745-8.012-.56-8.944-1.304a.932.932 0 01-.28-.839v-.186c2.982 1.025 7.454.559 8.478.372 1.025-.186.653-.465.56-.931a1.496 1.496 0 011.376.92c.076.181.114.375.114.57z"/>
    <path fill="#B83D50" d="M214.185 83.449a8.408 8.408 0 00-2.05-1.77 18.267 18.267 0 01-6.241-.652v.186a.932.932 0 00.28.838h.093c.838.653 3.074 1.957 7.918 1.398z"/>
    <path fill="#1C1B29" d="M237.01 140.557h-4.193c-6.8-8.478-3.26-24.128-.28-30.37l3.727 2.143s10.527 20.96.745 28.227z"/>
    <path fill="#F7E9CB" d="M229.37 112.143a4.472 4.472 0 100-8.943 4.472 4.472 0 000 8.943z"/>
    <path fill="#F7E9CB" d="M233.842 109.254a2.236 2.236 0 100-4.471 2.236 2.236 0 000 4.471z"/>
    <path fill="#DB7B47" d="M234.68 106.553h-13.228a28.136 28.136 0 000 20.96h13.228a29.07 29.07 0 000-20.96z"/>
    <path fill="#C2612C" d="M225.178 106.553a62.335 62.335 0 00-.559 20.96h.652l.652-20.96h-.745zM231.047 106.553c2.143 8.011.932 20.96.932 20.96h-.932l-.838-20.96h.838z"/>
    <path fill="#FF9CCD" d="M209.575 57.45c.928-.444 1.03-2.158.23-3.828s-2.2-2.664-3.129-2.22c-.928.445-1.032 2.16-.232 3.83.802 1.67 2.202 2.664 3.13 2.219z"/>
    <path fill="#FFEBF5" d="M209.807 53.544c-.746-1.677-2.236-2.702-3.168-2.236a.924.924 0 00-.466.559c1.584-.093.746 1.77 3.634 1.677z"/>
    <path fill="#FF70B7" d="M205.894 52.986c.02.767.178 1.525.466 2.235l.372.56c.28-.094.932-.28 1.211.186.28.466.653 1.304 1.677 1.49a1.956 1.956 0 00.746-1.677h-.28c-1.956 0-3.074-2.05-4.192-2.794z"/>
    <path fill="#F7D197" d="M200.025 63.513c.514 0 .931-.542.931-1.211 0-.67-.417-1.211-.931-1.211s-.932.542-.932 1.21c0 .67.418 1.212.932 1.212zM195.087 71.524c.515 0 .932-.543.932-1.212 0-.668-.417-1.21-.932-1.21-.514 0-.931.542-.931 1.21 0 .67.417 1.212.931 1.212z"/>
    <path fill="#179DE0" d="M190.802 5.287l-1.956 6.335-4.938 2.701 6.894-9.036z"/>
    <path fill="#A8C3FF" d="M197.23 76.461c.276 1.452.65 2.884 1.118 4.285 0-1.118.466-2.422 1.211-2.701.745-.28.838-2.143 1.77-2.236l-1.304-2.981-2.795 3.633z"/>
    <path fill="#D6DFFF" d="M200.304 101.707l.466.56-.466-.56zM206.732 86.431c2.236 1.397 3.354 2.236 3.354 4.379a11.38 11.38 0 01-3.354-4.379z"/>
    <path fill="#fff" d="M217.073 86.802c2.33 2.329 3.168 4.006 3.354 5.31a8.91 8.91 0 01-2.609-1.49l-.745-3.82z"/>
    <path fill="#D6DFFF" d="M199.652 83.263a12.103 12.103 0 001.118 4.192c-1.584-1.211-1.677-2.236-1.118-4.192zM205.149 94.255c1.397 2.142 4.658 2.142 4.658 2.142-2.982 1.584-4.286 1.677-4.658-2.142z"/>
    <path fill="#C7D3FC" d="M220.054 76.835c1.304 1.397 1.118 3.912 1.118 3.912s2.515-2.142-1.118-3.912zM224.34 95.84c.559 1.956 0 3.632-1.212 4.191a11.17 11.17 0 011.212-4.192z"/>
    <path fill="#66251F" d="M208.13 68.356a55.626 55.626 0 016.241-1.49c-3.353-.373-5.217.186-6.241 1.49z"/>
    <path fill="#5E221D" d="M202.167 72.55c.56-.186 1.212-.559 1.77 0h-1.77zM202.447 73.761c.373-.466.838-1.025 1.584-.745l-1.584.745zM218.564 69.196c-.56.094-1.305.28-1.398 1.025l1.398-1.025zM219.123 70.22c-.56-.093-1.305-.28-1.77.466l1.77-.466z"/>
    <path fill="#C27059" d="M210.272 72.362a3.083 3.083 0 001.118 2.236c.466.372.093-.28-.465-1.49-.56-1.212-.839-1.491-.653-.746z"/>
    <path fill="#D6DFFF" d="M206.919 80.376a1.12 1.12 0 00-1.025.652c2.981 1.024 7.453.559 8.477.372 1.025-.186.653-.465.56-.931h-.094c-2.633.291-5.293.26-7.918-.093z"/>
    <path fill="#A8C3FF" d="M219.961 67.424l-1.956-1.583s.745 2.05 1.304 3.82l1.49.93a15.785 15.785 0 00-.838-3.167z"/>
    <path fill="#7A2F28" d="M238.593 121.83a3.35 3.35 0 01.093 2.516 1.861 1.861 0 01-1.77 1.025h-6.055c-1.211 0-1.49-.745-1.49-.932 0-.186-.094-1.304.558-1.49a26.714 26.714 0 013.913-.745c-1.644.1-3.293.1-4.938 0-1.77-.094-1.956-1.025-1.956-2.609 0 0-1.77.186-1.956-.838-.187-1.025-.652-2.33 1.118-2.702l8.105-1.397-6.987-.466c-1.491-.187-2.05-.28-2.33-1.211-.279-.932.373-1.584 1.584-1.677 2.702-.28 7.08-.56 9.875-.56.418.012.816.178 1.118.467a2.24 2.24 0 01.466 2.701c1.49 1.77 1.677 2.143.652 3.727a3.076 3.076 0 010 4.192z"/>
    <path fill="#5E221D" d="M234.215 114.658l2.608-.373-.186-.652-2.795.931.373.094zM236.078 117.266l-9.875 2.143.745.186 6.521-1.304 2.981-.28-.372-.745zM233.842 122.203l3.447-.094-.093-.838-1.677.373-1.677.559z"/>
    <path fill="#FFAE82" d="M220.427 124.44c-.373-5.683 1.677-13.695 3.447-17.887h-2.422a28.69 28.69 0 00-1.025 17.886z"/>
    <path fill="#F7E9CB" d="M228.439 106.553c2.794 2.515 3.633 0 3.633 0l-2.515-.839-1.118.839z"/>
    <path fill="#1A3E9C" d="M184.56 125.93c-8.384 3.82-11.458 4.006-12.763 4.378-1.304.373-2.795.653 0 2.609s3.26 2.143 7.826-1.304c4.565-3.447 8.664-7.36 4.937-5.683z"/>
    <path fill="#1E397D" d="M187.169 120.526a74.314 74.314 0 00-3.447-10.434c-.839-1.863-.373-2.609.372-3.168.746-.559 1.025 0 1.584 2.05.56 2.05 2.33 10.9 2.33 10.9l-.84.652z"/>
    <path fill="#1A3E9C" d="M176.735 108.975c2.98 3.82 4.658 5.683 5.59 7.08.931 1.397.652 1.118-3.634.652-4.285-.466-6.894-.186-6.521-1.77.373-1.584 1.863-4.937 2.236-5.962.372-1.025 1.21-1.398 2.329 0z"/>
    <path fill="#914343" d="M68.762 194.589c9.595 10.248 14.347 34.376 3.913 54.871H30.007c-10.62-17.141-7.266-40.431 3.26-54.871h35.495z"/>
    <path fill="#803333" d="M34.386 249.46h38.29c10.433-20.495 5.682-44.623-3.914-54.871H50.41L34.386 249.46z"/>
    <path fill="#732A2A" d="M63.918 194.589a164.43 164.43 0 013.168 54.871h1.677c4.099-22.265 1.397-38.754-2.516-54.871h-2.329zM54.322 194.589a254.885 254.885 0 011.956 54.871h2.143c2.702-22.265.839-38.754-1.584-54.871h-2.515z"/>
    <path fill="#1A606E" d="M24.884 211.078c3.633-8.757 20.868-10.34 12.483 9.316H26.561l-1.677-9.316z"/>
    <path fill="#216C7A" d="M21.344 220.395s-10.34-12.856-5.59-20.402c4.752-7.546 16.024-2.795 14.347 20.402h-8.757z"/>
    <path fill="#216C7A" d="M17.804 201.018C11.19 192.54-.083 192.82.011 199.993c.093 7.173 17.793 2.888 17.793 2.888v-1.863zM26.654 174.653c-8.105 1.397-3.261 11.272-5.87 24.687l4.286 2.981c9.409-13.042 9.688-29.066 1.584-27.668z"/>
    <path fill="#216C7A" d="M11.693 192.957c.443-2.22-.424-4.265-1.937-4.567-1.514-.303-3.1 1.251-3.544 3.471-.444 2.22.424 4.265 1.937 4.568 1.514.303 3.1-1.252 3.544-3.472z"/>
    <path fill="#1A606E" d="M33.548 208.469c0-14.254 1.49-20.216 5.403-20.03 3.913.187-2.702 20.682-2.702 20.682l-2.701-.652z"/>
    <path fill="#216C7A" d="M28.983 180.057c3.727-7.267 10.248-5.497 7.919 0-2.33 5.496-7.173 2.702-7.173 2.702l-.746-2.702zM35.877 214.525c6.334-12.67 12.39-22.172 17.514-15.185 5.123 6.987-14.44 23.756-14.44 23.756h-3.074v-8.57z"/>
    <path fill="#216C7A" d="M47.15 200.458c-2.796-6.055-4.845-10.9-2.796-15.371 2.05-4.472 11.18-4.006 5.776 14.905l-2.98.466z"/>
    <path fill="#2A858C" d="M28.052 222.35c2.515-9.595 9.223-10.34 11.179-7.359 1.956 2.981-3.82 7.08-3.82 7.08l-7.36.28z"/>
    <path fill="#F77C7C" d="M44.261 249.46H19.294l-7.918-14.533 1.397-14.533h38.01l1.676 14.533-8.198 14.533z"/>
    <path fill="#244AB0" d="M256.2 249.46l-1.118-76.299a18.259 18.259 0 00-7.825-14.72l-9.316-6.613-62.79-3.54 5.87 5.216c-4.007 2.609-3.914 4.472-4.38 12.018l-5.775 83.937H256.2z"/>
    <path fill="#203D87" d="M255.082 173.162a18.252 18.252 0 00-7.825-14.72l-3.26-2.328H180.46l7.36 5.496a14.34 14.34 0 015.683 12.95l-7.08 74.9H256.2l-1.118-76.298z"/>
    <path fill="#203D87" d="M170.866 249.46c11.645-9.69 15.464-9.876 20.588-9.876 5.124 0 5.87 9.875 5.87 9.875h-26.458z"/>
    <path fill="#1A3578" d="M207.478 165.523c11.551 11.086 19.47 16.862 21.426 18.073 1.957 1.211 4.379-2.981 6.522-9.037 2.142-6.055 3.726-12.297 4.564-14.346.839-2.05 3.913-6.242-8.663-6.242-12.577 0-42.016-4.285-23.85 11.552z"/>
    <path fill="#1A3578" d="M248.934 169.436c-9.223 13.601-22.545 30.277-26.364 35.307-3.82 5.031-9.41.932-13.602-3.353-4.192-4.286-2.329-2.33-.28 3.82a27.765 27.765 0 008.385 12.017c2.143 1.863 5.497 6.335 13.974-9.223 8.478-15.558 22.731-45.555 17.887-38.568z"/>
    <path fill="#30868C" d="M180.182 249.46c8.664-10.061 18.073-10.713 25.06 0h-25.06z"/>
    <path fill="#2B7585" d="M187.728 243.124c6.335 2.143 8.29 5.776 8.57 6.335h8.944c-5.03-7.639-11.18-9.502-17.514-6.335zM241.574 243.405c-6.894-.373-12.204 2.608-18.725 6.055h25.06c.839-4.565-1.584-5.776-6.335-6.055z"/>
    <path fill="#3D1A10" d="M165.183 216.947H96.43v5.068h68.752v-5.068z"/>
    <path fill="#542518" d="M135.279 168.412l7.36 81.05h-9.317l-7.453-81.05h9.41zM164.903 168.412l7.36 81.05h-9.316l-7.546-81.05h9.502zM97.642 165.522l-7.36 83.937h9.316l7.453-83.937h-9.41z"/>
    <path fill="#6E2B17" d="M97.642 172.044L84.413 107.95a1.398 1.398 0 011.304-1.677h6.521a1.488 1.488 0 011.398 1.118l13.415 64.653h-9.41z"/>
    <path fill="#6E2B17" d="M131.086 111.863H90.935v7.07h40.151v-7.07zM95.779 165.523h61.858v7.266H95.779a3.733 3.733 0 01-2.663-1.024 3.727 3.727 0 01-1.157-2.609 3.73 3.73 0 013.82-3.633z"/>
    <path fill="#542113" d="M115.994 165.524h51.145a3.623 3.623 0 012.63 1.03 3.638 3.638 0 01.812 4.015 3.638 3.638 0 01-3.442 2.22h-51.145v-7.265z"/>
    <path fill="#E66CA5" d="M109.473 44.788a6.147 6.147 0 00-3.54 7.639l10.061 29.438 12.95-3.82-11.552-29.81a6.152 6.152 0 00-7.919-3.447z"/>
    <path fill="#F085B7" d="M119.441 74.507l5.124-.746-7.08-17.607A1.866 1.866 0 00116.378 55a1.858 1.858 0 00-1.595.13 1.957 1.957 0 00-1.024 2.328l5.682 17.049z"/>
    <path fill="#FFA3B5" d="M116.647 74.506l-9.969-27.39a6.242 6.242 0 00-.745 5.31l7.64 22.452 3.074-.372z"/>
    <path fill="#FF85AB" d="M141.367 70.36l-37.97 4.933c-5.459.709-9.31 5.709-8.601 11.169l.034.267c.71 5.46 5.71 9.31 11.17 8.602l37.97-4.932c5.459-.71 9.31-5.71 8.6-11.17l-.034-.267c-.71-5.459-5.71-9.31-11.169-8.601z"/>
    <path fill="#F2C591" d="M111.616 129.47c-2.33-2.05-4.472-4.006-4.938-4.844-.465-.839.28-.932 1.491-1.398 1.211-.465 2.05 1.025 3.26 3.354 1.212 2.33 2.236 4.751.187 2.888z"/>
    <path fill="#F7E5BC" d="M143.383 104.783l-34.003 5.403c-2.236 1.956-2.422 2.422-4.006 3.82-4.565 4.005-5.776 7.266-5.869 10.806-.28 4.938.186 4.751-.838 6.521-1.025 1.77-2.05 2.422-1.118 4.938a12.947 12.947 0 002.795 4.285h53.66c12.017-14.067 1.118-25.526-10.62-35.773z"/>
    <path fill="#1F3A70" d="M148.414 140.556h-36.053s.186-3.167.373-11.272c.186-8.105-1.398-13.695-7.36-15.279 1.211-1.21 2.515-2.515 4.006-3.82l34.003-5.31c2.236 1.957 4.472 3.914 6.522 5.963.511 9.93.012 19.888-1.49 29.718z"/>
    <path fill="#172E5C" d="M143.383 104.876h-.465l-.466.559a91.645 91.645 0 01-5.403 14.812s.186 1.863 2.701-1.77a40.62 40.62 0 005.776-11.738l-2.143-1.863zM113.2 110.186c6.614 7.919 8.85 9.782 11.272 11.365 2.422 1.584.373-.838-2.143-4.564-2.515-3.727-5.496-8.385-5.496-8.385l-3.633 1.584zM133.415 132.638c-2.422-.745-12.763-4.285-20.681-6.148v2.795c-.187 8.105-.373 11.272-.373 11.272h36.053c.56-4.006 1.118-8.57 1.398-13.415l-16.397 5.496z"/>
    <path fill="#244AB0" d="M115.808 114.844s-.28.652-1.77 1.584c-1.49.931-1.77 1.397-1.956 1.118a8.11 8.11 0 00-5.683-4.565c.932-1.025 1.956-1.957 3.074-2.981 5.124 2.142 6.335 4.844 6.335 4.844z"/>
    <path fill="#D4BF9B" d="M140.402 104.783l-6.893 25.712-17.515-24.874 24.408-.838z"/>
    <path fill="#CCAC89" d="M125.497 113.82l13.135 3.446-4.937 7.826-8.198-9.782c-1.118-1.305-2.143-2.05 0-1.49z"/>
    <path fill="#DE5D98" d="M119.814 109.72l16.024 2.143c1.77.186 1.863-1.77 2.794-5.59l-17.327 1.304-1.491 2.143z"/>
    <path fill="#FF85AB" d="M145.344 86.975l-39.012 5.123c-5.145.675-8.768 5.392-8.093 10.534.675 5.142 5.393 8.763 10.537 8.087l39.013-5.123c5.145-.676 8.768-5.391 8.093-10.534-.676-5.141-5.393-8.762-10.538-8.087z"/>
    <path fill="#F06EA8" d="M147.39 106.18a9.594 9.594 0 008.477-10.155 9.408 9.408 0 00-6.335-8.105 10.148 10.148 0 003.167-8.664v-.28a9.79 9.79 0 00-3.734-6.623 9.791 9.791 0 00-7.352-1.947l-30.836 4.005c6.615 4.565 6.615 8.478 5.497 15.93a5.778 5.778 0 00.745 3.261 14.623 14.623 0 01-1.584 16.769l31.954-4.192z"/>
    <path fill="#914343" d="M133.974 196.358c0 3.447-1.956 6.242 1.584 7.825 5.217 2.33 7.64 4.752 11.459 5.87 3.82 1.117 9.968 2.888 6.894-3.168a117.066 117.066 0 01-5.31-11.552l-14.627 1.025zM153.258 191.794c-.279 3.26-2.329 5.683.839 7.453 4.751 2.608 6.707 5.124 10.247 6.428 3.54 1.304 9.037 3.633 6.708-2.329-2.329-5.962-4.006-11.18-4.006-11.18l-13.788-.372z"/>
    <path fill="#1C1B29" d="M144.595 165.71h-1.398l7.36 31.581-4.192 1.957a17.698 17.698 0 01-13.788.372l-7.36-33.723h-9.595a4.391 4.391 0 01-3.103-1.381 4.39 4.39 0 01-1.183-3.184l.466-8.292h42.295a10.06 10.06 0 019.968 9.037l4.285 33.072-3.54.372c-4.375.481-8.795.356-13.135-.372l-7.08-29.439z"/>
    <path fill="#AD482C" d="M126.335 151.828H109.38v97.67h16.955v-97.67z"/>
    <path fill="#EB9151" d="M115.901 151.828h-6.52v97.67h6.52v-97.67z"/>
    <path fill="#AD482C" d="M126.335 151.828H109.38v17.729h16.955v-17.729z"/>
    <path fill="#BA4E5D" d="M206.08 134.313h-21.333v6.233h21.333v-6.233z"/>
    <path fill="#D65A6B" d="M190.709 134.313l-1.584 4.379h-2.795l1.77-4.379h2.609z"/>
    <path fill="#AD4452" d="M205.987 134.313H193.69v6.233h12.297v-6.233z"/>
    <path fill="#692F1C" d="M291.228 135.06h-8.29v-14.44h6.614a1.677 1.677 0 011.676 1.677v12.763z"/>
    <path fill="#FEC9AA" d="M283.03 134.313h6.149v-10.666h-6.149v10.666z"/>
    <path fill="#fff" d="M285.732 118.757a3.54 3.54 0 100-7.08 3.54 3.54 0 000 7.08z"/>
    <path fill="#fff" d="M282.099 119.128a4.75 4.75 0 100-9.501 4.75 4.75 0 000 9.501z"/>
    <path fill="#fff" d="M275.484 120.526a4.75 4.75 0 10.001-9.502 4.75 4.75 0 000 9.502z"/>
    <path fill="#8C422A" d="M287.13 115.776h-19.098v25.526h19.097v-25.526z"/>
    <path fill="#7A3721" d="M287.13 115.776h-12.298v25.526h12.297v-25.526z"/>
    <path fill="#6D6996" d="M287.13 115.776h-19.098v3.578h19.097v-3.578z"/>
    <path fill="#807BB0" d="M273.435 115.776h-3.354v3.578h3.354v-3.578z"/>
    <path fill="#BA4E5D" d="M142.918 130.588l-6.428 5.03a.933.933 0 01-1.398-.186l-7.36-9.875a1.12 1.12 0 01.187-1.397l6.521-5.03a1.027 1.027 0 011.397.186l7.267 9.875a.922.922 0 01.227.741.936.936 0 01-.413.656zM153.258 130.681l-7.732-.559a.745.745 0 01-.652-.652l.559-12.95a.742.742 0 01.745-.651l7.733.559a.75.75 0 01.652.745l-.56 12.856a.743.743 0 01-.745.652z"/>
    <path fill="#AD3B4B" d="M153.474 121.94l-3.267-3.825-4.052 3.46 3.267 3.826 4.052-3.461z"/>
    <path fill="#872C39" d="M153.352 128.911a.641.641 0 00.496-.572.661.661 0 00-.03-.266l-2.982-11.832-4.658-.372a.747.747 0 00-.745.652l-.559 12.949v.186a.645.645 0 00.559.187l7.919-.932z"/>
    <path fill="#BA4E5D" d="M152.327 128.819l-7.826.931a.748.748 0 01-.745-.465l-3.167-12.577a.563.563 0 01.29-.695.565.565 0 01.269-.05l7.825-1.025a.743.743 0 01.745.466l3.168 12.576c.028.092.035.19.02.285a.651.651 0 01-.58.554z"/>
    <path fill="#AD3B4B" d="M149.895 120.803l-4.022-3.02-3.2 4.261 4.023 3.021 3.2-4.262zM137.98 124.44h-5.03v5.328h5.03v-5.329z"/>
    <path fill="#872C39" d="M147.669 127.049l-5.217-11.273-1.304.187a.555.555 0 00-.585.474.56.56 0 00.026.271l3.167 12.483 3.447-1.21a.749.749 0 00.466-.932zM135.838 119.316a1.024 1.024 0 00-1.398-.187l-2.422 1.863 5.03 10.993a.556.556 0 00.745.28l5.125-1.677a.925.925 0 00.412-.656.933.933 0 00-.226-.741l-7.267-9.875z"/>
    <path fill="#BA4E5D" d="M146.737 128.538l-8.477 2.795a.744.744 0 01-.838-.373l-5.404-11.738c-.186-.372 0-.745.466-.931l8.384-2.795a.744.744 0 01.839.373l5.403 11.738a.644.644 0 01.032.553.647.647 0 01-.405.378z"/>
    <path fill="#FF8FB1" d="M127.733 135.153c-1.118-1.398-2.143-2.609-3.82-3.074a115.64 115.64 0 00-11.645-2.143 5.584 5.584 0 00-3.26.372c-3.168 1.305-4.193 3.447-2.236 10.248h19.004l1.49-1.49c1.398-1.77 1.491-2.516.467-3.913z"/>
    <path fill="#F57FB5" d="M149.439 123.6c3.167 1.584 7.546 4.192 7.546 4.192a5.59 5.59 0 012.608 4.379v.838a5.59 5.59 0 01-3.341 5.307 5.576 5.576 0 01-2.155.47c-.186.092-.373 0-.56 0a5.12 5.12 0 01-3.726-2.143 31.794 31.794 0 00-3.353-3.913c-.652-.652-2.422-1.677-2.981-2.236-1.864-2.05-1.49-2.981 0-5.31 1.49-2.33 2.422-3.354 5.962-1.584z"/>
    <path fill="#1E1C2B" d="M127.906 89.816c.808-.637.716-2.103-.206-3.275-.923-1.173-2.327-1.608-3.136-.972-.808.637-.715 2.104.207 3.276.923 1.173 2.326 1.608 3.135.97zM144.881 85.863c.259-1.365-.31-2.619-1.271-2.8-.96-.181-1.949.777-2.206 2.143-.258 1.365.311 2.619 1.271 2.8.96.181 1.95-.778 2.206-2.143z"/>
    <path fill="#F7E9CB" d="M302.128 72.177l-2.98.465a16.768 16.768 0 00-10.062 5.404s-1.957 11.179 4.285 20.495l10.9-2.609c4.006 10.714 13.88 17.142 13.88 17.142s4.752 14.626 8.199 19.004c3.447 4.379 22.172 7.546 53.567-19.47.559-10.248-7.36-16.49-7.36-16.49s0-17.42-8.57-28.134c-8.571-10.713-61.859 4.193-61.859 4.193z"/>
    <path fill="#8C422A" d="M384.016 239.026c-.373.746-.373 1.118-.932 2.143.373 2.702.746 8.291.746 8.291h-20.775l-10.061-53.008 25.432-5.124c2.236 11.552 3.913 27.576 4.938 39.873 1.584 4.378 1.584 5.776.652 7.825z"/>
    <path fill="#7D361F" d="M339.392 195.24l-17.514 54.22h-19.75l13.229-62.045 24.035 7.825z"/>
    <path fill="#34355E" d="M379.917 112.608l-53.567 16.303-9.968 41.363-5.404 14.813a4.664 4.664 0 00-.093 4.564l2.795 5.59 25.712 7.546 9.503-29.904a56.171 56.171 0 00-.28 12.483s-.931 4.285-1.304 7.64a2.81 2.81 0 00.101 1.14c.113.367.3.71.551 1.002l2.422 2.795a2.979 2.979 0 002.422.931l11.086-.931 12.484 2.05a3.264 3.264 0 003.074-1.305l1.49-2.143 3.075-3.912a4.474 4.474 0 00.186-5.496l-2.142-3.075s1.397-5.962 3.353-18.725c1.957-12.763 5.31-35.68-5.496-52.729z"/>
    <path fill="#2C2D57" d="M343.305 195.985l5.59-23.103c.931-8.478 2.888-27.855 2.888-27.855s-24.129 24.128-28.6 27.855c-4.472 3.726-3.913 3.82-1.957 6.707 1.956 2.888 2.981 4.472 2.981 4.472l-10.527 2.422v8.757l25.712 7.546 3.913-6.8z"/>
    <path fill="#451B10" d="M381.687 115.775c-.559-1.024-1.118-2.142-1.77-3.167l-53.567 16.303-1.677 5.776 55.99-15.558 1.024-3.353z"/>
    <path fill="#451B10" d="M366.781 116.615l13.229-4.285a6.244 6.244 0 017.36 3.167l7.732 15.837a5.962 5.962 0 01-3.354 8.291l-13.88 5.124a5.032 5.032 0 01-6.615-3.726l-4.472-24.408z"/>
    <path fill="#4D7AE8" d="M341.628 59.973c-4.006 13.974-20.122 23.57-33.165 14.533-13.042-9.037-.093-27.855-.093-27.855s-6.987-17.7 10.62-21.893c17.607-4.192 21.986 3.447 22.638 35.215z"/>
    <path fill="#2E64E8" d="M341.628 59.973c-.559-27.762-4.006-37.078-16.582-36.24l2.142 4.193c-1.677 2.794-2.795 5.869-2.888 13.415 0 3.633 1.305 4.658 3.26 5.123 1.957.466 2.516.56 3.168 1.491.652.932.466 1.77-.186 4.285-1.025 4.006-3.354 7.453-3.54 12.484-.186 5.03-.28 8.012.559 11.552a26.17 26.17 0 0014.067-16.303z"/>
    <path fill="#201E2F" d="M327.188 25.224l1.305-6.894a4.566 4.566 0 015.962-3.354 4.465 4.465 0 012.887 3.001 4.477 4.477 0 01-.838 4.08l-5.03 6.148-4.286-2.981z"/>
    <path fill="#41314A" d="M335.48 23.36a18.352 18.352 0 00-7.64-1.211l-.652 3.074 4.286 2.981 4.006-4.844z"/>
    <path fill="#DBE7FF" d="M315.543 49.724c1.956 0 3.54-2.127 3.54-4.751 0-2.623-1.584-4.751-3.54-4.751-1.954 0-3.54 2.128-3.54 4.75 0 2.625 1.586 4.752 3.54 4.752z"/>
    <path fill="#201E2F" d="M314.033 48.392c.513-.036.879-.812.816-1.737-.063-.924-.53-1.644-1.044-1.61-.513.036-.878.813-.815 1.737.063.924.53 1.645 1.043 1.61zM311.444 36.217a3.538 3.538 0 016.708 0h-6.708z"/>
    <path fill="#590942" d="M311.817 56.34c3.447.931 7.173.093 10.247-3.261a2.422 2.422 0 013.26-.373 2.423 2.423 0 01.652 3.354c-4.75 7.732-12.11 8.85-16.674 4.565a2.42 2.42 0 01-.745-2.329 2.517 2.517 0 013.26-1.957z"/>
    <path fill="#400015" d="M311.817 62.302c4.472 2.05 10.247.186 14.16-6.242a2.514 2.514 0 00-.28-3.074l-9.036 4.006a10.062 10.062 0 00-4.844 5.31z"/>
    <path fill="#DBE7FF" d="M326.35 54.663a2.427 2.427 0 00-1.025-1.957 2.423 2.423 0 00-3.26.373c-3.075 3.354-6.801 4.192-10.248 3.26h-.839v2.33s1.305.931 6.428.465v-.931a20.316 20.316 0 008.944-3.54z"/>
    <path fill="#201E2F" d="M337.809 31.186c-3.168-7.36-8.944-8.757-18.819-6.428a20.105 20.105 0 00-5.683 2.236c-.465 2.888 3.913 3.82 12.204 1.118-2.701 4.937 2.982 13.694 12.298 3.074z"/>
    <path fill="#3467E3" d="M293.371 98.54l-10.434 2.237a5.128 5.128 0 01-5.59-2.422c-2.701-4.752-7.266-14.254-7.545-25.34l15.371-7.732 6.242 12.39a49.648 49.648 0 011.956 20.868z"/>
    <path fill="#F76574" d="M359.887 61.185c1.584.931 1.491.838 1.677 2.888.187 2.05.094 1.304 1.677 1.956 1.584.652 2.422 1.397 2.33 4.099-24.781-9.875-21.893-3.447-31.955 30.65 0 0-6.52 4.285-16.21 0-9.688-4.286-15.278-28.6-15.278-28.6l2.795-.932a17.282 17.282 0 003.54 3.26c8.291 5.776 17.887 3.913 24.688-1.77l.279-3.726a8.837 8.837 0 013.447-6.614l4.751-3.82-.186-4.751 2.05.838a9.977 9.977 0 012.608 1.77l1.21 1.212 2.702-1.025c1.212-.373 2.702-1.49 6.429 2.98 1.226.338 2.39.873 3.446 1.585z"/>
    <path fill="#EB495B" d="M365.57 70.128c.093-2.702-.28-3.26-2.329-4.099-2.05-.838-1.583-.559-1.677-1.956-.093-1.398-.093-1.957-1.677-2.888a11.712 11.712 0 00-3.446-1.584c-3.727-4.472-5.217-3.354-6.428-2.981l-2.702 1.025-1.211-1.212a9.962 9.962 0 00-2.609-1.77l-2.05-.838.187 4.751-4.751 3.82a8.856 8.856 0 00-3.447 6.614l-.28 3.726a21.333 21.333 0 01-15.65 5.217l-.652.839c-2.888 4.658-.56 6.521-.56 6.521l1.118 5.124 4.472 3.354a8.942 8.942 0 00-2.515 7.732c8.57 2.981 14.253-.745 14.253-.745 10.062-34.097 7.174-40.525 31.954-30.65z"/>
    <path fill="#542113" d="M285.36 59.134a24.945 24.945 0 01.838-8.291c.652-2.609.559-3.354.28-8.384a1.117 1.117 0 00-1.398-1.118l-3.726.745.838 3.26-1.397 2.236-14.068 2.143.932 26.83s14.626-.745 20.775-8.105l-3.075-9.316z"/>
    <path fill="#BA4E5D" d="M281.354 52.241h-11.739a1.59 1.59 0 01-1.49-1.042 1.567 1.567 0 01-.093-.635l1.863-19.19a1.394 1.394 0 01.927-1.32c.18-.064.372-.091.563-.078h11.832a1.494 1.494 0 011.125.5 1.486 1.486 0 01.365 1.177l-1.863 19.19a1.4 1.4 0 01-1.49 1.398z"/>
    <path fill="#F7E9CB" d="M282.285 43.296h-12.297l1.118-11.924h12.204l-1.025 11.924z"/>
    <path fill="#B53F50" d="M281.633 50.843h-12.204l.466-5.776h12.297l-.559 5.776z"/>
    <path fill="#EB495B" d="M275.857 42.086c-3.26-.466-3.26-3.633-1.584-5.683a17.303 17.303 0 002.423-3.54c.279-.466.558-.28.838 1.49l.373 1.77c.28-.415.53-.85.745-1.304.186-.559.373.373.838 1.77.466 1.398 1.864 6.335-3.633 5.497z"/>
    <path fill="#542113" d="M267.193 61.742l10.434-1.77.745-8.292c.187-1.304.28-2.329-2.608-2.515-2.888-.186-7.453-.186-7.453-.186l8.478-2.702c1.49-.466 1.397-1.118 1.304-2.329-.093-1.21-.745-2.608-2.795-2.143l-9.316 1.957a4.378 4.378 0 00-3.447 2.888c-.466 1.397.373 1.956 1.584 3.074 1.211 1.118.186 1.118-.373 1.956a2.796 2.796 0 00.466 3.913c1.584 1.677-1.677 3.168 2.981 6.149z"/>
    <path fill="#EB9151" d="M217.166 151.828h-16.675v97.67h16.675v-97.67z"/>
    <path fill="#AD482C" d="M217.073 151.828H206.08v97.67h10.993v-97.67z"/>
    <path fill="#AD482C" d="M217.166 151.828h-16.675v17.729h16.675v-17.729zM327.934 249.461h16.862v-97.669h-16.862v97.67z"/>
    <path fill="#A13A20" d="M278.931 151.828h-15.65v97.67h15.65v-97.67z"/>
    <path fill="#9C361C" d="M327.934 163.754h16.862v-11.98h-16.862v11.98z"/>
    <path fill="#A13A20" d="M278.931 151.828h-15.65v11.98h15.65v-11.98z"/>
    <path fill="#EB9151" d="M377.308 140.556H75.283v15.586h302.025v-15.586z"/>
    <path fill="#C45F3D" d="M377.402 140.556H209.34v15.586H377.4v-15.586z"/>
    <path fill="#2E64E8" d="M330.17 45.812l16.861-15.744a1.485 1.485 0 012.236.186 1.581 1.581 0 01.187 1.677l-13.509 25.06-5.776-11.179z"/>
    <path fill="#6ADBC6" d="M166.673 32.305l3.727-1.77c.093 0 .093-.093 0-.093l-3.727-1.677h-.093l-1.677-3.82h-.186l-1.677 3.82-3.82 1.677c-.092 0-.092.093 0 .093l3.82 1.77 1.677 3.82h.186l1.677-3.82h.093z"/>
    <path fill="#FFE091" d="M287.036 27.459l1.863-.745-1.863-.839-.745-1.77c-.093-.093-.093-.093-.093 0l-.839 1.77-1.77.839c-.093 0-.093.093 0 .093l1.77.745.839 1.863h.093l.745-1.863v-.093z"/>
    <path fill="#4F81FF" d="M410.194 168.224l3.726-1.677c.093 0 .093-.093 0-.093l-3.726-1.77h-.093l-1.677-3.82h-.186l-1.677 3.82-3.82 1.77c-.093 0-.093.093 0 .093l3.82 1.677 1.677 3.82h.186l1.677-3.82h.093z"/>
    <path fill="#FF85AB" d="M40.814 164.311l2.236-1.025c.093 0 .093-.093 0-.093l-2.236-1.025-1.024-2.236h-.094l-1.024 2.236-2.236 1.025c-.093 0-.093.093 0 .093l2.236 1.025 1.025 2.236h.093l1.024-2.236z"/>
    <path fill="#913945" d="M205.987 135.525h-19.564v.457h19.564v-.457zM206.08 137.389h-21.333v.456h21.333v-.456zM206.08 139.437h-21.333v.457h21.333v-.457z"/>
    <path fill="#BA4E5D" d="M301.476 133.943h-22.545v6.595h22.545v-6.595z"/>
    <path fill="#D65A6B" d="M285.36 133.943l-1.77 4.564H280.7l1.864-4.564h2.794z"/>
    <path fill="#AD4452" d="M301.383 133.943h-12.95v6.595h12.95v-6.595z"/>
    <path fill="#913945" d="M301.476 135.245h-20.681v.484h20.681v-.484zM301.476 137.203h-22.545v.485h22.545v-.485zM301.476 139.345h-22.545v.484h22.545v-.484z"/>
    <path fill="#1A40A1" d="M184.84 174.465c-7.08 30.836-5.87 27.762-4.565 31.768 1.304 4.006 1.863 4.285 3.354-4.006 1.49-8.291 2.329-15.371 3.26-23.197.932-7.825.373-15.371-2.05-4.565z"/>
    <path fill="#1A3578" d="M224.805 243.405a112.745 112.745 0 0112.298-3.82c2.142-.466 2.887-.652 3.82-6.428.93-5.776 1.303-12.297 1.49-13.601.186-1.304-4.472 5.869-8.012 10.9-3.54 5.03-14.626 14.905-9.596 12.949z"/>
    <path stroke="#BA4173" stroke-linecap="round" stroke-miterlimit="10" stroke-width="2" d="M132.67 93.138l2.422 1.583a3.167 3.167 0 004.565-1.304l.745-1.584"/>
    <path fill="#F071AB" d="M103.418 93.418c-2.236-.559-4.938-1.304-6.056-1.397a10.249 10.249 0 003.913 2.794l-.373.373 5.776-.28c2.05-.279 1.211-.465-3.26-1.49z"/>
    <path fill="#FFA1BD" d="M101.268 81.48c1.465-1.589 2.163-3.329 1.557-3.887-.604-.558-2.283.277-3.748 1.865-1.466 1.587-2.164 3.328-1.558 3.886.605.559 2.283-.276 3.749-1.864z"/>
    <path fill="#FAD596" d="M100.902 130.495l5.124-2.143c1.025-.373.093-.745-2.236-1.77s-2.794-1.397-2.98.652c-.187 2.05-.932 3.633.092 3.26z"/>
    <path fill="#F7D08D" d="M106.865 129.47c-5.124 1.397-5.217 2.05-5.31 2.981-.094.932-.094 1.677 1.863.28a30.91 30.91 0 015.124-3.168c.931-.372.465-.745-1.677-.093z"/>
    <path fill="#172E5C" d="M113.572 129.377c1.025-5.217.932-6.614 1.304-6.708.373-.093 1.305 1.211 2.05 2.795.745 1.584-3.354 3.913-3.354 3.913z"/>
    <path fill="#F278B0" d="M109.007 130.31c-3.167 1.304-4.192 3.446-2.235 10.247h.559c-1.584-10.34 2.887-10.34 4.937-10.527a5.584 5.584 0 00-3.26.28zM124.379 132.265c1.304.652.745 2.05-.28 4.192-1.024 2.143-1.583 3.074-2.05 4.1h3.727l1.49-1.491c1.398-1.77 1.491-2.516.467-3.913-1.025-1.398-1.957-2.422-3.354-2.888z"/>
    <path fill="#F073AB" d="M159.593 132.173a5.58 5.58 0 00-2.608-4.379s-3.54-2.143-6.521-3.633a19.663 19.663 0 00-4.286 5.59 5.883 5.883 0 00-.745 2.142l1.118.839a40.637 40.637 0 013.354 3.912 5.41 5.41 0 002.608 1.957 5.964 5.964 0 003.82-.187 5.683 5.683 0 003.26-5.59v-.651z"/>
    <path fill="#AD3B4B" d="M143.449 122.013l-4.495-2.261-2.395 4.76 4.495 2.261 2.395-4.76z"/>
    <path fill="#B5CDFF" d="M325.325 52.706a2.421 2.421 0 00-3.26.373c-.295.358-.64.671-1.025.931l1.49 2.795a22.169 22.169 0 003.82-2.142 2.414 2.414 0 00-1.025-1.957zM317.406 59.041v-.838c-2.134.246-4.28.371-6.428.372 0 0 1.305.932 6.428.466z"/>
    <path fill="#3366E0" d="M322.81 50.47l5.403 1.024s-.932-3.82-5.403-1.025zM309.488 70.5c2.795 4.193 10.993 5.59 14.626.84 1.77-2.423-2.702-2.796-7.173-2.982-4.472-.186-9.037-.186-7.453 2.143zM307.066 58.203l2.05 5.869s-3.913-1.211-2.05-5.87z"/>
    <path fill="#78ACFA" d="M312.082 32.318c.717-1.13.981-2.247.59-2.495-.39-.248-1.288.467-2.006 1.596-.716 1.13-.98 2.246-.59 2.495.392.248 1.29-.467 2.006-1.596z"/>
    <path fill="#204FBF" d="M342.373 37.054a36.338 36.338 0 00-3.912 3.913c-.56.745-.28 1.77-.652 3.26-.373 1.491-.839 3.075.186 2.33a3.168 3.168 0 001.584-3.261c-.28-1.49-.28-1.397.838-2.236a10.624 10.624 0 002.888-3.633c.745-1.77 1.118-2.143-.932-.373z"/>
    <path fill="#2158DE" d="M339.02 52.24c-1.398.932-1.677.187-2.143-1.024-.466-1.211-.652-1.398.28-1.211a2.793 2.793 0 002.515-.653c.186 1.025.093 2.33-.652 2.888z"/>
    <path fill="#D43545" d="M350.106 57.644c-6.242 2.888-8.944 4.564-11.645 5.962-2.702 1.397-2.33.931-2.702 4.006-.373 3.074-.28 2.608 4.844-1.025 5.124-3.633 6.708-4.844 8.944-6.708 2.236-1.863 3.726-3.633.559-2.235z"/>
    <path fill="#A63843" d="M341.628 58.575c1.863-1.304 2.422-1.677-.186-3.726l.186 3.726z"/>
    <path fill="#D93B4C" d="M325.605 82.516c-5.497 3.075-6.708 3.82-7.733 3.634-1.024-.187-3.447-2.236-4.844-3.634-1.397-1.397-2.609-2.515-2.05-1.397 2.702 5.87 4.752 9.037 7.267 11.272 2.515 2.236 4.378 4.752 14.067-3.82 2.609-2.235 4.658-4.378 6.428-6.148a75.321 75.321 0 012.981-9.13l-16.116 9.223z"/>
    <path fill="#D43545" d="M362.123 65.562a22.36 22.36 0 00-12.576-1.118c-2.609.746-1.211-.372 1.118-1.024 2.329-.653 6.707-1.957 10.9.652l.558 1.49z"/>
    <path fill="#E84D5C" d="M302.874 71.896l-.746.28s.56 2.515 1.677 6.055c5.31 12.484 9.502 17.328 11.272 17.7 1.77.373 2.423.373 1.118-.838-3.54-3.354-6.334-6.894-13.321-23.197z"/>
    <path fill="#D43545" d="M337.25 87.828c-4.472 5.497-8.478 9.037-11.366 10.434-2.888 1.398-7.825 3.354-12.856-1.118a13.235 13.235 0 004.378 3.634 28.48 28.48 0 003.354 1.118 15.657 15.657 0 005.217-1.398c4.286-1.863 8.012-6.148 10.434-9.595l.839-3.075z"/>
    <path fill="#590942" d="M333.15 72.736c-5.31 4.471-12.297 6.52-19.004 4.471 4.472 4.658 5.776 5.962 19.005-4.471z"/>
    <path fill="#EB495B" d="M356.347 66.867a19.387 19.387 0 017.012 3.231 19.393 19.393 0 015.192 5.713c1.025-3.075 2.05-4.472-3.167-6.8a21.793 21.793 0 00-9.037-2.144z"/>
    <path fill="#F7E9CB" d="M345.82 67.238c-7.266 5.124-8.384 6.428-8.291 18.353-1.211 1.118-.932 1.863-.559 3.353 15.278 2.236 24.222 8.105 24.222 8.105L345.82 67.24z"/>
    <path fill="#fff" d="M337.53 85.59s2.98-1.304 4.098-1.956c1.118-.652 1.211-.652 1.304-1.49.093-.839-.28-8.944 2.888-14.906-7.266 5.124-8.384 6.428-8.291 18.353z"/>
    <path fill="#EDC993" d="M362.216 97.05a48.675 48.675 0 004.845-10.434c.838-2.608 1.397-1.49.652 3.168s-1.584 5.403-5.497 7.266z"/>
    <path fill="#4D7AE8" d="M361.192 97.05h-.093c-.466-.372-9.316-5.962-24.129-8.105l-10.62 36.426 18.073 6.8 5.683-7.638a23.39 23.39 0 004.285-15.372l-.186-2.981 6.987-9.13z"/>
    <path fill="#3467E3" d="M361.099 97.05c-.466-.372-7.267-4.658-18.819-7.173-1.397 13.695-2.608 14.347-4.192 17.514-1.584 3.168-3.26 5.217-4.285 8.385a26.098 26.098 0 01-5.124 10.433l15.744 5.963 5.683-7.64a23.39 23.39 0 004.285-15.37l-.186-2.982 6.987-9.13h-.093z"/>
    <path fill="#542113" d="M347.218 131.707l-7.267 8.85h-31.488v-1.118a1.682 1.682 0 011.211-1.584c2.516-.745 8.478-2.608 10.714-3.912 2.98-4.1 3.54-6.615 5.217-12.577 3.446.932 16.955 4.751 21.613 10.34z"/>
    <path fill="#1C53D9" d="M353.273 107.392l-5.683 5.217s5.497 2.888 5.683-5.217z"/>
    <path fill="#732D1A" d="M316.382 137.203l7.453-2.515 6.148-12.018c-1.863-.652-3.447-1.024-4.378-1.304-1.677 5.962-2.236 8.478-5.217 12.577h1.583l-5.59 3.26z"/>
    <path fill="#EDC993" d="M304.27 95.933l-3.912-10.34c-.559-1.398-.745-1.118-1.304-.373-.559.745.373 3.447 1.863 6.707 1.49 3.261 3.354 4.006 3.354 4.006z"/>
    <path fill="#4D7AE8" d="M278.466 78.232l-8.385-1.304a58.508 58.508 0 007.267 21.427l.186.28.838 1.024a5.969 5.969 0 001.677.931l-3.633-7.732a30.55 30.55 0 002.795 2.05c1.677 1.024 1.584-.187 1.49-.932-.931-6.055-2.235-15.744-2.235-15.744z"/>
    <path fill="#1C53D9" d="M280.701 97.423l2.795 1.397s-2.701 2.05-2.795-1.397z"/>
    <path fill="#40180C" d="M269.336 54.383l7.732-.373c.56 0 .28.187-2.329.56l-6.335 1.024c-.372 0-.652.093-.745-.559-.093-.652.466-.559 1.677-.652zM277.348 58.296l-2.33.559c-1.56.593-3.187 1-4.844 1.21-.652.094-1.118.094.187.932 1.304.839 1.583 1.305 3.074.373 1.49-.932 5.217-3.354 3.913-3.074z"/>
    <path fill="#732D1A" d="M266.168 57.738c.653-1.398.28-1.957-.465-3.168-.746-1.21-1.398-2.236-.466-3.447.931-1.21.466-1.956-.093-3.54-.56-1.583-.28-2.422 1.397-4.006l-.559.187a4.378 4.378 0 00-3.447 2.888c-.466 1.397.373 1.956 1.584 3.074 1.211 1.118.186 1.118-.373 1.956a2.794 2.794 0 00.466 3.913c1.584 1.677-1.677 3.167 2.981 6.149a4.19 4.19 0 01-1.025-4.006z"/>
    <path fill="#4D1D0F" d="M283.403 60.81c-3.82 3.354-6.987 6.056-8.384 6.8-1.398.746-.746 1.212 1.49 2.889 2.236 1.677 2.888 2.142 4.938-1.677 2.05-3.82 4.378-10.248 1.956-8.012z"/>
    <path fill="#FF904F" d="M276.51 34.632l-1.119 1.77c1.584 0 1.118-1.77 1.118-1.77zM275.857 41.247c-1.584-.372-1.118-2.235.839-4.471 2.235 2.888 1.77 5.03-.839 4.471z"/>
    <path fill="#F7E9CB" d="M276.23 41.433c-.56-.093-.373-.745.372-1.677.839 1.118.652 1.863-.372 1.677z"/>
    <path fill="#572214" d="M387.835 114.845a5.592 5.592 0 00-6.707-2.795l-11.645 3.726h-.093l1.677-.465a3.446 3.446 0 014.192 2.142l4.006 12.111c.085.27.221.52.403.737a2.161 2.161 0 001.464.756c.282.024.565-.009.834-.095l10.9-3.82a1.022 1.022 0 00.658-.99 1.03 1.03 0 00-.099-.407l-5.59-10.9z"/>
    <path fill="#2C2D57" d="M376.284 181.92s-10.527 4.938-13.509 6.708c-2.98 1.77-2.794 2.142.28 2.422 3.504.248 7.018.31 10.527.186 2.981-.186 4.006.093 4.379-2.888.372-2.981 1.304-7.825-1.677-6.428zM351.503 180.429c-.28 2.422-.466 2.701 2.33 3.447 2.238.51 4.51.852 6.8 1.024 1.304.093 1.956-.466 4.192-1.77s2.608-1.583-1.025-2.701-7.546-2.702-9.688-3.261c-2.143-.559-2.05-.373-2.609 3.26z"/>
    <path fill="#8C422A" d="M360.074 233.902c.745 4.006-1.211 6.894-4.006 8.758-2.795 1.863-5.59 2.049-6.335 3.82-.428.94-.68 1.949-.745 2.98h29.811l-18.725-15.558z"/>
    <path fill="#7D361F" d="M361.75 235.3c1.025-3.26 2.889-3.54 9.596 2.795 6.708 6.335 1.957 3.167-3.447 1.118-5.403-2.05-4.658-2.33-6.148-.839-1.49 1.49-.839 0 0-3.074zM370.974 231.76c2.887 2.142 6.241 4.844 7.36 4.006 1.117-.839 2.608-2.888 2.794-4.006.186-1.118-.745-.56-5.03-1.025-4.286-.466-6.988-.373-5.124 1.025zM305.016 235.858c-.838 4.099-3.82 6.521-9.223 8.477-2.515.932-3.447.932-4.006 2.982a5.886 5.886 0 00-.279 2.142h32.513v-10.713l-19.005-2.888z"/>
    <path fill="#1C1B29" d="M165.835 186.578l2.329 2.422a1.958 1.958 0 01.466 2.33l-1.118 2.515-1.677-7.267zM130.807 186.578l-.466 5.962a2.234 2.234 0 00.838 2.143l2.516 2.422-2.888-10.527z"/>
    <path fill="#13121C" d="M153.91 189l13.416 1.21-4.286 2.236a5.686 5.686 0 01-6.335-.838l-2.794-2.609zM142.638 190.21l-8.012 4.099s5.963 4.937 8.012-4.1z"/>
    <path fill="#6E2B17" d="M88.326 108.788a3.447 3.447 0 100-6.893 3.447 3.447 0 000 6.894z"/>
    <path fill="#DB704C" d="M135.465 140.556l4.099 3.54 2.702-3.54h-6.801z"/>
    <path fill="#FF9191" d="M11.376 234.927h10.993l1.397-14.533H12.773l-1.397 14.533z"/>
    <path fill="#2A858C" d="M9.699 188.533c-1.49-.28-3.074 1.21-3.54 3.447a6.055 6.055 0 00.093 2.608c-2.702 0-5.03 1.118-5.869 3.26a12.77 12.77 0 016.8-.838s-.558-5.31 2.702-8.384c0-.093-.093-.093-.186-.093zM28.983 180.056l7.08-4.472c-1.77-.931-4.844.187-7.08 4.472zM21.623 191.049c.932-7.08 1.677-12.297 5.03-16.396-6.334 1.118-4.75 7.36-5.03 16.396zM44.354 185.087a10.34 10.34 0 00-.466 6.707l4.286-9.036a3.73 3.73 0 00-3.82 2.329zM18.55 203.44l-.746 1.583 2.143-.373-1.398-1.21zM28.051 185.832l-1.956 2.608h2.888l-.932-2.608zM46.59 203.44l-1.49 1.583 2.142.559-.652-2.143z"/>
    <path fill="#1A606E" d="M26.56 209.495v2.422l2.05-1.211-2.05-1.211z"/>
    <path fill="#FFB869" d="M21.344 171.858a4.751 4.751 0 005.87 3.447 4.763 4.763 0 002.92-2.174 4.741 4.741 0 00.526-3.602l-9.316 2.329z"/>
    </g>
</svg>