<svg data-name="BLOCKED-tab" xmlns="http://www.w3.org/2000/svg" width="415" height="250" viewBox="0 0 415 250" fill="none">
    <g id="svg_114" stroke="null">
    <path d="m282.67467,165.05846c0,7.00962 3.04933,11.78408 8.38527,11.22568c5.33671,-0.55917 -8.38527,-11.22568 -8.38527,-11.22568z" fill="#317EE0" id="svg_4" stroke="null"/>
    <path d="m158.21212,13.94554c3.91343,-14.88269 5.79373,-17.52399 14.78886,1.67621l-14.78886,-1.67621z" fill="#D4E1FF" id="svg_5" stroke="null"/>
    <path d="m214.01408,218.84955c0,0 -1.72744,10.51442 -6.25074,10.66651c-4.5233,0.15285 -15.24665,-3.30126 -14.94171,5.0287c0.30493,8.32997 9.75785,11.93693 25.76645,11.27637c16.00859,-0.66056 23.58122,-22.09573 23.58122,-22.09573l-28.15522,-4.87585z" fill="#BD4070" id="svg_6" stroke="null"/>
    <path d="m201.51259,235.96727c-2.64224,-4.82593 -6.96276,-3.70835 -8.63951,-0.86334c0.71125,7.92365 10.06279,11.37776 25.71575,10.7172c1.1652,-0.01997 2.32502,-0.17359 3.45565,-0.45702c0.74889,-0.33182 1.47858,-0.70434 2.18522,-1.11758c0,0 -18.34667,-0.50771 -22.71712,-8.27927l0.00001,0.00001z" fill="#DE548C" id="svg_7" stroke="null"/>
    <path d="m281.60779,210.77305c2.0823,6.32064 5.09706,12.29563 8.94444,17.72759c2.99863,4.06321 11.94308,-1.57459 17.12694,0c11.89238,3.65689 -4.5233,25.9047 -31.71302,14.22201c-27.18972,-11.68269 -19.10862,-30.22215 -19.10862,-30.22215l24.75026,-1.72744l0,-0.00001z" fill="#BD4070" id="svg_8" stroke="null"/>
    <path d="m311.54114,233.8842c-0.50771,-3.96182 -5.64087,-5.43503 -7.47047,1.16827c-1.52466,5.48572 -8.53812,9.14338 -13.31566,11.0229c12.24801,0.15208 20.17627,-6.85753 20.78613,-12.19117z" fill="#DE548C" id="svg_9" stroke="null"/>
    <path d="m277.13442,215.44613c0,0 -5.0817,7.87295 -1.67675,14.47625c1.67675,3.09849 8.43597,1.21896 11.94308,4.36891c3.50634,3.14918 0.55917,11.63123 -20.12557,11.63123c-28.10452,0 -21.3453,-14.78118 -22.46288,-24.83782c-1.11834,-10.05741 32.32212,-5.63857 32.32212,-5.63857z" fill="#DE548C" id="svg_10" stroke="null"/>
    <path d="m267.27595,245.92252c15.0431,0 20.68398,-4.46953 21.29384,-8.12719c-0.25424,-1.01542 -1.32112,-3.40265 -4.82823,-2.38723c-4.31975,1.21896 -7.21623,8.48282 -19.36286,7.67018c-12.14662,-0.81264 -17.02478,-2.18446 -17.99104,-8.6349c-0.20278,-1.42251 -0.76195,-1.42251 -1.32112,-0.60987c0,13.61291 5.03178,12.08902 22.20941,12.08902l0,-0.00001z" fill="#E276AD" id="svg_11" stroke="null"/>
    <path d="m221.18038,230.48155c-7.26693,0.91403 -9.80855,15.2382 7.01346,15.44097c16.822,0.20354 20.83683,0.15285 21.19322,-6.14551c0.35563,-6.29913 1.06688,-24.63581 1.06688,-24.63581l-19.87133,1.77814c0,0 -1.27043,7.46663 -2.54085,14.27347c-2.20289,-0.75657 -4.54941,-0.99929 -6.86137,-0.71125l-0.00001,-0.00001z" fill="#DE548C" id="svg_12" stroke="null"/>
    <path d="m249.38629,239.77624c0.05146,-1.26966 0.15285,-2.99633 0.25424,-4.97724c-0.9148,5.79065 -5.48879,8.22858 -14.33185,7.7201c-8.84229,-0.50771 -13.72121,-8.38066 -17.99027,-7.06031c-0.43013,0.11445 -0.81956,0.34564 -1.12449,0.66901c-0.3057,0.3226 -0.51462,0.72431 -0.60372,1.15982c-0.10139,4.11467 3.30357,8.53351 12.60364,8.6349c17.53326,0.15285 20.83683,0.15285 21.19245,-6.14628z" fill="#E276AD" id="svg_13" stroke="null"/>
    <path d="m257.46663,228.39848c-12.19732,4.31745 -44.46874,-1.42174 -47.51807,-9.39685c-3.04933,-7.97434 26.42701,-112.76296 36.28625,-117.53743c9.86001,-4.77523 38.87856,4.21606 46.55258,32.71154c7.67402,28.49548 -8.02964,30.4257 -8.02964,30.4257c0,0 4.87893,41.65061 5.59018,46.12091c0.71202,4.46953 3.20218,12.2411 -5.59018,13.20659c-8.79236,0.96472 -14.63678,0 -27.29111,4.46953l-0.00001,0.00001z" fill="#4D90E8" id="svg_14" stroke="null"/>
    <path d="m284.75774,164.60145c1.12986,-0.21967 2.21288,-0.63214 3.20218,-1.21896l0,-0.30493l-65.91543,0c-2.79586,9.65109 -5.33671,19.20002 -7.42055,27.58145c11.53676,-2.9971 13.97622,3.6062 25.0045,3.45335c11.02828,-0.15208 15.65297,4.06398 21.3453,9.90533c5.69157,5.84135 10.21487,10.31088 12.95926,12.08902c2.7444,1.77737 6.04796,1.4732 9.75785,-1.62528c1.67675,-1.37181 3.70989,-7.26386 5.4381,-13.20659c-1.67752,-13.66361 -4.37122,-36.67337 -4.37122,-36.67337l0.00001,-0.00002z" fill="#317EE0" id="svg_15" stroke="null"/>
    <path d="m219.65572,171.61106l21.65024,7.77156l1.21973,-10.36234l-18.34667,-5.94274l-2.13453,0c-0.81341,2.84425 -1.62605,5.6885 -2.38877,8.53351l0,0.00001z" fill="#2874D4" id="svg_16" stroke="null"/>
    <path d="m227.0755,124.57535c-4.42191,7.21239 -6.15012,10.87005 -5.89588,17.82897c0.05069,2.03161 -1.88029,3.75828 -3.86197,6.19697c-4.31975,5.33287 -2.94794,8.88837 0.71125,15.28889c1.01619,1.77737 2.64301,6.95892 12.45156,7.00962c9.80855,0.05069 11.12967,0 11.12967,0l13.87406,-44.44493l-19.76918,-16.10153c-7.06415,10.26019 -8.63951,14.22201 -8.63951,14.22201z" fill="#4D90E8" id="svg_17" stroke="null"/>
    <path d="m286.23171,144.02961c-0.40632,-5.43503 -0.20278,-10.1588 0.9148,-8.38143c1.11834,1.77814 0,8.38143 0,8.38143l-0.9148,0z" fill="#4167BF" id="svg_18" stroke="null"/>
    <path d="m245.27008,144.63871c1.67675,-5.99343 2.18522,-7.61871 2.84578,-10.1588c0.66056,-2.53932 2.99863,-1.42174 1.7789,5.0794c-1.21973,6.50191 -4.62469,5.0794 -4.62469,5.0794l0.00001,0z" fill="#2874D4" id="svg_19" stroke="null"/>
    <path d="m239.78129,151.19131l-15.3995,3.96182c-4.31975,1.11758 -8.99514,1.82883 -9.6557,-1.21896c-0.40709,2.9464 0.96549,5.89204 3.3028,9.95602c1.01696,1.77737 2.64301,6.95892 12.45156,7.00962c9.80855,0.05069 11.13044,0 11.13044,0l4.92962,-15.74667l-6.75922,-3.96182l0,-0.00001z" fill="#317EE0" id="svg_20" stroke="null"/>
    <path d="m242.52569,145.95983c-6.55567,-0.71125 -10.21487,-0.91403 -13.2135,-1.16827c-2.99863,-0.25424 -3.86274,1.32035 -3.96413,3.45411c-0.10139,2.13299 2.54085,0.40632 8.23319,-0.66056c5.69157,-1.06688 8.94444,-1.62528 8.94444,-1.62528z" fill="#2874D4" id="svg_21" stroke="null"/>
    <path d="m246.23558,101.4642c-1.27119,0.6091 -2.89725,2.99633 -4.77754,6.6033l-0.60987,-4.06398c0,0 -5.84442,6.19697 -11.53676,16.35577c5.4381,-9.59963 11.7403,-5.94274 16.72062,0.30493c2.4794,3.24827 4.4342,6.86445 5.79373,10.7172c6.20005,16.81356 14.58609,23.61963 20.78613,26.15971c6.20005,2.53932 12.14585,-16.96564 11.07897,-38.70574l0.35563,-1.98091c-11.79023,-14.67902 -30.28975,-18.99724 -37.81091,-15.39028z" fill="#4167BF" id="svg_22" stroke="null"/>
    <path d="m253.09618,116.85448c9.24938,8.58421 13.5699,14.73049 15.19595,17.72759c1.62605,2.99633 3.81128,1.47243 7.77541,-7.41594c3.96413,-8.88914 -22.97136,-10.31165 -22.97136,-10.31165z" fill="#94285E" id="svg_23" stroke="null"/>
    <path d="m240.13692,90.79693c0,0 -7.31839,-9.59963 -2.84578,-13.20636c4.47184,-3.60643 11.4346,4.775 17.43187,1.37158c0,0 -6.60714,14.2727 -14.58609,11.83478z" fill="#C13B6E" id="svg_24" stroke="null"/>
    <path d="m246.74328,82.56835c7.16631,-2.89494 18.49952,-25.09229 36.7448,-16.00014c18.24451,9.09215 3.96336,35.5051 4.42114,43.63229c0.60987,12.29179 -5.89511,21.84149 -21.95517,17.47335c-7.17092,-1.92561 -13.37864,-6.42971 -17.43187,-12.64819c-0.70818,-1.11527 -1.64526,-2.06694 -2.749,-2.79355c-1.10375,-0.72738 -2.3496,-1.21128 -3.65459,-1.42251c-4.67538,-0.81264 -12.65433,-2.48862 -17.7875,-9.75248c-7.87679,-11.17422 0.71202,-17.82821 6.20081,-16.25362c3.15072,0.86334 7.72471,1.21896 16.21137,-2.23515l0.00001,0z" fill="#DE548C" id="svg_25" stroke="null"/>
    <path d="m292.58538,79.87618c-2.16295,-2.73518 -4.81748,-5.04345 -7.82687,-6.80623l-13.56913,6.24782c4.11621,21.53656 5.9965,36.92761 17.58395,25.19345c1.62682,-6.70468 4.82823,-16.355 3.81205,-24.63505l0,0.00001z" fill="#CC3D77" id="svg_26" stroke="null"/>
    <path d="m252.74055,77.79381c-0.66056,1.62536 -0.60987,3.14926 0.20354,3.9619c0.81264,0.81264 5.0817,0.20354 7.97895,-2.74286c2.89648,-2.94602 3.96413,-6.60322 2.43946,-8.07627c-0.66056,-0.60948 -1.72821,-0.76187 -2.94794,-0.40632c-2.68756,2.28047 -5.24915,4.70526 -7.67402,7.26355l0.00001,0z" fill="#E276AD" id="svg_27" stroke="null"/>
    <path d="m259.43141,88.47268c1.20667,-1.25353 1.34877,-3.07314 0.31722,-4.06552c-1.03155,-0.99161 -2.84578,-0.78038 -4.05246,0.47315c-1.20667,1.25276 -1.34877,3.07314 -0.31722,4.06552c1.03155,0.99161 2.84578,0.78038 4.05246,-0.47315z" fill="#E276AD" id="svg_28" stroke="null"/>
    <path d="m246.89614,84.91487c1.61607,-0.56608 2.74593,-1.53926 2.52319,-2.17447c-0.22275,-0.63598 -1.71285,-0.69205 -3.32891,-0.12674c-1.61607,0.56532 -2.74593,1.53926 -2.52319,2.17447c0.22275,0.63521 1.71362,0.69205 3.32891,0.12674z" fill="#E276AD" id="svg_29" stroke="null"/>
    <path d="m279.7275,127.47029c-3.40496,1.5239 -7.97895,1.77814 -13.77267,0.20354c-7.17168,-1.92561 -13.37864,-6.42971 -17.43187,-12.64819c-0.70895,-1.1145 -1.64602,-2.06694 -2.74977,-2.79355c-1.10375,-0.72662 -2.34883,-1.21128 -3.65382,-1.42174c-4.67538,-0.76195 -12.65433,-2.48939 -17.7875,-9.75248c-5.13317,-7.26386 -3.25287,-12.64819 0.15208,-15.08611c-0.15208,0.91403 -2.13453,13.1052 13.97622,17.57474c6.80991,1.87952 9.0466,-2.79355 14.02691,5.94274c5.4381,9.5497 19.31216,18.48953 27.24042,17.98106l0,-0.00001z" fill="#C13B6E" id="svg_30" stroke="null"/>
    <path d="m287.90923,110.7082c0,0 0.50848,13.1559 -8.7409,13.20659c-8.23319,0.05069 -18.14312,-9.1933 -20.98968,-14.06993c0,0 28.86724,26.05755 29.73057,0.86334l0.00001,0z" fill="#5E1739" id="svg_31" stroke="null"/>
    <path d="m278.24431,107.48836c0.74735,-1.78582 0.70204,-3.50558 -0.10062,-3.84123c-0.80266,-0.33566 -2.05926,0.84029 -2.80661,2.62611c-0.74735,1.78582 -0.70204,3.50558 0.10062,3.84046c0.80266,0.33566 2.05926,-0.83953 2.80661,-2.62534z" fill="#1C1B29" id="svg_32" stroke="null"/>
    <path d="m287.43301,105.83081c0.59527,-1.42404 0.67976,-2.7444 0.18741,-2.95025c-0.49158,-0.20585 -1.37335,0.78192 -1.96939,2.20519c-0.59604,1.42328 -0.67976,2.74363 -0.18818,2.94948c0.49235,0.20585 1.37412,-0.78115 1.97016,-2.20443l0,0.00001z" fill="#1C1B29" id="svg_33" stroke="null"/>
    <path d="m302.29177,88.81602c0,0 9.80855,4.4703 7.2677,10.71797c-2.54085,6.24767 -24.80095,-8.33074 -24.80095,-8.33074l17.53326,-2.38723l-0.00001,0z" fill="#421028" id="svg_34" stroke="null"/>
    <path d="m309.45808,95.21654c-0.45778,-1.5239 -2.94794,-5.79065 -16.56853,-10.41304c0,0 -4.26829,-5.68926 -25.25797,-3.80974c0,0 10.67265,24.83859 25.25797,19.80989c5.3874,-1.87952 11.28252,-9.85386 15.60227,-6.24767c0.81341,0.81264 1.16904,2.23515 0.96626,3.65689c-0.0361,0.48006 -0.18895,0.94475 -0.44626,1.35184c-0.25731,0.40709 -0.60987,0.74582 -1.02771,0.9847c-0.50848,0.20354 -0.40709,0.45702 -0.10216,0.40632c0.37713,-0.07681 0.72815,-0.24733 1.02156,-0.49619c0.29264,-0.24886 0.51846,-0.56685 0.65595,-0.92555c0.29802,-0.68437 0.44319,-1.42481 0.42552,-2.16986c-0.0169,-0.74582 -0.1974,-1.47858 -0.52691,-2.14759l0.00001,0z" fill="#85294B" id="svg_35" stroke="null"/>
    <path d="m282.82676,65.24762c-13.46774,-5.89212 -25.20728,-0.86349 -29.06925,11.47946c1.59917,2.03698 3.65228,3.67218 5.9965,4.77439c19.66779,8.93983 31.76372,3.96259 33.13553,3.30203c0.35563,-7.41609 -1.77814,-15.94953 -10.06279,-19.55588l0.00001,0z" fill="#FCFDFF" id="svg_36" stroke="null"/>
    <path d="m253.75751,76.72708c1.59917,2.03698 3.65228,3.67218 5.9965,4.77439c3.21677,1.4709 6.54799,2.67757 9.9614,3.60696c1.62605,-10.1591 7.16554,-19.91158 7.16554,-19.91158c1.96248,-0.41439 3.99101,-0.3971 5.94581,0.05077c-13.46774,-5.89212 -25.20728,-0.86349 -29.06925,11.47946z" fill="#CCDEFF" id="svg_37" stroke="null"/>
    <path d="m263.00689,107.60972c0.17359,0.74812 0.19433,1.5239 0.05991,2.2797c-0.13442,0.75657 -0.42091,1.47704 -0.84183,2.11994c-0.42015,0.64289 -0.96703,1.19362 -1.60608,1.61914c-0.63982,0.42629 -1.35876,0.71817 -2.11379,0.85873c-0.7558,0.14056 -1.53158,0.1275 -2.28124,-0.03994c-0.75043,-0.16744 -1.45861,-0.4839 -2.0823,-0.93246c-0.62446,-0.4478 -1.1506,-1.01772 -1.54848,-1.67444c-0.39787,-0.65672 -0.65902,-1.38718 -0.76656,-2.14759" fill="#C13B6E" id="svg_38" stroke="null"/>
    <path d="m256.85676,112.38495c4.15461,0 7.52193,-3.36578 7.52193,-7.51809c0,-4.15154 -3.36732,-7.51733 -7.52193,-7.51733c-4.15385,0 -7.52117,3.36578 -7.52117,7.51733c0,4.15231 3.36732,7.51809 7.52117,7.51809z" fill="#DE548C" id="svg_39" stroke="null"/>
    <path d="m235.10514,161.4008c-1.27043,5.28294 -3.76058,22.14642 3.15149,21.68941c12.85788,-0.86334 23.784,2.69217 26.42701,-3.6062c1.67675,-4.11467 5.59018,-31.79751 -1.57536,-32.96578c-10.41841,-1.72667 -18.09243,-5.53641 -20.37981,-2.69217c-2.28661,2.84502 -5.74226,9.60039 -7.62332,17.57474l-0.00001,0z" fill="#91B3FF" id="svg_40" stroke="null"/>
    <path d="m264.83571,147.48373c-0.45471,-0.50156 -1.0615,-0.84106 -1.72744,-0.96549c-10.41841,-1.72667 -18.0932,-5.53641 -20.37981,-2.69217c-1.76508,2.38723 -3.2329,4.97955 -4.37045,7.72087l24.14039,2.9971l2.33731,-7.06031z" fill="#BFD3FF" id="svg_41" stroke="null"/>
    <path d="m302.0383,150.02304c5.53949,4.41961 11.99377,30.67994 0.8641,30.01938c-15.75512,-0.96472 -17.1784,-4.87585 -14.99241,-25.65046c1.01619,-9.65109 11.28175,-6.6033 14.1283,-4.36891l0.00001,-0.00001z" fill="#91B3FF" id="svg_42" stroke="null"/>
    <path d="m301.80172,177.7366c3.36117,-0.22275 5.73074,-5.73612 5.2937,-12.31407c-0.43704,-6.57795 -3.51556,-11.72955 -6.87674,-11.50603c-3.36041,0.22275 -5.73074,5.73612 -5.2937,12.31407c0.43781,6.57795 3.51633,11.72955 6.87674,11.50603z" fill="#262538" id="svg_43" stroke="null"/>
    <path d="m305.90027,133.56588c-0.47468,-0.42015 -1.09453,-0.63829 -1.72821,-0.6091l-17.43187,0c-1.47397,0 -3.04933,0.96472 -3.45565,2.0823l-11.12967,30.22215c-0.10984,0.25501 -0.13902,0.53767 -0.08449,0.80957c0.05453,0.2719 0.18972,0.52154 0.38942,0.71433l2.7444,3.45411l33.64324,-32.96501l-2.94717,-3.70835z" fill="white" id="svg_44" stroke="null"/>
    <path d="m294.36351,170.89981l-17.43187,0c-1.47397,0 -2.33807,-0.9148 -1.93099,-2.08307l11.07897,-30.22215c0.45702,-1.16827 2.03314,-2.13376 3.50634,-2.13376l17.43187,0c1.47397,0 2.38877,0.96549 1.93175,2.13376l-11.07974,30.22215c-0.45702,1.16827 -1.98168,2.08307 -3.50634,2.08307l0.00001,0z" fill="#CCDEFF" id="svg_45" stroke="null"/>
    <path d="m294.56706,168.66466l-15.14526,0c-0.09832,-0.00999 -0.19279,-0.04225 -0.27651,-0.09371c-0.08449,-0.05146 -0.15592,-0.12136 -0.20969,-0.20431c-0.05377,-0.08295 -0.08756,-0.17666 -0.10062,-0.27421c-0.01229,-0.09832 -0.00307,-0.1974 0.02765,-0.29111l3.25287,-8.88914c0.14747,-0.40555 0.41707,-0.7558 0.7727,-1.00083c0.35486,-0.24579 0.77731,-0.3756 1.20898,-0.37022l14.68747,0c0.09678,0.0023 0.19049,0.02765 0.27498,0.07297c0.08526,0.04609 0.15746,0.11137 0.21199,0.19049c0.05453,0.07988 0.08987,0.17052 0.10216,0.26576c0.01229,0.09524 0.0023,0.19279 -0.02996,0.28343l-3.40496,9.34616c-0.10292,0.28112 -0.29034,0.52384 -0.53536,0.69666c-0.24502,0.17205 -0.5369,0.26576 -0.83645,0.26806l0.00001,0z" fill="#B8D1FF" id="svg_46" stroke="null"/>
    <path d="m260.51596,149.10901c0,0 -6.50498,15.44174 0,29.61306c0,0 8.7409,-5.48572 0,-29.61306z" fill="#262538" id="svg_47" stroke="null"/>
    <path d="m259.24553,152.96945c3.10002,-13.1052 8.08034,-11.78408 12.24801,-11.37776c5.28525,0.50771 6.04796,2.84425 4.47261,4.57092c-0.8641,0.96549 -2.49016,1.67675 -3.76135,2.08307c-0.24425,0.08526 -0.46623,0.22352 -0.65134,0.40402c-0.18588,0.1805 -0.32951,0.39941 -0.42091,0.64136c-0.09217,0.24195 -0.13058,0.5008 -0.11214,0.75888c0.0192,0.25808 0.09371,0.50925 0.21891,0.73506l4.87893,8.28004c0,0 5.18386,-1.82883 6.91207,-0.45778c3.15072,2.54008 0,6.45121 -3.10002,6.75615c-2.7444,7.41594 -5.84442,8.99053 -10.11348,8.12719c-8.48743,-1.72744 -14.53539,-6.5526 -10.57126,-20.52114l-0.00003,-0.00001z" fill="#DE548C" id="svg_48" stroke="null"/>
    <path d="m312.40525,165.15985l-0.40709,0.50771c-1.44786,1.89565 -3.48637,3.25364 -5.79373,3.86044c-0.34641,0.10062 -0.70588,0.15208 -1.06688,0.15285c-6.20005,0.5584 -8.08111,-3.35273 -7.67402,-9.19407c-0.62984,-0.20585 -1.2036,-0.55303 -1.67752,-1.01619c-0.28112,-0.30109 -0.4693,-0.67669 -0.54151,-1.08224c-0.0722,-0.40555 -0.02535,-0.8234 0.13518,-1.20283c0.08372,-0.30109 0.20278,-0.59143 0.35563,-0.8641c1.27043,-2.59001 3.6085,-2.28584 7.57263,-2.28584l2.18522,-5.99343c1.7044,-0.03533 3.39267,0.33028 4.92962,1.06688c1.32112,0.66056 2.84578,2.03161 2.89725,3.96182c0.05069,6.85753 0.71125,9.5497 -0.9148,12.08902l0.00002,-0.00002z" fill="#DE548C" id="svg_49" stroke="null"/>
    <path d="m310.88058,36.59983l-0.15285,0.20316l0.15285,-0.20316z" fill="#DE548C" id="svg_50" stroke="null"/>
    <path d="m225.90723,141.28675c4.5233,0.6091 8.99514,1.37105 10.21487,1.5239c1.21973,0.15208 0,-1.67675 -0.8641,-3.19988c-0.86334,-1.5239 -2.18522,-3.70835 -2.99787,-4.77523c-0.81341,-1.06611 -1.88106,-2.0823 -4.67615,1.42251c-2.79509,3.50481 -4.42114,4.67308 -1.67675,5.0287z" fill="#3A85E8" id="svg_51" stroke="null"/>
    <path d="m278.90641,65.58973c0.0699,-0.44327 -0.95167,-0.97348 -2.28277,-1.18409c-1.33034,-0.21061 -2.46635,-0.02204 -2.53624,0.4213c-0.07066,0.44334 0.95167,0.97348 2.282,1.18409c1.33111,0.21069 2.46635,0.02204 2.53701,-0.4213z" fill="#A3325D" id="svg_52" stroke="null"/>
    <path d="m275.45844,229.92238c-3.15149,-0.35563 -6.40359,0.66056 -11.07897,3.35273c-4.67615,2.69217 -6.40359,3.65689 -14.89102,4.31745c-8.48743,0.66056 -9.9614,-5.28294 -21.24315,-7.72087l-1.27119,-2.23515c10.72335,2.4387 23.73407,3.20064 30.49329,0.76195c6.28684,-2.34729 12.91011,-3.66841 19.61709,-3.91113c0.15285,2.79432 0,5.58788 -1.62605,5.43503l0,-0.00001z" fill="#BD4070" id="svg_53" stroke="null"/>
    <path d="m242.52569,194.16304c-2.89648,-0.05069 -3.15072,1.72744 -4.1669,13.41014c-1.01696,11.68269 -1.37258,18.03175 -7.01346,16.91418c-5.64164,-1.11758 -8.43673,-1.57459 -7.11561,-7.31378c1.32189,-5.73996 4.16767,-14.98473 5.64164,-19.15009c1.47397,-4.1646 2.38877,-4.87585 -0.55917,-5.94274c-2.94794,-1.06688 9.80855,-9.1933 13.2135,2.0823l0,-0.00001z" fill="#317EE0" id="svg_54" stroke="null"/>
    <path d="m272.20557,148.24567c1.27119,-0.40632 2.89725,-1.11758 3.76135,-2.08307c0.2504,-0.26038 0.44089,-0.57223 0.55917,-0.91403c0.10139,-0.35563 0.15208,-0.60987 0.15208,-0.60987c-6.60714,-0.71049 -8.53812,0.76195 -5.4381,6.14628c-0.1252,-0.22582 -0.1997,-0.47699 -0.21891,-0.73506c-0.01843,-0.25808 0.01997,-0.51693 0.11214,-0.75888c0.0914,-0.24195 0.23504,-0.46086 0.42091,-0.64136c0.18511,-0.1805 0.40709,-0.31876 0.65134,-0.40402l0.00002,0.00001z" fill="#C13B6E" id="svg_55" stroke="null"/>
    <path d="m284.25003,160.38538c-1.11834,-0.20354 -3.04933,-0.10139 -6.40359,1.21896c-5.79373,2.33654 -8.28388,0.30493 -9.9107,-1.5239c-2.07846,-2.41719 -3.98103,-4.98031 -5.69157,-7.67018c-0.18127,-0.26269 -0.43397,-0.46854 -0.72815,-0.59297c-0.29418,-0.12366 -0.61831,-0.16207 -0.93323,-0.1083c-0.31492,0.053 -0.60833,0.19586 -0.8449,0.41016c-0.23734,0.21353 -0.40786,0.49158 -0.49235,0.79958c-3.96413,13.96854 2.08384,18.7937 10.57126,20.52037c2.18522,0.45702 5.23455,0.71125 7.36908,-0.71125c2.13453,-1.42174 1.88029,-1.72667 2.388,-4.26599c0.26192,-1.02924 0.38174,-2.08844 0.3564,-3.14995c2.43946,-0.15208 4.87893,-2.6407 4.31975,-4.92655l0,0.00002z" fill="#C13B6E" id="svg_56" stroke="null"/>
    <path d="m303.30796,154.03633c2.64301,0 3.30357,-0.76195 1.21973,-3.35273l-1.21973,3.35273z" fill="#A32454" id="svg_57" stroke="null"/>
    <path d="m312.30309,165.26124c-0.79882,1.21512 -1.85494,2.24053 -3.09234,3.00401c-1.23817,0.76348 -2.62841,1.24661 -4.0732,1.4156c-6.20005,0.5584 -8.08111,-3.35273 -7.67402,-9.19407c-1.88029,-0.71125 -2.54162,-1.77737 -2.08384,-3.30126c1.7789,-1.67675 5.28525,-0.8641 8.23319,-0.8641c2.94717,0 4.82823,0.10216 7.2677,-1.37105c1.62605,-1.01619 2.388,-2.69217 1.62605,-4.11467c0.48543,0.64904 0.76809,1.42635 0.81341,2.23515c0.05069,6.95892 0.76195,9.65109 -1.01696,12.1904l0.00001,-0.00001z" fill="#BA3266" id="svg_58" stroke="null"/>
    <path d="m297.4643,160.48677c5.9965,0.15285 6.80991,0.20354 8.63951,0.15208c1.09991,-0.00307 2.19444,-0.15669 3.25211,-0.45702c1.16904,-0.35563 1.42328,0.05069 0.3564,1.11758c-1.06765,1.06688 -4.67615,0.45702 -7.57263,0.35563l-4.72684,-0.15208l0.05146,-1.01619l-0.00001,0z" fill="#A32454" id="svg_59" stroke="null"/>
    <path d="m279.92951,165.36339c-2.77666,0.99698 -5.61092,1.82806 -8.48666,2.48862c-1.16904,0.30493 -2.6937,-0.15208 -4.47261,-1.98091c-1.7789,-1.82883 -2.33731,-2.38723 -2.13453,-0.81264c0.20354,1.57459 2.18522,2.69217 3.76058,3.45411c1.57613,0.76195 2.03314,0.71125 4.82823,-0.15285c1.7789,-0.5584 6.50498,-2.48862 6.50498,-2.48862l0,-0.50771l0.00001,0z" fill="#A32454" id="svg_60" stroke="null"/>
    <path d="m121.16393,45.74267l-0.35563,0.30478c5.38664,5.0794 13.56913,18.13352 26.02069,17.47319c0,0 10.06279,18.38715 20.88752,16.35554c10.82473,-2.03153 18.85438,-17.2698 18.85438,-17.2698c2.93104,-5.26028 5.00643,-10.95247 6.15012,-16.86371c-0.15285,-1.37143 -0.66133,-2.43808 -1.62682,-3.09841c-7.72471,-5.13025 -64.28938,-1.01588 -69.93026,3.09841z" fill="#1C1B29" id="svg_61" stroke="null"/>
    <path d="m137.57884,8.05333l11.33321,3.04765c3.37116,-1.4421 7.00578,-2.16856 10.67265,-2.13336c17.27979,0 26.47847,14.01921 26.47847,31.23847c0,17.21918 -9.19868,31.23842 -26.47847,31.23842c-17.27902,0 -26.42701,-14.01923 -26.42701,-31.23842c-0.00922,-2.53547 0.19433,-5.06719 0.60987,-7.5684c1.17134,-6.60606 0.85873,-13.38993 -0.9148,-19.8605c-0.17436,-0.65388 -0.17359,-1.34201 0.0023,-1.99551c0.17513,-0.65342 0.52,-1.24926 0.99852,-1.72773c0.47929,-0.47847 1.07533,-0.82277 1.72898,-0.99838c0.65365,-0.17562 1.34186,-0.17639 1.99627,-0.00224l0.00001,0z" fill="#B3CAFF" id="svg_62" stroke="null"/>
    <path d="m185.45331,47.67289c-8.38604,3.70797 -17.02555,-0.20316 -25.36013,-4.97786c-9.09729,-5.23179 -14.94171,-18.48907 -17.43187,-22.70498c-2.49016,-4.21591 -6.04796,-5.02863 -8.48743,-11.17472c-0.58221,0.46007 -1.01696,1.08005 -1.25199,1.78386c-0.23504,0.7038 -0.25885,1.46084 -0.06913,2.17808c1.77429,6.47057 2.08614,13.25444 0.9148,19.86058c-0.41554,2.50122 -0.61908,5.03293 -0.60987,7.56833c0,17.21918 9.19868,31.23842 26.42701,31.23842c14.68747,0 23.53053,-10.15887 25.8686,-23.77171l0.00001,0z" fill="#8DAEF7" id="svg_63" stroke="null"/>
    <path d="m183.92787,42.54256c0,13.40967 -7.97895,24.27965 -17.7875,24.27965c-9.80855,0 -17.7368,-10.86997 -17.7368,-24.27965c0,-22.14627 13.77267,-4.01275 23.58122,-4.01275c9.80855,0 12.19732,-14.98434 11.94308,4.01275z" fill="#FCFDFF" id="svg_64" stroke="null"/>
    <path d="m166.43532,55.47126c0.9509,-0.0798 1.61453,-1.4136 1.48319,-2.97905c-0.13134,-1.56545 -1.00851,-2.76982 -1.96017,-2.68994c-0.9509,0.0798 -1.61453,1.41352 -1.48319,2.97897c0.13134,1.56545 1.00851,2.76982 1.96017,2.69002z" fill="#1C1B29" id="svg_65" stroke="null"/>
    <path d="m178.10957,52.87741c0.28343,-1.5451 -0.24733,-2.93726 -1.18594,-3.10947c-0.93861,-0.17221 -1.92945,0.94084 -2.21364,2.48601c-0.28343,1.5451 0.24733,2.93734 1.18594,3.10947c0.93861,0.17221 1.92945,-0.94084 2.21364,-2.48601z" fill="#1C1B29" id="svg_66" stroke="null"/>
    <path d="m150.23317,94.25104c0,0 -11.84169,8.99053 -23.2256,4.26676c-0.42783,-0.17052 -0.77808,-0.49312 -0.9847,-0.90481c-0.20585,-0.4117 -0.25347,-0.88561 -0.13365,-1.33034c1.06765,-3.45411 5.13317,-11.632 19.71925,-10.81859c18.54945,1.06611 4.62469,8.78698 4.62469,8.78698l0.00001,0z" fill="#A62D69" id="svg_67" stroke="null"/>
    <path d="m146.82822,78.55583c0,0 -3.65919,-9.14299 -19.16008,-6.70484c-0.31261,0.04455 -0.60833,0.17182 -0.85642,0.36868c-0.24733,0.19686 -0.43781,0.45617 -0.55226,0.75119c-0.11368,0.29502 -0.14671,0.61509 -0.09601,0.92717c0.05146,0.31208 0.18511,0.60487 0.38712,0.84821c5.975,6.83511 13.96393,11.60035 22.81851,13.61276c16.46638,3.5555 -2.54085,-9.80317 -2.54085,-9.80317l-0.00001,0z" fill="#A62D69" id="svg_68" stroke="null"/>
    <path d="m149.77616,87.85129c-0.66056,6.50114 -11.13044,6.75538 -12.45156,-1.42251c-1.32112,-8.17781 4.72608,-9.4477 9.0466,-6.75538c4.31975,2.69217 3.40496,8.17789 3.40496,8.17789z" fill="#79A0F7" id="svg_69" stroke="null"/>
    <path d="m192.72023,45.74275c-0.04378,-0.32629 -0.11137,-0.64896 -0.20354,-0.96503c0.09217,0.31607 0.15976,0.63875 0.20354,0.96503z" fill="#DE548C" id="svg_70" stroke="null"/>
    <path d="m217.36834,209.24915c-7.21623,1.5239 -28.81578,-19.04794 -28.81578,-19.04794c5.94658,18.69231 6.96276,24.28019 7.97895,29.10535c1.01696,4.82516 0.40709,5.79065 0,9.1933c-0.40632,3.40342 -0.40632,3.30203 1.62682,7.56879c2.03237,4.26676 3.35426,7.26386 3.76058,9.44754c0.15285,1.26966 0.10139,2.55621 -0.15285,3.80974l-90.81778,0c0,0 -0.45778,-2.03161 1.47397,-7.67018c1.93099,-5.6378 6.35213,-10.31088 8.79159,-13.86638c2.43946,-3.5555 2.28738,-3.20064 1.62682,-4.67308c-3.04933,-7.21316 1.88029,-5.63857 3.96413,-16.45793c2.08307,-10.81859 2.7444,-62.42599 7.36908,-83.50553c4.62469,-21.07954 11.68884,-26.05755 12.19655,-43.47944c-8.58882,-8.02565 -29.88266,-28.90211 -25.5629,-33.62596c4.87893,4.57146 19.51571,6.80638 31.45878,6.70484c1.04768,-0.01467 2.07385,0.30148 2.93104,0.90343c0.85796,0.60188 1.50393,1.45892 1.84573,2.44899c2.03314,6.14613 7.16631,18.28591 15.24665,16.71132c8.08111,-1.57467 14.07761,-16.00022 15.75512,-21.23201c0.35409,-1.14185 1.08992,-2.12777 2.08307,-2.79371c1.08455,-0.80588 1.97093,-1.84811 2.59231,-3.04764c1.11758,10.00648 -15.50088,36.52075 -15.50088,36.52075c0,0 4.11698,35.96288 12.35017,47.79766c8.23242,11.83478 31.35663,11.83478 31.9158,23.11115c0.55917,11.27637 3.04933,54.55303 -4.11698,56.07693l0.00001,0.00001z" fill="#BD4070" id="svg_71" stroke="null"/>
    <path d="m182.60599,185.32536c-4.52253,2.9971 -8.18173,3.96182 -22.0051,-4.62238c0,0 -19.71925,-28.85111 -24.03901,-33.77842c-3.04933,6.19697 -5.13317,4.97801 -5.69234,2.48939c-1.88029,22.90837 -2.64224,49.82926 -4.06552,57.2452c-0.29495,1.54003 -0.72047,3.05163 -1.27043,4.52023c3.6085,3.5555 6.40359,3.5555 10.97758,2.84502c4.57399,-0.71125 5.84442,-1.4732 12.55294,-0.20354c6.70852,1.26966 7.97895,2.69217 15.19595,9.09192c7.21623,6.40052 9.50361,1.16827 14.99164,-3.6062c5.48879,-4.77447 8.9959,-7.36524 13.5192,-15.1875c-1.01696,-3.65689 -2.38877,-8.12719 -4.21837,-13.91784c0,0 2.59155,2.48939 6.30143,5.63857c-0.50771,-2.54008 -1.93099,-5.13009 -2.84578,-9.90533c-1.7789,-8.93907 -4.87893,-3.6062 -9.40223,-0.6091l0.00004,-0.00002z" fill="#B3346E" id="svg_72" stroke="null"/>
    <path d="m176.86372,199.14105c-1.62605,10.26095 -3.96413,15.44174 -4.82823,17.27057c-0.86334,1.82806 -1.21973,-1.5239 -0.76195,-7.77156c0.45702,-6.24767 0.60987,-15.74667 0.60987,-15.74667l4.98031,6.24767l0,-0.00001z" fill="#A62D69" id="svg_73" stroke="null"/>
    <path d="m188.55256,190.20122c0,0 21.59954,20.57183 28.81578,19.04794c7.217,-1.5239 4.62469,-44.74986 4.11698,-56.07693c-0.50848,-11.32707 -23.68338,-11.27637 -31.91657,-23.11115c-2.79509,-4.01252 -5.1324,-10.81936 -6.96199,-18.08244c0.05069,0.45702 2.43946,20.92669 3.45565,26.92089c1.01619,5.99343 0.76195,29.00319 0.50848,32.508c-0.25424,3.50481 -0.30493,7.82226 1.98168,18.7937l-0.00001,-0.00001z" fill="#A12C66" id="svg_74" stroke="null"/>
    <path d="m147.54024,57.01896c-5.99727,-0.35555 -14.07761,-1.37143 -27.03764,-7.82234c2.08384,7.56833 18.60091,23.61932 25.8686,30.47678c-0.10984,5.40353 -1.08839,10.75407 -2.89725,15.84729c6.55644,9.29546 14.4847,3.25134 15.90721,29.35959c0.60987,11.12352 8.79236,25.9047 17.33048,41.90485c8.53812,16.00014 9.70716,-13.40937 9.35076,-27.88562c-0.20278,-7.87372 -1.77814,-17.6262 -3.45565,-26.92089c-3.6085,-14.0707 -5.3874,-29.71521 -5.3874,-29.71521c0,0 11.63814,-18.59038 14.78963,-30.47624c-0.79421,0.49373 -1.4156,1.22127 -1.7789,2.08253c-3.15225,7.10747 -6.68087,14.0422 -10.57126,20.77484c-4.01482,6.75553 -11.48529,10.10826 -20.07411,-3.20003c-8.58882,-13.30806 -5.59018,-14.01923 -12.04447,-14.42555z" fill="#A12C66" id="svg_75" stroke="null"/>
    <path d="m140.42539,122.84868c0,0 5.1324,-15.39105 8.23319,-6.65476c3.10002,8.73706 6.20005,18.48953 6.20005,18.48953c5.41966,2.027 11.19265,2.94256 16.97409,2.69217c9.30084,-0.50771 1.62682,23.46678 -8.6902,46.12091c-10.31702,22.65413 -19.10938,22.14642 -25.81714,8.78775c-2.7444,-5.53718 -1.32189,-16.00014 -2.59231,-27.27652c-2.6937,-23.21331 7.36908,-14.78118 5.69234,-42.15909l-0.00002,0.00001z" fill="#A62D69" id="svg_76" stroke="null"/>
    <path d="m181.69196,139.50862c-2.23592,-0.45702 -4.62469,-3.30126 -12.65433,-8.6856c0,0 -0.35563,-6.80607 -9.65646,-5.94274c0,0 -3.76058,-9.75248 -6.86061,-18.48953c-3.10002,-8.73629 -11.18113,-3.80897 -12.85788,5.0794c-3.76058,20.21621 -5.08247,57.65152 1.52466,71.01096c3.86274,7.82226 7.62332,9.44754 21.70093,13.46006c3.04933,1.4732 9.75785,-9.70178 13.11212,-27.53076c4.47184,-23.72025 5.69157,-25.09206 5.69157,-28.9018l0,0.00001z" fill="#BD4070" id="svg_77" stroke="null"/>
    <path d="m168.3256,135.24186c0,0 -9.19868,7.31455 -8.18249,38.19726c1.01619,30.88348 7.72471,18.48953 12.3494,-6.19621c4.62546,-24.68651 2.03314,-32.00106 -4.1669,-32.00106l-0.00001,0.00001z" fill="#1C1B29" id="svg_78" stroke="null"/>
    <path d="m211.32114,145.6549c0,0 -9.35153,11.632 -2.84578,41.80346c6.50498,30.17223 10.92612,16.86348 11.07897,-8.27927c0.15208,-25.14352 -2.13453,-34.64176 -8.23319,-33.52419z" fill="#1C1B29" id="svg_79" stroke="null"/>
    <path d="m146.87891,156.27071c0.50848,-27.22506 11.84169,-31.33973 11.84169,-31.33973c-7.47047,-0.45702 -10.06279,6.04412 -11.791,13.1052c-2.59155,10.51442 -2.59155,14.06993 -2.23592,16.71063c0.35563,2.64147 1.93099,6.40052 2.18522,1.5239l0.00001,0z" fill="#A62D69" id="svg_80" stroke="null"/>
    <path d="m227.0755,145.6042l4.92962,4.16537l-6.55567,0.15208l1.62605,-4.31745z" fill="#B3CAFF" id="svg_81" stroke="null"/>
    <path d="m177.52428,166.53166c0,0 -3.86197,-5.58788 -4.47184,-6.29913c-0.4693,-0.5538 -0.77424,-1.22741 -0.88177,-1.94481c-0.1083,-0.7174 -0.01383,-1.45093 0.2719,-2.1184l9.24938,-23.97449c1.01619,-2.69217 4.06552,-4.87662 6.75922,-4.87662l34.91443,0c1.57536,0 2.03314,0.35563 3.15072,1.98091c0.45778,0.71125 4.5233,6.14628 4.5233,6.14628l-53.51534,31.08626z" fill="#FFE9D4" id="svg_82" stroke="null"/>
    <path d="m215.23458,167.85201l-34.91443,0c-2.6937,0 -4.01482,-2.23515 -2.99863,-4.87662l9.24938,-23.97449c1.01619,-2.69217 4.06552,-4.87662 6.75922,-4.87662l34.91443,0c2.64301,0 4.01482,2.18446 2.99863,4.87662l-9.24938,23.97449c-1.06765,2.64147 -4.11698,4.87662 -6.75922,4.87662z" fill="#F5C698" id="svg_83" stroke="null"/>
    <path d="m196.98929,165.05846l-14.68747,0c-0.09601,-0.0023 -0.19049,-0.02765 -0.27498,-0.07374c-0.08449,-0.04609 -0.15746,-0.11137 -0.21199,-0.19049c-0.05453,-0.07911 -0.0891,-0.17052 -0.10139,-0.26576c-0.01306,-0.09524 -0.00307,-0.19202 0.02919,-0.28266l3.15149,-8.6349c0.14594,-0.3925 0.41016,-0.72969 0.7558,-0.96626c0.34564,-0.23657 0.75657,-0.36024 1.17518,-0.35486l14.28115,0c0.09371,-0.00614 0.18818,0.01075 0.27344,0.05069c0.08603,0.03994 0.15976,0.10062 0.21583,0.17666c0.05607,0.07604 0.0914,0.16514 0.10369,0.25808c0.01229,0.09371 0,0.18895 -0.03456,0.27651l-3.35426,9.04122c-0.09371,0.27728 -0.27114,0.51923 -0.50771,0.69128c-0.23657,0.17282 -0.52077,0.26883 -0.81341,0.27421l0,0.00002z" fill="#F5BE87" id="svg_84" stroke="null"/>
    <path d="m149.62331,131.33073c-3.40496,-0.20278 -10.16417,1.82883 -12.65433,3.80974c-2.49016,1.98091 -1.72821,-0.40632 -0.45778,-2.59001c1.27043,-2.18446 1.67752,-2.23515 5.94658,-2.33654c4.26906,-0.10216 8.02964,0 8.02964,0l-0.8641,1.11681l-0.00001,0z" fill="#A62D69" id="svg_85" stroke="null"/>
    <path d="m139.71414,126.50557c4.98031,1.06688 7.72471,2.13299 7.26693,0.96472c-0.97701,-1.99167 -2.1522,-3.88041 -3.50634,-5.6378c-1.37258,-1.67598 -2.64301,-2.0823 -3.81205,0c-1.16827,2.0823 -1.93099,4.26676 0.05146,4.67308z" fill="#B0356D" id="svg_86" stroke="null"/>
    <path d="m192.00898,224.89367c-8.79236,8.83845 -14.179,11.42922 -17.7368,13.51152c-3.55781,2.0823 0.60987,2.53932 6.96276,1.26966c6.35213,-1.26966 10.92612,-1.37105 12.65433,-7.36524c1.72821,-5.99343 2.99863,-12.39318 -1.88029,-7.41594z" fill="#A62D69" id="svg_87" stroke="null"/>
    <path d="m115.72506,249.32594c5.28602,0 6.50575,-0.76195 12.24801,-2.79355c5.74303,-2.03161 5.3874,2.69217 5.3874,2.69217l-17.63541,0.10139l0,-0.00001z" fill="#A62D69" id="svg_88" stroke="null"/>
    <path d="m125.12728,236.01796l12.04447,8.88914c2.54085,1.82806 3.6085,0.96472 7.97895,-2.4387c4.37045,-3.40265 6.91207,-3.80897 -2.54085,-5.18079c-9.45292,-1.37105 -15.09379,-2.79355 -17.07624,-3.19988c-1.98168,-0.40632 -2.84578,0.20278 -0.40632,1.93022l-0.00001,0.00001z" fill="#B3366F" id="svg_89" stroke="null"/>
    <path d="m157.14524,223.87825c3.40496,5.53641 8.18249,13.81569 10.46911,17.2698c2.28738,3.45411 2.18599,5.33364 -1.93099,2.69217c-4.11621,-2.64147 -9.90994,-7.51733 -13.00996,-10.20949c-3.10002,-2.69217 -2.13453,-3.50481 -0.66133,-9.29546c1.47397,-5.79065 2.08384,-5.38433 5.13317,-0.45702z" fill="#B3366F" id="svg_90" stroke="null"/>
    <path d="m231.44595,154.03633c0.66056,-2.4387 3.25287,-5.53718 -4.52253,-5.0794c-4.47261,-0.15285 -6.50575,0.35486 -7.67478,1.06611c-1.16827,0.71125 -2.388,3.09849 -2.33731,5.28294c0.05069,2.18369 4.1669,2.13299 8.53812,1.93022c4.37045,-0.20354 5.38664,-0.76195 5.9965,-3.19988l0,0.00001z" fill="#B3CAFF" id="svg_91" stroke="null"/>
    <path d="m227.43189,161.60435c0.60987,-2.48862 3.20141,-5.58711 -4.57399,-5.13009c-4.42191,-0.15285 -6.50575,0.40632 -7.67402,1.06688c-1.16904,0.65979 -2.38877,3.14918 -2.33807,5.33287c0.05069,2.18446 4.21837,2.08307 8.58882,1.93022c4.37045,-0.15208 5.33594,-0.76195 5.99727,-3.19988l-0.00001,0z" fill="#B3CAFF" id="svg_92" stroke="null"/>
    <path d="m225.44944,157.2362c4.37045,-0.15285 5.38664,-0.76195 5.9965,-3.19988c0.25424,-0.9148 0.76272,-1.93022 0.9148,-2.84502c-1.52466,0.66056 -6.75922,0 -9.55431,0c-2.79509,0 -3.91343,1.82883 -4.67538,5.63857c1.57536,0.6091 4.37045,0.5584 7.31839,0.40632l0,0.00001z" fill="#8DAEF7" id="svg_93" stroke="null"/>
    <path d="m221.43462,164.80422c4.31975,-0.20278 5.33594,-0.76195 5.9965,-3.19988c0.20354,-0.96472 0.76272,-1.98091 0.8641,-2.84425c-1.52466,0.6091 -6.75922,-0.05069 -9.50361,-0.05069c-2.7444,0 -3.96413,1.87876 -4.72608,5.6378c1.57536,0.66056 4.42114,0.5584 7.36908,0.45702l0.00001,0z" fill="#8DAEF7" id="svg_94" stroke="null"/>
    <path d="m174.87436,19.35284c0.58605,-0.85642 -0.90942,-2.8997 -3.3412,-4.56385c-2.43178,-1.66415 -4.87816,-2.31895 -5.46498,-1.46253c-0.58682,0.85642 0.90865,2.89978 3.34044,4.56393c2.43178,1.66415 4.87893,2.31887 5.46575,1.46245l-0.00001,0z" fill="#D4E1FF" id="svg_95" stroke="null"/>
    <path d="m151.30082,32.12999c8.94444,4.31753 12.04447,9.80325 19.21077,9.60009c7.16554,-0.20316 9.96063,-3.6572 12.85788,-8.27943c-1.16904,-2.5397 -4.37122,5.0794 -11.38467,5.0794c-7.01269,0 -16.16068,-9.39693 -20.68398,-6.40006z" fill="#8DAEF7" id="svg_96" stroke="null"/>
    <path d="m251.87645,225.65562c2.60384,-0.88792 5.13547,-1.97477 7.57263,-3.25057c1.47397,-0.86334 0.45778,-2.48862 -2.59155,-9.90456c-3.04933,-7.41594 -4.98108,-10.56589 -5.59095,-4.82593c-0.81264,7.46663 -2.33731,19.04794 0.60987,17.98106z" fill="#4189E8" id="svg_97" stroke="null"/>
    <path d="m155.92551,107.40694c5.1324,7.21239 -1.7789,-14.47625 -1.7789,-14.47625l-9.80855,0c-1.32112,4.52023 -3.15072,8.58421 -5.08247,13.51076c2.94794,-7.41594 9.19868,-9.44754 16.66992,0.96549z" fill="#A12C66" id="svg_98" stroke="null"/>
    <path d="m324.95819,128.63933l4.98108,-2.18446c0.02074,-0.01383 0.03764,-0.03303 0.04993,-0.0553c0.01152,-0.02151 0.01767,-0.04685 0.01767,-0.07143c0,-0.02535 -0.00614,-0.04993 -0.01767,-0.0722c-0.01229,-0.02227 -0.02919,-0.04148 -0.04993,-0.0553l-4.98108,-2.18369l-0.05069,0l-2.23592,-5.0287c0,-0.02688 -0.01075,-0.053 -0.02996,-0.0722c-0.0192,-0.0192 -0.04455,-0.02996 -0.07143,-0.02996c-0.02688,0 -0.053,0.01075 -0.0722,0.02996c-0.0192,0.0192 -0.02996,0.04532 -0.02996,0.0722l-2.23592,5.0287l-0.05069,0l-4.98031,2.18369c-0.02151,0.01383 -0.0384,0.03303 -0.05069,0.0553c-0.01152,0.02227 -0.01767,0.04685 -0.01767,0.0722c0,0.02458 0.00614,0.04993 0.01767,0.07143c0.01229,0.02227 0.02919,0.04148 0.05069,0.0553l4.98031,2.18446l0.05069,0l2.23592,5.02794c0,0.02688 0.01075,0.053 0.02996,0.0722c0.0192,0.0192 0.04532,0.02996 0.0722,0.02996c0.02688,0 0.05223,-0.01075 0.07143,-0.02996c0.0192,-0.0192 0.02996,-0.04532 0.02996,-0.0722l2.23592,-5.02794l0.05069,0z" fill="#FFB097" id="svg_99" stroke="null"/>
    <path d="m213.91269,78.40336l3.81128,-1.67621c0.10216,-0.05077 0.10216,-0.15231 0,-0.15231l-3.81128,-1.72706l-0.05069,0l-1.72821,-3.80959c0,-0.10154 -0.10139,-0.10154 -0.15208,0l-1.67752,3.80959l-0.05069,0l-3.86274,1.72706c-0.05069,0 -0.05069,0.10154 0,0.15231l3.86274,1.67621l0.05069,0l1.67752,3.86005l0.15208,0l1.72821,-3.86005l0.05069,0z" fill="#A1F7D7" id="svg_100" stroke="null"/>
    <path d="m86.45227,187.40766l5.84442,-2.59078c0.02097,-0.01383 0.03817,-0.03226 0.05008,-0.05453c0.01191,-0.02227 0.01813,-0.04685 0.01813,-0.0722c0,-0.02535 -0.00622,-0.04993 -0.01813,-0.0722c-0.01191,-0.02151 -0.02911,-0.04071 -0.05008,-0.05453l-5.84442,-2.59078l-0.1017,-0.10139l-2.59185,-5.84135c-0.0139,-0.02074 -0.0328,-0.0384 -0.055,-0.04993c-0.0222,-0.01229 -0.04693,-0.01843 -0.07212,-0.01843c-0.02512,0 -0.04993,0.00614 -0.07205,0.01843c-0.0222,0.01152 -0.04109,0.02919 -0.055,0.04993l-2.59185,5.84135l0,0.10139l-5.8445,2.59078c-0.02097,0.01383 -0.03817,0.03303 -0.05008,0.05453c-0.01191,0.02227 -0.01813,0.04685 -0.01813,0.0722c0,0.02535 0.00622,0.04993 0.01813,0.0722c0.01191,0.02227 0.02911,0.04071 0.05008,0.05453l5.79365,2.59078c0.05085,0 0.05085,0 0.05085,0.05069l2.59185,5.84135c0.0139,0.02151 0.0328,0.0384 0.055,0.04993c0.02212,0.01229 0.04693,0.01843 0.07205,0.01843c0.02519,0 0.04993,-0.00614 0.07212,-0.01843c0.0222,-0.01152 0.04109,-0.02842 0.055,-0.04993l2.59185,-5.84135l0.1017,-0.05069z" fill="#4D90E8" id="svg_101" stroke="null"/>
    <path d="m306.61075,137.5784l-3.10002,8.33074c-0.05377,0.17436 -0.1613,0.32721 -0.30724,0.43704c-0.14594,0.10907 -0.32337,0.16975 -0.50541,0.17205l-13.77267,0c-0.09678,0.0023 -0.19202,-0.02151 -0.27728,-0.06759c-0.08449,-0.04532 -0.15592,-0.11291 -0.20739,-0.19433c-0.05146,-0.08219 -0.07988,-0.17589 -0.08449,-0.27267c-0.00384,-0.09601 0.0169,-0.19202 0.06068,-0.27805l3.45565,-8.88914c0.03456,-0.10216 0.04301,-0.21046 0.02535,-0.31722c-0.01767,-0.106 -0.06145,-0.20662 -0.12674,-0.29188l-1.06765,-1.67598l15.04387,0l0.66056,0.96472c0.19356,0.30724 0.31261,0.65595 0.34795,1.01696c0.03533,0.36177 -0.01459,0.72662 -0.14517,1.06534l0,0.00001z" fill="#44C0C4" id="svg_102" stroke="null"/>
    <path d="m301.7326,145.14719l-10.21487,0c-0.06913,0.00461 -0.13826,-0.00768 -0.20124,-0.03687c-0.06298,-0.02919 -0.11675,-0.07374 -0.15746,-0.12981c-0.04071,-0.05607 -0.06682,-0.12136 -0.07527,-0.18972c-0.00845,-0.06913 0.00077,-0.13826 0.02765,-0.20278l2.18522,-6.04412c0.10523,-0.27575 0.29418,-0.51232 0.53997,-0.67592c0.24579,-0.16437 0.5369,-0.24733 0.83184,-0.23888l9.9614,0c0.06452,0.00384 0.1275,0.02227 0.18357,0.0553c0.05607,0.03226 0.10369,0.07835 0.13826,0.13288c0.03456,0.05453 0.05607,0.11675 0.06222,0.18127c0.00538,0.06452 -0.00384,0.12981 -0.02842,0.18972l-2.28738,6.29836c-0.07911,0.19202 -0.21276,0.35716 -0.38405,0.47391c-0.17128,0.11752 -0.37329,0.18204 -0.58145,0.18665l0.00001,0.00001z" fill="#3D9BB0" id="svg_103" stroke="null"/>
    <path d="m220.51905,134.98839l-2.08384,5.6378c-0.06913,0.17436 -0.18741,0.32567 -0.34103,0.4332c-0.15285,0.1083 -0.33489,0.16975 -0.5223,0.17666l-17.94035,0c-0.10062,0.01152 -0.20278,-0.00538 -0.29495,-0.04685c-0.09217,-0.04225 -0.17128,-0.1083 -0.22889,-0.19202c-0.05761,-0.08372 -0.09063,-0.18127 -0.09678,-0.28189c-0.00691,-0.10139 0.01459,-0.20201 0.06145,-0.29188l2.43946,-6.24767c0.04148,-0.10676 0.05914,-0.22198 0.04993,-0.33642c-0.00845,-0.11445 -0.04301,-0.22505 -0.10062,-0.32414l-1.16904,-1.77814l19.31216,0l0.66056,1.06688c0.20354,0.32183 0.33182,0.68514 0.37637,1.06304c0.04378,0.3779 0.0023,0.76118 -0.12213,1.12142l0,0.00001z" fill="#F28E8C" id="svg_104" stroke="null"/>
    <path d="m215.53951,139.55931l-13.06142,0c-0.06298,0.0023 -0.12597,-0.00999 -0.18281,-0.03687c-0.05761,-0.02612 -0.1083,-0.06606 -0.14747,-0.11521c-0.03917,-0.04916 -0.06682,-0.10676 -0.07988,-0.16898c-0.01383,-0.06145 -0.01229,-0.1252 0.00384,-0.18665l1.06688,-2.94564c0.11061,-0.25885 0.29495,-0.47852 0.52998,-0.63214c0.23504,-0.15362 0.51078,-0.23427 0.7919,-0.23196l12.75572,0c0.06298,-0.00614 0.12674,0.00461 0.18357,0.03072c0.05761,0.02688 0.10676,0.06759 0.14287,0.11982c0.03687,0.05146 0.05838,0.11214 0.06375,0.17436c0.00461,0.06298 -0.00691,0.12674 -0.03456,0.18357l-1.11758,3.19988c-0.07835,0.1782 -0.20585,0.33105 -0.36792,0.43935c-0.16207,0.10753 -0.35179,0.16668 -0.54688,0.16975l0.00001,0z" fill="#E0E2FF" id="svg_105" stroke="null"/>
    <path d="m185.85963,158.09954c-2.33807,7.00962 -5.33671,8.32997 -9.70716,7.1617c-2.19444,-0.54381 -4.29902,-1.3987 -6.25074,-2.53932c-5.08247,-3.04779 -7.92826,-8.43212 -5.64164,-18.1846c2.33807,-12.44464 7.41978,-10.81936 11.63814,-10.1081c2.08384,0.35563 3.45565,0.8641 4.31975,1.5239l-0.60987,1.57459l-1.11758,2.9971l-1.47397,0.40632c-0.2358,0.0722 -0.45087,0.1997 -0.626,0.37329c-0.17513,0.17282 -0.30647,0.38635 -0.38097,0.62062c-0.07527,0.23504 -0.09217,0.4839 -0.04916,0.72662c0.04225,0.24272 0.14287,0.47161 0.29341,0.6667l0.71202,1.11758l4.67538,7.26386c0,0 5.13317,-1.37181 6.96276,0.05069c3.35426,2.74286 0.35563,6.29836 -2.7444,6.34906l0.00003,-0.00001z" fill="#B3CAFF" id="svg_106" stroke="null"/>
    <path d="m179.60812,137.5277l-1.11758,2.9971l-1.47397,0.40632c-0.2358,0.0722 -0.45087,0.1997 -0.626,0.37329c-0.17513,0.17282 -0.3057,0.38558 -0.38097,0.62062c-0.07527,0.23504 -0.09217,0.4839 -0.04916,0.72662c0.04225,0.24272 0.14363,0.47161 0.29418,0.6667c-2.6937,-4.21606 -2.18599,-5.94274 1.32112,-5.94274l2.03237,0.15208l0.00001,0.00001z" fill="#8DAEF7" id="svg_107" stroke="null"/>
    <path d="m189.92514,153.57854c-1.11834,-0.25347 -3.10002,-0.30416 -6.3529,0.71125c-5.74303,1.82883 -8.38604,-0.25347 -10.11348,-2.18369c-2.23054,-2.49169 -4.30132,-5.12088 -6.20005,-7.87372c-0.8641,-1.21896 -2.7444,-1.06611 -2.99863,0.30493c-3.10002,13.30798 3.25211,18.43807 11.94308,20.72392c2.23592,0.60987 5.33594,1.06688 7.31839,-0.15208c1.98168,-1.21896 1.8296,-1.5239 2.18522,-3.96182c0.21199,-1.00159 0.26346,-2.03007 0.15208,-3.04779c2.43946,-0.05069 4.77754,-2.23515 4.06628,-4.521l0.00001,0z" fill="#8DAEF7" id="svg_108" stroke="null"/>
    <path d="m185.85963,158.09954c-2.75592,0.76425 -5.55715,1.35799 -8.38604,1.77737c-1.16904,0.20354 -2.7444,-0.30416 -4.62469,-2.23438c-1.88029,-1.93022 -2.54085,-2.48939 -2.18522,-0.9148c0.35563,1.57459 2.33807,2.74286 4.01482,3.60696c1.67752,0.86334 2.08384,0.81264 4.82823,0.20278c1.72744,-0.40632 6.40359,-1.98091 6.40359,-1.98091l-0.05069,-0.45702z" fill="#5E86E0" id="svg_109" stroke="null"/>
    <path d="m134.27604,127.97877c-5.74303,4.87585 -6.3022,8.43136 -2.84655,14.72972c3.45642,6.29913 2.84655,-14.72972 2.84655,-14.72972z" fill="#BD4070" id="svg_110" stroke="null"/>
    <path d="m131.07386,140.27056c-1.42328,3.65766 -2.13453,5.89204 -0.20354,9.14338c1.01619,1.77737 4.67538,-1.32112 4.42191,-4.26676c-0.25424,-2.9464 -4.21837,-4.87662 -4.21837,-4.87662z" fill="#BD4070" id="svg_111" stroke="null"/>
    <path d="m286.95833,81.62359c1.64833,-0.15823 2.79739,-2.23361 2.5662,-4.63529c-0.23196,-2.40144 -1.75586,-4.2196 -3.40419,-4.06098c-1.64833,0.15861 -2.79663,2.234 -2.56543,4.63544c0.2312,2.40175 1.75509,4.21983 3.40342,4.06083z" fill="#45C8BF" id="svg_112" stroke="null"/>
    <path d="m170.66368,131.53427c-5.3874,-3.14918 -11.791,0.15208 -12.85788,6.95892c-1.06765,6.80607 -2.23669,9.1933 -2.08384,6.95892c0.15208,-2.23515 0.45702,-9.04199 2.03237,-12.24187c1.57613,-3.19988 4.21837,-6.39975 7.92826,-5.79065c3.70989,0.60987 4.98108,2.48939 4.98108,4.11467l0.00001,0.00001z" fill="#A62D69" id="svg_113" stroke="null"/>
    </g>
</svg>