<svg data-name="ONLINE-tab" xmlns="http://www.w3.org/2000/svg" width="415" height="250" viewBox="0 0 415 250" fill="none">
    <g stroke="null" id="svg_210">
    <path stroke="null" id="svg_4" fill="#79C2C9" d="m381.81648,244.63991l32.70836,0c1.55778,-9.14773 -4.61692,-13.43904 -9.06658,-13.2698c-1.94673,-14.11797 -17.63435,-20.3857 -31.37327,-4.96925c-13.73991,15.41546 7.73148,18.23905 7.73148,18.23905z"/>
    <path stroke="null" id="svg_5" fill="#82D1D9" d="m405.50874,230.6219c-1.65972,-12.18906 -13.44399,-18.50924 -25.44995,-10.15722l0.44239,1.29749c10.06914,-2.99085 16.98511,3.55597 19.36433,6.82888c-5.92034,-0.67794 -8.07787,3.61139 -8.07787,3.61139c7.30294,-1.29749 11.72984,1.91901 12.67005,5.47399c3.26401,-1.74978 10.12456,-0.95901 10.06914,6.20735c1.54986,-9.14179 -4.59218,-13.43112 -9.01808,-13.26189z"/>
    <path stroke="null" id="svg_6" fill="#33859C" d="m14.32123,243.88379c-10.6395,-6.64084 -16.01472,-16.09439 -11.47074,-16.88218c4.54398,-0.78879 12.52357,0 12.52357,0c-0.77572,-13.56275 3.98985,-16.88317 10.97203,-2.75827c5.3198,-24.08616 13.85362,-13.56275 12.52367,0c14.90646,-10.01668 14.35233,2.75827 10.36248,10.57982c12.30198,-4.61395 17.84337,-0.50573 8.25671,9.06064l-43.16773,0z"/>
    <path stroke="null" id="svg_7" fill="#EB8381" d="m176.30575,67.71251l-30.07578,31.96015c0,0 -2.33963,9.87219 -8.02047,25.21144c-0.0673,0.16627 -0.18309,0.30779 -0.33155,0.40775c-0.14944,0.09897 -0.32462,0.15142 -0.50375,0.14944l-2.28421,0c-0.15241,0.00792 -0.29988,0.05542 -0.42854,0.13658c-0.12866,0.08214 -0.23456,0.19596 -0.30779,0.32957c-0.07225,0.1346 -0.10986,0.28503 -0.10689,0.43843c0.00198,0.15241 0.04355,0.30186 0.11975,0.43448l1.89328,2.67712c0.08709,0.09699 0.1445,0.21674 0.16429,0.34639c0.01979,0.12866 0.00099,0.26029 -0.05245,0.37905c-3.0631,9.70493 -5.79267,19.40986 -6.90608,35.08363c-0.16726,1.67258 -1.44891,3.7925 -2.95225,4.57337c-1.50433,0.78087 -3.11951,3.84892 -3.00768,4.79704c0.2781,3.40256 1.44792,4.90789 2.84042,6.35878c0.79076,0.77988 1.41823,1.70821 1.84875,2.73254c0.43052,1.02433 0.6532,2.12388 0.65815,3.23531c0.05542,2.56528 0.11085,5.63333 0.16627,7.92051c-0.00495,0.41369 -0.16429,0.81155 -0.44536,1.11538c-2.00512,2.45444 -2.95126,4.68521 -2.785,6.13511c0.16726,1.45089 1.28165,3.40256 3.39762,5.24339c0.31373,0.29295 0.51167,0.68883 0.5572,1.11538c0.38994,4.9643 0.89072,10.15128 1.55976,15.50552c0,0 -13.64589,9.0359 -19.15947,10.26312c-5.51457,1.22722 -51.01768,1.72899 -67.50369,-13.66469c-0.6241,-11.80209 -0.51246,-23.6309 0.33422,-35.41913c4.56704,-62.24674 54.19163,-111.7205 116.3483,-116.35028l14.98296,-1.11538z"/>
    <path stroke="null" id="svg_8" fill="#D66576" d="m89.52156,122.29209c8.71623,17.69769 24.80665,23.1311 24.80665,23.1311l17.71154,1.67951c1.18664,-5.65807 2.6791,-11.24885 4.46945,-16.7456c0.05443,-0.11975 0.07225,-0.25138 0.05245,-0.38103c-0.01979,-0.12965 -0.0772,-0.25039 -0.16429,-0.34738l-1.89922,-2.68801c-0.0772,-0.13262 -0.11876,-0.28305 -0.12074,-0.43645c-0.00198,-0.1534 0.03464,-0.30483 0.10788,-0.44041c0.07324,-0.1346 0.17913,-0.24841 0.30878,-0.33056c0.12866,-0.08214 0.27711,-0.12866 0.42953,-0.13757l2.29114,0c0.18012,0.00198 0.3553,-0.05047 0.50573,-0.15043c0.14944,-0.09996 0.26524,-0.24247 0.33254,-0.40874c2.90475,-7.89775 4.97222,-14.33867 6.25783,-18.7626l-55.08928,16.01818z"/>
    <path stroke="null" id="svg_9" fill="#F09C8B" d="m114.51823,88.68905c0,0 -4.77131,5.5789 -15.49166,25.10653c-10.72035,19.52763 -17.23154,56.46297 -5.61255,79.505c8.53115,16.90593 11.95549,33.81088 13.13422,41.5097c1.73988,-0.05542 3.19869,-0.16726 4.26558,-0.2781c-1.23514,-7.81165 -4.65848,-24.49391 -13.0778,-41.2316c-11.619,-23.04203 -5.16422,-59.92195 5.55614,-79.505c10.72134,-19.58305 15.54808,-25.10653 15.54808,-25.10653c4.03696,-5.20183 8.62913,-9.95334 13.69537,-14.17141c-1.79629,0.5572 -3.64801,1.1718 -5.4443,1.84083c-4.49024,3.79448 -9.20513,8.14616 -12.57306,12.33058z"/>
    <path stroke="null" id="svg_10" fill="#F09C8B" d="m115.6544,101.85988c-20.00169,28.24089 -19.77901,46.28299 -15.50156,53.06338c4.27844,6.7794 13.27871,-5.77189 13.27871,-5.77189l1.94475,-9.1893c0,0 -8.50047,14.96119 -11.00044,9.1893c-6.83383,-15.80144 14.7781,-45.10625 20.55691,-52.4468c5.77783,-7.34055 17.61159,-20.06009 24.77894,-13.05504l2.44454,-4.09139c-7.0001,-6.4429 -18.72301,-2.689 -36.50186,22.30174z"/>
    <path stroke="null" id="svg_11" fill="#DE7887" d="m96.06343,120.55518c-0.97683,2.3624 -1.90021,4.88908 -2.76817,7.52563c0.92437,1.3539 1.92099,2.65535 2.9859,3.90038c1.23712,-4.38236 2.76124,-8.67565 4.56051,-12.85413l-4.77824,1.42813z"/>
    <path stroke="null" id="svg_12" fill="#DE7887" d="m99.3314,135.83208c1.31134,1.33114 2.70978,2.57122 4.18442,3.71036c0.77097,-7.41973 4.46055,-15.90733 8.64497,-23.43989l-6.0015,1.79926c-3.02351,5.65115 -5.31762,11.67838 -6.82789,17.93027z"/>
    <path stroke="null" id="svg_13" fill="#DE7887" d="m115.9335,139.54244c0,0 -1.32421,2.54945 -3.01856,5.15927l1.85369,0.88874l1.16487,-6.04801z"/>
    <path stroke="null" id="svg_14" fill="#F09C8B" d="m90.72305,97.8447c-10.00679,22.68277 -26.9438,61.72022 -31.63939,75.49774c-2.68316,7.89676 -8.99977,9.96918 -13.52762,10.41751l-0.16765,2.016c-0.16775,1.96058 -0.27949,3.92116 -0.39132,5.93717c6.31662,-0.672 16.76975,-4.59316 21.18586,-22.40269c2.90673,-11.64968 18.7821,-49.73504 30.12992,-75.89064c-1.95662,1.45584 -3.80141,2.91267 -5.58979,4.42492z"/>
    <path stroke="null" id="svg_15" fill="#9E3064" d="m260.57118,27.98851c-15.73315,-13.66924 -42.0095,-0.89636 -49.54106,21.12015c-7.53255,22.01631 -22.6511,41.5677 -22.6511,41.5677c7.58699,15.63022 49.26296,-4.64958 59.86257,-12.09999c10.6006,-7.4514 28.06274,-36.97453 12.32959,-50.58786z"/>
    <path stroke="null" id="svg_16" fill="#752459" d="m252.52102,23.56498c-15.4115,-5.20747 -35.2588,6.83116 -41.6344,25.53299c-7.53948,21.94981 -22.5076,41.54771 -22.5076,41.54771c3.21551,6.71903 12.63937,6.83086 23.22809,4.19927c0.65122,-1.78343 1.152,-3.61931 1.49741,-5.48785c9.20217,-49.49801 39.36108,-65.4002 39.36108,-65.4002c0.04553,-0.1253 0.06433,-0.2588 0.05542,-0.39192z"/>
    <path stroke="null" id="svg_17" fill="#9E3064" d="m77.44335,29.66653c2.11695,-2.3239 1.96256,-5.92015 -0.3454,-8.03225c-2.30796,-2.1122 -5.8956,-1.94049 -8.01255,0.38341l-6.57819,7.22011c-2.11735,2.3239 -1.96276,5.92005 0.3452,8.03225c2.30796,2.1121 5.8954,1.94049 8.01246,-0.38351l6.57849,-7.22001z"/>
    <path stroke="null" id="svg_18" fill="#F79D79" d="m135.50368,106.83111c0,0 -16.19731,30.66267 -12.11978,114.36991l118.23367,-0.55918c0,0 7.70773,-77.16042 -50.15269,-145.36808l-55.9612,31.55735z"/>
    <path stroke="null" id="svg_19" fill="#A65671" d="m240.97724,220.64184l-117.61115,0.55918c-4.00034,-83.57264 12.05545,-114.18582 12.05545,-114.18582l5.55515,-7.59787l4.55556,-6.20142l27.05623,-24.74727l18.50033,7.0387c12.77793,15.13933 21.33283,14.02197 28.50019,29.4404l0.72149,1.5647l0.16726,0.39093c1.88833,4.46846 3.66681,8.99334 5.22162,13.40737c-0.44437,2.84834 -0.33254,3.29568 1.44495,4.07753c6.241,18.91006 10.41355,38.44759 12.4444,58.26619c2.44454,22.68079 1.38854,37.98738 1.38854,37.98738z"/>
    <path stroke="null" id="svg_20" fill="#9E4C67" d="m215.54609,119.41901l-13.09958,9.53767l-35.11925,0l-12.15244,-33.04486c19.73349,-21.7683 41.86401,-18.79526 57.08252,15.70841c0.94714,2.24462 2.06252,4.76933 3.28875,7.79878z"/>
    <path stroke="null" id="svg_21" fill="#262538" d="m158.95248,83.59015c-11.63285,0 -25.1669,16.17356 -33.4437,42.25197c-3.1878,19.36235 -4.97717,34.80849 -2.06945,95.35889l77.00999,-0.33551c5.70459,-14.15855 9.05965,-31.33863 9.05965,-49.91813c0,-48.23961 -22.65011,-87.35723 -50.55648,-87.35723z"/>
    <path stroke="null" id="svg_22" fill="#E688C0" d="m195.17128,49.61993c-17.05142,15.61102 -35.14202,30.04015 -54.14907,43.18624c-28.38142,19.64046 -58.21077,35.43101 -80.19274,37.66277c-22.8726,-32.64106 -18.08664,-78.00334 12.46607,-104.95298c0,-0.01485 0.00594,-0.029 0.01584,-0.03949c0.01089,-0.01049 0.02474,-0.01633 0.03959,-0.01633c15.73315,-13.87233 36.3148,-20.91766 57.22405,-19.58909c20.91023,1.32866 40.43984,10.92255 54.30049,26.67519c5.34236,6.13758 8.68159,11.77309 10.29578,17.07369z"/>
    <path stroke="null" id="svg_23" fill="#D1528D" d="m168.75836,65.36772c0,0 -11.38543,12.25161 -27.46002,27.51069c-28.46456,19.60285 -58.381,35.36272 -80.4271,37.59052c-22.9393,-32.57871 -18.13929,-77.8541 12.50249,-104.75217c0,-0.01475 0.00594,-0.0289 0.01584,-0.03939c0.01089,-0.01039 0.02474,-0.01623 0.03959,-0.01623c1.61914,-1.28086 50.62279,-38.927 95.3292,39.70658z"/>
    <path stroke="null" id="svg_24" fill="#E46296" d="m146.38833,116.10255c32.81228,-28.99899 63.06224,-48.33166 34.14936,-81.24182c-11.25281,-12.80485 -26.32187,-21.62885 -42.97049,-25.16185c-16.6496,-3.5331 -33.991,-1.58687 -49.45001,5.5497c-5.20381,2.81597 -10.06419,6.22853 -14.48416,10.16929c-1.28066,1.11746 -2.56232,2.29084 -3.73213,3.52004l76.48743,87.16463z"/>
    <path stroke="null" id="svg_25" fill="#D1528D" d="m182.34189,82.59452l-11.94955,-29.88962c0,0 -29.01384,-30.00135 -91.65447,-31.11456c-1.72306,1.28017 -3.44611,2.67168 -5.11275,4.17452c-1.66763,1.50285 -2.55737,2.28213 -3.72421,3.50668l76.31324,86.83101c13.95071,-12.35632 27.45705,-22.87675 36.12775,-33.50803z"/>
    <path stroke="null" id="svg_26" fill="#C24680" d="m73.67361,25.37087c5.19787,25.04507 39.58673,71.82954 39.58673,71.82954l3.4283,-3.02549c-23.33201,-31.82467 -39.03349,-57.26205 -43.01502,-68.80405z"/>
    <path stroke="null" id="svg_27" fill="#F7BB9C" d="m130.12866,209.04165c-0.01089,-0.21476 -0.0673,-0.42458 -0.1633,-0.61658c-0.09699,-0.192 -0.23159,-0.36124 -0.39687,-0.49979c-2.12982,-1.83984 -3.30755,-3.62525 -3.41939,-5.2424c-0.11184,-1.61815 0.78483,-3.68166 2.80281,-6.1361c0.27414,-0.30878 0.4325,-0.70268 0.44833,-1.11538c-0.05641,-2.28718 -0.11184,-5.35424 -0.16825,-7.92051c-0.01188,-2.23275 -0.89567,-4.37345 -2.46631,-5.96785c-1.45683,-1.45089 -2.63456,-2.95621 -2.91465,-6.35878c-0.11184,-0.8927 0.95307,-3.62525 2.91465,-4.74162c0.8165,-0.50672 1.51522,-1.18268 2.04669,-1.98137c0.53147,-0.79868 0.88479,-1.70128 1.03621,-2.64743c1.12132,-15.67377 3.86772,-25.37969 6.95061,-35.08461c0.04751,-0.11975 0.06235,-0.25039 0.04256,-0.37806c-0.01979,-0.12767 -0.07324,-0.24742 -0.15538,-0.34738l-1.90516,-2.67712c-0.0772,-0.13262 -0.11876,-0.28206 -0.12074,-0.43448c-0.00297,-0.1534 0.03464,-0.30384 0.10788,-0.43843c0.07324,-0.13361 0.18012,-0.24742 0.30977,-0.32858c0.12965,-0.08214 0.2781,-0.12866 0.43151,-0.13757l2.29807,0c0.18012,0.00198 0.35728,-0.04948 0.50672,-0.14944c0.15043,-0.09996 0.26623,-0.24149 0.33353,-0.40775c3.56092,-9.45355 8.08777,-18.51913 13.50832,-27.05227l-14.4604,-6.47061c-6.83878,8.58955 -12.05149,18.46272 -16.03105,28.8931c-0.05839,0.13955 -0.15043,0.26326 -0.26821,0.36025c-0.11678,0.09699 -0.25534,0.16528 -0.40379,0.19794c-2.52273,0.44536 -4.59613,0.50177 -4.87622,1.61716c-0.28107,1.11538 3.53122,3.5144 3.19473,4.46253c-4.54071,13.88836 -7.06245,28.50217 -8.35202,42.33511c-0.05146,0.46812 -0.23753,0.91151 -0.53542,1.27769c-0.2979,0.36619 -0.69575,0.63934 -1.14606,0.78582c-3.02648,1.11538 -5.99754,4.51795 -6.1648,5.857c-0.16825,1.33905 2.4099,5.41065 4.53972,8.03235c1.42912,1.70425 2.20405,3.85881 2.18623,6.07968c0,2.6217 0,4.90789 0.05542,6.19152c0.00198,0.61262 -0.21674,1.20644 -0.61658,1.67258c-1.0085,1.22722 -2.85823,4.46253 -2.85823,5.96884c0,1.50532 2.29807,5.07515 3.53122,6.46962c0.2108,0.20685 0.33155,0.48693 0.3365,0.78087c0.78483,13.33116 2.12982,21.92071 2.12982,21.92071c5.54921,-1.22623 19.2812,-10.26312 19.2812,-10.26312c-0.67299,-5.35424 -1.17674,-10.54122 -1.56965,-15.50552z"/>
    <path stroke="null" id="svg_28" fill="#E67E8E" d="m125.09904,112.06559c-1.23613,2.74244 -2.47225,5.54129 -3.53914,8.39557c-0.05938,0.14054 -0.15142,0.26425 -0.2692,0.36223c-0.11678,0.09699 -0.25633,0.16528 -0.40478,0.19794c-2.52867,0.44734 -4.60702,0.50375 -4.88809,1.6231c-0.28107,1.11934 3.53914,3.52628 3.20166,4.47737c-1.94574,6.00348 -3.54013,12.11483 -4.77527,18.30239l17.81051,1.67852c1.16685,-5.66104 2.66821,-11.24885 4.4942,-16.73472c0.04849,-0.11975 0.06334,-0.25138 0.04355,-0.37905c-0.01979,-0.12767 -0.07423,-0.24841 -0.15538,-0.34837l-1.91011,-2.68702c-0.0772,-0.13262 -0.11975,-0.28206 -0.12173,-0.43546c-0.00198,-0.1534 0.03563,-0.30483 0.10887,-0.43942c0.07324,-0.1346 0.18012,-0.24841 0.30977,-0.33056c0.13064,-0.08214 0.27909,-0.12965 0.4325,-0.13757l2.30401,0c0.18111,0.00198 0.35728,-0.05047 0.50771,-0.15043c0.15043,-0.09996 0.26722,-0.24247 0.33551,-0.40874c2.51976,-6.72793 5.54327,-13.25694 9.0448,-19.53357l-22.52937,6.54781z"/>
    <path stroke="null" id="svg_29" fill="#D66576" d="m115.94735,122.25151c-0.02078,0.10788 -0.01682,0.21971 0.01287,0.32561c0.0287,0.1059 0.08313,0.20388 0.15637,0.28602l0.45229,0.61163l19.3287,4.72578c-0.33946,-0.50078 -0.73534,-1.11143 -1.13122,-1.61221c-0.0772,-0.13163 -0.11876,-0.28107 -0.12173,-0.43349c-0.00198,-0.15241 0.03563,-0.30186 0.10986,-0.43645c0.07324,-0.13361 0.18111,-0.24643 0.31175,-0.32858c0.13064,-0.08115 0.28107,-0.12767 0.43546,-0.13559l2.31687,0l-16.95443,-4.61494c-2.54351,0.44536 -4.63473,0.50078 -4.91679,1.61221z"/>
    <path stroke="null" id="svg_30" fill="#F7BB9C" d="m239.6946,181.88348l-10.4472,0c-3.52034,-41.0871 -12.291,-60.51774 -16.87229,-70.8729c-17.98965,-40.25279 -45.47738,-37.30252 -67.43372,-1.89328l-4.41403,-10.18889l-3.29568,-7.51573l-0.16825,-0.11085c10.39178,-12.75021 22.73919,-21.43477 35.25385,-23.21622c16.81587,-2.5058 34.02366,7.40389 47.26477,36.35538l0.72643,1.55877l0.16726,0.38895c1.89922,4.45461 3.6876,8.96365 5.2523,13.36184c-0.44734,2.83943 -0.33551,3.28479 1.45188,4.06467c6.27663,18.84573 10.47293,38.31695 12.51467,58.06825z"/>
    <path stroke="null" id="svg_31" fill="#E67E8E" d="m219.82453,106.67375l-0.16627,-0.39291c-13.24011,-30.40535 -30.58052,-40.72735 -47.58741,-38.20314c-3.75687,0.576 -7.4128,1.6904 -10.85792,3.31052l3.82219,15.42634c16.78618,-11.10732 34.1256,-4.2636 46.75705,24.51469c0.9412,2.18821 2.04965,4.71292 3.26797,7.79779l8.03334,-4.2636c-1.05303,-2.74838 -2.10508,-5.44133 -3.26896,-8.18971z"/>
    <path stroke="null" id="svg_32" fill="#FAA68A" d="m126.63999,170.17245l0.61361,-0.38598l-18.01439,1.76561c-3.01164,1.10351 -5.96686,4.47044 -6.13412,5.79465l20.6351,-2.48314c-0.11184,-0.88281 0.94813,-3.58764 2.8998,-4.69114z"/>
    <path stroke="null" id="svg_33" fill="#E8625F" d="m109.01356,199.36641l19.74932,-3.11654l-1.18169,5.62146l-21.43774,3.45106c0,0 -0.45031,-4.1191 2.87011,-5.95597z"/>
    <path stroke="null" id="svg_34" fill="#F09C8B" d="m93.29427,223.13488c0,0 -8.84588,-51.38684 -18.57555,-51.83319c-9.73086,-0.44635 -9.34389,47.81603 -9.34389,47.81603l5.91559,1.72899c0,0 -1.76957,-45.3606 3.81527,-44.35606c5.58385,1.00355 13.98733,46.97874 13.98733,46.97874l4.20125,-0.33452z"/>
    <path stroke="null" id="svg_35" fill="#E0558E" d="m249.11549,10.66027c-29.58786,-7.27791 -57.00236,21.04978 -82.0208,41.14787c-18.27567,14.66765 -31.76024,26.20014 -71.26581,61.07791c-3.78953,3.3036 -11.0331,9.40505 -11.59029,11.8684c2.11794,1.39943 3.62228,4.3111 15.49067,4.19927c62.35066,-0.72841 88.4835,-38.06953 88.4835,-38.06953c0,0 15.04432,-19.59394 22.6224,-41.53929c7.57808,-21.94555 33.76634,-34.76583 49.4797,-21.1058c15.71335,13.65994 -1.78343,43.05115 -12.31376,50.55302c7.46624,-4.36653 18.16482,-8.50938 24.40484,-24.80062c3.78953,-10.02104 5.07119,-36.33331 -23.29044,-43.33123z"/>
    <path stroke="null" id="svg_36" fill="#BD4070" d="m247.95458,78.3042c5.23647,-3.06211 12.03269,-6.01337 17.76994,-13.0303c5.40273,-13.8658 7.18616,-36.19584 -4.95836,-44.93849c-9.5248,-6.84937 -22.33737,-8.18585 -35.92882,0.72386c-17.32458,11.41561 -16.87822,26.06109 -34.81542,57.69029c-10.02658,17.59674 -33.70102,46.38691 -105.78333,45.2735c1.83885,2.72858 6.7408,4.23193 15.48573,4.17551c62.33383,-0.72347 88.45876,-37.86565 88.45876,-37.86565c0,0 15.04036,-19.49002 22.61646,-41.31928c7.5761,-21.82887 33.75744,-34.58096 49.46584,-20.99356c15.70841,13.5873 -1.78244,42.82283 -12.31079,50.28412z"/>
    <path stroke="null" id="svg_37" fill="#C74B85" d="m71.36663,37.46838c0,0 19.65728,33.8664 -16.55865,64.26878c0,0 6.81512,-21.18042 16.55865,-64.26878z"/>
    <path stroke="null" id="svg_38" fill="#2C2943" d="m283.67952,146.90675c0,0 -1.34895,-1.67555 2.6979,-7.70773c4.04784,-6.03218 5.88273,0 5.88273,0c0,0 1.45683,10.94699 -2.53658,11.61801c-3.99341,0.67002 -6.04405,-3.91028 -6.04405,-3.91028z"/>
    <path stroke="null" id="svg_39" fill="#4D7AE8" d="m289.33562,123.47675c2.06747,-5.27011 7.65626,-9.37635 4.86137,-12.37215c-1.5647,-1.72009 -4.41502,0 -4.41502,0c0,0 -3.46492,-3.21749 -6.03515,1.60924c0,0 -2.73848,-1.38656 -4.3596,2.9958c-1.62013,4.38335 0.67101,19.91757 14.307,41.22269l4.86236,-2.94038c0,0 -11.28943,-25.35494 -9.22097,-30.5152z"/>
    <path stroke="null" id="svg_40" fill="#759DFF" d="m289.28118,123.66381c-1.99621,4.05477 -1.24107,5.77684 -0.59382,8.83103c0.64726,3.05518 4.04685,14.60787 4.04685,14.60787l1.29452,-3.3323c-2.80578,-7.66517 -5.88076,-17.16227 -4.74756,-20.1066z"/>
    <path stroke="null" id="svg_41" fill="#ED988D" d="m292.28688,138.78631c0,0 -4.43976,10.97273 -8.82311,7.72554c0,0 3.05221,10.35615 11.15285,21.94545l-1.05402,33.03001l42.72603,1.56668l-2.21988,-12.53941c-1.55283,-8.70831 -5.55317,-16.78321 -11.52398,-23.26471c-5.97181,-6.48051 -13.66172,-11.09446 -22.15725,-13.29257l-1.9972,-0.50375l-6.10344,-14.66725z"/>
    <path stroke="null" id="svg_42" fill="#D97366" d="m321.72926,169.0442l1.73097,-1.18565c-6.07177,-6.81503 -13.99327,-11.66749 -22.7758,-13.95071c-3.40454,13.04613 -6.25189,32.30556 21.04483,15.13636z"/>
    <path stroke="null" id="svg_43" fill="#3263D9" d="m315.58029,117.57225c2.22978,-2.17633 5.40768,-1.84182 7.58105,0.38994c2.17436,2.23275 2.50887,5.35721 0.33452,7.53354c-2.17337,2.17633 -4.62681,1.11637 -6.80018,-1.11538c-2.17436,-2.23275 -3.28974,-4.63176 -1.11538,-6.8081z"/>
    <path stroke="null" id="svg_44" fill="#4D7AE8" d="m328.6769,127.18513c-1.71514,-1.45881 -6.30632,1.85172 -8.85082,3.9845c-0.11085,-4.09634 -2.04669,-9.54064 -7.79977,-9.7653c-5.7521,-0.22367 -9.84547,3.70442 -10.50955,9.48522c0,0 -8.24216,-2.41386 -8.24216,0.61658c0,3.03044 5.69766,10.27004 5.69766,10.27004c0,0 -5.03358,18.12722 5.25527,19.47419c10.28885,1.34697 13.71813,-3.70442 14.5475,-10.15821c0.22169,-1.90813 0.38697,-4.6575 0.55324,-7.5761c1.28759,0.43349 2.67316,0.47208 3.98252,0.11184c4.09337,-1.12231 7.91062,-14.36638 5.36612,-16.44276z"/>
    <path stroke="null" id="svg_45" fill="#3366E0" d="m293.61901,130.46894c-0.11678,0.10887 -0.20784,0.24247 -0.26722,0.39093c-0.05839,0.14845 -0.08412,0.30878 -0.07522,0.46812c0,3.03638 5.88076,10.48283 5.88076,10.48283c3.1977,-0.17221 6.96645,-0.57303 6.05296,-2.46335c-0.91349,-1.89031 -3.1403,-6.35878 -11.59128,-8.87854z"/>
    <path stroke="null" id="svg_46" fill="#3366E0" d="m310.67538,134.87406c0.32759,-1.11637 1.68941,-1.62409 3.10566,-1.26879c1.41526,0.3553 2.39605,1.31926 2.06945,2.4871c-0.3266,1.16784 -1.14409,-0.40577 -2.56034,-0.7106c-1.41625,-0.30483 -2.94137,0.66013 -2.61477,-0.50771z"/>
    <path stroke="null" id="svg_47" fill="#2C2943" d="m312.57856,139.57807c-0.72248,1.06095 -1.6904,1.94772 -2.82755,2.59201c-1.13716,0.64429 -2.41485,1.02928 -3.73213,1.12528c-1.0273,0.10887 -2.50986,-0.10986 -2.90871,-0.65617c-0.39984,-0.54631 4.04982,1.47563 7.92843,-3.49757c1.42615,-1.80421 2.11003,-2.62368 2.45246,-2.62368c0.34243,0 0.17122,1.31134 -0.9125,3.06013z"/>
    <path stroke="null" id="svg_48" fill="#2A59C9" d="m281.97923,118.37093c0,0 1.01444,-4.83762 5.81544,-2.39209c0.06829,-1.61716 0.66804,-3.16801 1.70722,-4.41205c-1.18169,0.75909 -2.11003,1.85073 -2.66821,3.13634c0,0 -5.281,-1.06293 -4.85444,3.6678z"/>
    <path stroke="null" id="svg_49" fill="#2C2943" d="m340.62052,177.34673l-4.0904,9.45157c0,0 -3.75885,-0.16825 -4.25667,3.48768c0,0 -5.19589,0.56314 -4.14582,5.96389l20.56384,0c0,0 2.92949,-3.88158 -0.44239,-7.42666l1.6033,-8.49453l-9.23186,-2.98194z"/>
    <path stroke="null" id="svg_50" fill="#5A7ECC" d="m356.66344,186.42024l-24.14851,-6.70418l2.00809,-2.72759c1.72899,-2.32974 3.23432,-4.77329 4.74063,-7.27325c0.98573,-1.71217 2.497,-3.04726 4.30121,-3.79646c1.8052,-0.75019 3.80141,-0.87291 5.68183,-0.35134c1.87646,0.52058 3.53518,1.65081 4.7238,3.22046c1.18763,1.56965 1.83984,3.49164 1.85666,5.473c-0.03761,2.92256 0.09204,5.84414 0.39093,8.74988l0.44536,3.40949z"/>
    <path stroke="null" id="svg_51" fill="#5A7ECC" d="m334.52302,177.3022l-2.00809,2.63654l24.14851,6.4815l-0.44536,-3.29568c-0.16726,-1.53798 -0.27909,-3.02153 -0.33452,-4.55952l-18.68342,-4.99795c-0.83629,1.26285 -1.72899,2.52669 -2.67712,3.7351z"/>
    <path stroke="null" id="svg_52" fill="#96B8FF" d="m353.21238,191.71311c0,0 -9.58518,-4.70005 -6.50129,-16.03698c3.08289,-11.33594 19.84235,-12.387 23.76649,-10.34031c3.92314,2.0457 8.07194,15.04135 8.07194,15.04135l-25.33713,11.33594z"/>
    <path stroke="null" id="svg_53" fill="#2C2943" d="m377.37375,179.44983c-4.02607,-1.55481 -9.89693,-3.66384 -14.70684,-4.77428c-4.80892,-1.11044 -8.2194,2.22087 -9.84151,4.94055c-0.09402,0.18012 -0.24346,0.32561 -0.42755,0.41468c-0.18309,0.08907 -0.39093,0.11678 -0.59184,0.07918c-0.20091,-0.03761 -0.384,-0.13757 -0.52256,-0.28701c-0.13856,-0.14845 -0.22565,-0.33847 -0.24742,-0.53938c-0.44734,-2.77609 -1.34202,-6.05197 -2.96413,-4.60801c-1.248,1.26384 -2.13576,2.83547 -2.57221,4.5516c-0.6047,5.6363 0.56709,11.32011 3.35506,16.26659l31.20304,0c0,-5.82929 -0.22367,-10.1592 -2.68405,-16.04391z"/>
    <path stroke="null" id="svg_54" fill="#2C2943" d="m349.20016,195.49374l-12.91153,23.4389l20.85778,0l4.80001,-23.4389l-12.74626,0z"/>
    <path stroke="null" id="svg_55" fill="#F79392" d="m383.87505,229.5184l-24.2356,0l-0.22268,0.4414c-1.85369,4.39622 -2.43267,9.21899 -1.67159,13.92399l28.02415,0c0.76206,-4.705 0.18309,-9.52777 -1.67159,-13.92399l-0.22268,-0.4414z"/>
    <path stroke="null" id="svg_56" fill="#DB7E91" d="m386.09592,235.31998c-0.30285,-1.84281 -0.83431,-3.64306 -1.5845,-5.36018l-0.22664,-0.4414l-24.61069,0l-0.22664,0.4414c-1.8824,4.39622 -2.47027,9.21899 -1.69732,13.92399l11.71203,0c-0.62846,-1.39151 -0.93724,-2.8998 -0.90557,-4.41997c12.27714,-0.38697 17.48194,-4.14384 17.53934,-4.14384z"/>
    <path stroke="null" id="svg_57" fill="#DE6194" d="m382.71117,234.05515l-21.96426,0c-3.08487,0 -6.04208,-1.20545 -8.22336,-3.3511c-2.18029,-2.14565 -3.40553,-5.05634 -3.40553,-8.09074c-0.00792,-2.593 0.87588,-5.11275 2.50788,-7.14954c1.632,-2.03679 3.91523,-3.47184 6.48051,-4.06962c8.96266,-2.0457 18.2826,-2.0457 27.24526,0c2.57122,0.59678 4.86137,2.02887 6.50327,4.06467c1.64091,2.0358 2.53658,4.55655 2.54153,7.15449c-0.01485,3.03935 -1.25295,5.95003 -3.44215,8.09371c-2.19019,2.14367 -5.15333,3.34813 -8.24315,3.34813z"/>
    <path stroke="null" id="svg_58" fill="#E677A5" d="m370.3786,217.54707c1.13914,-1.49345 0.97287,-3.50648 -0.36916,-4.49716c-1.34202,-0.99068 -3.35308,-0.58293 -4.49222,0.91052c-1.13815,1.49345 -0.97287,3.50648 0.36916,4.49716c1.34301,0.99068 3.35407,0.58293 4.49222,-0.91052z"/>
    <path stroke="null" id="svg_59" fill="#E677A5" d="m388.30689,222.83995c0.81056,-0.65518 -0.04948,-3.00372 -1.92198,-5.24537c-1.87151,-2.24165 -4.04685,-3.52826 -4.8584,-2.87308c-0.81056,0.65518 0.04948,3.00372 1.92198,5.24636c1.87151,2.24165 4.04685,3.52727 4.8584,2.87209z"/>
    <path stroke="null" id="svg_60" fill="#D1518F" d="m365.53109,223.35261c-11.54576,-3.3798 -15.62032,-5.29486 -13.30048,-8.95672c-2.016,2.1793 -3.12842,5.03655 -3.11258,7.9987c0,1.53105 0.30285,3.04726 0.89171,4.46253c0.58887,1.41427 1.45188,2.69988 2.53955,3.78261c1.08767,1.08272 2.37922,1.94178 3.80141,2.52768c1.4212,0.5859 2.94434,0.88775 4.48331,0.88775l22.12953,0c2.65634,0.00198 5.23449,-0.89468 7.31185,-2.54252c2.07737,-1.64784 3.53023,-3.94887 4.12108,-6.52702c-4.69807,3.26698 -16.92276,1.80223 -28.86538,-1.63299z"/>
    <path stroke="null" id="svg_61" fill="#29376B" d="m362.85001,210.99827l17.41761,0c0.91646,0.00099 1.79827,-0.35134 2.46137,-0.98375c0.66309,-0.63241 1.05699,-1.49642 1.10054,-2.41188c0.05542,-3.67275 -1.28066,-6.06682 -4.00727,-11.7437c-5.63036,-0.39588 -11.27854,-0.4701 -16.91682,-0.22268c-5.34236,0.22268 -5.7323,2.44949 -9.794,10.51945l-6.56661,12.63442c0,0 -6.90014,4.67531 -1.22425,7.29107c1.39151,0.66804 2.22582,0.50177 12.68786,-0.33353c0.34936,-0.00693 0.68784,-0.12371 0.96693,-0.33353c0.28008,-0.20981 0.48594,-0.50177 0.59085,-0.8353l3.2838,-13.58057z"/>
    <path stroke="null" id="svg_62" fill="#2C2943" d="m384.07595,177.34673c5.17609,8.73305 9.28233,17.4661 1.35093,22.68376l-6.52604,-1.36182l-7.1436,-15.70742l12.31871,-5.61453z"/>
    <path stroke="null" id="svg_63" fill="#778AD9" d="m380.05879,181.15606l2.76124,5.26418l9.31301,-5.26418l-4.87325,-5.32158l-7.20101,5.32158z"/>
    <path stroke="null" id="svg_64" fill="#2C2943" d="m348.23422,152.02445l-0.33254,-1.89724l4.20817,0l3.04529,9.9286l-10.85198,3.68166c0,0 -2.99085,-8.92505 -2.71374,-10.09586c0.27711,-1.1718 6.6448,-1.61716 6.6448,-1.61716z"/>
    <path stroke="null" id="svg_65" fill="#FF76AD" d="m366.91369,146.94534c0,0 -2.87902,-7.7968 6.09651,-10.11367c5.36315,-1.35588 10.04835,1.58153 11.29042,10.7926c0.56412,4.46352 3.21749,7.3455 6.32216,10.17008c-6.43498,8.47573 -15.46692,4.01222 -15.46692,4.01222l-8.24216,-14.86123z"/>
    <path stroke="null" id="svg_66" fill="#DE548B" d="m389.11349,158.31593c-6.44884,-1.6033 -8.54402,-5.80554 -8.93,-8.40348c-0.38499,-2.59893 -0.93625,-8.0175 -3.85782,-10.94798c-0.76008,-0.71951 -1.68941,-1.23415 -2.70186,-1.49543c-1.01246,-0.26128 -2.0744,-0.26029 -3.08586,0.00297c-5.89857,2.93048 -3.63811,9.06757 -3.63811,9.06757l8.04719,14.54156c0,0 7.93734,3.92512 14.16646,-2.7652z"/>
    <path stroke="null" id="svg_67" fill="#A8C4FF" d="m361.56935,172.05484c7.70971,0 13.96061,-6.26278 13.96061,-13.98832c0,-7.72554 -6.2509,-13.98832 -13.96061,-13.98832c-7.7107,0 -13.9616,6.26278 -13.9616,13.98832c0,7.72554 6.2509,13.98832 13.9616,13.98832z"/>
    <path stroke="null" id="svg_68" fill="#CFDEFF" d="m359.68299,144.30583c9.05074,6.89024 12.38205,14.17537 13.2698,23.21226c2.14071,-2.55341 3.32042,-5.79465 3.3323,-9.14971c0,-3.78953 -1.48058,-7.42369 -4.11514,-10.10378c-2.63456,-2.6791 -6.20735,-4.18442 -9.93355,-4.18442c-0.85608,-0.01188 -1.71217,0.06433 -2.55341,0.22565z"/>
    <path stroke="null" id="svg_69" fill="#2C2943" d="m361.94642,154.1028l-11.99409,-3.9756l-2.34458,5.9342l10.35912,0.1148l3.97956,-2.07341z"/>
    <path stroke="null" id="svg_70" fill="#7A9ADE" d="m349.07645,152.23525c0,0 -2.27135,-2.26541 -1.16388,-2.75135c1.10846,-0.48495 3.21353,-1.72602 4.37741,-1.61815c5.00488,0.39984 9.85338,1.89328 14.18428,4.36949l-4.93164,1.67258c0,0 -2.881,-0.48495 -8.86468,-2.53559c-3.21353,-1.07877 -5.09791,-1.51027 -3.26896,0.27019l-0.33254,0.59283z"/>
    <path stroke="null" id="svg_71" fill="#7A9ADE" d="m363.78131,153.51493c-5.25428,1.25196 -10.65899,1.75275 -16.05282,1.48949c-8.13627,-0.55126 -5.16719,-2.64743 1.48454,-2.42673l-0.76998,-0.93823c0,0 -6.87144,0 -6.87144,1.71019c0,1.71019 1.64883,10.42444 4.72776,14.01009c0.13955,0.2207 0.32363,0.40874 0.54235,0.55126c0.21773,0.14351 0.46417,0.23753 0.72149,0.27612c2.47423,0.2207 9.84052,0.33056 18.91105,-3.69551"/>
    <path stroke="null" id="svg_72" fill="#405191" d="m369.49283,150.12721l-1.91506,0c-3.09774,0 -5.63135,3.23531 -5.63135,7.18319c0,3.94789 2.53361,7.18319 5.63135,7.18319l1.91506,0"/>
    <path stroke="null" id="svg_73" fill="#778AD9" d="m369.87089,164.49359c3.12545,0 5.65906,-3.2165 5.65906,-7.18319c0,-3.96669 -2.53361,-7.18319 -5.65906,-7.18319c-3.12644,0 -5.66005,3.2165 -5.66005,7.18319c0,3.96669 2.53361,7.18319 5.66005,7.18319z"/>
    <path stroke="null" id="svg_74" fill="#405191" d="m371.75725,153.90783l-0.98178,0c-1.55085,0 -2.79192,1.70425 -2.79192,3.78063c0,2.07638 1.24107,3.78063 2.79192,3.78063l0.98178,0"/>
    <path stroke="null" id="svg_75" fill="#B8C5FF" d="m371.75725,161.46909c1.66763,0 3.01856,-1.69237 3.01856,-3.78063c0,-2.08825 -1.35093,-3.78063 -3.01856,-3.78063c-1.66664,0 -3.01856,1.69237 -3.01856,3.78063c0,2.08825 1.35192,3.78063 3.01856,3.78063z"/>
    <path stroke="null" id="svg_76" fill="#5A7ECC" d="m351.92578,165.00724c1.66268,-0.12173 2.88693,-1.90912 2.73452,-3.99143c-0.15241,-2.08231 -1.62409,-3.67077 -3.28677,-3.54904c-1.66268,0.12272 -2.88693,1.91011 -2.73452,3.99242c0.15241,2.08231 1.62409,3.67077 3.28677,3.54805z"/>
    <path stroke="null" id="svg_77" fill="#5A7ECC" d="m345.05434,165.31998c0.80264,-0.22466 0.99959,-2.03679 0.43843,-4.04784c-0.56017,-2.01106 -1.66466,-3.45898 -2.4673,-3.23432c-0.80264,0.22466 -0.99959,2.03679 -0.43942,4.04784c0.56017,2.01106 1.66466,3.45898 2.46829,3.23432z"/>
    <path stroke="null" id="svg_78" fill="#FECCAF" d="m338.47981,243.88379l-290.44717,0l-2.7848,-21.60599c-1.2195,-9.51986 -3.84763,-18.80219 -7.7972,-27.54019l311.66638,0l-0.61262,1.39943c-3.33428,7.81462 -5.61948,16.03995 -6.79424,24.46125l-3.23036,23.2855z"/>
    <path stroke="null" id="svg_79" fill="#FAA68A" d="m251.02361,221.20102c-10.7065,0 -17.17414,6.04109 -14.49801,13.45587c1.28264,3.56982 4.51696,6.81008 8.64299,9.22691l28.21615,0c2.39803,-2.41683 3.23432,-5.65708 1.89625,-9.22691c-2.67712,-7.41478 -13.55088,-13.45587 -24.25737,-13.45587z"/>
    <path stroke="null" id="svg_80" fill="#FAA68A" d="m32.92359,194.73762c3.94581,8.738 6.57146,18.02033 7.78987,27.54019l2.78203,21.60599l179.61185,0l3.00471,-49.14617l-193.18846,0z"/>
    <path stroke="null" id="svg_81" fill="#FAA68A" d="m41.57202,205.58465c2.95186,8.33124 6.29346,18.50726 7.2403,22.42149l294.95839,-17.89266c0.15241,-0.66111 0.33847,-1.31431 0.5572,-1.95662c0.8353,-3.07597 1.83786,-6.09453 2.95126,-9.05866c0.38994,-1.00553 0.8353,-1.95662 1.22524,-2.96314l0.61262,-1.39745l-311.66638,0c0.16706,0.39093 0.33412,0.78285 0.50128,1.28561c1.39448,3.11258 2.60329,6.30533 3.6201,9.56142z"/>
    <path stroke="null" id="svg_82" fill="#EB8381" d="m192.90785,194.73762l-159.98426,0c3.95857,8.738 6.59264,18.02033 7.81501,27.54019l2.79103,21.60599l149.37822,0l0,-49.14617z"/>
    <path stroke="null" id="svg_83" fill="#EB8381" d="m345.71546,202.29788c0.5572,-1.78343 1.22425,-3.56784 1.89229,-5.29189l-313.93031,0c0.72356,1.72405 1.39151,3.50846 2.00383,5.29189l310.03418,0z"/>
    <path stroke="null" id="svg_84" fill="#E06E6B" d="m192.15173,202.29788l0,-5.29189l-158.47429,0c0.72287,1.72405 1.39012,3.50846 2.00175,5.29189l156.47253,0z"/>
    <path stroke="null" id="svg_85" fill="#FECCAF" d="m30.15047,194.73762l315.94898,0l0,5.29288l-315.94898,0c-0.66567,0 -1.30402,-0.27909 -1.77472,-0.77592c-0.4706,-0.49584 -0.73504,-1.16883 -0.73504,-1.87052c0,-0.70169 0.26445,-1.37567 0.73504,-1.87151c0.4707,-0.49683 1.10905,-0.77493 1.77472,-0.77493z"/>
    <path stroke="null" id="svg_86" fill="#6ADBC6" d="m262.27741,139.84133c0,0 0.67101,-8.26691 -8.99928,-7.98781l-1.23019,0.11184c-3.37881,-0.90458 -6.92587,-0.98178 -10.3413,-0.22367c-14.97999,2.96017 -17.10486,12.79178 -17.10486,12.79178c0.13757,5.60463 0.71654,11.18947 1.73295,16.70305c1.67753,9.83161 7.26732,16.25571 26.10414,17.54033c18.83782,1.28462 23.25383,-12.62452 23.4775,-26.92559c0.16726,-8.26691 -13.63896,-12.00992 -13.63896,-12.00992z"/>
    <path stroke="null" id="svg_87" fill="#4D7AE8" d="m249.18179,112.76828l2.5445,-1.17279c0.0574,0 0.0574,-0.11678 0,-0.11678l-2.5445,-1.1134l-1.15695,-2.57914l-0.0574,0l-1.15695,2.57914l-2.5445,1.1134c-0.0574,0 -0.0574,0.11678 0,0.11678l2.5445,1.17279l1.15695,2.57815l0.0574,0l1.15695,-2.57815z"/>
    <path stroke="null" id="svg_88" fill="#E8EEFF" d="m161.66325,77.9875l2.52471,-1.17279c0.0574,0 0.0574,-0.05839 0,-0.11678l-2.52471,-1.1134l-1.14804,-2.57914l-0.1148,0l-1.09064,2.57914l-0.0574,0l-2.52471,1.1134c-0.0574,0.05839 -0.0574,0.11678 0,0.11678l2.52471,1.17279l0.0574,0l1.09064,2.57914l0.1148,0l1.14804,-2.57914z"/>
    <path stroke="null" id="svg_89" fill="#FECCAF" d="m16.98825,174.13815l5.3287,-2.37922c0.05552,0 0.05552,-0.16528 0,-0.2207l-5.3287,-2.3238c-0.01475,0 -0.0289,-0.00594 -0.03929,-0.01584c-0.01039,-0.01089 -0.01623,-0.02474 -0.01623,-0.03959l-2.38684,-5.31069c0,-0.02969 -0.01168,-0.05839 -0.03246,-0.07819c-0.02088,-0.02078 -0.04909,-0.03266 -0.07858,-0.03266c-0.02939,0 -0.0576,0.01188 -0.07848,0.03266c-0.02078,0.01979 -0.03246,0.04849 -0.03246,0.07819l-2.38684,5.31069c0,0.01485 -0.00584,0.0287 -0.01633,0.03959c-0.01039,0.0099 -0.02445,0.01584 -0.03919,0.01584l-5.3287,2.3238c-0.05552,0.05542 -0.05552,0.2207 0,0.2207l5.3287,2.37922c0.01475,0 0.0288,0.00594 0.03919,0.01584c0.01049,0.01089 0.01633,0.02474 0.01633,0.03959l2.38684,5.31069c0,0.02969 0.01168,0.05839 0.03246,0.07819c0.02088,0.02078 0.04909,0.03266 0.07848,0.03266c0.02949,0 0.0577,-0.01188 0.07858,-0.03266c0.02078,-0.01979 0.03246,-0.04849 0.03246,-0.07819l2.38684,-5.31069c0,-0.01485 0.00584,-0.0287 0.01623,-0.03959c0.01039,-0.0099 0.02454,-0.01584 0.03929,-0.01584z"/>
    <path stroke="null" id="svg_90" fill="#E677A5" d="m364.16135,109.92687l3.78162,-1.68842c0.05443,0 0.05443,-0.10887 0,-0.1633l-3.78162,-1.68842l-0.05443,0l-1.72899,-3.8123c0,-0.10887 -0.10788,-0.10887 -0.16231,0l-1.67456,3.8123l-0.05443,0l-3.78162,1.68842c-0.05443,0.05443 -0.05443,0.1633 0,0.1633l3.78162,1.68842l0.05443,0l1.67456,3.86673c0.05443,0.05443 0.16231,0.05443 0.16231,0l1.72899,-3.86673l0.05443,0z"/>
    <path stroke="null" id="svg_91" fill="#35C7C3" d="m260.1951,160.23692c4.5803,0.16528 8.33222,-1.20644 9.65643,-2.19316c1.32421,-0.98771 2.20702,0.10986 0.88281,2.96116c-1.32421,2.8523 -2.48314,5.32059 -4.41403,5.64917c-1.93089,0.32957 -3.58665,-0.10986 -5.40768,-1.152c-1.82104,-1.04215 -5.57296,-5.42946 -0.71753,-5.26517z"/>
    <path stroke="null" id="svg_92" fill="#35C7C3" d="m238.32387,137.32553c3.37485,-2.401 9.51689,-4.63473 13.44498,-5.36117c-3.34417,-0.90359 -6.8556,-0.98079 -10.2354,-0.22268c-14.82857,2.95918 -16.93167,12.78782 -16.93167,12.78782c0.13658,5.60166 0.70961,11.18452 1.71514,16.69612c0.35926,2.39605 1.10747,4.71688 2.21394,6.86847c9.40604,2.79192 20.36095,5.47201 20.19567,2.95918c-0.27711,-4.35564 -0.71951,-9.66039 -3.32042,-12.78782c-2.59992,-3.12644 -6.41816,-8.1521 -9.12893,-11.94955c-2.71176,-3.79745 -1.27275,-6.58938 2.04669,-8.99037z"/>
    <path stroke="null" id="svg_93" fill="#1F98A6" d="m227.93804,141.77618l-1.91407,-0.72149c-0.60965,1.00553 -1.08767,2.08726 -1.42219,3.21848c0.11678,5.00389 0.59184,9.99293 1.42219,14.92754l2.35151,-3.88454l-0.43744,-13.53999z"/>
    <path stroke="null" id="svg_94" fill="#6ADBC6" d="m224.17324,155.77637l-8.30352,1.15596c0.38301,-6.9328 -4.09733,-9.35458 -4.09733,-9.35458c7.32076,-3.68661 3.66087,-11.05982 3.66087,-11.05982l9.50501,3.30162c0.88775,0.288 1.67258,0.83233 2.25551,1.56668c0.58293,0.73336 0.93823,1.62409 1.02235,2.56034c0.10293,1.40141 -0.16132,2.80479 -0.76503,4.0716c0.1633,0.27513 0.27316,0.55027 0.43645,0.76998c0.33551,0.69575 0.50177,1.46178 0.48693,2.23473c-0.01584,0.77394 -0.21278,1.53204 -0.57501,2.21394c-0.36223,0.6819 -0.87984,1.26681 -1.51027,1.70821c-0.63043,0.4414 -1.35489,0.72643 -2.11596,0.83134z"/>
    <path stroke="null" id="svg_95" fill="#35C7C3" d="m214.96514,157.00062c0.01386,0.10392 0.04751,0.20487 0.09996,0.29592c0.05245,0.09105 0.12173,0.17023 0.20487,0.23357c0.08214,0.06334 0.17716,0.10887 0.27711,0.1346c0.10095,0.02573 0.20487,0.03068 0.30779,0.01485l10.22353,-1.5271c1.13716,-0.15538 2.16842,-0.7581 2.87407,-1.67753c0.70664,-0.91942 1.03126,-2.08429 0.90458,-3.24421c-0.1445,-1.15002 -0.54433,-2.25254 -1.16685,-3.22442c0.73732,-1.56371 0.98969,-3.32042 0.72248,-5.03358c-0.14153,-0.8066 -0.49485,-1.55877 -1.02334,-2.17633c-0.5285,-0.61757 -1.21237,-1.07778 -1.97741,-1.33114l-10.27994,-3.67671c-0.18408,-0.05245 -0.38103,-0.02771 -0.5473,0.0673c-0.16726,0.096 -0.28998,0.25435 -0.34144,0.4414c-0.0386,0.17221 -0.01485,0.35332 0.0673,0.5087c0.08115,0.15538 0.21575,0.27612 0.37707,0.34045c2.05559,0.73534 9.00225,3.28083 10.33536,4.01617c0.34936,0.23159 0.64429,0.53839 0.86301,0.89864c0.21971,0.36025 0.35728,0.76602 0.40577,1.18763c0.04751,0.42062 0.00297,0.84817 -0.12965,1.24998c-0.13262,0.40182 -0.35035,0.76899 -0.63835,1.0758c-1.22326,1.13122 -2.6118,1.13122 -4.9455,1.24404l-9.72472,0.22664c-0.2405,0.02771 -0.4612,0.14944 -0.61658,0.33946c-0.15538,0.18903 -0.23258,0.4325 -0.21674,0.67794c0.02771,0.21575 0.13559,0.41171 0.30087,0.54829c0.16528,0.13658 0.37608,0.20388 0.58788,0.18705l10.00184,0c1.94574,0 4.33486,0.62252 5.00191,2.03679c0.66606,1.41427 0,3.22442 -2.112,3.67671l-9.16852,1.58351c-0.09996,0.00693 -0.19794,0.03464 -0.28701,0.08214c-0.08907,0.04751 -0.16726,0.11282 -0.2306,0.19299c-0.06235,0.07918 -0.10788,0.17221 -0.13361,0.27118c-0.02573,0.09798 -0.03167,0.2019 -0.01584,0.30285l0,0.05641z"/>
    <path stroke="null" id="svg_96" fill="#385199" d="m290.93001,187.87212c-1.5558,7.19804 -7.89082,6.86253 -11.61405,6.86253l-71.24008,0c0,0 -2.00017,-10.65602 14.44853,-29.62547l-0.66705,-4.51993c-0.0574,-0.58491 0.096,-1.17081 0.4325,-1.65279c0.3365,-0.48099 0.83332,-0.8254 1.40141,-0.96891l1.44495,-0.27909l0.55522,3.2363c7.77998,1.72899 18.94965,2.73353 29.5077,3.06805c0.15142,-0.00198 0.30087,0.03266 0.43645,0.09996c0.13559,0.06829 0.25237,0.16825 0.34144,0.29097c0.94417,1.28264 3.88949,5.24438 6.05692,8.70336c2.4386,-2.86813 4.40809,-6.1074 5.83523,-9.59606c0.15637,-0.2405 0.39192,-0.41864 0.66606,-0.50276c1.82202,-0.33749 3.62228,-0.78384 5.39086,-1.33806l0.16627,-0.67002l0.88874,0.27909c0.17518,0.06433 0.33155,0.17023 0.45724,0.30779c0.12569,0.13757 0.21674,0.30285 0.26623,0.48297c0.04849,0.18012 0.05344,0.37015 0.01485,0.55225c-0.0386,0.18309 -0.11975,0.35332 -0.23753,0.49782l-3.05617,3.68265c0.51266,0.38895 1.05105,0.74326 1.61122,1.05996c5.05634,2.90079 6.05692,4.74261 6.55672,6.97437c3.61238,0.33452 4.77923,0.11184 6.05791,1.39448c0.44437,0.50276 0.55522,1.05996 0.44437,2.90178c1.94475,2.45444 4.38929,6.19251 3.83407,8.75878z"/>
    <path stroke="null" id="svg_97" fill="#30438F" d="m275.4146,181.11548l-0.50078,0.66705c0.44536,-1.40437 0.68883,-2.86417 0.72347,-4.33584c-0.22268,-5.05931 -3.0631,-10.56299 -3.0631,-10.56299l3.0631,-3.66879l-5.51358,2.05658l-7.85321,13.28663l-8.74493,-12.00794l-10.69363,-1.00058c-7.85321,-0.77889 -18.65868,-1.27868 -20.94289,-4.83663l0.66903,4.5031c-16.48631,18.90116 -14.48119,29.51957 -14.48119,29.51957l71.40437,0c3.67572,0 9.85833,0.2781 11.52893,-6.50426l-15.59558,-7.11589z"/>
    <path stroke="null" id="svg_98" fill="#262538" d="m278.89139,186.84976c1.43604,-5.01774 0.48891,-9.69206 -2.11497,-10.44027c-2.60487,-0.74821 -5.87878,2.71275 -7.31482,7.73049c-1.43604,5.01774 -0.48792,9.69206 2.11596,10.44027c2.60388,0.74821 5.87878,-2.71275 7.31383,-7.73049z"/>
    <path stroke="null" id="svg_99" fill="#6ADBC6" d="m280.42046,183.82031c0.13955,-2.16149 -0.3167,-4.31902 -1.31926,-6.24199c-1.00157,-1.92297 -2.51184,-3.53815 -4.36751,-4.67234c-1.29551,-0.78285 -2.59003,-0.89567 -5.96884,-0.83926c-3.37881,0.05641 -2.81568,0.72742 -3.77271,3.13436c-0.25138,0.55621 -0.44041,1.13815 -0.56314,1.73493c0,0 -9.17841,0.28008 -10.3611,3.74995c-2.13972,6.10047 0.45031,6.66063 3.20957,6.04405l4.05477,-0.89468c-0.34045,1.38062 -0.58491,2.78302 -0.73237,4.19729c-0.22466,2.01501 0.90062,3.18978 4.61791,3.18978c1.01345,0 1.97048,-0.05542 3.49065,0c5.18104,0.05641 11.2053,-0.78285 11.71203,-9.40208z"/>
    <path stroke="null" id="svg_100" fill="#33BEB5" d="m207.3445,174.05996c0,0 -9.37932,-4.56941 -11.38939,3.76974c-0.04652,0.17814 -0.0386,0.3652 0.02078,0.53839c0.06037,0.1732 0.16924,0.32462 0.31373,0.4325l1.34004,0.97188c1.57361,1.16982 2.84042,2.71968 3.68562,4.51201c1.06095,2.2852 6.30929,8.45396 8.15111,2.91366c0.7779,-2.19217 0.99068,-4.55259 0.61955,-6.85362c-0.37212,-2.30005 -1.3153,-4.4645 -2.74145,-6.28455z"/>
    <path stroke="null" id="svg_101" fill="#E67E8E" d="m194.97631,152.83402l-2.401,2.35349c-0.05938,0.06829 -0.13262,0.12371 -0.21377,0.1633c-0.08115,0.03959 -0.17023,0.06334 -0.26029,0.06829c-0.09006,0.00495 -0.18111,-0.00693 -0.26623,-0.03761c-0.08511,-0.02969 -0.16429,-0.07621 -0.23159,-0.13658l-5.94509,-4.36158c-0.08709,-0.06631 -0.15934,-0.15043 -0.2108,-0.24742c-0.05146,-0.096 -0.08115,-0.20388 -0.0861,-0.31274c-0.00594,-0.10986 0.01287,-0.21971 0.05443,-0.32066c0.04157,-0.10194 0.10491,-0.19299 0.18606,-0.26722l3.88652,-3.90236c0.07423,-0.08115 0.16429,-0.1445 0.26623,-0.18606c0.10095,-0.04157 0.20981,-0.06037 0.31868,-0.05542c0.10986,0.00594 0.21575,0.03563 0.31274,0.08709c0.096,0.05146 0.18012,0.12371 0.24544,0.21179l4.40215,5.96884c0.09798,0.14548 0.14647,0.32066 0.13559,0.49683c-0.0099,0.17716 -0.07819,0.34441 -0.19299,0.47802z"/>
    <path stroke="null" id="svg_102" fill="#E8EEFF" d="m201.25196,155.10932l-6.76752,-6.83878c-0.28008,-0.26425 -0.65023,-0.41171 -1.03423,-0.41171c-0.38499,0 -0.75514,0.14746 -1.03522,0.41171l-4.36257,4.37246c-0.1346,0.13064 -0.24247,0.28701 -0.31571,0.46021c-0.07423,0.1732 -0.11184,0.36025 -0.11184,0.54829c0,0.18804 0.03761,0.37509 0.11184,0.54829c0.07324,0.1732 0.18111,0.32957 0.31571,0.4612l6.82393,6.83779c3.16405,3.18879 5.55614,7.06245 6.99119,11.32308c1.41229,4.27151 3.80735,8.15111 6.99119,11.32308l18.45579,18.49835c0.28008,0.26425 0.65023,0.41171 1.03522,0.41171c0.384,0 0.75415,-0.14746 1.03423,-0.41171l12.91945,-13.00457c0.26326,-0.28107 0.41072,-0.65122 0.41072,-1.0372c0,-0.38499 -0.14746,-0.75613 -0.41072,-1.0372l-18.45579,-18.49736c-3.19572,-3.15316 -7.05651,-5.54822 -11.29833,-7.00703c-4.24776,-1.41823 -8.1135,-3.79646 -11.29734,-6.95061z"/>
    <path stroke="null" id="svg_103" fill="#37CCC3" d="m224.21877,199.07445c-6.33799,5.34038 -10.74708,-3.52232 -10.74708,-3.52232c0,0 -5.56702,4.43185 -9.48027,0.0574c-4.8495,-5.39779 0.05542,-8.97652 3.69353,-11.24885c3.63712,-2.27234 5.0702,-2.89782 6.88925,-2.21592c1.88339,0.79175 3.45601,2.21196 4.4645,4.03399c0.41072,0.63637 0.74425,1.32322 0.99167,2.04471c2.03877,-0.96594 3.74797,-1.19258 5.12562,-0.85213c1.03423,0.23456 1.96949,0.80066 2.67316,1.61716c0.70268,0.8165 1.13716,1.84182 1.24009,2.92751c0.38598,2.95423 -1.0471,4.03399 -4.85049,7.15845z"/>
    <path stroke="null" id="svg_104" fill="#4D1934" d="m242.71316,146.92951c0,0 14.36242,-5.63432 23.78727,-4.09733c0,0 10.20967,11.83871 1.12132,13.09067c-14.86618,2.04866 -24.90859,-8.99334 -24.90859,-8.99334z"/>
    <path stroke="null" id="svg_105" fill="#591D3C" d="m266.62315,155.42008l0.27711,0c9.00819,-1.20446 -1.11143,-12.5978 -1.11143,-12.5978c-3.83704,-0.60272 -8.39655,-0.05542 -12.51071,0.76602c9.50798,1.20545 12.62155,7.12084 13.34502,11.83178z"/>
    <path stroke="null" id="svg_106" fill="#4D2C42" d="m239.26903,144.92637c2.7177,-1.34004 5.27209,-2.97799 7.61371,-4.88216c0.61559,-0.54829 1.39943,-0.82243 1.00751,0.10986c-0.95109,2.35844 -3.6391,4.66244 -8.39754,5.43045c-0.39192,0.05542 -0.89567,-0.27414 -0.22367,-0.65815z"/>
    <path stroke="null" id="svg_107" fill="#4D2C42" d="m258.49283,139.18318l3.841,1.05699c-0.92833,0.67893 -2.03877,0.94615 -3.12545,0.75217c-1.08569,-0.19398 -2.0744,-0.83728 -2.77906,-1.80916c-0.40182,-0.46219 0.0574,-0.59382 2.06351,0z"/>
    <path stroke="null" id="svg_108" fill="#2D458A" d="m377.79338,240.119c-4.00925,7.92447 -19.87699,14.84341 -37.13724,1.67456l0.77988,1.39448c1.44693,2.56726 1.89229,5.97082 -1.05798,5.97082l-17.20482,0c-0.28503,-0.00396 -0.56412,-0.08313 -0.80858,-0.2306c-0.24445,-0.14647 -0.44536,-0.35629 -0.58293,-0.60569c-0.10095,-0.19992 -0.16033,-0.41864 -0.17221,-0.6433c-0.01287,-0.22367 0.02177,-0.44734 0.09996,-0.65716c0.07918,-0.20981 0.19992,-0.40083 0.35629,-0.56116c0.15637,-0.16033 0.34342,-0.28701 0.55126,-0.37113l5.45618,-2.23176l-4.3982,-6.13808c0,0 -3.61931,1.28363 -10.35615,1.61815c0,0 -15.14428,1.33905 -14.75533,-6.8081c0.38994,-8.14715 19.54347,-18.91699 19.54347,-18.91699c0,0 1.50334,-4.68719 1.22425,-14.00613c-0.2781,-9.31895 -9.46443,-16.12705 -9.46443,-16.12705c-1.2005,-0.72248 -2.55638,-1.14409 -3.95382,-1.22722c-1.83687,-0.11184 -2.95027,0.11085 -3.06211,-1.5073c0.01979,-0.69674 0.27513,-1.36578 0.72446,-1.89724c1.61419,-2.62269 2.44949,-3.73906 2.44949,-3.73906c-2.95126,-1.50631 -3.89741,-2.51085 -5.06624,-3.90533c-3.28578,-3.8509 -2.67316,-8.42625 -0.66903,-8.8726c2.00512,-0.44635 2.72858,0.61361 4.34376,1.45089l3.841,2.0645c0,0 9.07548,-5.58088 14.19814,-2.62269c5.12265,2.9572 5.40075,12.7225 5.40075,12.7225c0,0 14.19715,5.74814 19.93242,25.72509c5.73428,19.97695 0.94615,19.36334 4.84356,25.11148c3.89741,5.74715 9.35458,5.13354 9.35458,5.13354c0,0 -2.39407,-7.25445 5.45618,-8.76076c7.85024,-1.5073 10.29973,0 10.29973,0.8927c0,0.8927 -4.84356,2.11992 -4.84356,2.11992c0,0 7.85024,7.58897 4.67729,13.95071z"/>
    <path stroke="null" id="svg_109" fill="#203678" d="m318.9314,231.78677c-5.91342,1.57955 -7.84827,4.94846 -0.60767,1.57955l0.60767,-1.57955z"/>
    <path stroke="null" id="svg_110" fill="#3755AB" d="m320.86427,183.08893c-4.08644,2.69196 -4.1963,5.04842 -4.1963,6.95556c0,1.90714 0.71753,1.29056 2.09815,-0.84124c1.38062,-2.1318 0.49683,0.7294 2.09815,3.59061c1.60132,2.86021 1.43604,2.52372 0.8838,4.82376c-0.55225,2.30005 -2.15357,4.2636 -0.05542,5.10484c2.09815,0.84124 5.24537,2.01996 6.73684,2.46829c1.49048,0.44932 3.9756,-0.39291 3.9756,-0.39291l2.37427,-9.1992l-3.92116,-7.68596l-4.14088,-3.87069l-3.20265,-1.40239l-2.6504,0.44932z"/>
    <path stroke="null" id="svg_111" fill="#2D458A" d="m324.21438,200.01565c1.2767,-4.90096 1.2767,-5.68084 1.74087,-5.12364c0.46516,0.5572 2.03184,7.40686 2.03184,7.40686l-3.77271,-2.28322z"/>
    <path stroke="null" id="svg_112" fill="#3755AB" d="m328.05735,175.91069c0,0 -0.27612,-9.78608 -5.36315,-12.82246c-1.71415,-1.01246 -3.92512,-1.01246 -6.02624,-0.61856c3.59358,1.63101 3.31745,3.43028 3.31745,6.86055c0,3.43028 1.49246,4.21807 3.53815,8.43614c0.99563,1.9685 0.22169,3.76776 -3.92512,6.63589l5.69469,0.78681l5.52941,4.83663l3.92512,8.49256l9.84151,-5.23053c-6.52406,-13.27178 -16.53183,-17.37703 -16.53183,-17.37703z"/>
    <path stroke="null" id="svg_113" fill="#CF4891" d="m352.13262,223.76729c-0.78186,-3.31151 1.11835,-6.45577 -3.35407,-22.00582c-0.96297,-3.49856 -2.33271,-6.87144 -4.08149,-10.04835l-18.6181,7.57808l-6.03812,1.51621c0.11184,8.64497 -1.2866,12.96795 -1.2866,12.96795c0,0 -2.5158,1.40338 -5.81445,3.649c-2.34854,2.86219 -3.74599,5.27605 -4.30516,6.96051c-0.55918,1.68446 -0.16726,2.13378 0.50276,2.63852c0.67101,0.50573 2.51679,0.61757 3.91424,0.78582c4.91976,0.44932 6.14995,0.05641 5.70261,1.62804c-0.55918,2.47027 -2.01304,4.49123 -2.01304,5.72636c0,1.23514 4.92075,-1.96553 4.92075,-1.96553l7.10006,-4.04191l12.13265,10.94699c2.29312,-8.0274 6.15094,-11.11524 9.00225,-12.35038c0.89468,-0.39291 -0.83926,-1.17872 -0.50375,-1.79629c0.33551,-0.61757 2.85131,-1.62804 2.73947,-2.1892z"/>
    <path stroke="null" id="svg_114" fill="#DE548C" d="m350.93015,227.32623c-2.95423,0.27909 -3.06607,-1.56273 -2.84339,-2.45543c-0.61262,-1.89724 3.457,-3.90632 3.28974,-7.4227l-10.14633,-24.22273l-12.48795,5.0791c6.41123,14.67814 6.63391,16.57637 7.02484,19.98091c0.38994,3.40454 2.45246,10.49272 7.63746,15.01364c2.50887,-4.07457 5.51853,-5.47003 7.52563,-5.9728z"/>
    <path stroke="null" id="svg_115" fill="#1C1B29" d="m312.04808,168.68494c0.56907,-0.8739 0.60569,-1.86062 0.08115,-2.20306c-0.52355,-0.34144 -1.40932,0.09006 -1.97741,0.96495c-0.56907,0.8739 -0.60569,1.86062 -0.08214,2.20306c0.52355,0.34144 1.40932,-0.09006 1.9784,-0.96495z"/>
    <path stroke="null" id="svg_116" fill="#4D7AE8" d="m302.07297,187.17636c0,0 -6.66063,1.16289 -4.64562,5.59275c2.01501,4.42888 8.67664,0 8.67664,0l-4.03102,-5.59275z"/>
    <path stroke="null" id="svg_117" fill="#2D458A" d="m321.2542,186.56869c0,0 -0.27414,-4.57832 -8.44505,1.4687c-0.54829,0.39588 -2.41287,1.18664 -4.00331,2.03481c0,0 -2.13873,-4.12603 -5.09989,-3.50351c-2.96116,0.62153 -3.61931,2.88199 -2.0833,5.59374c0,0 0.54829,5.59473 5.31861,5.59473c6.91004,0.05641 17.2741,-0.45229 17.2741,-0.45229l-2.96116,-10.73619z"/>
    <path stroke="null" id="svg_118" fill="#2D458A" d="m324.65281,195.85102c0,0 -4.18937,-11.53685 -8.26592,-1.63992l-3.2838,10.46105c-0.18705,0.58293 -0.2494,1.19951 -0.1821,1.80817c0.0673,0.60866 0.26128,1.19555 0.57204,1.72405c0.30977,0.5285 0.72742,0.98573 1.22623,1.34202c0.49881,0.3553 1.06689,0.60272 1.66763,0.72446l6.28455,1.30046c0,0 -0.90557,7.80373 4.13296,6.44686c5.03952,-1.35687 3.68067,-9.67029 1.41526,-11.53586c-1.60627,-1.21336 -3.31052,-2.29114 -5.09494,-3.22343l1.52809,-7.40785z"/>
    <path stroke="null" id="svg_119" fill="#4D7AE8" d="m328.74222,175.83448c0,0 8.3926,1.96058 10.21561,2.85625c1.82202,0.89567 -0.44239,5.93618 -0.44239,5.93618c0,0 13.91508,4.53576 13.91508,6.83185c0,2.2951 -3.58863,6.83086 -3.58863,6.83086c0,0 7.61965,8.17585 7.17824,11.36761c-0.44239,3.19275 -6.29544,2.74442 -6.29544,2.74442c0,0 4.97024,7.27919 4.97024,9.12794c0,1.84776 -4.97024,4.9831 -4.97024,4.9831c0,0 3.58962,-0.44734 5.85304,1.84875c2.26442,2.2951 3.58962,6.83086 3.58962,6.83086c0,0 3.14722,-4.9831 4.96925,-4.9831c1.82202,0 5.35622,2.23968 5.35622,2.23968c0,0 -14.35649,9.57528 -18.38751,3.19176c-15.57183,-24.47115 -1.82202,-31.41483 -22.3631,-59.80616z"/>
    <path stroke="null" id="svg_120" fill="#F7E5BC" d="m252.16572,149.31665c-2.20108,0.41765 -5.0791,-1.66763 -6.43399,-2.8137c2.14466,-0.46911 5.0791,-1.0946 8.23919,-1.66862c0.16924,1.77254 0.11282,4.16958 -1.8052,4.48232z"/>
    <path stroke="null" id="svg_121" fill="#F7E5BC" d="m263.56698,149.37108c-1.80025,0 -4.27448,-3.2838 -5.00587,-5.47201c2.21493,-0.34936 4.45164,-0.54235 6.69329,-0.57699c0.44932,2.3624 -0.73138,6.049 -1.68743,6.049z"/>
    <path stroke="null" id="svg_122" fill="#E46A9B" d="m268.37095,154.88862c-0.45922,0.16231 -0.94021,0.26623 -1.42912,0.30878c-4.08644,0.51068 -8.24414,0.14153 -12.15442,-1.08173c1.37567,-1.02928 4.06962,-2.57419 7.09511,-2.47126c3.0245,0.10293 5.77387,1.44198 6.48843,3.24421z"/>
    <path stroke="null" id="svg_123" fill="#E6D5AF" d="m219.31979,185.63046c-0.05641,0.11678 -0.13361,0.22367 -0.22862,0.3167l-1.31233,1.16091c-0.57699,0.5285 -1.35687,0.82441 -2.16941,0.82441c-0.81155,0 -1.59143,-0.29592 -2.16842,-0.82441c-0.29394,-0.2692 -0.52553,-0.58986 -0.68289,-0.94318c-0.15637,-0.35431 -0.23456,-0.73336 -0.2306,-1.11538c-0.00297,-0.3741 0.07621,-0.74524 0.23258,-1.08965c0.15736,-0.34441 0.38895,-0.65617 0.68091,-0.91547l1.25592,-1.16091c1.95068,0.73534 3.57873,2.0546 4.62286,3.74698z"/>
    <path stroke="null" id="svg_124" fill="#E6D5AF" d="m229.12963,191.65373l-0.1732,0.16825l-1.26483,1.23118c-0.28503,0.29295 -0.62846,0.52652 -1.00949,0.68586c-0.38103,0.16033 -0.79175,0.24247 -1.20545,0.24247c-0.41468,0 -0.8254,-0.08214 -1.20644,-0.24247c-0.38103,-0.15934 -0.72446,-0.39291 -1.0085,-0.68586c-0.29295,-0.27612 -0.52553,-0.60668 -0.68388,-0.97188c-0.15835,-0.3652 -0.2405,-0.7581 -0.2405,-1.15497c0,-0.39588 0.08214,-0.78879 0.2405,-1.15398c0.15835,-0.3652 0.39093,-0.69674 0.68388,-0.97287l1.26483,-1.28759l0.5186,-0.33551c1.07877,0.23159 2.05559,0.78879 2.78994,1.59341c0.73336,0.80462 1.18664,1.81411 1.29452,2.88397z"/>
    <path stroke="null" id="svg_125" fill="#33BEB5" d="m272.14465,175.91069l-6.83086,-1.58846l-0.16528,0.51068c-0.24544,0.56314 -0.43052,1.15299 -0.55027,1.75769l7.54641,-0.67992z"/>
    <path stroke="null" id="svg_126" fill="#F7E5BC" d="m257.71394,181.67961c-0.19695,-0.72248 -0.6433,-1.33213 -1.24602,-1.6993c-0.60173,-0.36619 -1.31134,-0.4612 -1.97642,-0.26425l-0.42359,0.11579c0,0.1148 -0.05245,0.1732 -0.05245,0.2306c-0.95109,3.00273 -0.89765,4.67828 -0.3167,5.60166l0.7393,0l1.47959,-0.46219c0.66111,-0.21476 1.21831,-0.70367 1.55382,-1.36182c0.33551,-0.65815 0.4226,-1.43308 0.24247,-2.1605z"/>
    <path stroke="null" id="svg_127" fill="#DE548C" d="m117.05284,16.56725c2.4871,-0.25762 4.417,-1.30828 4.30912,-2.34666c-0.10689,-1.03848 -2.20998,-1.67149 -4.69708,-1.41388c-2.4871,0.25772 -4.417,1.30837 -4.31011,2.34676c0.10689,1.03839 2.20998,1.67139 4.69807,1.41378z"/>
    <path stroke="null" id="svg_128" fill="#C74B85" d="m93.68421,35.71247c0.53048,-1.13449 -0.26425,-2.62872 -1.77353,-3.33744c-1.50928,-0.70872 -3.16306,-0.36361 -3.69353,0.77087c-0.53048,1.13458 0.26425,2.62882 1.77353,3.33754c1.50928,0.70872 3.16306,0.36351 3.69353,-0.77097z"/>
    <path stroke="null" id="svg_129" fill="#C94379" d="m266.51033,41.11936c1.056,14.40835 -10.67483,32.30665 -18.51419,37.93503c5.22657,-3.09576 12.00893,-6.07869 17.7353,-13.17064c2.94731,-7.65448 4.78121,-17.78538 3.94789,-26.90312c-0.05641,0.11253 -0.2781,0.73168 -3.169,2.13873z"/>
    <path stroke="null" id="svg_130" fill="#FAA68A" d="m217.28597,123.66381c-0.43942,2.64149 -0.384,3.10764 1.37468,3.78063l0.65914,-3.46986l-2.03382,-0.31076z"/>
    <path stroke="null" id="svg_131" fill="#FAA68A" d="m225.41729,119.88318l-8.36192,3.34813l0,0.1148c0.50177,1.26978 0.94813,2.65535 1.4499,4.09832l8.36093,-3.34813c-1.78343,-0.80759 -1.89526,-1.26978 -1.44891,-4.21312z"/>
    <path stroke="null" id="svg_132" fill="#F79392" d="m115.88599,234.05515l-25.54694,0l-0.2207,0.49089c-1.95266,4.61989 -2.56429,9.68612 -1.76561,14.63063l29.51957,0c0.77295,-4.94451 0.16231,-10.00481 -1.76561,-14.63063l-0.2207,-0.49089z"/>
    <path stroke="null" id="svg_133" fill="#D67487" d="m118.19791,240.16947c-0.34441,-1.9299 -0.90755,-3.81527 -1.67951,-5.62344l-0.22466,-0.49089l-25.92105,0l-0.22367,0.49089c-1.98137,4.61989 -2.6019,9.68612 -1.79134,14.63063l15.89942,0c-0.62252,-1.47068 -0.92734,-3.05023 -0.89567,-4.64067c13.15698,-1.25493 14.72465,-4.36653 14.83649,-4.36653z"/>
    <path stroke="null" id="svg_134" fill="#DE6194" d="m114.99329,238.59091l-23.02224,0c-3.25213,0 -6.37065,-1.2866 -8.66971,-3.57576c-2.29906,-2.29015 -3.59061,-5.3968 -3.59061,-8.63507c0.00297,-2.75629 0.94219,-5.42946 2.66524,-7.586c1.72207,-2.15753 4.12603,-3.67077 6.82096,-4.29428c9.4001,-2.15456 19.16936,-2.15456 28.56947,0c2.69592,0.62351 5.09989,2.13675 6.82195,4.29428c1.72207,2.15654 2.66128,4.8297 2.66425,7.586c0,3.23828 -1.29155,6.34492 -3.59061,8.63507c-2.29906,2.28916 -5.41758,3.57576 -8.66872,3.57576z"/>
    <path stroke="null" id="svg_135" fill="#D1518F" d="m96.97395,227.42124c-12.12374,-3.46689 -16.42494,-5.44826 -13.96754,-9.24472c-2.11398,2.24462 -3.29073,5.19193 -3.29568,8.25404c0,3.22541 1.30046,6.3182 3.61634,8.59845c2.31489,2.28124 5.45519,3.5619 8.73008,3.5619l23.18455,0c2.79687,0.00396 5.51061,-0.9313 7.69486,-2.65238c2.18326,-1.72108 3.7064,-4.12405 4.31605,-6.81206c-4.9158,3.41147 -17.76499,1.92594 -30.27867,-1.70524z"/>
    <path stroke="null" id="svg_136" fill="#E677A5" d="m104.94889,227.23121c1.38458,-3.7163 0.28899,-7.55532 -2.44553,-8.57272c-2.73452,-1.01839 -6.07375,1.16883 -7.45734,4.88611c-1.38359,3.7163 -0.28899,7.55532 2.44553,8.57272c2.73452,1.01839 6.07375,-1.16883 7.45734,-4.88611z"/>
    <path stroke="null" id="svg_137" fill="#DE6899" d="m96.89675,227.34998l-2.84834,-0.85608c0.0574,2.39803 1.13914,4.39721 2.96215,5.08306c1.82202,0.68487 4.44174,-0.34342 6.09354,-2.57023c-2.04965,-0.45724 -4.1577,-1.02829 -6.20735,-1.65675z"/>
    <path stroke="null" id="svg_138" fill="#E677A5" d="m121.69747,232.44987c1.00652,-1.58549 1.10846,-3.32339 0.22862,-3.88257c-0.87984,-0.55819 -2.4099,0.27414 -3.41642,1.85963c-1.00553,1.58648 -1.10846,3.32438 -0.22763,3.88257c0.87984,0.55918 2.40891,-0.27316 3.41543,-1.85963z"/>
    <path stroke="null" id="svg_139" fill="#DE6899" d="m117.94554,231.35625c-0.67893,1.41031 -0.67893,2.82062 0.05245,3.30854c0.73237,0.48792 2.30005,-0.27118 3.29271,-1.89823c0.31472,-0.5374 0.54433,-1.1233 0.67992,-1.73592c-1.33015,0.22664 -2.67613,0.33551 -4.02508,0.32561z"/>
    <path stroke="null" id="svg_140" fill="#E677A5" d="m114.49151,227.06891c1.03819,-0.08907 1.77848,-1.34103 1.65378,-2.79786c-0.1247,-1.45584 -1.06788,-2.56429 -2.10607,-2.47522c-1.03819,0.08907 -1.77848,1.34202 -1.65279,2.79786c0.1247,1.45584 1.06689,2.56429 2.10508,2.47522z"/>
    <path stroke="null" id="svg_141" fill="#DE6899" d="m88.08947,234.10958c0.86499,-0.58095 0.71753,-2.31588 -0.32957,-3.87465c-1.04808,-1.55877 -2.59893,-2.35151 -3.46393,-1.76957c-0.86499,0.58095 -0.71753,2.31588 0.32957,3.87465c1.04808,1.55877 2.59794,2.35151 3.46393,1.76957z"/>
    <path stroke="null" id="svg_142" fill="#F27995" d="m107.53694,214.48397c8.3154,0.48099 13.80424,2.93642 6.48546,2.93642c-7.31779,0 -19.95815,-3.63019 -6.48546,-2.93642z"/>
    <path stroke="null" id="svg_143" fill="#F79392" d="m280.40067,234.05515l-25.56773,0l-0.16528,0.49089c-1.9685,4.61395 -2.59794,9.68118 -1.81807,14.63063l29.53541,0c0.77988,-4.94945 0.15043,-10.01668 -1.81906,-14.63063l-0.16528,-0.49089z"/>
    <path stroke="null" id="svg_144" fill="#D67487" d="m282.70962,240.16947c-0.38895,-1.92495 -0.96891,-3.80834 -1.73295,-5.62344l-0.16726,-0.49089l-25.94282,0l-0.16726,0.49089c-1.9972,4.61395 -2.63654,9.68118 -1.84479,14.63063l10.11961,0c-0.62153,-1.47068 -0.92635,-3.05023 -0.89468,-4.64067c12.85908,-0.38202 20.51831,-4.36653 20.63015,-4.36653z"/>
    <path stroke="null" id="svg_145" fill="#DE6194" d="m279.51984,238.59091l-23.05094,0c-3.24817,0 -6.36274,-1.2866 -8.65882,-3.57576c-2.29708,-2.29015 -3.58665,-5.3968 -3.58665,-8.63507c0.00297,-2.75531 0.9412,-5.42946 2.66128,-7.586c1.72009,-2.15654 4.12108,-3.66978 6.81305,-4.29329c9.40802,-2.15555 19.18421,-2.15555 28.59223,0c2.69196,0.62351 5.09296,2.13675 6.81404,4.29329c1.72009,2.15654 2.65832,4.83069 2.66128,7.586c0,3.23828 -1.29056,6.34492 -3.58665,8.63507c-2.29609,2.28916 -5.41164,3.57576 -8.65882,3.57576z"/>
    <path stroke="null" id="svg_146" fill="#D1518F" d="m261.46586,227.42124c-12.10889,-3.46689 -16.34973,-5.44826 -13.95071,-9.24472c-2.0932,2.25551 -3.26599,5.19589 -3.29172,8.25404c0,3.22541 1.29848,6.3182 3.61139,8.59845c2.31291,2.28124 5.44925,3.5619 8.72018,3.5619l23.21325,0c2.79291,0.00396 5.50467,-0.9313 7.68596,-2.65238c2.18128,-1.72108 3.70145,-4.12405 4.3111,-6.81206c-4.91086,3.41147 -17.80062,1.92594 -30.29945,-1.70524z"/>
    <path stroke="null" id="svg_147" fill="#E677A5" d="m261.95774,235.5674c2.70879,0 4.90492,-2.70879 4.90492,-6.049c0,-3.3412 -2.19613,-6.049 -4.90492,-6.049c-2.70978,0 -4.90591,2.7078 -4.90591,6.049c0,3.34021 2.19613,6.049 4.90591,6.049z"/>
    <path stroke="null" id="svg_148" fill="#DE6899" d="m257.90099,226.49389c-0.8165,1.43209 -1.05501,3.11555 -0.66705,4.71292c0.66705,3.12446 3.33625,4.98805 5.95003,4.16562c2.61279,-0.82145 4.00331,-3.5619 3.61436,-6.41222c-1.72405,-0.43843 -3.44809,-0.87687 -5.22756,-1.42516l-3.66978,-1.04116z"/>
    <path stroke="null" id="svg_149" fill="#E677A5" d="m280.67382,225.43789c1.12726,-1.50235 1.0946,-3.43127 -0.07225,-4.30813c-1.16685,-0.87786 -3.02648,-0.37015 -4.15275,1.13122c-1.12726,1.50235 -1.0946,3.43127 0.07225,4.30813c1.16685,0.87786 3.02648,0.37113 4.15275,-1.13122z"/>
    <path stroke="null" id="svg_150" fill="#E677A5" d="m258.7739,216.28224c1.23415,-0.19992 2.18029,-0.69674 2.11398,-1.10846c-0.06631,-0.4127 -1.12132,-0.58392 -2.35547,-0.384c-1.23415,0.19992 -2.18128,0.69674 -2.11398,1.10846c0.06631,0.4127 1.12132,0.58392 2.35547,0.384z"/>
    <path stroke="null" id="svg_151" fill="#E677A5" d="m250.79104,223.93158c1.37666,-1.27571 1.91901,-2.93147 1.21039,-3.6965c-0.70862,-0.76602 -2.39902,-0.35233 -3.77568,0.92338c-1.37666,1.2767 -1.91901,2.93147 -1.21039,3.69749c0.70862,0.76503 2.39902,0.35134 3.77568,-0.92437z"/>
    <path stroke="null" id="svg_152" fill="#DE6899" d="m247.62996,221.95714l-0.23753,0.2306c-1.18763,1.3826 -1.18763,2.9384 -0.11876,3.39861c1.06887,0.4612 2.61279,-0.17221 3.74104,-1.3826c-1.27176,-0.52157 -2.42277,-1.28561 -3.38475,-2.2466z"/>
    <path stroke="null" id="svg_153" fill="#E677A5" d="m289.29009,229.47287c1.00751,-0.26524 1.26681,-2.60784 0.57897,-5.2335c-0.68784,-2.62467 -2.06252,-4.53873 -3.07102,-4.27349c-1.00751,0.26425 -1.26681,2.60685 -0.57897,5.23251c0.68784,2.62566 2.06252,4.53873 3.07102,4.27448z"/>
    <path stroke="null" id="svg_154" fill="#F27995" d="m272.07537,214.48397c8.26196,0.48099 13.80721,2.93642 6.43201,2.93642c-7.37519,0 -19.90767,-3.63019 -6.43201,-2.93642z"/>
    <path stroke="null" id="svg_155" fill="#F79392" d="m206.42706,234.05515l-25.54694,0l-0.2207,0.49089c-1.92693,4.62582 -2.53757,9.68612 -1.76561,14.63063l29.51957,0c0.79868,-4.94451 0.18705,-10.01074 -1.76561,-14.63063l-0.2207,-0.49089z"/>
    <path stroke="null" id="svg_156" fill="#D67487" d="m208.75482,240.16947c-0.34441,-1.9299 -0.90854,-3.81527 -1.6805,-5.62344l-0.22466,-0.49089l-25.93391,0l-0.22466,0.49089c-1.95662,4.62582 -2.57617,9.68612 -1.79233,14.63063l12.32366,0c-0.6532,-1.46277 -0.97782,-3.04529 -0.95307,-4.64067c12.94024,-0.38202 18.37266,-4.36653 18.48548,-4.36653z"/>
    <path stroke="null" id="svg_157" fill="#DE6194" d="m205.55019,238.59091l-23.02224,0c-3.25213,0 -6.37065,-1.2866 -8.66971,-3.57576c-2.29906,-2.29015 -3.59061,-5.3968 -3.59061,-8.63507c0.00297,-2.75629 0.94219,-5.42946 2.66524,-7.586c1.72207,-2.15753 4.12603,-3.67077 6.82096,-4.29428c9.4001,-2.15456 19.16936,-2.15456 28.56947,0c2.69592,0.62351 5.09989,2.13675 6.82195,4.29428c1.72207,2.15654 2.66128,4.8297 2.66524,7.586c0,3.23828 -1.29254,6.34492 -3.5916,8.63507c-2.29906,2.28916 -5.41758,3.57576 -8.66872,3.57576z"/>
    <path stroke="null" id="svg_158" fill="#D1518F" d="m187.51007,227.42124c-12.10889,-3.46689 -16.40515,-5.44826 -13.94972,-9.24472c-2.112,2.24462 -3.28776,5.19193 -3.29271,8.25404c0,3.22541 1.29947,6.3182 3.61238,8.59845c2.31192,2.28124 5.44925,3.5619 8.71919,3.5619l23.15783,0c2.79786,-0.00297 5.5116,-0.9412 7.69981,-2.6593c2.1892,-1.71811 3.72322,-4.11712 4.35366,-6.80513c-4.96628,3.41147 -17.80062,1.92594 -30.30044,-1.70524z"/>
    <path stroke="null" id="svg_159" fill="#E677A5" d="m208.83597,234.84888c2.85131,-0.62153 4.44075,-4.43185 3.55102,-8.51235c-0.88874,-4.07951 -3.92116,-6.88232 -6.77247,-6.2608c-2.85032,0.62153 -4.43976,4.43283 -3.55102,8.51235c0.88973,4.07951 3.92215,6.88232 6.77247,6.2608z"/>
    <path stroke="null" id="svg_160" fill="#DE6899" d="m202.7167,231.03065c1.24009,3.08289 3.55795,4.98013 5.76793,4.44669c2.20998,-0.53344 2.80281,-2.016 3.28776,-4.21015c-3.01757,0.26821 -6.05296,0.18903 -9.05569,-0.23654z"/>
    <path stroke="null" id="svg_161" fill="#E677A5" d="m196.70036,224.99055c0.6334,-1.31629 0.38598,-2.75036 -0.55324,-3.20166c-0.93922,-0.45229 -2.21394,0.24841 -2.84834,1.5647c-0.6334,1.31629 -0.38499,2.75036 0.55423,3.20265c0.93922,0.4513 2.21394,-0.2494 2.84735,-1.56569z"/>
    <path stroke="null" id="svg_162" fill="#E677A5" d="m181.03451,224.6016c1.20248,-2.66227 1.09955,-5.30871 -0.2306,-5.90847c-1.33015,-0.60074 -3.38277,1.07085 -4.58525,3.73411c-1.20248,2.66326 -1.09955,5.3097 0.2306,5.90946c1.32916,0.60074 3.38277,-1.07184 4.58525,-3.7351z"/>
    <path stroke="null" id="svg_163" fill="#DE6899" d="m176.12662,223.46939c-0.93031,2.36735 -0.71159,4.62385 0.49287,5.1751c1.20347,0.55027 3.06409,-0.88083 4.21312,-3.19374c-1.60528,-0.56808 -3.17691,-1.23019 -4.70599,-1.98137z"/>
    <path stroke="null" id="svg_164" fill="#DE6899" d="m185.58413,236.32253c0.71753,-0.42557 0.69476,-1.78936 -0.04948,-3.04529c-0.74524,-1.25691 -1.93089,-1.9299 -2.64842,-1.50532c-0.71753,0.42557 -0.69476,1.78936 0.05047,3.04529c0.74524,1.25691 1.93089,1.93089 2.64743,1.50532z"/>
    <path stroke="null" id="svg_165" fill="#F27995" d="m198.13739,214.48397c8.26789,0.48099 13.76267,2.93642 6.43696,2.93642c-7.32472,0 -19.97794,-3.63019 -6.43696,-2.93642z"/>
    <path stroke="null" id="svg_166" fill="#4974DE" d="m329.24597,211.1111c-0.49485,-0.26722 -1.03621,-0.43052 -1.59341,-0.48c-0.55621,-0.04948 -1.11736,0.01682 -1.64883,0.19299c-1.14112,0.39489 -2.24561,0.89468 -3.29865,1.49345c0.05641,2.24066 0.61559,5.91836 4.13692,4.94154c2.5158,-0.68982 3.40949,-3.10269 3.40949,-5.63036c-0.32363,-0.19497 -0.65914,-0.36817 -1.00553,-0.51761z"/>
    <path stroke="null" id="svg_167" fill="#3755AB" d="m329.49736,207.58482c-0.27909,-0.68388 -0.70466,-1.30145 -1.24701,-1.8151c-1.60825,-1.17971 -3.31448,-2.2278 -5.10088,-3.13436l1.24701,-5.665l0.28404,-1.53996c-0.46021,-1.17576 -1.04907,-2.30104 -1.75769,-3.35407l-1.58648,-5.55515c0,0 -0.11282,-1.81411 -2.38021,-1.5944c-3.68364,2.58508 -3.79745,4.89403 -3.79745,6.70913c0,1.8151 0.22664,0.8254 2.04075,-1.26483c1.81312,-2.09023 1.35984,-1.53996 1.30343,0.55027c0.11579,1.26285 0.52256,2.48413 1.18961,3.57477c1.75769,3.0245 1.58747,2.69493 1.02037,5.05931c-0.5661,2.36438 -2.38021,4.45461 -0.05641,5.28001c2.3238,0.82441 5.72339,2.14466 7.31086,2.63951c0.50375,0.09501 1.0174,0.13262 1.53007,0.10986z"/>
    <path stroke="null" id="svg_168" fill="#DE548C" d="m315.15869,186.45685c0,0 12.16926,-7.59292 18.0332,11.30526l3.09675,-1.46277c0,0 -7.79878,-20.47279 -21.12994,-9.8425z"/>
    <path stroke="null" id="svg_169" fill="#21387D" d="m308.36741,171.29872c2.2753,1.40338 2.99085,3.34813 1.43011,4.53576l-1.43011,-4.53576z"/>
    <path stroke="null" id="svg_170" fill="#3755AB" d="m309.12255,166.11669c-1.81609,1.14804 -4.53873,0.78582 -6.8081,-1.2678c-2.26937,-2.0546 -2.09914,-3.74599 1.53105,-1.69139l5.27704,2.95918z"/>
    <path stroke="null" id="svg_171" fill="#21387D" d="m309.12255,189.62387c-3.16207,1.43407 -3.51341,2.1219 -3.98153,3.26797c-0.46911,1.14705 -0.76107,-0.91745 -0.35134,-2.40792c0.40973,-1.49048 0.70268,-0.97485 4.33288,-0.86004z"/>
    <path stroke="null" id="svg_172" fill="#2D458A" d="m323.29198,203.055c-1.73295,-0.71951 -1.90021,-2.35349 0.16825,-0.98079l-0.16825,0.98079z"/>
    <path stroke="null" id="svg_173" fill="#203678" d="m342.32576,248.5492c-3.33922,1.01147 -4.50706,-2.75333 -6.01041,-5.28298c-1.50235,-2.52867 -5.67589,-7.69981 -5.67589,-7.69981l-6.62204,2.08033l4.39622,6.18162l-5.4542,2.24759c-0.20685,0.08511 -0.39489,0.21179 -0.55027,0.3741c-0.15637,0.16132 -0.27711,0.35431 -0.3553,0.56511c-0.07918,0.21179 -0.11282,0.43645 -0.10095,0.6621c0.01287,0.22565 0.07126,0.44635 0.17221,0.64726c0.13757,0.25237 0.33847,0.46318 0.58293,0.61064c0.24445,0.14845 0.52355,0.22862 0.80858,0.23258l17.19591,0c0.2979,0.0287 0.59777,-0.01188 0.87786,-0.11876c0.28008,-0.10788 0.53147,-0.2781 0.73534,-0.49979z"/>
    <path stroke="null" id="svg_174" fill="#233B82" d="m226.11106,160.71296c-0.65221,-0.1059 -1.28165,-0.2979 -1.86656,-0.56709c-0.14153,-0.08808 -0.25237,-0.20784 -0.32066,-0.34639c-0.06829,-0.13757 -0.09204,-0.28899 -0.0673,-0.43744c0.02573,-0.14845 0.09699,-0.288 0.20784,-0.40478c0.11085,-0.11579 0.25633,-0.20388 0.42062,-0.25534l1.14409,-0.25732l0.48198,2.26838z"/>
    <path stroke="null" id="svg_175" fill="#30438F" d="m286.48332,178.85898c0,0 -1.72998,-1.09559 -8.30154,-3.78063l8.01255,0.98672l0.28899,2.7939z"/>
    <path stroke="null" id="svg_176" fill="#31B8AF" d="m261.05118,185.44044c2.2951,-0.57501 4.62681,-0.9798 6.97931,-1.21039c2.04273,-0.17221 2.15654,-0.17221 1.47563,1.21039c-0.68091,1.38359 -1.13518,0.63439 -4.08545,0.576c-1.54095,-0.01287 -3.07992,0.12272 -4.59613,0.40379l0.22664,-0.9798z"/>
    <path stroke="null" id="svg_177" fill="#84EBD7" d="m274.37443,172.81097l0.95307,1.71811c0.58194,0.94219 -2.80578,0.99761 -1.27077,1.49642c2.54054,1.55184 3.33428,2.38417 2.69988,4.60108c-0.63538,2.21691 -1.48256,2.66029 -0.47703,3.71432c1.00553,1.05303 1.48256,3.1591 -0.15835,4.87721c-1.64091,1.7191 -1.48256,2.49502 -0.89963,2.49502c0.46714,-0.17023 0.89864,-0.43349 1.26978,-0.77592l1.42912,-1.44198c0.95307,-1.38557 1.58846,-3.26995 1.74681,-5.93123c0.13163,-2.12586 -0.29097,-4.25073 -1.22326,-6.145c-0.93229,-1.89427 -2.33963,-3.48669 -4.06962,-4.60801z"/>
    <path stroke="null" id="svg_178" fill="#C4D7FF" d="m391.37791,175.58904l-21.70793,12.34345l-0.44536,-3.32141c-0.40281,-2.79984 -0.9798,-5.57197 -1.72503,-8.30154c-0.47307,-1.87844 -0.32264,-3.85881 0.42953,-5.64422c0.75316,-1.7864 2.06648,-3.28182 3.745,-4.2636c1.69435,-0.95505 3.65692,-1.33213 5.58682,-1.07184c1.93089,0.2593 3.72224,1.14211 5.09989,2.51085c2.05955,1.99225 4.1191,3.93007 6.34492,5.70063l2.67217,2.04767z"/>
    <path stroke="null" id="svg_179" fill="#EBF1FF" d="m382.47463,167.85657c-1.36083,-1.37765 -3.12941,-2.26541 -5.03556,-2.52669c-1.90615,-0.26128 -3.84397,0.11777 -5.51754,1.07877l-0.16429,0.16726c6.32018,0.50078 8.73899,3.78657 11.81594,8.18575c0.99662,1.28957 2.18326,2.41683 3.51737,3.3412l4.28735,-2.45048l-2.63852,-2.05955c-2.19811,-1.78244 -4.23193,-3.73114 -6.26476,-5.73626z"/>
    <path stroke="null" id="svg_180" fill="#91A0E3" d="m369.56112,184.61998l0.43843,3.3125l21.37836,-12.31079l-2.63159,-2.04273c-1.2005,-0.95307 -2.35349,-1.96652 -3.45304,-3.03638l-16.55459,9.55054c0.35332,1.49345 0.62846,3.00471 0.82243,4.52686z"/>
    <path stroke="null" id="svg_181" fill="#DE548C" d="m360.3827,184.90799l-2.20998,-7.77404l3.23432,-6.59136l1.29353,0.95703l-2.74838,5.46508l2.26343,7.83045l-1.83291,0.11282z"/>
    <path stroke="null" id="svg_182" fill="#CFDEFF" d="m371.68797,153.90783l-0.68586,0.11381l3.60149,5.17906c0.11678,-0.40676 0.17518,-0.82837 0.17221,-1.25196c0,-2.21988 -1.3727,-4.04092 -3.08784,-4.04092z"/>
    <path stroke="null" id="svg_183" fill="#6ADBC6" d="m365.67756,195.20871l-8.58856,0.28503l-1.93386,-16.17851l11.31912,-0.45625l-0.7967,16.34973z"/>
    <path stroke="null" id="svg_184" fill="#EBF1FF" d="m366.47525,179.91795l-12.82939,0.45328l0.49188,-1.10846l11.7912,-0.40379l0.54631,1.05897z"/>
    <path stroke="null" id="svg_185" fill="#405191" d="m354.55242,183.96778c-0.22565,0.00693 -0.44734,0.06037 -0.6532,0.15637c-0.20487,0.096 -0.38994,0.23258 -0.54433,0.40281c-0.15439,0.17023 -0.27414,0.37015 -0.35332,0.58788c-0.08017,0.21773 -0.11678,0.45031 -0.10986,0.68289c0.05542,0.74326 0.38796,1.60132 1.93683,1.65774c-0.25435,0.17221 -0.4612,0.41072 -0.59678,0.69279c-0.13658,0.28107 -0.19794,0.59481 -0.17814,0.90854c0.00396,0.35233 0.11184,0.69476 0.30977,0.98079c0.19794,0.28701 0.47604,0.50276 0.79769,0.62054c-0.26128,0.19398 -0.46911,0.45625 -0.60074,0.76008c-0.13163,0.30384 -0.18309,0.63835 -0.14944,0.96891c0.03365,0.33155 0.15142,0.64726 0.34144,0.91547c0.19002,0.2692 0.44536,0.48099 0.74029,0.6146c-0.26821,0.15736 -0.48594,0.39291 -0.62351,0.67893c-0.13856,0.28503 -0.19101,0.60668 -0.15142,0.92239c0.27711,1.48652 1.32817,1.48652 2.32479,1.48652c1.38656,0.00693 2.77213,-0.06928 4.14978,-0.22862l0,-13.38065l-6.63985,0.57204z"/>
    <path stroke="null" id="svg_186" fill="#5A7ECC" d="m361.89001,191.49142c0,-0.71159 -0.05641,-2.46137 -0.05641,-3.11852c0,-0.65617 -0.11282,-2.46137 -0.05641,-3.06211c-0.10293,-0.66606 -0.31175,-1.31134 -0.61856,-1.91506l-1.12528,0c-0.47406,-0.00099 -0.93031,0.17419 -1.27472,0.4899c-0.3454,0.31472 -0.55423,0.74623 -0.58293,1.20545c-0.02078,0.34144 0.06532,0.67992 0.24544,0.97287c0.18111,0.29295 0.44833,0.52553 0.768,0.66804c-0.28602,0.1346 -0.5285,0.34342 -0.69674,0.6047c-0.16924,0.26128 -0.2593,0.56412 -0.26029,0.87291c-0.01287,0.33946 0.07522,0.67497 0.25534,0.96693c0.18012,0.29097 0.44338,0.52553 0.7581,0.67398c-0.28701,0.13361 -0.5285,0.34243 -0.69773,0.60371c-0.16924,0.26128 -0.25831,0.56412 -0.2593,0.87291c-0.01287,0.33946 0.07522,0.67497 0.25534,0.96693c0.18012,0.29097 0.44338,0.52553 0.7581,0.67398c-0.2781,0.12965 -0.51464,0.33056 -0.68289,0.58095c-0.16825,0.25039 -0.26326,0.54136 -0.27414,0.84124c-0.01485,0.23357 0.01781,0.46911 0.09798,0.69081c0.08017,0.22169 0.20586,0.42458 0.36817,0.59876c0.1633,0.1732 0.36025,0.31274 0.57996,0.41072c0.21872,0.09798 0.45724,0.15241 0.69872,0.15934l1.06887,-0.10986c0,0 0.7878,-0.92932 0.7878,-1.58549c0,-0.65716 -0.05641,-2.40693 -0.05641,-3.0631z"/>
    <path stroke="null" id="svg_187" fill="#CCD5FF" d="m385.04585,170.54259l-3.47877,1.94574l1.71118,2.27926c1.03423,1.28759 2.26541,2.41287 3.64999,3.33527l4.44966,-2.44553l-2.73848,-2.05757c-1.24998,-0.95901 -2.44949,-1.97939 -3.59358,-3.05716z"/>
    <path stroke="null" id="svg_188" fill="#A8C4FF" d="m366.67418,185.66411c6.00744,0.95802 11.73974,1.91704 14.11005,2.76223c3.74797,1.74681 5.7323,5.12958 5.23647,8.45495c-0.49683,3.32537 -2.26046,4.7911 -4.57535,5.29882c-2.31489,0.50672 -4.35366,-0.67695 -5.95201,-2.36735c-3.38772,-1.57658 -6.91202,-2.82161 -10.52736,-3.72026l1.70821,-10.42839z"/>
    <path stroke="null" id="svg_189" fill="#7A9ADE" d="m361.19227,183.39573c6.38451,0.68586 8.93792,3.60248 9.05371,8.17585c0.11579,4.57436 -4.58525,6.06088 -9.05371,5.20282l0,-13.37867z"/>
    <path stroke="null" id="svg_190" fill="#A8C4FF" d="m361.19227,184.15186c6.44488,1.04611 7.25742,4.57139 6.60719,6.4429c-0.65023,1.8725 -3.62821,2.97403 -6.60719,2.53361l0,-8.97652z"/>
    <path stroke="null" id="svg_191" fill="#7A9ADE" d="m384.32833,195.12162c0,2.65436 -1.37468,5.03259 -4.78418,5.36414c0,0 -1.26384,-0.33155 -4.01419,-1.3826c1.59539,1.65972 3.68463,2.82062 5.93915,2.32281c2.25452,-0.49782 4.12405,-2.21196 4.56446,-5.19787c0.43942,-2.98689 -1.48454,-6.58146 -5.22459,-8.29561c2.86021,2.21196 3.51935,4.47935 3.51935,7.18913z"/>
    <path stroke="null" id="svg_192" fill="#91A0E3" d="m390.38327,178.85898l-2.77807,1.58945l1.38854,2.19118l3.13931,-1.80817l-1.74978,-1.97246z"/>
    <path stroke="null" id="svg_193" fill="#7DA3FF" d="m337.69993,184.68234c0,0 8.51829,3.649 13.02535,6.30335l-3.1878,7.46525c0,0 5.49576,6.4142 7.63944,12.16432c0.20487,-0.17023 0.3741,-0.38004 0.49683,-0.61757c0.12272,-0.23753 0.19695,-0.49782 0.21674,-0.76503c0.44041,-3.15118 -7.1436,-11.22411 -7.1436,-11.22411c0,0 3.5718,-4.47935 3.5718,-6.74674c0,-2.2664 -13.84877,-6.74575 -13.84877,-6.74575c0,0 2.19811,-4.97618 0.43942,-5.86096c-1.75868,-0.88479 -10.16712,-2.82062 -10.16712,-2.82062l0.87885,1.21732l9.01313,2.70879l-0.93427,4.92174z"/>
    <path stroke="null" id="svg_194" fill="#7DA3FF" d="m353.21436,218.93264c0.24544,-0.28602 0.39687,-0.64924 0.43151,-1.03423c0,-1.78244 -4.52785,-8.7954 -4.52785,-8.7954l-0.75514,0.51761l4.85147,9.31202z"/>
    <path stroke="null" id="svg_195" fill="#2C2943" d="m300.01539,136.57237c0.51167,0.05047 0.99761,0.25435 1.39646,0.58689c0.39885,0.33254 0.69377,0.77988 0.84619,1.28363c0.36421,0.62351 -0.72742,0.3741 -1.75769,-0.56116c-1.03027,-0.93526 -1.81807,-1.55778 -0.48495,-1.30936z"/>
    <path stroke="null" id="svg_196" fill="#3366E0" d="m320.25362,138.6824c1.81609,-1.4113 1.24899,-2.93642 0.85114,-4.01024c-0.39687,-1.07283 0.96495,-2.14664 3.57675,-4.29329c2.61081,-2.14565 3.68859,-2.88001 3.97263,-1.4113c0.28404,1.46771 -0.05641,3.21947 -1.8725,3.61436c-1.81708,0.39588 -1.41922,0.79076 -0.79472,1.97741c0.62351,1.18664 0.79472,3.78459 -1.02235,4.12306c-1.81609,0.33946 -6.98129,1.75176 -4.71094,0z"/>
    <path stroke="null" id="svg_197" fill="#3366E0" d="m303.14678,146.50691c2.0932,0.64231 4.1191,1.50433 6.04405,2.5732c2.05064,1.23118 2.21295,4.70005 -1.51126,3.97263c-3.72421,-0.72742 -5.34236,-2.5732 -5.8283,-4.36356c-0.48594,-1.79035 -0.48594,-2.74145 1.29551,-2.18227z"/>
    <path stroke="null" id="svg_198" fill="#2C2943" d="m316.66797,130.48378l-2.70483,0c0.22961,-1.25196 0,-2.39902 -0.6334,-2.81568c-0.6334,-0.41765 -2.12982,-0.52157 -3.39564,2.1892c-0.0574,0.10491 -0.11579,0.31373 0.0574,0.3652c0.17221,0.05245 0.3454,-0.15637 0.46021,-0.20883c1.55382,-1.77254 2.82062,-1.98137 2.93543,0.88676c0.0574,0.41765 0.40281,0.31274 0.40281,0.31274l0.40281,-0.10392l2.47522,-0.62549z"/>
    <path stroke="null" id="svg_199" fill="#2C2943" d="m305.6032,127.57903c-0.60569,-0.43052 -1.51522,0.06136 -2.72759,3.13832l-0.54631,0l0.30384,0.43052c0.04157,0.03365 0.09105,0.05641 0.14252,0.06829c0.05245,0.01188 0.10689,0.01188 0.15835,0c0.05245,-0.01188 0.10095,-0.03464 0.14351,-0.06829c0.04256,-0.03266 0.07621,-0.07522 0.10095,-0.12272c1.152,-2.7078 1.69732,-3.13832 2.1219,-2.58508c0.42458,0.55423 0.1821,0.98474 0,2.21592c0,0.12272 0.06037,0.36916 0.30285,0.36916c0.24346,0 0.30384,-0.24643 0.36421,-0.36916c0.24247,-1.53897 0.1821,-2.64644 -0.36421,-3.07696z"/>
    <path stroke="null" id="svg_200" fill="#3263D9" d="m320.44068,131.35174l-0.7294,0.62944c-0.84124,-1.2005 -1.34598,-3.20166 -1.57064,-5.43045c-0.3365,-3.54409 -2.91761,-3.88751 -7.63053,-3.02945c-2.18821,0.39984 -4.26459,0.51365 -5.16224,0.22862c1.73988,-1.60132 4.15176,-2.4584 7.1822,-2.34458c5.83523,0.22862 7.79878,5.77387 7.91062,9.94641z"/>
    <path stroke="null" id="svg_201" fill="#FCC0B8" d="m291.01018,141.34665l7.54641,13.31731l-0.22862,-1.47959l-6.05989,-14.39805c-0.36916,0.87687 -0.78879,1.73196 -1.2579,2.56034z"/>
    <path stroke="null" id="svg_202" fill="white" d="m223.90504,168.83537c-3.18582,-3.11852 -7.03474,-5.48686 -11.2637,-6.93082c-4.23391,-1.40239 -8.08777,-3.7549 -11.26271,-6.87441l-6.74674,-6.76455c-0.27909,-0.26128 -0.64825,-0.40676 -1.03126,-0.40676c-0.38301,0 -0.75217,0.14548 -1.03126,0.40676l-1.17081,1.16487c2.56429,2.60586 9.64555,9.70196 14.10609,12.41867c5.57593,3.38178 11.93273,5.8768 19.12483,13.30642c4.9069,5.04545 11.87632,11.91986 15.8915,15.80144l1.78343,-1.77452c0.26326,-0.27711 0.40973,-0.64429 0.40973,-1.02532c0,-0.38103 -0.14647,-0.74821 -0.40973,-1.02631l-18.39938,-18.29546z"/>
    <path stroke="null" id="svg_203" fill="#359C94" d="m32.87599,243.88379c-6.4523,-7.99672 -9.70641,-15.60647 -7.63053,-17.42651c2.07598,-1.82005 4.43244,2.42673 9.6503,9.42979c-2.74917,-14.00712 -2.30034,-17.37109 0.39281,-17.70264c2.69305,-0.33056 3.31023,9.43078 4.03963,18.19946c5.55455,-7.33461 9.14536,-10.47887 11.50191,-8.49256c2.35646,1.98532 0.05612,3.80438 -3.47867,7.99573c-3.53469,4.19135 -6.39609,7.99672 -6.39609,7.99672l-8.07936,0z"/>
    <path stroke="null" id="svg_204" fill="#5A4E70" d="m130.76602,154.66396c-10.04043,0 -19.63452,-14.2684 -26.04971,-26.58612c-0.11085,-0.21476 -0.13262,-0.46417 -0.05938,-0.69377c0.07324,-0.2306 0.23555,-0.42161 0.44932,-0.53245c0.21476,-0.11085 0.46516,-0.13262 0.69476,-0.05938c0.2306,0.07324 0.42161,0.23456 0.53245,0.44932c9.20414,17.66899 18.07377,26.5307 25.54793,25.52715c7.47515,-1.00256 14.55937,-12.87492 19.63551,-35.28057c0.02078,-0.13064 0.07225,-0.25435 0.14944,-0.36025c0.0772,-0.10689 0.17913,-0.19398 0.29691,-0.25336c0.24742,-0.10293 0.52157,-0.12272 0.78087,-0.05542c16.17653,6.63193 29.45227,6.52109 39.54912,-0.27909c15.5075,-10.42246 23.65168,-36.89773 23.59527,-76.69358c0.00594,-0.19289 0.07423,-0.37876 0.19497,-0.52949c0.12074,-0.15083 0.28701,-0.25831 0.47505,-0.30651c0.19497,-0.04869 0.40083,-0.03751 0.58986,0.03207c0.18903,0.06958 0.35233,0.19428 0.46911,0.35807c13.61125,23.01927 30.56865,49.15983 40.83275,46.87463c6.30335,-1.44891 10.43037,-13.65578 12.66213,-37.34369c0.00693,-0.11718 0.03761,-0.23179 0.08907,-0.33729c0.05146,-0.1055 0.12272,-0.19982 0.2108,-0.27751c0.08808,-0.07769 0.19101,-0.13717 0.30186,-0.17518c0.11184,-0.03791 0.22961,-0.05364 0.34639,-0.04602c0.24149,0.02801 0.46318,0.14786 0.61955,0.33462c0.15538,0.18666 0.23357,0.42606 0.21773,0.66864c-2.28718,24.91413 -6.74971,37.28827 -14.0576,38.90443c-8.75779,2.00611 -21.14083,-11.48242 -41.11086,-44.86822c-0.38994,38.56982 -8.81322,64.43149 -24.37614,74.91035c-10.43136,7.02286 -23.9862,7.30096 -40.32999,0.89171c-5.18797,22.51749 -12.27219,34.55612 -20.91815,35.6715l-1.33905,0.05542z"/>
    <path stroke="null" id="svg_205" fill="#F7E5BC" d="m256.67476,98.71266c2.70879,0 4.90492,-2.20009 4.90492,-4.91482c0,-2.71374 -2.19613,-4.91482 -4.90492,-4.91482c-2.70879,0 -4.90492,2.20108 -4.90492,4.91482c0,2.71473 2.19613,4.91482 4.90492,4.91482z"/>
    <path stroke="null" id="svg_206" fill="#F7E5BC" d="m200.83035,125.93218c2.70879,0 4.90492,-2.20009 4.90492,-4.91482c0,-2.71374 -2.19613,-4.91482 -4.90492,-4.91482c-2.70879,0 -4.90492,2.20108 -4.90492,4.91482c0,2.71473 2.19613,4.91482 4.90492,4.91482z"/>
    <path stroke="null" id="svg_207" fill="#F7E5BC" d="m167.62615,135.00569c2.70978,0 4.90591,-2.20108 4.90591,-4.91482c0,-2.71473 -2.19613,-4.91482 -4.90591,-4.91482c-2.70879,0 -4.90492,2.20009 -4.90492,4.91482c0,2.71374 2.19613,4.91482 4.90492,4.91482z"/>
    <path stroke="null" id="svg_208" fill="#F7E5BC" d="m137.44051,164.49359c2.70978,0 4.90492,-2.20108 4.90492,-4.91482c0,-2.71473 -2.19514,-4.91482 -4.90492,-4.91482c-2.70879,0 -4.90492,2.20009 -4.90492,4.91482c0,2.71374 2.19613,4.91482 4.90492,4.91482z"/>
    <path stroke="null" id="svg_209" fill="#F7E5BC" d="m228.75255,75.27376c2.70879,0 4.90492,-2.20108 4.90492,-4.91482c0,-2.71473 -2.19613,-4.91482 -4.90492,-4.91482c-2.70879,0 -4.90492,2.20009 -4.90492,4.91482c0,2.71374 2.19613,4.91482 4.90492,4.91482z"/>
    </g>
</svg>