<svg data-name="PENDING-tab" xmlns="http://www.w3.org/2000/svg" width="480" height="322" viewBox="0 0 480 322" fill="none">
    <path d="M354.5 37C359.747 37 364 32.7467 364 27.5C364 22.2533 359.747 18 354.5 18C349.253 18 345 22.2533 345 27.5C345 32.7467 349.253 37 354.5 37Z" fill="#FFB097"/>
    <path d="M324.492 309.769L317.231 302.65C310.717 296.228 302.37 291.989 293.345 290.518L290.876 290.155C288.322 292.601 285.496 294.746 282.454 296.548C279.913 295.966 275.193 295.022 266.844 286.159C261.616 280.71 258.059 286.086 259.221 296.548C260.382 307.009 272.289 315 290.295 315H325C324.967 313.246 324.798 311.497 324.492 309.769Z" fill="#BA576F"/>
    <path d="M334 252.497L293.571 240C293.571 264.778 292.926 268.173 292.926 268.173C292.926 268.173 290.561 274.964 291.564 281.682C291.006 283.444 290.311 285.159 289.486 286.811C288.124 289.34 290.059 291.796 290.059 291.796L291.493 290.495C291.493 290.495 314.144 306.099 324.681 310C326.76 307.327 327.405 304.365 328.409 300.031C329.412 295.697 327.119 293.385 327.119 293.385C327.119 293.385 327.764 288.328 329.054 281.754C330.344 275.181 334 252.497 334 252.497Z" fill="#262538"/>
    <path d="M376.027 309.97L382.237 303.072C387.939 296.703 395.708 292.532 404.188 291.288L406.571 290.929C409.447 293.331 412.569 295.426 415.885 297.18C418.34 296.605 422.889 295.671 429.965 287.12C434.298 281.803 438.63 286.977 438.991 297.18C439.352 307.383 428.738 315 410.758 315H376.244C376.027 313.333 375.955 311.65 376.027 309.97Z" fill="#F2918F"/>
    <path d="M429.965 287.12C434.298 281.803 438.63 286.977 438.991 297.18C439.352 307.383 428.738 315 410.758 315H376.244C376.027 313.333 375.955 311.65 376.027 309.97L382.237 303.072C386.082 298.796 390.879 295.474 396.245 293.372C402.455 298.976 407.726 299.408 415.885 297.18C418.34 296.605 422.889 295.671 429.965 287.12Z" fill="#EB8381"/>
    <path d="M382.325 303.107C388.106 296.758 395.985 292.599 404.584 291.358L407 291L395.578 315H376.247C376.027 313.338 375.954 311.66 376.028 309.985L382.325 303.107Z" fill="#C75D77"/>
    <path d="M430.758 300.045C432.691 294.822 434.123 281.298 437.774 289.67C438.538 292.127 438.948 294.681 438.991 297.254C439.349 307.344 428.826 315 411 315C421.667 315 428.826 305.269 430.758 300.045Z" fill="#FAA68A"/>
    <path d="M358 253.347L397.155 241C400.787 265.404 401.95 268.818 401.95 268.818C401.95 268.818 410.885 275.5 405.291 282.109C406.12 283.857 407.092 285.533 408.197 287.121C408.694 287.829 408.972 288.668 408.998 289.532C409.024 290.397 408.796 291.251 408.342 291.987L406.671 290.753C406.671 290.753 386.041 306.078 375.943 310C373.401 307.313 372.311 304.407 370.713 300.195C369.964 298.06 370.068 295.718 371.003 293.658C371.003 293.658 369.623 288.646 367.298 282.182C364.974 275.718 358 253.347 358 253.347Z" fill="#262538"/>
    <path d="M358.215 254.692L358 253.374L396.487 241C397.492 247.883 398.354 253.082 399 257.036C387.583 264.87 371.715 272.705 364.893 276C362.524 268.751 359.292 258.28 358.215 254.692Z" fill="#1A1926"/>
    <path d="M402.036 272L403 276.296C403 276.296 394.024 277 387.2 277C380.375 277 384.084 275.099 402.036 272Z" fill="#1A1926"/>
    <path d="M397.243 282.38C384.243 282.38 378.808 279.753 376.458 288.309C374.107 296.865 373.593 296.19 382.774 291.987C391.955 287.784 405.983 282.38 397.243 282.38Z" fill="#1A1926"/>
    <path d="M379.574 270.566C376.581 274.1 373.879 277.635 372.272 275.188C370.666 272.741 368.694 270.022 371.177 269.75C374.974 269.342 381.765 267.915 379.574 270.566Z" fill="#1A1926"/>
    <path d="M234 149.163L244.365 116.109C273.502 113.15 281.837 112.861 281.837 112.861C292.129 110.768 312.714 113.15 312.714 113.15L386.064 113.583C396.502 118.779 397.516 122.388 402.735 134.079C406.794 135.162 407.156 135.739 407.953 141.08C416.071 151.978 421 158.762 421 158.762C409.258 168.866 398.314 177.238 398.314 177.238C404.619 194.56 404.909 200.911 405.707 207.767C406.504 214.624 408.606 218.954 411.215 225.233C412.775 228.947 413.374 232.992 412.955 236.997L415.347 244.359C387.441 265.072 328.442 275.465 279.88 249.988C279.88 249.988 281.982 225.666 284.157 214.984C286.331 204.303 287.418 196.292 287.418 196.292C286.186 187.487 285.461 186.837 282.779 171.032C272.125 166.34 268.936 163.959 266.544 162.227C257.701 162.66 252.048 156.453 247.699 154.576L234 149.163Z" fill="#4D7AE8"/>
    <path d="M397.845 177.402L401.892 174.209L399.363 147.289L392.424 140.324C392.424 140.324 391.774 134.809 385.342 122.038L303.527 115C303.527 115 283.941 117.685 272.45 122.038C266.09 121.023 251.418 122.038 242.167 122.909L234 149.176L247.66 154.618C251.996 156.505 257.634 162.745 266.451 162.309C268.836 164.051 272.016 166.445 282.64 171.162C283.435 175.806 284.014 179.143 284.519 181.756L298.179 186.472C304.756 204.539 313.574 206.208 321.668 207.732C329.763 209.256 340.459 220.14 352.529 226.308C364.599 232.475 377.608 234.217 392.93 221.156C397.7 216.439 403.482 208.24 405 205.846C404.277 199.678 403.41 192.93 397.845 177.402Z" fill="#3364DB"/>
    <path d="M426.543 169.001C438.878 172.013 443.812 174.29 447.294 175.686C452.156 177.596 452.663 180.682 451.43 183.621C449.253 188.543 439.386 188.984 417.764 178.845C396.142 168.707 426.543 169.001 426.543 169.001Z" fill="#B05A76"/>
    <path d="M424.244 179.558C439.136 188.455 441.87 189.704 445.036 192.057C448.201 194.41 448.92 197.792 446.762 200.806C444.604 203.821 439.352 204.188 430.431 198.968C421.511 193.748 410 185.073 410 185.073L417.122 175L424.244 179.558Z" fill="#B05A76"/>
    <path d="M432.785 184.984C425.655 182.501 423 179.94 423 179.94L423.759 178C423.759 178 429.069 182.113 432.937 184.752C433.089 184.829 432.937 185.062 432.785 184.984Z" fill="#9E4C67"/>
    <path d="M430.609 197.96C433.605 201.124 431.632 204 425.931 204C420.23 204 413.945 199.973 402.762 187.173C391.58 174.374 417.964 185.448 417.964 185.448L430.609 197.96Z" fill="#B05A76"/>
    <path d="M430 198C425.265 194.837 420.721 191.371 416.396 187.621C414.705 186.001 414 188.062 414 188.062C414 188.062 423.445 197.706 430 198Z" fill="#9E4C67"/>
    <path d="M376 167C370.898 157.123 367.892 151.509 366.075 145.824C364.258 140.14 361.742 143.337 362.021 152.717C362.301 162.097 376 167 376 167Z" fill="#214ABA"/>
    <path d="M381.406 164.237C383.663 152.298 386.43 147.957 388.542 141.445C390.654 134.933 384.974 138.189 381.406 146.727C377.838 155.265 379.294 168 379.294 168L381.406 164.237Z" fill="#2957C4"/>
    <path d="M286.686 144.991C310.174 167.144 316.937 176.32 319.555 180.98C322.173 185.64 312.792 181.625 303.193 175.173C293.594 168.721 290.686 164.419 282.541 147.429C274.397 130.438 282.25 140.762 286.686 144.991Z" fill="#2957C4"/>
    <path d="M421.395 165.017C415.067 174.003 409.757 180.141 398.773 186.643C385.971 194.242 384.371 192.489 382.625 189.128C380.177 184.251 378.039 179.224 376.224 174.076C374.624 169.62 381.825 157.564 390.626 150.988C399.428 144.413 407.938 142.075 412.157 142.001C416.376 141.928 416.958 144.559 417.904 148.723C424.886 158.076 425.614 159.025 421.395 165.017Z" fill="#E6987F"/>
    <path d="M402 144.144C405.931 142.644 409.219 142.001 411.363 142.001C415.437 141.93 416.08 144.501 417.01 148.572C423.871 157.715 424.586 158.643 420.44 164.5L419.368 166C414.651 165.5 410.934 164.357 412.292 162.215C413.65 160.072 411.72 156.715 409.29 154.644C407.115 152.865 405.522 150.477 404.716 147.787C404.541 147.025 404.209 146.307 403.741 145.68C403.273 145.053 402.681 144.53 402 144.144Z" fill="#FAC6AA"/>
    <path d="M420 159C397.026 167.9 389.32 179.79 385.935 184.561C382.55 189.331 388.528 190.257 401.059 180.004C409.125 173.454 416.399 166.761 420 159Z" fill="#13121C"/>
    <path d="M275.296 153.311C270.143 146.262 264.347 137.648 261.269 132.949C258.192 128.25 256.474 132.521 259.838 140.709C263.201 148.896 269.499 155.162 275.797 159.077C282.095 162.993 280.807 160.857 275.296 153.311Z" fill="#2957C4"/>
    <path d="M420.447 159C425.703 165.888 427.503 166.904 427.503 166.904C431.462 166.831 437.582 164.438 440.39 162.553C443.198 160.668 449.318 161.61 446.078 169.804C442.838 177.998 434.126 179.738 428.223 181.188C420.087 187.061 418.143 193.007 409.071 193.877C400 194.747 396.832 190.904 395.176 185.176L391 178.868C396.4 170.674 412.023 161.755 420.447 159Z" fill="#9E4C67"/>
    <path d="M395.174 184.218L391 177.939C391.506 177.183 392.059 176.46 392.655 175.774L397.189 174.186C397.189 174.186 403.234 187.393 410.646 185.805C418.058 184.218 421.728 178.3 427.629 175.629C433.53 172.959 446.051 168.918 446.699 163C447.203 164.299 447.131 166.175 446.051 168.918C442.813 177.001 434.105 178.805 428.204 180.248C420.073 186.094 418.13 192.012 409.063 192.878C399.995 193.744 396.829 189.919 395.174 184.218Z" fill="#964560"/>
    <path d="M316 90.3091L336.582 27.5458C337.589 24.0549 345.865 22.964 355.22 25.0731C364.576 27.1822 371.412 31.4731 370.981 35.5458L363.065 101L316 90.3091Z" fill="#F06EA1"/>
    <path d="M332 40.6237C333.736 37.0441 342.486 35.827 352.177 37.9748C361.868 40.1226 369.317 44.9908 369.317 49L370.98 35.3975C371.414 31.3883 364.688 27.2359 355.142 25.0882C345.596 22.9404 337.424 24.0859 336.411 27.5223L332 40.6237Z" fill="#E4578F"/>
    <path d="M339.004 25.0115L326 68L335.392 63.8095L345 24C342.96 24.0155 340.936 24.357 339.004 25.0115Z" fill="#F37CA8"/>
    <path d="M335 38C337.187 37.2069 339.505 36.8214 341.835 36.8629L345 24C342.969 24.0153 340.953 24.3512 339.029 24.9949L335 38Z" fill="#EA6298"/>
    <path d="M343 82.8502L364.071 84L369.98 35.2765C370.407 31.324 364 27.1559 354.817 25L343 82.8502Z" fill="#C65F99"/>
    <path d="M353 38.1171C362.384 40.3514 369.332 45.036 369.332 49L370.98 35.3063C371.41 31.3423 364.963 27.1622 355.722 25L353 38.1171Z" fill="#BC4A88"/>
    <path d="M302.541 85.2354C294.032 84.1656 292.256 83.809 288.26 84.0943C284.265 84.3796 289.962 89.4432 302.615 99.2139C309.793 104.777 306.981 96.5751 302.541 85.2354Z" fill="#9E4C67"/>
    <path d="M304 90.3771C291.908 85.9606 289.549 85.5399 290.065 86.3111C290.581 87.0822 301.125 99 301.125 99L304 90.3771Z" fill="#7A344F"/>
    <path d="M363.799 62C368.055 64.458 375.267 68.7956 372.671 77.6154C384.716 84.6278 385.076 88.6762 385.437 96.3393C396.039 112.388 392.938 120.63 382.263 128.004C383.706 140.583 378.296 146.872 358.534 154.029C338.772 161.186 321.39 153.162 321.39 153.162C306.965 155.764 301.556 148.752 297.373 144.053C293.189 139.354 293.838 133.064 294.92 127.642C289.872 123.955 289.799 119.618 294.127 113.473C291.963 104.364 295.786 100.171 300.113 93.5199C299.464 84.6278 300.113 81.5915 302.998 78.6275C304.369 77.2539 313.168 70.3137 327.449 67.3497C343.46 64.0242 363.799 62 363.799 62Z" fill="#2E2538"/>
    <path d="M335.987 86L322 90.4158C327.538 101.867 331.514 100.146 333.928 95.131C335.393 92.3428 336.106 89.1848 335.987 86Z" fill="#CC3772"/>
    <path d="M315 99C320.097 98.8537 321.481 96.9512 321.699 94.6829C324.83 93.2927 326.359 92.7073 328.835 88.5366C330.356 89.2252 332.022 89.5254 333.687 89.4105C335.351 89.2956 336.961 88.7692 338.374 87.8781C339.166 88.8343 340.198 89.5618 341.362 89.986C342.526 90.4103 343.782 90.5161 345 90.2927C341.141 87.9512 340.34 85.3171 340.34 85.3171C336.481 85.5366 335.316 84 335.316 84C331.092 86.3415 328.908 85.3902 327.451 84.2927C325.558 87.6585 323.884 89.3415 321.626 89.9268C320.496 91.9655 318.693 93.544 316.529 94.3902C316.019 98.0488 315 99 315 99Z" fill="#13121C"/>
    <path d="M294.271 104.077C294.199 104.221 293.694 107.389 298.022 109.693C297.949 112.357 302.493 115.956 309.345 116.172C309.345 116.172 311.653 122.436 324.131 122.724C329.684 128.844 340.575 125.604 346.562 118.62C359.688 120.204 363.944 113.725 364.593 109.693C376.638 107.605 378.441 106.021 378.729 100.478C379.018 94.934 378.08 93.3501 373.031 83.9908L368.488 67.7199L370.074 67C372.526 69.5198 374.113 73.0476 372.671 77.9432C384.716 84.9267 385.076 88.9584 385.437 96.5898C396.039 112.573 392.938 120.78 382.263 128.124C383.706 140.651 378.296 146.914 358.534 154.042C338.772 161.169 321.39 153.178 321.39 153.178C306.965 155.77 301.556 148.786 297.373 144.106C293.189 139.427 293.838 133.163 294.92 127.764C289.872 124.092 289.799 119.772 294.127 113.653C293.189 109.765 293.334 106.741 294.271 104.077Z" fill="#1E1D2B"/>
    <path d="M319.999 72.138L333.966 67C333.966 67 334.178 72.0635 333.543 73.7017C332.908 75.3399 332.767 76.4569 329.734 80.5524C326.7 84.6478 325.431 84.7223 322.75 82.7118C320.069 80.7013 318.87 79.5099 319.011 78.0951C319.152 76.6803 319.999 72.138 319.999 72.138Z" fill="#13121C"/>
    <path d="M367 67.3396C358.497 44.0635 346.07 42.3233 331.535 59.2909C313.439 52.3298 309.296 57.1156 304.5 74.7358C302.974 80.1741 301.665 86.7726 305.59 102C306.753 92.2835 312.058 88.6579 312.058 88.6579C315.692 78.7964 319.107 75.0258 322.16 73.3581L327.102 76.9111L332.77 69.5875C343.526 71.4728 347.451 80.8267 347.451 80.8267C353.773 82.857 357.916 87.1352 358.715 90.9058C359.733 80.4642 360.968 73.1405 367 67.3396Z" fill="#9E4C67"/>
    <path d="M307.323 59.9684C310.098 52.844 317.327 49.8013 322.584 53.7346C324.336 54.9962 320.32 56.5546 314.917 59.152C309.514 61.7495 305.863 63.6048 307.323 59.9684Z" fill="#13121C"/>
    <path d="M345.768 67H339.824C339.657 66.9992 339.494 67.0468 339.356 67.1366C339.219 67.2264 339.113 67.354 339.054 67.5024C338.994 67.6508 338.984 67.8129 339.024 67.9671C339.064 68.1212 339.152 68.2601 339.278 68.3651C343.514 72.1355 345.7 71.5504 346.93 68.5602C346.995 68.3835 347.015 68.1945 346.988 68.0089C346.961 67.8233 346.888 67.6467 346.774 67.4938C346.66 67.3409 346.509 67.2162 346.334 67.1303C346.159 67.0444 345.965 66.9997 345.768 67Z" fill="#B5627D"/>
    <path d="M353.923 73.9916C356.966 69.107 357.803 73.9916 356.205 80.1884C355.76 81.845 355.149 83.4564 354.38 85C352.193 83.2823 349.69 81.9718 347 81.1361C347 81.1361 351.641 77.4909 353.923 73.9916Z" fill="#8F3E5D"/>
    <path d="M319.863 67.8896C316.451 70.4524 312.329 73.8444 310.553 74.749C308.776 75.6535 308.349 74.1459 310.197 69.6986C312.045 65.2513 316.025 61.407 318.868 63.6684C321.711 65.9297 321.355 66.6835 319.863 67.8896Z" fill="#8F3E5D"/>
    <path d="M335.948 60.4845C340.101 55.8633 346.187 53.8727 349.767 59.1337C353.347 64.3946 348.55 64.0392 342.822 63.9681C337.094 63.897 333.084 63.7548 335.948 60.4845Z" fill="#8F3E5D"/>
    <path d="M334.281 66.9325L320.046 72C317.171 62.8933 317.89 54.5944 318.824 52.6849C319.759 50.7754 322.85 48.205 335 59.4415L334.281 66.9325Z" fill="#9E4C67"/>
    <path d="M334 66.9939L319.345 72C316.237 62.4956 316.459 53.6441 318.605 53.0637C322.75 51.9028 334 66.9939 334 66.9939Z" fill="#7A344F"/>
    <path d="M346.614 65.6066C347.012 63.7152 346.24 61.9509 344.889 61.666C343.538 61.3812 342.12 62.6836 341.721 64.5751C341.323 66.4666 342.095 68.2309 343.446 68.5158C344.797 68.8006 346.215 67.4981 346.614 65.6066Z" fill="#1A1926"/>
    <path d="M321.999 67C322.015 65.395 321.862 63.7921 321.542 62.2122C321.237 60.9984 317.962 65.3142 321.999 67Z" fill="#612248"/>
    <path d="M328.331 65.8762C328.071 66.0161 327.773 66.0383 327.499 65.9384C327.225 65.8385 326.993 65.6238 326.851 65.3373L325.304 62.7195C324.833 61.8725 324.631 60.0247 326.851 61.6415C329.072 63.2584 329.408 65.3373 328.601 65.7992L328.331 65.8762Z" fill="#612248"/>
    <path d="M369 67.1867C377.396 63.1241 383.8 61.3829 390.701 61.0202C397.603 60.6574 392.338 65.2279 387.073 71.3945C381.807 77.5611 377.111 85.9766 373.483 83.5825C370.992 74.1513 369 67.1867 369 67.1867Z" fill="#9E4C67"/>
    <path d="M372.691 78.3998C372.103 76.2156 371.515 74.2428 371 72.5518C384.967 66.2106 388.348 64.5901 390.627 64.0264C392.906 63.4628 384.158 72.0586 380.115 76.3565C377.322 79.3157 374.749 79.4567 372.691 78.3998Z" fill="#7A344F"/>
    <path d="M326.878 77L322.008 73.5493C320.898 74.151 319.885 74.9103 319 75.8028L319.788 71.8592L333.968 67C333.968 67 334.04 68.5493 333.968 70.169L332.464 69.8873L326.878 77Z" fill="#5C1F3F"/>
    <path d="M306.619 84.5511C307.509 86.0125 308.125 86.8893 311 88.5699C311 88.5699 308.467 90.3966 306.619 95C303.47 83.8935 305.729 83.0897 306.619 84.5511Z" fill="#8F3E5D"/>
    <path d="M316.433 72.0315L311.437 75.1398C311.246 75.2554 311.103 75.4501 311.038 75.6824C310.973 75.9147 310.992 76.1662 311.09 76.3831C312.548 79.2584 314.282 78.4813 316.988 72.5754C317.006 72.4927 317.003 72.4061 316.98 72.325C316.957 72.2439 316.915 72.1714 316.858 72.1154C316.801 72.0593 316.731 72.0219 316.656 72.0071C316.581 71.9923 316.504 72.0007 316.433 72.0315Z" fill="#B5627D"/>
    <path d="M315.635 72.4004C316.034 70.5089 315.481 68.7908 314.4 68.5629C313.319 68.335 312.12 69.6837 311.721 71.5752C311.323 73.4667 311.876 75.1847 312.957 75.4126C314.038 75.6405 315.237 74.2919 315.635 72.4004Z" fill="#1A1926"/>
    <path d="M333.892 59.2952C333.739 58.6279 333.341 58.037 332.77 57.6326C331.428 56.4333 330.003 55.3224 328.507 54.3073C326.936 53.223 329.33 55.1747 331.424 57.5603C332.322 58.4277 332.92 59.1506 333.369 59.6566C333.818 60.1627 334.192 60.1627 333.892 59.2952Z" fill="#CC6E8D"/>
    <path d="M355.304 49.8389C350.727 44.0227 343.074 43.3046 339.212 48.4746C337.997 50.1261 342.145 50.4134 347.937 51.275C353.73 52.1367 357.664 52.783 355.304 49.8389Z" fill="#13121C"/>
    <path d="M350 112C348.398 117.384 346.432 118.461 340.753 117.845C335.074 117.23 344.539 116.23 350 112Z" fill="#1E1D2B"/>
    <path d="M334.365 94.1812C332.284 98.2157 329.236 100.05 325 94.6213C327.304 92.4207 331.02 90.5135 336 90C335.647 91.4598 335.098 92.8662 334.365 94.1812Z" fill="#AB2058"/>
    <path d="M392.892 182L391 179.199C396.458 170.869 412.249 161.801 420.763 159L422 160.622C401.988 171.016 394.42 179.936 392.892 182Z" fill="#5E2042"/>
    <path d="M440.967 181.201C440.424 182.718 438.639 183.546 437.398 183.96C437.232 184.004 437.056 184.012 436.886 183.983C436.716 183.955 436.556 183.891 436.419 183.797C436.283 183.702 436.173 183.58 436.101 183.441C436.028 183.301 435.994 183.148 436.001 182.994C436.079 182.029 436.777 180.719 439.648 180.029C439.83 179.988 440.021 179.99 440.202 180.035C440.384 180.079 440.549 180.165 440.682 180.283C440.815 180.401 440.911 180.548 440.961 180.709C441.011 180.87 441.013 181.04 440.967 181.201Z" fill="#9E4C67"/>
    <path d="M434.936 192.209C434.396 193.722 432.623 194.547 431.389 194.96C431.224 195.004 431.05 195.012 430.881 194.984C430.712 194.955 430.553 194.891 430.417 194.797C430.281 194.703 430.172 194.581 430.1 194.442C430.028 194.303 429.994 194.15 430.001 193.997C430.078 193.034 430.772 191.659 433.702 191.04C433.881 190.99 434.072 190.987 434.254 191.03C434.435 191.072 434.599 191.16 434.728 191.281C434.856 191.403 434.944 191.555 434.98 191.718C435.017 191.882 435.002 192.052 434.936 192.209Z" fill="#9E4C67"/>
    <path d="M420.971 195.184C420.505 196.767 418.641 197.592 417.476 197.936C417.312 197.992 417.135 198.012 416.96 197.993C416.785 197.975 416.618 197.92 416.473 197.832C416.328 197.744 416.209 197.626 416.127 197.488C416.045 197.351 416.001 197.198 416 197.042C416.078 196.01 416.854 194.702 419.728 194.014C419.905 193.987 420.087 193.999 420.257 194.05C420.428 194.1 420.581 194.187 420.704 194.303C420.828 194.419 420.916 194.56 420.963 194.714C421.009 194.867 421.012 195.029 420.971 195.184Z" fill="#9E4C67"/>
    <path d="M321.003 115.373C316.368 117.535 311.17 117.983 309.133 113.957C308.571 112.764 309.625 112.838 315.454 113.36C321.284 113.882 323.461 114.18 321.003 115.373Z" fill="#1E1D2B"/>
    <path d="M338.152 99.4471C332.514 102.347 328.954 102.701 326.284 102.701C323.613 102.701 325.245 104.611 329.918 106.946C334.591 109.28 336.742 107.441 338.152 104.328C339.561 101.216 341.489 97.7493 338.152 99.4471Z" fill="#13121C"/>
    <path d="M359.839 42.9821C359.146 43.0433 358.448 42.9469 357.801 42.7008C357.154 42.4547 356.576 42.0658 356.115 41.5655C355.653 41.0653 355.321 40.4678 355.145 39.8213C354.968 39.1748 354.953 38.4976 355.1 37.8444L357.699 25H362.361L363.967 38.138C364.041 38.7185 363.991 39.3075 363.822 39.8693C363.653 40.4311 363.366 40.9542 362.981 41.4069C362.595 41.8596 362.118 42.2325 361.578 42.5033C361.038 42.774 360.446 42.9369 359.839 42.9821Z" fill="#FFB097"/>
    <path d="M194.208 236C191.529 256.029 190.24 276.217 190.349 296.42C188.542 302.472 187.418 308.703 187 315H238.55C240.807 304.774 234.327 306.646 224.643 298.941C225.735 293.108 230.759 249.899 230.759 249.899L194.208 236Z" fill="#5C1F3F"/>
    <path d="M211.538 300.031L199.443 304.842C199.052 305.018 198.612 305.048 198.201 304.928C197.79 304.808 197.435 304.545 197.198 304.186L193.287 298.209C192.418 296.824 193.649 294.929 195.315 295.002L211.249 295.804C211.5 295.812 211.746 295.873 211.973 295.982C212.199 296.092 212.401 296.247 212.564 296.439C212.728 296.631 212.85 296.855 212.922 297.097C212.995 297.339 213.017 297.594 212.987 297.845V298.209C212.941 298.62 212.781 299.009 212.524 299.331C212.268 299.654 211.926 299.896 211.538 300.031Z" fill="#4F1A36"/>
    <path d="M95.4952 96.5258C90.7834 92.9516 85.7875 89.7776 80.5587 87.0361C76.8786 84.9922 75.0026 86.2331 74.2088 88.496C72.8378 92.3649 78.0332 98.6427 95.2788 106.891C112.524 115.14 95.4952 96.5258 95.4952 96.5258Z" fill="#8A3B59"/>
    <path d="M90.5571 102.029C77.385 98.4434 75.1658 97.5112 72.1591 97.081C69.1524 96.6507 67.1479 97.9414 67.0048 100.81C66.8616 103.678 69.9399 106.761 77.7429 108.984C85.546 111.207 96.5705 113 96.5705 113L97 103.535L90.5571 102.029Z" fill="#8A3B59"/>
    <path d="M89.3361 101.183C89.3361 101.183 88.6721 100.831 81 99L90 104L89.3361 101.183Z" fill="#7A344F"/>
    <path d="M76.4752 110.448C73.2113 110.598 73.0662 113.362 76.6928 116.574C80.3194 119.786 85.977 120.757 98.8877 119.413C111.798 118.068 90.1838 110 90.1838 110L76.4752 110.448Z" fill="#8A3B59"/>
    <path d="M84.6552 110L91 111.023L90.7931 113L83 110.068L84.6552 110Z" fill="#7A344F"/>
    <path d="M113 102.914C112.709 98.9595 110.233 97.3484 107.976 97.7878C106.675 97.9799 105.445 98.51 104.409 99.3257C104.409 99.3257 102.807 99.4721 100.769 97.6413C98.7299 95.8105 97.201 92.515 96.2545 89.366C94.7984 84.8256 92.1045 82.9215 89.5563 84.6059C83.8046 88.5604 89.5563 102.841 89.5563 102.841C90.7212 106.576 88.9011 112.581 91.8861 119.025C94.0703 123.785 93.7063 125.763 101.278 126.641C102.93 126.912 104.561 127.303 106.156 127.813C108.195 128.472 109.797 127.447 110.452 123.785C111.107 120.124 113 102.914 113 102.914Z" fill="#7A344F"/>
    <path d="M111.751 102.991C111.607 99.7387 109.019 99.8127 107.797 108.238C106.575 116.664 106.431 130.484 109.738 124.572C113.044 118.659 111.751 102.991 111.751 102.991Z" fill="#521F32"/>
    <path d="M142 106.286C128.863 105.5 110.343 103 110.343 103C106.682 114.786 108.405 123.286 108.405 123.286C124.485 130.5 141.282 132 141.282 132L142 106.286Z" fill="#D65396"/>
    <path d="M135 132C125.852 130.459 116.924 127.784 108.418 124.034C108.418 124.034 107.349 118.893 108.631 111C113.62 112.666 122.528 115.49 129.655 116.359L135 132Z" fill="#CC4389"/>
    <path d="M130.5 108L110 104.846C110.199 104.242 110.366 103.625 110.5 103C110.5 103 122.5 104.769 134 105.846L130.5 108Z" fill="#EB65A8"/>
    <path d="M255.882 15.7065C258.165 16.8272 260.154 18.4709 261.689 20.5052C263.224 22.5394 264.261 24.9074 264.718 27.4182L280 111L166 54.6968L241.179 15.7793C243.456 14.6219 245.97 14.0128 248.522 14.0002C251.074 13.9876 253.594 14.5718 255.882 15.7065Z" fill="#FFB097"/>
    <path d="M279 103.734L265.013 26.8852C264.592 24.6609 263.722 22.5471 262.457 20.6748C261.192 18.8024 259.559 17.2114 257.658 16L256 75.2879L267.031 103.734L273.665 107L279 103.734Z" fill="#F5A49A"/>
    <path d="M249.305 14.0257L182 52H203.415L252 14.169C251.111 14.0126 250.206 13.9645 249.305 14.0257Z" fill="#FFC497"/>
    <path d="M259.954 143.157C268.298 153.292 268.951 159.88 269.313 171.318C269.676 182.756 272.651 190.865 262.566 191.733L264.452 198.973C264.513 199.213 264.515 199.464 264.456 199.705C264.398 199.946 264.281 200.169 264.117 200.354C263.952 200.54 263.745 200.682 263.513 200.77C263.28 200.857 263.03 200.886 262.784 200.855C258.648 200.203 249.507 198.611 241.308 195.353C245.009 210.918 248.491 242.337 248.999 255.368C249.507 270.064 248.636 276 248.636 276C165.202 276 116.593 248.056 106 237.414C120.148 198.538 145.903 158.722 145.903 158.722C131.756 156.115 127.911 155.174 127.911 155.174C122.904 145.401 122.614 117.964 129.652 103.413C134.295 103.485 136.689 103.775 136.689 103.775C139.591 100.155 139.374 99.7929 147.645 101.458C150.982 99.9377 151.562 99.5757 158.164 100.517L259.954 143.157Z" fill="#203175"/>
    <path d="M163 114.733C163 114.733 152.983 114.805 146.186 115.6C140.605 116.25 129.872 113.867 126.223 113C122.646 127.876 123.576 147.518 127.654 155.462C127.654 155.462 131.446 156.4 145.399 159C148.69 147.157 156.918 132.642 159.995 128.598C163.071 124.554 163 114.733 163 114.733Z" fill="#19275C"/>
    <path d="M259.628 142.746L217.303 125L163.361 127.39C156.682 146.657 157.844 164.765 165.685 181.28C173.525 197.794 187.247 201.851 203.001 198.881C215.705 225.391 229.935 242.702 247.721 241.978C246.342 226.912 243.729 206.559 240.97 194.97C240.97 194.97 250.19 166.866 264.347 151.51L265 150.641C263.478 147.837 261.679 145.192 259.628 142.746Z" fill="#19275C"/>
    <path d="M282.827 112.006C290.251 96.8856 269.767 71.558 237.076 55.4355C204.385 39.3131 171.865 38.5009 164.441 53.6216C157.018 68.7423 177.502 94.0698 210.193 110.192C242.884 126.315 275.404 127.127 282.827 112.006Z" fill="#EB9078"/>
    <path d="M214.574 36.6561C236.781 33.5472 242.188 42.151 246.298 48.5135C250.408 54.876 256.031 65.1427 268 77L176 44.1031C176 44.1031 191.213 39.8374 214.574 36.6561Z" fill="#EB9078"/>
    <path d="M282.435 111.193C287.044 102.1 281.191 89.2558 268.607 76.9885C263.464 72.0283 258.787 66.6181 254.634 60.8245C253.683 59.5256 252.805 58.2267 252 57C252 57 253.024 62.6285 252.585 66.3087V121.872C267.217 122.738 278.484 119.202 282.435 111.193Z" fill="#EB8181"/>
    <path d="M277.683 113.943C284.133 100.805 264.065 77.6795 232.86 62.2898C201.654 46.9002 171.129 45.0746 164.679 58.2122C158.229 71.3498 178.297 94.4758 209.502 109.865C240.708 125.255 271.233 127.081 277.683 113.943Z" fill="#DE6874"/>
    <path d="M259.285 101.937C262.37 94.5469 248.148 81.545 227.52 72.8966C206.892 64.2483 187.669 63.2284 184.585 70.6187C181.5 78.009 195.722 91.0109 216.35 99.6592C236.978 108.308 256.201 109.327 259.285 101.937Z" fill="#BD4C66"/>
    <path d="M230 125.709L258.538 140C262.068 130.089 261.848 124.344 257.582 111.776C257.582 111.776 260.671 108.688 258.832 98.9214C258.391 95.4743 255.228 91.2371 250.006 87L240.224 105.888L230 125.709Z" fill="#96AEEB"/>
    <path d="M245.406 115.259C251.865 121.781 250.994 123.012 251.72 128.302C260.285 136.708 263.333 141.273 264.858 144.751C265.221 146.49 264.858 146.78 264.132 147.722L263.333 148.592L261.011 145.186C231.833 148.664 219.348 154.968 205.267 160.693C191.186 166.417 176.525 166.852 169.121 144.244C161.718 121.636 157 98.4478 157 98.4478C165.782 95.8391 174.057 95.7666 181.605 96.2014C189.154 96.6362 245.406 115.259 245.406 115.259Z" fill="#4D7AE8"/>
    <path d="M220.441 144C238.688 139.282 247.449 137.873 252.011 137.239C256.572 136.606 255.052 134 228.333 134C201.615 134 220.441 144 220.441 144Z" fill="#3364DB"/>
    <path d="M166 101C166.223 105.845 167.382 110.6 169.411 115L175 107.927L166 101Z" fill="#3364DB"/>
    <path d="M160.18 121.66C152.541 136.766 167.964 149.765 167.964 149.765C170.564 147.891 173.284 146.192 176.108 144.682L179.063 151.581C202.414 155.938 209.622 149.184 212.577 145.771C214.162 149.039 219.856 151.436 219.856 151.436C220 143.011 229.009 135.677 233.55 133.716L243.351 135.313C242.486 128.414 245.369 117.957 246.234 115.633C247.975 116.707 249.91 117.423 251.928 117.739C250.054 113.018 249.55 110.912 250.054 105.974C250.126 105.248 250.27 104.376 250.342 103.432C250.991 99.002 251.712 94.4994 252 89.8515C246.523 84.1869 237.369 78.1592 226.27 73.3661C207.892 65.4502 190.667 63.7799 185.622 69.0087C185.244 69.5135 184.906 70.0477 184.613 70.6065C179.063 79.6843 174.883 86.7287 170.126 90.2872C170.342 93.3374 173.874 94.7899 173.874 94.7899C162.342 112.365 159.82 115.996 156 118.538C157.143 119.882 158.571 120.95 160.18 121.66Z" fill="#CFDEFF"/>
    <path d="M227.031 129.529C227.031 129.529 235.128 130.481 238.411 126.16C238.411 126.16 238.192 119.35 241.547 109.831L251.468 108C251.216 110.965 251.744 113.945 253 116.641L252.635 117.959C250.913 117.56 249.264 116.893 247.748 115.982C246.872 118.325 243.955 128.87 244.83 135.826L234.909 134.215C231.95 135.64 229.279 137.601 227.031 140C223.456 139.414 216.745 138.828 218.204 138.316C220.192 137.529 222 136.344 223.517 134.833C225.035 133.322 226.23 131.518 227.031 129.529Z" fill="#B9CDFA"/>
    <path d="M184.257 82.9087C183.059 84.0728 181.598 84.9484 179.991 85.4656C178.384 85.9828 176.675 86.1272 175 85.8874C178.353 82.1286 181.633 76.8095 185.641 70.4976C185.938 69.952 186.28 69.4302 186.662 68.9373C188.921 66.5969 193.732 65.675 200 66.1005L184.257 82.9087Z" fill="#ACC5FA"/>
    <path d="M243.657 110.511L241.919 116.128C241.919 116.128 236.487 111.879 232.649 102.157L227 74H227.145C238.298 78.7529 247.496 84.73 253 90.347C252.71 94.9558 251.986 99.4206 251.334 103.813C251.262 104.75 251.117 105.614 251.045 106.334C250.538 111.231 251.045 113.319 252.928 118C250.9 117.687 248.955 116.977 247.206 115.912C244.019 114.471 243.657 110.511 243.657 110.511Z" fill="#ACC5FA"/>
    <path d="M168.229 118C168.229 128.481 175.782 131.137 178.732 131.568L179.523 137.886C194.557 140.972 197.075 138.46 202.83 134.942L206.858 140.542C208.369 133.865 217.217 131.568 217.217 131.568C218.188 133.385 219.584 134.941 221.288 136.104C222.991 137.266 224.951 138.001 227 138.244C223.331 141.547 219.806 146.285 219.735 151.454C219.735 151.454 214.052 149.085 212.469 145.854C209.52 149.228 202.326 155.905 179.019 151.597L176.07 144.777C173.252 146.27 170.536 147.949 167.941 149.802C167.941 149.802 152.547 136.952 160.172 122.02C158.567 121.318 157.14 120.262 156 118.933C165.927 119.077 168.229 118 168.229 118Z" fill="#B9CDFA"/>
    <path d="M200 112.423L195.255 108L189 108.346C192.81 119.542 199.209 121.132 200 112.423Z" fill="#AB2058"/>
    <path d="M195.159 108L197 109.756C194.761 110.586 192.796 112.058 191.336 114C190.384 112.204 189.601 110.317 189 108.366L195.159 108Z" fill="#CC3772"/>
    <path d="M201.333 99.0839C203.315 100.313 205.208 101.678 207 103.168C203.421 108.291 199.917 109.776 196.412 109.999C195.294 110.073 194.772 105.767 193.654 105.692C192.535 105.618 190 108.217 190 105.915C190 103.613 191.118 99.3809 192.982 95C195.914 96.0378 198.716 97.4081 201.333 99.0839Z" fill="#ACC5FA"/>
    <path d="M203.736 113.332C204.601 118.987 209 119.977 209 119.977C201.788 120.401 201.284 114.887 201.284 114.887C194.577 113.402 194.288 110.504 193.639 108.666C189.745 110.292 184.986 109.726 184.986 109.726C183.278 111.014 181.149 111.643 179 111.494C182.317 110.08 184.12 106.545 184.12 106.545C189.457 106.828 195.082 104 195.082 104C196.452 110.009 199.409 111.988 203.736 113.332Z" fill="#ACC5FA"/>
    <path d="M181 94.4752C189.275 93.3091 193.268 94.5481 200.745 99.0671C205.432 102.058 209.642 105.744 213.23 110C218.239 106.574 218.892 104.752 229.418 105.845C229.838 105.255 230.299 104.695 230.797 104.169C233.251 101.111 235.998 98.3038 239 95.7872C236.387 89.1545 235.733 84.7814 236.314 77.7843C233.483 76.2537 230.434 74.796 227.24 73.4111C213.158 67.3616 199.728 64.9563 191.889 66.414C189.516 69.4464 187.426 72.6913 185.646 76.1079C183.758 79.898 183.831 84.7814 183.686 86.6764L181 94.4752Z" fill="#D65396"/>
    <path d="M191.971 66.4159C199.797 64.9516 213.203 67.3678 227.261 73.4449C230.449 74.836 233.493 76.3004 236.319 77.838C235.739 84.8669 236.391 89.26 239 95.9229C236.77 97.7824 234.686 99.8142 232.768 102C223.928 101.78 219.217 101.195 213.565 98.9981C209.507 97.3873 205.304 89.3332 202.116 88.0885C193.42 84.7205 189.29 92.7745 184 83.4758C184.11 80.9451 184.701 78.4594 185.739 76.154C187.517 72.7218 189.603 69.4621 191.971 66.4159Z" fill="#A3316A"/>
    <path d="M219.085 92.5947C216.202 91.1608 213.112 90 212.425 90C211.738 90 211.738 92.0484 213.524 94.0969C215.309 96.1453 222.519 94.3017 219.085 92.5947Z" fill="#8C2659"/>
    <path d="M198.212 84.5401C195.763 83.1546 192.975 82 192.362 82C191.75 82 191.818 84.0013 193.315 86.0795C194.811 88.1577 201.205 86.3104 198.212 84.5401Z" fill="#8C2659"/>
    <path d="M187.124 102.334C187.564 103.636 189.248 103.998 191.517 103.998C197.301 104.07 204.476 102.479 204.476 102.479C205.575 101.902 206.565 101.143 207.405 100.237C209.528 97.4882 205.282 95.897 205.355 94.4504C205.428 93.0039 205.721 92.136 206.014 90.1832V89.9662C206.074 89.73 206.099 89.4862 206.087 89.2429C206.38 85.3372 203.525 84.397 201.694 85.3372C197.643 87.7975 194.052 90.9293 191.078 94.5951C187.637 98.5731 186.612 100.96 187.124 102.334Z" fill="#D65396"/>
    <path d="M216.963 93.2856C218.311 92.9838 219.062 91.2097 218.641 89.323C218.22 87.4364 216.787 86.1516 215.44 86.4535C214.092 86.7553 213.341 88.5294 213.762 90.4161C214.183 92.3027 215.616 93.5875 216.963 93.2856Z" fill="#0E0D14"/>
    <path d="M197.481 85.3917C198.559 85.1493 199.09 83.4236 198.667 81.5373C198.245 79.6511 197.029 78.3185 195.951 78.561C194.874 78.8034 194.342 80.5291 194.765 82.4154C195.187 84.3016 196.404 85.6342 197.481 85.3917Z" fill="#0E0D14"/>
    <path d="M240.509 177C246.953 189.665 252.528 198.423 252.528 198.423C255.34 198.753 258.178 198.801 261 198.568C259.986 230.267 249.27 227.373 241.885 224.043C234.499 220.714 229.648 209.134 224 193.357L240.509 177Z" fill="#D65396"/>
    <path d="M255.452 223.221C251.502 227.647 246.236 225.905 242.066 224.019C234.386 220.609 229.705 209.073 224 193.256L231.387 186L240.018 187.161C250.039 211.249 258.231 217.271 255.452 223.221Z" fill="#CC4389"/>
    <path d="M252.852 198.035L257 204.763C252.111 205.704 251.519 204.112 247.296 195.069L243 186.026L244.481 184L252.852 198.035Z" fill="#EB65A8"/>
    <path d="M225.993 199C225.352 197.191 224.641 195.309 224 193.355L240.228 177C241.58 179.605 242.861 182.066 244 184.382C239.516 192.559 232.754 198.566 225.993 199Z" fill="#BA3A7B"/>
    <path d="M244 177C241.792 167.242 241.276 159.073 241.718 154.881C242.16 150.688 243.853 147.363 240.761 145.701C237.669 144.038 233.473 144.833 230.382 153.652C227.29 162.471 244 177 244 177Z" fill="#732E48"/>
    <path d="M208.022 162.351C208.909 159.919 210.036 157.583 211.384 155.38C212.528 153.637 214.102 153.056 218.537 153.202L217.75 152.258C217.75 152.258 215.175 149.426 217.75 147.61C220.325 145.795 221.684 145.723 223.758 146.376C227.548 147.815 231.151 149.717 234.488 152.04C236.058 153.211 237.213 154.867 237.778 156.76C239.28 161.625 240.711 166.998 243 178.544C243 178.544 234.345 193.356 220.11 192.993L219.681 191.396C218.394 190.67 217.821 189.072 217.678 185.877C215.431 182.992 213.711 179.721 212.6 176.22C208.165 177.817 207.163 175.639 207.02 170.629C206.877 165.618 207.521 164.094 208.022 162.351Z" fill="#8A3B59"/>
    <path d="M221.476 163.552C223.069 163.408 223.576 163.336 223.794 161.819C224.011 160.303 224.011 157.632 226.184 157.56C228.356 157.487 230.167 157.993 230.312 155.249C230.457 152.505 231.688 152.144 235.671 152C237.134 153.134 238.199 154.701 238.713 156.477C240.234 161.314 241.682 166.657 244 178.137C244 178.137 237.337 189.329 226.111 192C224.518 187.018 219.159 170.484 219.014 167.884C218.869 165.285 219.883 163.625 221.476 163.552Z" fill="#803450"/>
    <path d="M61 38.5C60.9895 46.0338 63.6209 53.3338 68.438 59.1344C73.2552 64.935 79.9544 68.8706 87.3742 70.2588C94.0163 71.4449 100.752 72.0273 107.5 71.999C114.247 72.0273 120.984 71.4449 127.626 70.2588C135.052 68.8838 141.759 64.9519 146.579 59.1483C151.398 53.3448 154.025 46.0375 154 38.5C154.025 30.9625 151.398 23.6552 146.579 17.8517C141.759 12.0481 135.052 8.11625 127.626 6.74119C120.984 5.55513 114.247 4.97267 107.5 5.00098C100.752 4.97267 94.0163 5.55513 87.3742 6.74119C79.9544 8.12943 73.2552 12.065 68.438 17.8656C63.6209 23.6663 60.9895 30.9662 61 38.5Z" fill="#B9CEFA"/>
    <path d="M126 28.6956V47.4097C125.999 47.7984 125.899 48.1805 125.711 48.5203C125.522 48.8601 125.251 49.1466 124.922 49.3531H124.85L108.614 58.7101C108.266 58.9155 107.867 59.0155 107.464 58.998C107.085 59.0057 106.711 58.9059 106.386 58.7101L90.1495 49.3531H90.0777C89.7489 49.1466 89.4777 48.8601 89.2893 48.5203C89.1009 48.1805 89.0013 47.7984 89 47.4097V28.6956C89.0105 28.2953 89.1086 27.9021 89.2874 27.5439C89.4973 27.1877 89.7939 26.8905 90.1495 26.6802L106.386 17.3232C106.72 17.1121 107.106 17 107.5 17C107.894 17 108.28 17.1121 108.614 17.3232L124.85 26.6802C125.203 26.8717 125.481 27.1758 125.641 27.5439C125.875 27.8821 126 28.284 126 28.6956Z" fill="#DFE8FA"/>
    <path d="M126 27.5176L107.5 38L89 27.5176C89.2136 27.1622 89.5155 26.8658 89.8775 26.656L106.403 17.3224C106.742 17.1118 107.135 17 107.537 17C107.938 17 108.331 17.1118 108.67 17.3224L125.196 26.656C125.554 26.8471 125.837 27.1503 126 27.5176Z" fill="white"/>
    <path d="M107 30C108.657 30 110 29.1046 110 28C110 26.8954 108.657 26 107 26C105.343 26 104 26.8954 104 28C104 29.1046 105.343 30 107 30Z" fill="#3B4C91"/>
    <path d="M126 29.1716V48.2093C125.999 48.6047 125.897 48.9934 125.703 49.339C125.51 49.6847 125.232 49.9762 124.895 50.1863H124.822L108.178 59.7051C107.822 59.9141 107.413 60.0158 107 59.998V38.6904L125.632 28C125.872 28.344 126 28.7528 126 29.1716Z" fill="#8BABF0"/>
    <path d="M114.094 41.903C114.921 40.4673 115.01 38.9671 114.293 38.5522C113.576 38.1373 112.324 38.9648 111.497 40.4005C110.67 41.8362 110.581 43.3364 111.298 43.7513C112.015 44.1662 113.267 43.3387 114.094 41.903Z" fill="#172354"/>
    <path d="M122.094 36.903C122.921 35.4673 123.01 33.9671 122.293 33.5522C121.576 33.1373 120.324 33.9648 119.497 35.4005C118.67 36.8361 118.581 38.3364 119.298 38.7513C120.015 39.1662 121.267 38.3387 122.094 36.903Z" fill="#172354"/>
    <path d="M114.094 51.903C114.921 50.4673 115.01 48.9671 114.293 48.5522C113.576 48.1373 112.324 48.9648 111.497 50.4005C110.67 51.8362 110.581 53.3364 111.298 53.7513C112.015 54.1662 113.267 53.3387 114.094 51.903Z" fill="#172354"/>
    <path d="M122.094 46.903C122.921 45.4673 123.01 43.9671 122.293 43.5522C121.576 43.1373 120.324 43.9648 119.497 45.4005C118.67 46.8361 118.581 48.3364 119.298 48.7513C120.015 49.1662 121.267 48.3387 122.094 46.903Z" fill="#172354"/>
    <path d="M108 38.6177V59.9996C107.61 60.0074 107.225 59.9059 106.891 59.7067L90.1829 50.1874H90.1089C89.7707 49.9773 89.4916 49.6858 89.2977 49.3401C89.1038 48.9944 89.0014 48.6057 89 48.2103V29.1716C89.0108 28.7643 89.1117 28.3644 89.2957 28L108 38.6177Z" fill="#E6EDFA"/>
    <path d="M135.679 58L147.91 85.4736C147.968 85.5314 148 85.6099 148 85.6916C148 85.7734 147.968 85.8519 147.91 85.9097C147.852 85.9675 147.774 86 147.693 86C147.612 86 147.533 85.9675 147.476 85.9097L111 68.9022L135.679 58Z" fill="#B9CEFA"/>
    <path d="M108 315C108.503 308.16 109.437 305.496 117.412 302.616C125.388 299.736 126.681 293.688 127.543 289.944L126.753 289.224C126.239 288.745 125.851 288.146 125.626 287.479C125.4 286.813 125.343 286.102 125.459 285.408C126.537 279.72 129.483 264.384 132.357 252L169 255.024C169 255.024 162.821 282.96 162.39 285.552C161.959 288.144 162.39 292.752 162.39 297.144C162.39 301.536 157.432 302.184 157.432 302.184L158.654 315H108Z" fill="#5C1F3F"/>
    <path d="M207.876 67.7012C207.876 67.7012 209.536 63.2158 227 73.753C223.841 74.7469 220.568 75.3449 217.258 75.5329C218.918 79.2352 222.237 82.1543 212.062 77.8824C204.557 74.7497 200.732 70.8339 199 66.4908C199.794 62.8598 201.959 63.1446 207.876 67.7012Z" fill="#ACC5FA"/>
    <path d="M236 78C244.036 78.7047 246.184 79.9733 246.946 85.1179C247.708 90.2625 240.226 83.8493 236 78Z" fill="#ACC5FA"/>
    <path d="M188 102.229C188.433 103.613 190.094 103.997 192.332 103.997C198.036 104.074 205.112 102.383 205.112 102.383C205.537 102.809 205.996 103.195 206.484 103.536C207.422 101.768 207.711 101.461 208 100C198.469 102.383 190.527 103.921 188 102.229Z" fill="#A3316A"/>
    <path d="M224.658 85.4121C222.121 80.0928 216.765 78.3197 213.242 81.7888C212.114 82.9452 215.074 83.7932 219.161 85.335C223.248 86.8768 225.997 88.1103 224.658 85.4121Z" fill="#C3D5FA"/>
    <path d="M193.084 72.7059C198.252 70.6549 203.492 73.2376 203.995 78.3272C204.138 79.9224 201.339 78.4032 197.248 76.656C193.156 74.9088 190.357 73.7694 193.084 72.7059Z" fill="#C3D5FA"/>
    <path d="M180.031 129.143C180.031 129.143 179.73 124.786 181.008 122L188 128L184.015 130L182.361 127.714L180.031 129.143Z" fill="#B9CDFA"/>
    <path d="M206 130C204.321 134.968 199.796 134.441 196 133.011L206 130Z" fill="#B9CDFA"/>
    <path d="M200.793 88.4164C197.758 90.2314 194.874 94.0125 193.508 95.9787C192.142 97.9448 193.736 99.0792 195.861 96.508C197.985 93.9369 199.351 91.8951 200.641 90.3826C201.932 88.8702 202.842 87.2065 200.793 88.4164Z" fill="#EB65A8"/>
    <path d="M203.149 95.3241C202.166 95.7812 201.228 96.3403 200.349 96.9933C199.703 97.4486 199.703 98.2832 202.575 97.9038C205.447 97.5244 205.16 96.6898 204.729 95.7034C204.298 94.7171 203.939 94.9447 203.149 95.3241Z" fill="#C4397F"/>
    <path d="M225 91.3962L231 92C229.275 89.1624 226.35 89.7057 225 91.3962Z" fill="#8C2659"/>
    <path d="M224 94.3402L228 97C227 93.3964 225.067 93.8254 224 94.3402Z" fill="#8C2659"/>
    <path d="M190.974 80L188 77.0201C191.484 76.7144 190.974 80 190.974 80Z" fill="#8C2659"/>
    <path d="M190 81L186 80.6142C186.667 80.0081 189.037 79.457 190 81Z" fill="#8C2659"/>
    <path d="M208 67.3732L215 73C215 73 212.021 62.2786 208 67.3732Z" fill="#96AEEB"/>
    <path d="M247.81 85C247.721 90.3766 247.115 95.7333 246 101C250.224 94.9083 249.998 86.7615 249.998 86.7615L247.81 85Z" fill="#96AEEB"/>
    <path d="M233 126C226.173 134.413 220 126.942 220 126.942L233 126Z" fill="#B9CDFA"/>
    <path d="M221.252 192.99L220.817 191.414C219.514 190.698 218.934 189.122 218.79 185.969C216.514 183.122 214.773 179.895 213.648 176.44C209.159 178.017 208.145 175.867 208 170.924V168.273C208.362 165.908 210.172 165.693 214.734 166.267C219.297 166.84 221.252 169.777 222.193 174.434C223.134 179.091 226.248 185.539 229 191.772C226.518 192.656 223.889 193.07 221.252 192.99Z" fill="#732E48"/>
    <path d="M218.822 152.929C221.694 153.526 224.445 154.564 226.97 156C226.97 156 229.287 154.071 226.97 153.357C224.653 152.643 218 152 218 152L218.822 152.929Z" fill="#6B2841"/>
    <path d="M210.588 158C214.406 158.455 218.171 159.317 221.826 160.574C223.368 161.042 223.001 161.51 222.854 162.681C222.707 163.851 219.402 161.51 216.17 160.418C214.167 159.759 212.094 159.366 210 159.248L210.588 158Z" fill="#6B2841"/>
    <path d="M213 176.71L212.294 172H211L212.353 177L213 176.71Z" fill="#521F32"/>
    <path d="M247.015 223.743C244.492 223.046 242.719 221.421 242.105 219.254C241.491 217.086 243.605 217.86 247.628 220.569C251.652 223.279 249.947 224.594 247.015 223.743Z" fill="#BA3A7B"/>
    <path d="M233.765 159.379C230.651 161.771 227.926 164.625 225.688 167.843C225.33 168.368 225.104 168.97 225.029 169.599C224.953 170.228 225.029 170.866 225.251 171.46L228.889 182.167C228.949 182.341 229.048 182.501 229.178 182.632C229.308 182.764 229.467 182.865 229.641 182.927C229.816 182.99 230.003 183.012 230.187 182.993C230.372 182.975 230.55 182.914 230.708 182.818C232.819 181.443 236.966 178.622 239.586 175.366C239.766 175.119 239.891 174.836 239.954 174.537C240.017 174.238 240.015 173.929 239.95 173.63C239.586 171.822 238.494 167.336 236.748 160.464C236.678 160.158 236.532 159.874 236.323 159.638C236.114 159.402 235.85 159.222 235.553 159.115C235.256 159.007 234.937 158.974 234.625 159.02C234.313 159.067 234.017 159.19 233.765 159.379Z" fill="#732E48"/>
    <path d="M235.761 160.379C232.645 162.771 229.92 165.625 227.68 168.843C227.328 169.37 227.105 169.972 227.029 170.6C226.953 171.228 227.026 171.865 227.243 172.46L230.883 183.167C230.943 183.341 231.042 183.501 231.172 183.632C231.302 183.764 231.461 183.865 231.636 183.927C231.81 183.99 231.997 184.012 232.182 183.993C232.367 183.975 232.545 183.914 232.703 183.818C234.815 182.443 238.964 179.622 241.585 176.366C241.766 176.119 241.891 175.836 241.954 175.537C242.017 175.238 242.015 174.929 241.949 174.63C241.585 172.822 240.493 168.336 238.746 161.464C238.676 161.158 238.53 160.874 238.321 160.638C238.112 160.402 237.847 160.222 237.551 160.115C237.254 160.007 236.935 159.974 236.622 160.02C236.309 160.067 236.013 160.19 235.761 160.379Z" fill="#913E5E"/>
    <path d="M100.324 97.8353C98.2647 96.0527 96.7206 92.6361 95.7647 89.4423C94.2941 84.8373 91.5735 82.9062 89 84.6145C92.9706 82.2377 95.6176 92.8589 96.6471 96.7211C97.6765 100.583 99.0735 102.217 101.721 104C101.721 104 102.162 101.029 104 99.5436C104 99.5436 102.382 99.6921 100.324 97.8353Z" fill="#994163"/>
    <path d="M97.9874 118.368C97.8437 115.327 96.8378 111.862 94.8259 109.457C92.8141 107.053 90.9459 103.87 88 98C88.4229 99.6344 88.9509 101.241 89.5807 102.809C90.7304 106.416 88.9341 112.215 91.88 118.439C92.8141 120.49 93.317 121.975 94.1793 123.107C97.0534 125.936 98.1311 121.409 97.9874 118.368Z" fill="#6B2E45"/>
    <path d="M88.1417 97.431L88 97C88.0708 97.1436 88.0708 97.2873 88.1417 97.431Z" fill="#6B2E45"/>
    <path d="M101.767 106.354C101.478 109.252 100.683 119.974 102.852 125.262C103.574 126.856 101.84 125.335 100.9 123.016C99.9602 120.698 99.888 116.641 99.9602 114.033C100.033 111.425 100.394 108.382 101.767 106.354Z" fill="#6B2E45"/>
    <path d="M154.534 298.699L140.15 296.019C139.947 295.967 139.733 295.99 139.546 296.085C139.359 296.179 139.212 296.338 139.133 296.532C139.054 296.726 139.047 296.943 139.115 297.141C139.182 297.34 139.319 297.507 139.5 297.613L148.39 304.568C148.553 304.671 148.741 304.725 148.933 304.725C149.125 304.725 149.313 304.671 149.475 304.568L154.896 300.293C155.046 300.197 155.162 300.056 155.23 299.891C155.297 299.726 155.312 299.543 155.273 299.369C155.233 299.195 155.141 299.038 155.009 298.918C154.877 298.798 154.711 298.722 154.534 298.699Z" fill="#4F1A36"/>
    <path d="M129.741 291.745L147.74 289.354C147.959 289.321 148.164 289.225 148.331 289.079C148.498 288.932 148.619 288.74 148.68 288.526C148.741 288.312 148.739 288.085 148.675 287.873C148.611 287.66 148.487 287.47 148.318 287.325L134.584 275.517C134.429 275.389 134.245 275.301 134.048 275.261C133.851 275.221 133.647 275.23 133.455 275.287C133.262 275.345 133.087 275.448 132.943 275.589C132.8 275.73 132.693 275.904 132.633 276.096L128.44 290.296C128.389 290.483 128.386 290.68 128.431 290.869C128.476 291.057 128.567 291.232 128.696 291.376C128.826 291.52 128.989 291.629 129.172 291.694C129.354 291.758 129.55 291.776 129.741 291.745Z" fill="#4F1A36"/>
    <path d="M210.988 41.8762L218.072 36.2979C217.005 36.351 215.943 36.472 214.891 36.6601C209.036 37.457 203.76 38.3264 199.061 39.1233L194.29 41.8762C194.195 41.8955 194.11 41.952 194.056 42.0336C194.002 42.1151 193.982 42.2149 194.001 42.3109C194.02 42.407 194.077 42.4915 194.158 42.5458C194.24 42.6002 194.339 42.6199 194.435 42.6007C197.49 42.8522 200.53 43.2633 203.543 43.8323C204.851 44.0423 206.189 43.9768 207.471 43.6401C208.753 43.3033 209.95 42.7026 210.988 41.8762Z" fill="#F0A17A"/>
    <path d="M237.649 44.2095C237.964 41.9912 234.215 39.6217 229.274 38.917C224.334 38.2123 220.074 39.4393 219.759 41.6575C219.444 43.8758 223.193 46.2453 228.134 46.95C233.074 47.6548 237.334 46.4278 237.649 44.2095Z" fill="#F7E5BC"/>
    <path d="M95.3173 39.146C96.0779 38.7059 96.0634 37.2536 95.285 35.9023C94.5065 34.5509 93.2589 33.8122 92.4983 34.2523C91.7377 34.6924 91.7522 36.1447 92.5306 37.4961C93.3091 38.8475 94.5567 39.5862 95.3173 39.146Z" fill="#22347D"/>
    <path d="M103.512 53.4983C104.272 53.0582 104.258 51.6059 103.479 50.2545C102.701 48.9032 101.453 48.1645 100.693 48.6046C99.932 49.0447 99.9465 50.497 100.725 51.8484C101.503 53.1997 102.751 53.9385 103.512 53.4983Z" fill="#22347D"/>
    <path d="M350.213 315.049C362.349 315.042 374.356 312.553 385.494 307.735L396.072 303.101L385.494 298.395C374.356 293.577 362.349 291.088 350.213 291.082H298.775V315.049H350.213Z" fill="#F06EA1"/>
    <path d="M347.822 294.485C353.762 294.485 358.398 295.353 361.296 296.367C364.194 297.38 363.542 295.86 361.948 294.774C360.354 293.688 356.442 292.82 349.198 293.978C341.954 295.136 347.822 294.485 347.822 294.485Z" fill="#E05E91"/>
    <path d="M350.213 315.049H298.775V303.101H396.072L385.494 307.736C374.356 312.553 362.349 315.042 350.213 315.049Z" fill="#C44D8A"/>
    <path d="M334.057 298.395L344.634 303.101L334.057 307.736C322.937 312.573 310.939 315.07 298.811 315.07C286.683 315.07 274.686 312.573 263.566 307.736L252.916 303.101L263.566 298.395C274.686 293.557 286.683 291.061 298.811 291.061C310.939 291.061 322.937 293.557 334.057 298.395Z" fill="#D95592"/>
    <path d="M337.534 226.855C349.488 225.986 353.617 236.92 353.182 246.478C352.748 256.036 352.241 261.901 352.241 261.901C352.241 261.901 354.776 268.997 355.356 270.88C355.935 272.762 354.197 275.007 353.182 276.528C360.065 284.42 360.717 286.23 356.37 291.733C355.389 292.98 354.007 293.85 352.458 294.195C326.957 299.553 299.644 297.309 282.112 294.123C282.112 294.123 280.808 249.085 291.458 223.814L337.534 226.855Z" fill="#F5C698"/>
    <path d="M275.447 237.427C275.954 261.394 281.967 260.236 289.14 262.77C296.312 265.304 295.008 232.793 295.008 232.793L275.447 237.427Z" fill="#F5C698"/>
    <path d="M333.332 259.512C333.404 265.594 332.028 268.997 328.985 258.86C325.942 248.723 333.332 259.512 333.332 259.512Z" fill="#8F4E5D"/>
    <path d="M347.459 234.965C344.706 236.848 340.07 238.803 331.376 247.275L328.261 249.085L324.711 242.278L325.218 240.541C325.218 240.541 325.218 238.948 326.522 238.586C329.479 237.856 332.364 236.862 335.143 235.617C336.367 234.992 337.625 234.436 338.911 233.951C340.421 233.295 342.001 232.809 343.62 232.503C348.184 231.634 349.56 233.517 347.459 234.965Z" fill="#F7E5BC"/>
    <path d="M321.595 231.055C295.152 232.865 274.65 222.366 270.882 204.409C267.115 186.451 284.575 158.212 293.051 146.482C301.527 134.752 329.202 103.109 351.878 154.954C374.554 206.798 364.049 228.231 321.595 231.055Z" fill="#45C8BF"/>
    <path d="M318.408 157.343C318.501 155.165 319.018 153.025 319.93 151.044C320.582 149.668 321.306 150.247 320.654 152.13C319.967 154.056 319.792 156.126 320.147 158.14L318.408 157.343Z" fill="#258AA1"/>
    <path d="M324.276 160.964C325.58 158.936 326.667 157.633 327.754 156.981C328.841 156.33 328.333 157.416 327.102 159.009L325.291 161.471L324.276 160.964Z" fill="#258AA1"/>
    <path d="M296.964 167.336C294.573 166.394 295.153 164.005 296.602 162.05C304.498 151.406 317.756 153.723 325.073 160.747C329.493 164.946 329.42 169.798 327.247 170.304C325.073 170.811 296.964 167.336 296.964 167.336Z" fill="#258AA1"/>
    <path d="M351.879 154.954C346.735 143.079 341.229 135.621 335.868 131.276C344.852 147.279 355.646 190.144 339.273 201.223C322.9 212.301 281.605 213.605 270.449 197.385C270.295 199.735 270.441 202.095 270.883 204.409C274.651 222.366 295.153 232.793 321.596 231.055C364.05 228.231 374.627 206.726 351.879 154.954Z" fill="#31B3C4"/>
    <path d="M328.261 189.131C314.496 192.534 307.903 193.765 297.615 188.044C290.008 183.7 285.155 186.379 288.415 199.919C291.675 213.46 301.02 218.166 312.974 219.252C324.928 220.339 331.448 213.749 334.636 206.943C337.824 200.137 339.852 186.234 328.261 189.131Z" fill="#4D1934"/>
    <path d="M304.788 177.4C310.408 177.843 316.056 177.794 321.668 177.256C322.653 177.168 323.606 176.863 324.458 176.362C325.31 175.861 326.04 175.176 326.595 174.358C327.15 173.54 327.516 172.609 327.666 171.633C327.816 170.656 327.747 169.658 327.464 168.711C327.464 168.639 327.392 168.494 327.392 168.422C323.842 157.343 310.149 153.433 301.021 160.602L299.427 161.977C298.153 163.153 297.25 164.675 296.828 166.357C296.407 168.038 296.486 169.806 297.055 171.443C297.624 173.081 298.659 174.516 300.033 175.575C301.406 176.633 303.059 177.267 304.788 177.4Z" fill="#E8EEFF"/>
    <path d="M310.032 175.344C312.749 174.855 314.44 171.619 313.81 168.117C313.179 164.614 310.465 162.17 307.748 162.659C305.031 163.147 303.339 166.383 303.97 169.886C304.601 173.389 307.314 175.832 310.032 175.344Z" fill="#1A1926"/>
    <path d="M261.32 253.14H289.502V213.091H261.32V253.14Z" fill="#4D7AE8"/>
    <path d="M275.52 253.14H289.574V213.091H275.52V253.14Z" fill="#4667DB"/>
    <path d="M263.638 253.14H269.941V213.091H263.638V253.14Z" fill="#5988F0"/>
    <path d="M282.982 232.793C282.982 237.861 279.65 242.496 275.013 243.292C270.376 244.089 264.363 240.034 264.363 232.793C264.363 225.552 269.507 221.425 275.013 222.294C280.519 223.163 282.982 227.724 282.982 232.793Z" fill="#F7E5BC"/>
    <path d="M275.447 222.438V243.147C279.867 242.206 282.982 237.717 282.982 232.793C282.982 227.869 279.867 223.38 275.447 222.438Z" fill="#F2CF9D"/>
    <path d="M269.942 223.018C266.754 224.466 264.363 227.869 264.363 232.793C264.363 237.717 266.754 241.12 269.942 242.568V223.018Z" fill="#F7EDD7"/>
    <path d="M262.262 209.984H288.633C288.699 211.049 288.996 212.086 289.502 213.025H261.393C261.899 212.086 262.195 211.049 262.262 209.984Z" fill="white"/>
    <path d="M262.262 256.181H288.633C288.708 255.095 289.004 254.035 289.502 253.067H261.393C261.89 254.035 262.186 255.095 262.262 256.181Z" fill="#D1DEFF"/>
    <path d="M328.261 239.816L322.031 241.265C320.51 240.468 309.932 235.544 306.238 233.445C303.094 231.633 300.473 229.039 298.631 225.914C297.037 223.163 296.457 220.411 295.588 217.877C294.718 215.342 291.748 215.053 289.575 217.877V222.149C285.083 221.135 283.924 220.918 281.606 221.787C279.287 222.656 277.476 225.987 277.838 232.865C278.345 243.582 278.853 244.233 289.575 247.419L296.312 249.085C296.312 249.085 313.048 256.688 318.264 259.512C319.867 260.508 321.675 261.126 323.552 261.322C325.798 261.467 328.551 260.815 333.333 259.512C333.333 244.668 328.261 239.816 328.261 239.816Z" fill="#289CB5"/>
    <path d="M292.762 223.235C290.081 223.597 289.574 224.611 289.574 229.462C289.574 234.313 289.502 237.861 289.574 240.685C289.647 243.509 288.342 243.799 284.648 242.423C280.953 241.047 280.373 240.251 278.779 240.758C278.2 238.948 277.983 236.486 277.838 232.865C277.475 225.986 278.635 222.945 281.605 221.787C284.575 220.628 285.155 221.135 289.574 222.149L292.762 223.235Z" fill="#31B3C4"/>
    <path d="M336.592 304.984H394.187C395.268 304.984 396.144 304.109 396.144 303.029C396.144 301.949 395.268 301.074 394.187 301.074H336.592C335.512 301.074 334.636 301.949 334.636 303.029C334.636 304.109 335.512 304.984 336.592 304.984Z" fill="#F06EA1"/>
    <path d="M265.739 304.984H342.678C343.758 304.984 344.634 304.109 344.634 303.029C344.634 301.949 343.758 301.074 342.678 301.074H265.739C264.659 301.074 263.783 301.949 263.783 303.029C263.783 304.109 264.659 304.984 265.739 304.984Z" fill="#D95592"/>
    <path d="M337.027 199.195C336.549 201.866 335.746 204.467 334.636 206.943C333.292 209.818 331.397 212.401 329.058 214.546L328.406 214.691C313.264 219.035 300.224 215.704 295.008 208.97C300.659 196.154 321.234 194.127 337.027 199.195Z" fill="#992C56"/>
    <path d="M324.855 209.405C323.323 211.497 322.08 213.787 321.161 216.211C323.612 215.899 326.035 215.39 328.405 214.691L329.057 214.546C331.396 212.401 333.292 209.818 334.636 206.943C335.745 204.468 336.548 201.866 337.026 199.195C323.044 194.706 305.44 195.792 297.615 204.988C304.643 198.616 323.044 202.164 325.58 203.83C328.115 205.495 327.246 206.074 324.855 209.405Z" fill="#8A274C"/>
    <path d="M328.261 190.941C329.576 190.551 330.955 190.428 332.318 190.579C332.391 193.982 332.101 196.009 331.449 197.24C330.797 198.471 329.493 197.24 327.826 196.082C326.16 194.923 326.305 195.503 325.291 198.182C324.277 200.861 321.234 203.83 318.988 195.575C318.698 194.706 318.553 193.91 318.336 193.113C321.306 192.606 324.494 191.882 328.261 190.941Z" fill="#E8EEFF"/>
    <path d="M293.414 192.244C293.432 191.008 293.529 189.775 293.703 188.551C294.998 188.923 296.24 189.458 297.398 190.144C298.908 191.011 300.483 191.761 302.107 192.389C300.441 199.268 299.064 201.223 297.978 200.209C297.13 199.293 296.488 198.207 296.094 197.023C293.703 196.806 293.341 194.779 293.414 192.244Z" fill="#E8EEFF"/>
    <path d="M391.145 301.146H346.88C346.6 301.146 346.373 301.367 346.373 301.639C346.373 301.911 346.6 302.131 346.88 302.131H391.145C391.425 302.131 391.652 301.911 391.652 301.639C391.652 301.367 391.425 301.146 391.145 301.146Z" fill="#E66296"/>
    <path d="M338.041 301.146H293.776C293.496 301.146 293.269 301.367 293.269 301.639C293.269 301.911 293.496 302.131 293.776 302.131H338.041C338.321 302.131 338.548 301.911 338.548 301.639C338.548 301.367 338.321 301.146 338.041 301.146Z" fill="#E66296"/>
    <path d="M343.041 310.415C344.881 310.415 346.373 308.923 346.373 307.084C346.373 305.244 344.881 303.753 343.041 303.753C341.2 303.753 339.708 305.244 339.708 307.084C339.708 308.923 341.2 310.415 343.041 310.415Z" fill="#B33676"/>
    <path d="M357.53 310.415C359.37 310.415 360.862 308.923 360.862 307.084C360.862 305.244 359.37 303.753 357.53 303.753C355.689 303.753 354.197 305.244 354.197 307.084C354.197 308.923 355.689 310.415 357.53 310.415Z" fill="#B33676"/>
    <path d="M369.919 310.415C371.759 310.415 373.251 308.923 373.251 307.084C373.251 305.244 371.759 303.753 369.919 303.753C368.078 303.753 366.586 305.244 366.586 307.084C366.586 308.923 368.078 310.415 369.919 310.415Z" fill="#B33676"/>
    <path d="M381.582 310.415C383.422 310.415 384.914 308.923 384.914 307.084C384.914 305.244 383.422 303.753 381.582 303.753C379.741 303.753 378.249 305.244 378.249 307.084C378.249 308.923 379.741 310.415 381.582 310.415Z" fill="#B33676"/>
    <path d="M391.073 310.415C392.913 310.415 394.405 308.923 394.405 307.084C394.405 305.244 392.913 303.753 391.073 303.753C389.232 303.753 387.74 305.244 387.74 307.084C387.74 308.923 389.232 310.415 391.073 310.415Z" fill="#B33676"/>
    <path d="M284.793 187.103C286.215 185.18 288.112 183.658 290.299 182.686C291.458 182.252 289.719 181.021 286.387 181.962C283.054 182.903 282.547 189.927 284.793 187.103Z" fill="#2CA9BF"/>
    <path d="M333.985 185.655C337.245 186.814 339.056 187.827 339.78 191.086C340.505 194.344 342.388 192.534 342.461 190C342.533 187.465 342.606 184.641 340.07 184.134C337.535 183.628 330.942 184.641 333.985 185.655Z" fill="#2CA9BF"/>
    <path d="M307.084 142.176C309.064 139.461 310.093 136.841 309.382 136.323C308.671 135.804 306.489 137.584 304.508 140.298C302.528 143.013 301.499 145.633 302.211 146.151C302.922 146.67 305.104 144.89 307.084 142.176Z" fill="#3DDBE3"/>
    <path d="M304.861 222.076C310.588 223.891 316.737 223.891 322.465 222.076C324.494 221.425 325.653 221.642 324.204 223.669C322.755 225.697 320.871 227.29 316.959 228.231C309.715 230.114 304.716 224.466 303.484 222.8C302.252 221.135 303.267 221.497 304.861 222.076Z" fill="#2CA4BF"/>
    <path d="M299.428 161.471C297.109 161.543 295.153 159.95 293.777 157.923C292.4 155.895 293.27 155.968 294.356 157.199C295.838 158.694 297.831 159.574 299.935 159.66L299.428 161.471Z" fill="#258AA1"/>
    <path d="M304.208 158.574C301.818 157.343 300.079 154.375 299.717 151.623C299.355 148.872 300.224 149.378 300.731 151.189C301.432 153.448 302.958 155.361 305.005 156.547L304.208 158.574Z" fill="#258AA1"/>
    <path d="M310.439 156.112C309.569 154.157 309.497 150.971 309.787 148.437C310.077 145.903 311.163 146.192 311.091 149.523C311.11 151.763 311.476 153.985 312.178 156.112H310.439Z" fill="#258AA1"/>
    <path d="M292.762 223.235L295.008 223.814C294.389 222.375 293.857 220.9 293.414 219.397C292.979 217.804 292.907 214.763 290.299 217.08C290.02 217.31 289.776 217.578 289.574 217.877V222.149L292.762 223.235Z" fill="#2584A6"/>
    <path d="M336.52 265.739C339.951 264.301 343.269 262.606 346.445 260.67C348.401 259.439 350.285 258.643 349.126 260.887C347.727 263.381 346.023 265.692 344.055 267.766C342.678 269.214 341.519 268.997 339.273 268.056C337.027 267.114 335.216 266.318 336.52 265.739Z" fill="#F5AF7D"/>
    <path d="M322.031 288.62C317.611 285.217 310.077 279.496 302.905 279.931C295.732 280.365 283.706 280.003 282.257 279.931C281.968 288.402 282.112 294.123 282.112 294.123C296.747 296.729 318.191 298.757 339.708 296.295C330.724 297.019 326.45 292.095 322.031 288.62Z" fill="#FCB481"/>
    <path d="M353.69 279.496L354.197 282.755C354.218 282.874 354.213 282.997 354.183 283.115C354.153 283.233 354.099 283.343 354.024 283.438C353.949 283.534 353.854 283.613 353.747 283.669C353.639 283.726 353.521 283.76 353.4 283.768C349.427 284.224 345.414 284.2 341.446 283.696C334.636 282.755 333.55 282.103 331.521 281.089C329.493 280.075 331.594 279.858 338.621 279.931C345.648 280.003 349.633 279.569 352.241 278.627C352.393 278.584 352.553 278.573 352.71 278.593C352.867 278.614 353.018 278.667 353.153 278.748C353.289 278.83 353.407 278.938 353.499 279.067C353.591 279.195 353.656 279.342 353.69 279.496Z" fill="#F5AF7D"/>
    <path d="M251.177 247.564H177.498V242.496H249.293C249.793 242.496 250.272 242.694 250.625 243.047C250.978 243.4 251.177 243.879 251.177 244.378V247.564Z" fill="#C4D7FF"/>
    <path d="M237.847 242.496C238.094 242.496 238.339 242.544 238.568 242.639C238.796 242.734 239.004 242.872 239.179 243.047C239.354 243.222 239.492 243.429 239.587 243.658C239.682 243.886 239.73 244.131 239.73 244.378V247.564H242.773V244.378C242.773 244.131 242.724 243.886 242.63 243.658C242.535 243.429 242.396 243.222 242.221 243.047C242.046 242.872 241.839 242.734 241.61 242.639C241.382 242.544 241.137 242.496 240.889 242.496H237.847Z" fill="#9BB0DE"/>
    <path d="M223.285 242.496C223.772 242.514 224.233 242.721 224.57 243.072C224.908 243.423 225.097 243.891 225.096 244.378V247.564H228.139V244.378C228.139 243.891 227.951 243.423 227.613 243.072C227.276 242.721 226.815 242.514 226.328 242.496H223.285Z" fill="#9BB0DE"/>
    <path d="M212.128 242.496C212.627 242.496 213.107 242.694 213.46 243.047C213.813 243.4 214.012 243.879 214.012 244.378V247.564H217.054V244.378C217.054 243.879 216.856 243.4 216.503 243.047C216.149 242.694 215.67 242.496 215.171 242.496H212.128Z" fill="#9BB0DE"/>
    <path d="M81.2887 241.12C83.0275 244.668 87.6641 247.564 91.5762 247.564H194.234C198.146 247.564 199.957 244.668 198.218 241.12L169.239 181.6C167.573 178.052 162.937 175.156 158.952 175.156H56.367C52.3824 175.156 50.5712 178.052 52.3099 181.6L81.2887 241.12Z" fill="white"/>
    <path d="M177.498 242.496V247.564H206.549V244.378C206.549 243.879 206.351 243.4 205.998 243.047C205.644 242.694 205.165 242.496 204.666 242.496H177.498Z" fill="#9BB0DE"/>
    <path d="M55.4248 290.14H302.542C303.892 290.134 305.198 289.662 306.241 288.804C307.283 287.947 307.998 286.757 308.265 285.434L312.829 263.06C313.014 262.209 313.005 261.328 312.803 260.482C312.6 259.635 312.209 258.845 311.66 258.17C311.11 257.495 310.415 256.953 309.626 256.584C308.838 256.214 307.976 256.027 307.106 256.036H50.7882C49.9217 256.04 49.067 256.236 48.2853 256.61C47.5037 256.984 46.8145 257.526 46.2673 258.197C45.7202 258.869 45.3286 259.653 45.1207 260.494C44.9127 261.334 44.8937 262.211 45.0649 263.06L49.629 285.434C49.8981 286.769 50.6237 287.969 51.6812 288.827C52.7387 289.686 54.0622 290.15 55.4248 290.14Z" fill="#FAA68A"/>
    <path d="M215.388 264.218H312.612L312.829 263.06C312.949 262.513 312.997 261.953 312.974 261.394H215.388V264.218Z" fill="#F5908E"/>
    <path d="M311.453 269.938H267.767C267.498 269.938 267.24 270.045 267.05 270.235C266.86 270.425 266.753 270.683 266.753 270.952C266.77 271.215 266.882 271.463 267.069 271.65C267.256 271.836 267.504 271.949 267.767 271.966H311.018L311.453 269.938Z" fill="#F5908E"/>
    <path d="M55.4248 290.14H209.085C210.439 290.147 211.752 289.681 212.798 288.821C213.843 287.961 214.554 286.763 214.808 285.434L219.445 263.06C219.617 262.205 219.597 261.322 219.385 260.476C219.173 259.63 218.775 258.842 218.219 258.169C217.664 257.496 216.966 256.956 216.175 256.587C215.385 256.218 214.522 256.03 213.649 256.036H50.7882C49.9217 256.04 49.067 256.236 48.2853 256.61C47.5037 256.984 46.8145 257.526 46.2673 258.197C45.7202 258.869 45.3286 259.653 45.1207 260.494C44.9127 261.334 44.8937 262.211 45.0649 263.06L49.629 285.434C49.8981 286.769 50.6237 287.969 51.6812 288.827C52.7387 289.686 54.0622 290.15 55.4248 290.14Z" fill="#EB8381"/>
    <path d="M243.135 322H296.094C297.75 322.005 299.378 321.574 300.814 320.75C302.25 319.926 303.443 318.738 304.273 317.306C305.103 315.875 305.541 314.249 305.542 312.594C305.544 310.939 305.108 309.313 304.281 307.88L294.21 290.14H219.518L234.949 317.221C235.763 318.675 236.951 319.885 238.391 320.725C239.83 321.565 241.468 322.005 243.135 322Z" fill="#EB8381"/>
    <path d="M241.252 290.14H219.518L234.949 317.221C236.18 319.389 238.222 320.98 240.626 321.645C243.03 322.311 245.6 321.995 247.772 320.769C248.856 320.16 249.808 319.342 250.574 318.362C251.339 317.383 251.904 316.262 252.234 315.064C252.564 313.866 252.653 312.614 252.496 311.381C252.34 310.148 251.941 308.958 251.322 307.88L241.252 290.14Z" fill="#D4616D"/>
    <path d="M110.92 322H57.961C56.3052 322.005 54.6773 321.574 53.2414 320.75C51.8054 319.926 50.6122 318.738 49.782 317.306C48.9518 315.875 48.514 314.249 48.5127 312.594C48.5114 310.939 48.9466 309.313 49.7745 307.88L59.8446 290.14H134.538L119.179 317.221C118.347 318.676 117.145 319.884 115.694 320.723C114.243 321.563 112.596 322.003 110.92 322Z" fill="#A64C5F"/>
    <path d="M59.8441 290.14H81.5782L66.2194 317.221C64.9739 319.394 62.9191 320.987 60.5032 321.651C58.0874 322.316 55.5066 321.999 53.3238 320.769C52.2401 320.16 51.2879 319.342 50.5222 318.362C49.7564 317.383 49.1922 316.262 48.8622 315.064C48.5322 313.866 48.4428 312.614 48.5993 311.381C48.7558 310.148 49.155 308.958 49.7739 307.88L59.8441 290.14Z" fill="#D4616D"/>
    <path d="M253.351 256.036H87.0123C85.5713 256.036 84.1893 255.464 83.1703 254.445C82.1513 253.427 81.5788 252.046 81.5788 250.605V247.636L258.784 247.636V250.605C258.784 252.046 258.212 253.427 257.193 254.445C256.174 255.464 254.792 256.036 253.351 256.036Z" fill="#29376B"/>
    <path d="M193.074 256.036H87.0119C85.5708 256.036 84.1888 255.464 83.1698 254.445C82.1508 253.427 81.5784 252.046 81.5784 250.605V247.636H198.508V250.605C198.508 252.046 197.935 253.427 196.916 254.445C195.897 255.464 194.515 256.036 193.074 256.036Z" fill="#35478A"/>
    <path d="M78.4628 241.12C80.1291 244.668 84.7657 247.564 88.7503 247.564H191.335C195.32 247.564 197.131 244.668 195.392 241.12L166.413 181.6C164.675 178.052 160.038 175.156 156.126 175.156H53.4686C49.5565 175.156 47.7453 178.052 49.484 181.6L78.4628 241.12Z" fill="#5F79B0"/>
    <path d="M78.463 241.12C80.1293 244.668 84.7659 247.564 88.7505 247.564H191.335C195.32 247.564 197.131 244.668 195.392 241.12L181.338 212.229L50.7158 184.134L78.463 241.12Z" fill="#5972AB"/>
    <path d="M92.1556 249.157H187.931C188.811 249.157 189.524 248.444 189.524 247.564V247.543C189.524 246.663 188.811 245.95 187.931 245.95H92.1556C91.2754 245.95 90.5618 246.663 90.5618 247.543V247.564C90.5618 248.444 91.2754 249.157 92.1556 249.157Z" fill="#1A1926"/>
    <path d="M297.398 295.788H222.778L219.518 290.14H294.21L297.398 295.788Z" fill="#D4616D"/>
    <path d="M56.6562 295.788H131.349L134.537 290.14H59.8439L56.6562 295.788Z" fill="#A64C5F"/>
    <path d="M211.186 250.823H205.68C205.16 250.823 204.738 251.244 204.738 251.764V251.793C204.738 252.312 205.16 252.734 205.68 252.734H211.186C211.706 252.734 212.128 252.312 212.128 251.793V251.764C212.128 251.244 211.706 250.823 211.186 250.823Z" fill="#1E294F"/>
    <path d="M379.988 214.618L383.321 213.098V212.953L379.988 211.505H379.916L378.467 208.246C378.467 208.174 378.322 208.174 378.322 208.246L376.873 211.505H376.8L373.468 212.953V213.098L376.8 214.618H376.873L378.322 217.949H378.467L379.916 214.618H379.988Z" fill="white"/>
    <path d="M42.6744 135.114L49.6293 132.073C49.7017 132 49.7017 131.783 49.6293 131.783L42.6744 128.67C42.6552 128.67 42.6367 128.662 42.6231 128.648C42.6096 128.635 42.6019 128.616 42.6019 128.597L39.4867 121.646C39.4867 121.608 39.4714 121.571 39.4443 121.544C39.4171 121.516 39.3802 121.501 39.3418 121.501C39.3034 121.501 39.2665 121.516 39.2394 121.544C39.2122 121.571 39.1969 121.608 39.1969 121.646L36.0817 128.597C36.0817 128.616 36.0741 128.635 36.0605 128.648C36.0469 128.662 36.0285 128.67 36.0092 128.67L29.0543 131.783C28.9819 131.783 28.9819 132 29.0543 132.073L36.0092 135.114C36.0285 135.114 36.0469 135.122 36.0605 135.135C36.0741 135.149 36.0817 135.167 36.0817 135.186L39.1969 142.138C39.1969 142.176 39.2122 142.213 39.2394 142.24C39.2665 142.267 39.3034 142.282 39.3418 142.282C39.3802 142.282 39.4171 142.267 39.4443 142.24C39.4714 142.213 39.4867 142.176 39.4867 142.138L42.6019 135.186C42.6019 135.167 42.6096 135.149 42.6231 135.135C42.6367 135.122 42.6552 135.114 42.6744 135.114Z" fill="#FFBEDE"/>
    <path d="M418.82 80.7353L423.384 78.7079C423.399 78.6943 423.412 78.6776 423.42 78.6589C423.428 78.6401 423.433 78.6198 423.433 78.5993C423.433 78.5787 423.428 78.5584 423.42 78.5397C423.412 78.521 423.399 78.5043 423.384 78.4907L418.82 76.4632C418.8 76.4632 418.782 76.4556 418.768 76.442C418.755 76.4284 418.747 76.41 418.747 76.3908L416.719 71.8291H416.501L414.473 76.3908C414.473 76.4003 414.471 76.4097 414.467 76.4185C414.464 76.4273 414.458 76.4353 414.452 76.442C414.445 76.4487 414.437 76.4541 414.428 76.4577C414.419 76.4614 414.41 76.4632 414.4 76.4632L409.836 78.4907C409.821 78.5043 409.808 78.521 409.8 78.5397C409.792 78.5584 409.787 78.5787 409.787 78.5993C409.787 78.6198 409.792 78.6401 409.8 78.6589C409.808 78.6776 409.821 78.6943 409.836 78.7079L414.4 80.7353C414.473 80.7353 414.473 80.7353 414.473 80.8077L416.501 85.3695H416.719L418.747 80.8077C418.747 80.7353 418.747 80.7353 418.82 80.7353Z" fill="#A1F7D7"/>
    <path d="M198.726 8.90623L203.29 6.87879C203.305 6.8652 203.318 6.84849 203.326 6.82976C203.335 6.81104 203.339 6.79073 203.339 6.77018C203.339 6.74963 203.335 6.72932 203.326 6.7106C203.318 6.69187 203.305 6.67516 203.29 6.66157L198.726 4.63413H198.653L196.625 0H196.408L194.379 4.56173L189.742 6.58916C189.727 6.60275 189.715 6.61946 189.706 6.63819C189.698 6.65692 189.693 6.67723 189.693 6.69777C189.693 6.71832 189.698 6.73863 189.706 6.75736C189.715 6.77608 189.727 6.7928 189.742 6.80639L194.379 8.83382L196.408 13.468H196.625L198.653 8.83382L198.726 8.90623Z" fill="#6592FF"/>
    <path d="M212.925 283.044V285.506H308.265L308.772 283.117L212.925 283.044Z" fill="#EB8381"/>
    <path d="M131.132 206.943C126.568 204.047 123.163 204.047 123.163 204.047L122.945 204.481C125.6 205.242 128.118 206.415 130.408 207.957C127.733 206.643 124.875 205.74 121.931 205.278C120.248 205.059 118.543 205.059 116.86 205.278H116.425C114.625 205.523 112.883 206.087 111.282 206.943L110.05 207.667C110.122 207.522 111.499 205.495 115.411 204.264L115.049 203.902C113.907 203.92 112.78 204.166 111.735 204.626C110.689 205.086 109.747 205.751 108.963 206.581C108.376 211.84 108.995 217.165 110.774 222.149C113.199 224.62 116.448 226.114 119.903 226.349C119.903 226.349 120.41 225.19 120.772 224.176C118.719 223.544 116.837 222.455 115.266 220.99L116.135 221.425H116.28L116.57 221.57L118.671 222.511C120.025 222.994 121.403 223.405 122.801 223.742C124.947 224.201 127.164 224.225 129.321 223.814C130.461 223.639 131.563 223.272 132.581 222.728C133.455 222.354 134.263 221.841 134.972 221.208C134.972 221.208 134.465 223.38 131.494 224.321L133.885 226.493C139.391 226.421 140.188 222.583 140.188 222.583C137.218 214.039 131.132 206.943 131.132 206.943ZM119.903 219.832C119.081 219.697 118.312 219.343 117.674 218.808C117.037 218.273 116.555 217.576 116.28 216.791C115.773 215.125 116.425 213.822 117.874 213.894C119.323 213.967 120.917 215.27 121.424 216.863C121.931 218.456 121.352 219.832 119.903 219.832ZM129.103 219.977C128.282 219.841 127.512 219.488 126.875 218.953C126.238 218.417 125.756 217.721 125.481 216.935C124.974 215.27 125.626 213.967 127.075 214.039C128.524 214.112 130.118 215.415 130.625 217.008C131.132 218.601 130.552 219.977 129.103 219.977Z" fill="#7F96C9"/>
</svg>