<svg width="177" height="124" viewBox="0 0 177 124" fill="none" xmlns="http://www.w3.org/2000/svg">
<rect width="177" height="124" rx="8" fill="#101019"/>
<path d="M36.476 16.76V11.72H34.88V16.748C34.88 18.02 34.292 18.764 33.116 18.764C31.952 18.764 31.376 17.972 31.376 16.712V11.72H29.792V16.796C29.792 18.956 31.1 20.144 33.104 20.144C35.108 20.144 36.476 18.956 36.476 16.76ZM41.8577 17.024C41.8577 18.296 41.2937 18.908 40.5497 18.908C40.0577 18.908 39.7817 18.824 39.4337 18.656V16.172C39.8177 15.68 40.2257 15.356 40.7417 15.356C41.3897 15.356 41.8577 15.908 41.8577 17.024ZM43.3097 16.94C43.3097 14.996 42.3377 14.084 41.1257 14.084C40.3217 14.084 39.7577 14.528 39.3497 14.996L39.2177 14.204H37.9937V22.232L39.4337 22.016V19.832C39.7817 19.964 40.2257 20.06 40.7777 20.06C42.1097 20.06 43.3097 19.1 43.3097 16.94ZM50.1723 20L49.9923 18.788C49.8603 18.824 49.7043 18.836 49.5363 18.836C48.9843 18.836 48.7803 18.584 48.7803 18.116V15.38H50.1363L49.9563 14.204H48.7803V12.152L47.3523 12.368V14.204H46.5363V15.38H47.3523V18.356C47.3523 19.676 48.1203 20.096 49.2603 20.096C49.6803 20.096 49.9443 20.048 50.1723 20ZM56.3608 17.096C56.3608 15.212 55.2088 14.084 53.6248 14.084C52.0527 14.084 50.9008 15.224 50.9008 17.108C50.9008 18.992 52.0408 20.12 53.6128 20.12C55.1968 20.12 56.3608 18.98 56.3608 17.096ZM54.9568 17.108C54.9568 18.188 54.5008 18.944 53.6128 18.944C52.7728 18.944 52.3048 18.164 52.3048 17.096C52.3048 16.028 52.7608 15.26 53.6128 15.26C54.4768 15.26 54.9568 16.04 54.9568 17.108ZM63.6353 20H65.0753V18.272H66.2873V17.144H65.0753V11.876H63.3233L59.7233 17.252V18.272H63.6353V20ZM63.6353 17.144H61.1513L63.6353 13.436V17.144ZM73.5546 15.944C73.5546 13.244 72.2586 11.732 70.3266 11.732C68.3826 11.732 67.0866 13.244 67.0866 15.944C67.0866 18.644 68.3826 20.156 70.3266 20.156C72.2586 20.156 73.5546 18.644 73.5546 15.944ZM72.0066 15.944C72.0066 17.864 71.4186 18.92 70.3266 18.92C69.2346 18.92 68.6226 17.864 68.6226 15.944C68.6226 14.024 69.2346 12.968 70.3266 12.968C71.4186 12.968 72.0066 14.024 72.0066 15.944ZM81.078 15.944C81.078 13.244 79.782 11.732 77.85 11.732C75.906 11.732 74.61 13.244 74.61 15.944C74.61 18.644 75.906 20.156 77.85 20.156C79.782 20.156 81.078 18.644 81.078 15.944ZM79.53 15.944C79.53 17.864 78.942 18.92 77.85 18.92C76.758 18.92 76.146 17.864 76.146 15.944C76.146 14.024 76.758 12.968 77.85 12.968C78.942 12.968 79.53 14.024 79.53 15.944ZM88.6015 15.944C88.6015 13.244 87.3055 11.732 85.3735 11.732C83.4295 11.732 82.1335 13.244 82.1335 15.944C82.1335 18.644 83.4295 20.156 85.3735 20.156C87.3055 20.156 88.6015 18.644 88.6015 15.944ZM87.0535 15.944C87.0535 17.864 86.4655 18.92 85.3735 18.92C84.2815 18.92 83.6695 17.864 83.6695 15.944C83.6695 14.024 84.2815 12.968 85.3735 12.968C86.4655 12.968 87.0535 14.024 87.0535 15.944ZM96.7953 19.556L96.6033 18.32C96.0753 18.728 95.5833 18.872 95.0793 18.872C94.2393 18.872 93.5793 18.296 93.5793 17.096C93.5793 15.944 94.1793 15.332 95.0313 15.332C95.6073 15.332 96.0633 15.524 96.5313 15.872L96.7353 14.576C96.3153 14.312 95.7153 14.084 94.9593 14.084C93.3873 14.084 92.1273 15.116 92.1273 17.132C92.1273 19.028 93.2673 20.108 94.8753 20.108C95.6433 20.108 96.2433 19.928 96.7953 19.556ZM102.891 20V15.824C102.891 14.744 102.315 14.084 101.235 14.084C100.467 14.084 99.8668 14.492 99.3868 14.936V11.336L97.9468 11.564V20H99.3868V16.088C99.8068 15.644 100.263 15.356 100.707 15.356C101.235 15.356 101.451 15.704 101.451 16.208V20H102.891ZM107.502 18.404C107.106 18.788 106.638 19.028 106.146 19.028C105.702 19.028 105.438 18.776 105.438 18.356C105.438 17.804 105.834 17.312 107.502 17.108V18.404ZM108.942 20V16.028C108.942 14.636 108.198 14.084 106.698 14.084C105.774 14.084 105.066 14.288 104.394 14.552L104.574 15.704C105.198 15.428 105.834 15.236 106.506 15.236C107.142 15.236 107.502 15.476 107.502 16.1V16.268C105.162 16.496 104.01 17.108 104.01 18.512C104.01 19.52 104.67 20.12 105.654 20.12C106.518 20.12 107.118 19.736 107.586 19.244L107.706 20H108.942ZM113.861 15.512L113.633 14.084C112.733 14.132 112.157 14.696 111.773 15.368L111.593 14.204H110.369V20H111.809V16.676C112.229 16.052 112.961 15.572 113.861 15.512ZM117.732 18.404C117.336 18.788 116.868 19.028 116.376 19.028C115.932 19.028 115.668 18.776 115.668 18.356C115.668 17.804 116.064 17.312 117.732 17.108V18.404ZM119.172 20V16.028C119.172 14.636 118.428 14.084 116.928 14.084C116.004 14.084 115.296 14.288 114.624 14.552L114.804 15.704C115.428 15.428 116.064 15.236 116.736 15.236C117.372 15.236 117.732 15.476 117.732 16.1V16.268C115.392 16.496 114.24 17.108 114.24 18.512C114.24 19.52 114.9 20.12 115.884 20.12C116.748 20.12 117.348 19.736 117.816 19.244L117.936 20H119.172ZM124.967 19.556L124.775 18.32C124.247 18.728 123.755 18.872 123.251 18.872C122.411 18.872 121.751 18.296 121.751 17.096C121.751 15.944 122.351 15.332 123.203 15.332C123.779 15.332 124.235 15.524 124.703 15.872L124.907 14.576C124.487 14.312 123.887 14.084 123.131 14.084C121.559 14.084 120.299 15.116 120.299 17.132C120.299 19.028 121.439 20.108 123.047 20.108C123.815 20.108 124.415 19.928 124.967 19.556ZM129.239 20L129.059 18.788C128.927 18.824 128.771 18.836 128.603 18.836C128.051 18.836 127.847 18.584 127.847 18.116V15.38H129.203L129.023 14.204H127.847V12.152L126.419 12.368V14.204H125.603V15.38H126.419V18.356C126.419 19.676 127.187 20.096 128.327 20.096C128.747 20.096 129.011 20.048 129.239 20ZM132.571 15.08C133.267 15.08 133.627 15.584 133.723 16.484H131.407C131.515 15.548 131.995 15.08 132.571 15.08ZM135.115 19.412L134.947 18.284C134.311 18.728 133.699 19.004 132.955 19.004C132.067 19.004 131.455 18.512 131.395 17.384H135.115C135.115 17.3 135.127 17.156 135.127 17.036C135.127 15.392 134.347 14.084 132.607 14.084C131.095 14.084 129.967 15.224 129.967 17.108C129.967 19.196 131.179 20.12 132.799 20.12C133.735 20.12 134.491 19.844 135.115 19.412ZM139.783 15.512L139.555 14.084C138.655 14.132 138.079 14.696 137.695 15.368L137.515 14.204H136.291V20H137.731V16.676C138.151 16.052 138.883 15.572 139.783 15.512ZM144.911 18.296C144.911 17.204 144.323 16.796 142.823 16.412C141.959 16.184 141.743 16.004 141.743 15.692C141.743 15.38 142.007 15.164 142.547 15.164C143.123 15.164 143.807 15.368 144.383 15.692L144.575 14.492C143.999 14.24 143.303 14.084 142.547 14.084C141.203 14.084 140.411 14.792 140.411 15.8C140.411 16.856 140.999 17.264 142.403 17.624C143.327 17.852 143.579 18.02 143.579 18.428C143.579 18.812 143.243 19.04 142.619 19.04C141.899 19.04 141.131 18.764 140.507 18.356L140.315 19.556C140.867 19.856 141.731 20.12 142.571 20.12C144.095 20.12 144.911 19.436 144.911 18.296ZM147.912 11.72H146.136L146.58 17.348L147.48 17.144L147.912 11.72ZM147.804 20V18.248H146.232V20H147.804Z" fill="white"/>
<rect x="12" y="32" width="154" height="84" rx="8" fill="#30304f"/>
<path d="M46.196 52V43.72H45.068V52H46.196ZM55.4143 52V47.836C55.4143 46.804 54.8383 46.156 53.7583 46.156C52.9423 46.156 52.2823 46.612 51.8143 47.032V43.336L50.7463 43.504V52H51.8143V48.04C52.3303 47.488 52.9062 47.116 53.4703 47.116C54.0943 47.116 54.3463 47.512 54.3463 48.1V52H55.4143ZM60.3384 50.428C59.8584 50.92 59.2584 51.232 58.6344 51.232C58.0944 51.232 57.7824 50.932 57.7824 50.464C57.7824 49.876 58.2264 49.3 60.3384 49.096V50.428ZM61.4064 52V47.992C61.4064 46.72 60.7344 46.156 59.3424 46.156C58.4544 46.156 57.8064 46.36 57.1224 46.636L57.2664 47.56C57.8904 47.284 58.5504 47.068 59.2464 47.068C59.9064 47.068 60.3384 47.32 60.3384 48.04V48.28C57.9504 48.532 56.7264 49.096 56.7264 50.524C56.7264 51.496 57.3744 52.12 58.4064 52.12C59.3424 52.12 59.9664 51.7 60.4224 51.232L60.5424 52H61.4064ZM67.4932 46.276H66.3772L64.9612 50.716L63.4972 46.192L62.4052 46.36L64.4212 52.036H65.4652L67.4932 46.276ZM70.6373 46.996C71.4653 46.996 71.8733 47.524 72.0053 48.448H69.2453C69.4133 47.476 69.9773 46.996 70.6373 46.996ZM73.0733 51.352L72.9173 50.392C72.2933 50.884 71.6933 51.208 70.8653 51.208C69.8693 51.208 69.2453 50.584 69.1973 49.252H73.0853V49.024C73.0853 47.44 72.3173 46.156 70.6493 46.156C69.2093 46.156 68.1293 47.284 68.1293 49.12C68.1293 51.22 69.2933 52.12 70.7813 52.12C71.7293 52.12 72.4613 51.832 73.0733 51.352ZM80.3423 50.428C79.8623 50.92 79.2623 51.232 78.6383 51.232C78.0983 51.232 77.7863 50.932 77.7863 50.464C77.7863 49.876 78.2303 49.3 80.3423 49.096V50.428ZM81.4103 52V47.992C81.4103 46.72 80.7383 46.156 79.3463 46.156C78.4583 46.156 77.8103 46.36 77.1263 46.636L77.2703 47.56C77.8943 47.284 78.5543 47.068 79.2503 47.068C79.9103 47.068 80.3423 47.32 80.3423 48.04V48.28C77.9543 48.532 76.7303 49.096 76.7303 50.524C76.7303 51.496 77.3783 52.12 78.4103 52.12C79.3463 52.12 79.9703 51.7 80.4263 51.232L80.5463 52H81.4103ZM89.9993 51.532L89.8433 50.548C89.2793 51.028 88.7153 51.184 88.1393 51.184C87.1793 51.184 86.4593 50.524 86.4593 49.132C86.4593 47.812 87.1193 47.092 88.1033 47.092C88.7633 47.092 89.2913 47.332 89.7833 47.728L89.9393 46.684C89.5553 46.408 88.9433 46.156 88.1153 46.156C86.5793 46.156 85.3793 47.2 85.3793 49.144C85.3793 51.052 86.5073 52.12 88.0433 52.12C88.8593 52.12 89.4713 51.928 89.9993 51.532ZM94.5088 47.176L94.3408 46.156C93.4048 46.204 92.7448 46.792 92.3368 47.44L92.1568 46.276H91.3048V52H92.3728V48.616C92.7568 47.86 93.5608 47.224 94.5088 47.176ZM98.6587 50.428C98.1787 50.92 97.5787 51.232 96.9547 51.232C96.4147 51.232 96.1027 50.932 96.1027 50.464C96.1027 49.876 96.5467 49.3 98.6587 49.096V50.428ZM99.7267 52V47.992C99.7267 46.72 99.0547 46.156 97.6627 46.156C96.7747 46.156 96.1267 46.36 95.4427 46.636L95.5867 47.56C96.2107 47.284 96.8707 47.068 97.5667 47.068C98.2267 47.068 98.6587 47.32 98.6587 48.04V48.28C96.2707 48.532 95.0467 49.096 95.0467 50.524C95.0467 51.496 95.6947 52.12 96.7267 52.12C97.6627 52.12 98.2867 51.7 98.7427 51.232L98.8627 52H99.7267ZM105.535 52L105.391 51.112H102.175L105.391 47.116V46.276H101.107L101.251 47.164H104.167L100.963 51.16V52H105.535ZM107.217 54.184C108.057 54.184 108.681 53.872 109.149 52.6L111.489 46.276H110.373L108.873 50.728L107.337 46.192L106.257 46.36L108.345 52.024L108.201 52.408C107.973 53.02 107.649 53.248 107.169 53.248C107.001 53.248 106.785 53.212 106.605 53.164L106.761 54.136C106.869 54.16 106.989 54.184 107.217 54.184ZM116.398 52V43.336L115.33 43.504V52H116.398ZM123.132 49.144C123.132 47.26 122.004 46.156 120.468 46.156C118.944 46.156 117.84 47.26 117.84 49.144C117.84 51.028 118.944 52.12 120.468 52.12C122.004 52.12 123.132 51.028 123.132 49.144ZM122.052 49.144C122.052 50.344 121.524 51.232 120.468 51.232C119.46 51.232 118.92 50.32 118.92 49.144C118.92 47.944 119.436 47.044 120.468 47.044C121.5 47.044 122.052 47.968 122.052 49.144ZM129.16 52V47.836C129.16 46.804 128.584 46.156 127.504 46.156C126.688 46.156 126.016 46.612 125.476 47.104L125.344 46.276H124.492V52H125.56V48.04C126.076 47.488 126.652 47.116 127.216 47.116C127.84 47.116 128.092 47.512 128.092 48.1V52H129.16ZM133.952 48.136C133.952 48.82 133.496 49.36 132.764 49.36C132.056 49.36 131.6 48.844 131.6 48.184C131.6 47.488 132.044 46.936 132.764 46.936C133.472 46.936 133.952 47.452 133.952 48.136ZM135.656 52.42C135.656 51.532 134.9 51.148 133.688 50.932L133.28 50.86C132.272 50.68 132.068 50.632 132.068 50.428C132.068 50.32 132.188 50.188 132.356 50.08C132.5 50.104 132.644 50.116 132.788 50.116C133.952 50.116 134.984 49.372 134.984 48.148C134.984 47.824 134.912 47.524 134.756 47.26L135.848 47.152L135.692 46.192L134.24 46.636C133.844 46.324 133.34 46.156 132.764 46.156C131.6 46.156 130.568 46.912 130.568 48.148C130.568 48.928 131 49.528 131.636 49.852C131.252 50.08 131.036 50.356 131.036 50.632C131.036 50.848 131.144 51.052 131.396 51.232C130.592 51.664 130.184 52.12 130.184 52.708C130.184 53.716 131.372 54.184 132.86 54.184C134.348 54.184 135.656 53.62 135.656 52.42ZM132.908 53.416C131.792 53.416 131.204 53.08 131.204 52.624C131.204 52.228 131.504 51.892 132.176 51.556C132.404 51.604 132.572 51.64 132.884 51.7L133.568 51.82C134.384 51.964 134.648 52.204 134.648 52.552C134.648 53.032 134.024 53.416 132.908 53.416ZM48.836 66.404C48.836 65.312 48.2 64.904 46.784 64.544C45.884 64.316 45.596 64.1 45.596 63.716C45.596 63.308 45.932 63.056 46.58 63.056C47.18 63.056 47.816 63.26 48.32 63.548L48.488 62.54C47.948 62.3 47.312 62.156 46.604 62.156C45.356 62.156 44.588 62.828 44.588 63.74C44.588 64.76 45.128 65.168 46.472 65.504C47.504 65.756 47.828 65.948 47.828 66.476C47.828 66.956 47.396 67.232 46.664 67.232C45.884 67.232 45.188 66.944 44.648 66.572L44.492 67.58C44.984 67.856 45.824 68.12 46.58 68.12C48.056 68.12 48.836 67.448 48.836 66.404ZM52.8966 68.024L52.7526 67.112C52.6206 67.136 52.4526 67.148 52.2606 67.148C51.6606 67.148 51.4686 66.86 51.4686 66.392V63.176H52.8486L52.7046 62.276H51.4686V60.212L50.4246 60.368V62.276H49.5606V63.176H50.4246V66.584C50.4246 67.736 51.0846 68.096 52.0926 68.096C52.4646 68.096 52.7166 68.06 52.8966 68.024ZM59.1127 65.144C59.1127 63.26 57.9847 62.156 56.4487 62.156C54.9247 62.156 53.8207 63.26 53.8207 65.144C53.8207 67.028 54.9247 68.12 56.4487 68.12C57.9847 68.12 59.1127 67.028 59.1127 65.144ZM58.0327 65.144C58.0327 66.344 57.5047 67.232 56.4487 67.232C55.4407 67.232 54.9007 66.32 54.9007 65.144C54.9007 63.944 55.4167 63.044 56.4487 63.044C57.4807 63.044 58.0327 63.968 58.0327 65.144ZM63.6768 63.176L63.5088 62.156C62.5728 62.204 61.9128 62.792 61.5048 63.44L61.3248 62.276H60.4728V68H61.5408V64.616C61.9248 63.86 62.7288 63.224 63.6768 63.176ZM65.1816 70.184C66.0216 70.184 66.6456 69.872 67.1136 68.6L69.4536 62.276H68.3376L66.8376 66.728L65.3016 62.192L64.2216 62.36L66.3096 68.024L66.1656 68.408C65.9376 69.02 65.6136 69.248 65.1336 69.248C64.9656 69.248 64.7496 69.212 64.5696 69.164L64.7256 70.136C64.8336 70.16 64.9536 70.184 65.1816 70.184ZM75.9591 68.024L75.8151 67.112C75.6831 67.136 75.5151 67.148 75.3231 67.148C74.7231 67.148 74.5311 66.86 74.5311 66.392V63.176H75.9111L75.7671 62.276H74.5311V60.212L73.4871 60.368V62.276H72.6231V63.176H73.4871V66.584C73.4871 67.736 74.1471 68.096 75.1551 68.096C75.5271 68.096 75.7791 68.06 75.9591 68.024ZM82.1752 65.144C82.1752 63.26 81.0472 62.156 79.5112 62.156C77.9872 62.156 76.8832 63.26 76.8832 65.144C76.8832 67.028 77.9872 68.12 79.5112 68.12C81.0472 68.12 82.1752 67.028 82.1752 65.144ZM81.0952 65.144C81.0952 66.344 80.5672 67.232 79.5112 67.232C78.5032 67.232 77.9632 66.32 77.9632 65.144C77.9632 63.944 78.4792 63.044 79.5112 63.044C80.5432 63.044 81.0952 63.968 81.0952 65.144ZM88.92 68.024L88.776 67.112C88.644 67.136 88.476 67.148 88.284 67.148C87.684 67.148 87.492 66.86 87.492 66.392V63.176H88.872L88.728 62.276H87.492V60.212L86.448 60.368V62.276H85.584V63.176H86.448V66.584C86.448 67.736 87.108 68.096 88.116 68.096C88.488 68.096 88.74 68.06 88.92 68.024ZM92.3521 62.996C93.1801 62.996 93.5881 63.524 93.7201 64.448H90.9601C91.1281 63.476 91.6921 62.996 92.3521 62.996ZM94.7881 67.352L94.6321 66.392C94.0081 66.884 93.4081 67.208 92.5801 67.208C91.5841 67.208 90.9601 66.584 90.9121 65.252H94.8001V65.024C94.8001 63.44 94.0321 62.156 92.3641 62.156C90.9241 62.156 89.8441 63.284 89.8441 65.12C89.8441 67.22 91.0081 68.12 92.4961 68.12C93.4441 68.12 94.1761 67.832 94.7881 67.352ZM97.3084 68V59.336L96.2404 59.504V68H97.3084ZM100.226 68V59.336L99.1584 59.504V68H100.226ZM103.312 66.572H102.076L101.476 69.452L102.064 69.596L103.312 66.572ZM110.612 66.428C110.132 66.92 109.532 67.232 108.908 67.232C108.368 67.232 108.056 66.932 108.056 66.464C108.056 65.876 108.5 65.3 110.612 65.096V66.428ZM111.68 68V63.992C111.68 62.72 111.008 62.156 109.616 62.156C108.728 62.156 108.08 62.36 107.396 62.636L107.54 63.56C108.164 63.284 108.824 63.068 109.52 63.068C110.18 63.068 110.612 63.32 110.612 64.04V64.28C108.224 64.532 107 65.096 107 66.524C107 67.496 107.648 68.12 108.68 68.12C109.616 68.12 110.24 67.7 110.696 67.232L110.816 68H111.68ZM118.004 68V63.836C118.004 62.804 117.428 62.156 116.348 62.156C115.532 62.156 114.86 62.612 114.32 63.104L114.188 62.276H113.336V68H114.404V64.04C114.92 63.488 115.496 63.116 116.06 63.116C116.684 63.116 116.936 63.512 116.936 64.1V68H118.004ZM120.42 65.252C120.42 63.836 121.068 63.104 121.968 63.104C122.58 63.104 122.928 63.2 123.372 63.428V66.164C122.916 66.776 122.412 67.172 121.752 67.172C120.984 67.172 120.42 66.512 120.42 65.252ZM119.34 65.3C119.34 67.22 120.36 68.12 121.596 68.12C122.436 68.12 123.024 67.688 123.456 67.172L123.588 68H124.44V59.336L123.372 59.504V62.456C123.012 62.312 122.496 62.204 121.932 62.204C120.54 62.204 119.34 63.212 119.34 65.3ZM133.426 68V63.836C133.426 62.804 132.85 62.156 131.77 62.156C130.954 62.156 130.282 62.612 129.742 63.104L129.61 62.276H128.758V68H129.826V64.04C130.342 63.488 130.918 63.116 131.482 63.116C132.106 63.116 132.358 63.512 132.358 64.1V68H133.426ZM140.054 65.144C140.054 63.26 138.926 62.156 137.39 62.156C135.866 62.156 134.762 63.26 134.762 65.144C134.762 67.028 135.866 68.12 137.39 68.12C138.926 68.12 140.054 67.028 140.054 65.144ZM138.974 65.144C138.974 66.344 138.446 67.232 137.39 67.232C136.382 67.232 135.842 66.32 135.842 65.144C135.842 63.944 136.358 63.044 137.39 63.044C138.422 63.044 138.974 63.968 138.974 65.144ZM148.75 62.276H147.682L146.47 66.512L145.21 62.276H144.31L143.05 66.512L141.802 62.192L140.758 62.36L142.594 68.024H143.482L144.742 63.704L146.014 68.024H146.914L148.75 62.276ZM153.915 68V59.72H152.787V68H153.915ZM49.136 83.532L48.98 82.548C48.416 83.028 47.852 83.184 47.276 83.184C46.316 83.184 45.596 82.524 45.596 81.132C45.596 79.812 46.256 79.092 47.24 79.092C47.9 79.092 48.428 79.332 48.92 79.728L49.076 78.684C48.692 78.408 48.08 78.156 47.252 78.156C45.716 78.156 44.516 79.2 44.516 81.144C44.516 83.052 45.644 84.12 47.18 84.12C47.996 84.12 48.608 83.928 49.136 83.532ZM53.7056 82.428C53.2256 82.92 52.6256 83.232 52.0016 83.232C51.4616 83.232 51.1496 82.932 51.1496 82.464C51.1496 81.876 51.5936 81.3 53.7056 81.096V82.428ZM54.7736 84V79.992C54.7736 78.72 54.1016 78.156 52.7096 78.156C51.8216 78.156 51.1736 78.36 50.4896 78.636L50.6336 79.56C51.2576 79.284 51.9176 79.068 52.6136 79.068C53.2736 79.068 53.7056 79.32 53.7056 80.04V80.28C51.3176 80.532 50.0936 81.096 50.0936 82.524C50.0936 83.496 50.7416 84.12 51.7736 84.12C52.7096 84.12 53.3336 83.7 53.7896 83.232L53.9096 84H54.7736ZM61.0978 84V79.836C61.0978 78.804 60.5218 78.156 59.4418 78.156C58.6258 78.156 57.9538 78.612 57.4138 79.104L57.2818 78.276H56.4298V84H57.4978V80.04C58.0138 79.488 58.5898 79.116 59.1538 79.116C59.7778 79.116 60.0298 79.512 60.0298 80.1V84H61.0978ZM68.1427 84.024L67.9987 83.112C67.8667 83.136 67.6987 83.148 67.5067 83.148C66.9067 83.148 66.7147 82.86 66.7147 82.392V79.176H68.0947L67.9507 78.276H66.7147V76.212L65.6707 76.368V78.276H64.8067V79.176H65.6707V82.584C65.6707 83.736 66.3307 84.096 67.3387 84.096C67.7107 84.096 67.9627 84.06 68.1427 84.024ZM69.7402 86.184C70.5802 86.184 71.2042 85.872 71.6722 84.6L74.0122 78.276H72.8962L71.3962 82.728L69.8602 78.192L68.7802 78.36L70.8682 84.024L70.7242 84.408C70.4962 85.02 70.1722 85.248 69.6922 85.248C69.5242 85.248 69.3082 85.212 69.1282 85.164L69.2842 86.136C69.3922 86.16 69.5122 86.184 69.7402 86.184ZM79.153 81.024C79.153 82.44 78.493 83.172 77.593 83.172C76.981 83.172 76.633 83.076 76.201 82.86V80.112C76.657 79.5 77.161 79.104 77.809 79.104C78.589 79.104 79.153 79.776 79.153 81.024ZM80.233 80.976C80.233 79.068 79.213 78.156 77.977 78.156C77.137 78.156 76.549 78.6 76.117 79.104L75.985 78.276H75.133V86.232L76.201 86.076V83.82C76.561 83.964 77.077 84.072 77.641 84.072C79.033 84.072 80.233 83.064 80.233 80.976ZM83.774 78.996C84.602 78.996 85.01 79.524 85.142 80.448H82.382C82.55 79.476 83.114 78.996 83.774 78.996ZM86.21 83.352L86.054 82.392C85.43 82.884 84.83 83.208 84.002 83.208C83.006 83.208 82.382 82.584 82.334 81.252H86.222V81.024C86.222 79.44 85.454 78.156 83.786 78.156C82.346 78.156 81.266 79.284 81.266 81.12C81.266 83.22 82.43 84.12 83.918 84.12C84.866 84.12 85.598 83.832 86.21 83.352ZM91.511 76.452C91.511 76.08 91.211 75.768 90.839 75.768C90.467 75.768 90.155 76.08 90.155 76.452C90.155 76.824 90.467 77.124 90.839 77.124C91.211 77.124 91.511 76.824 91.511 76.452ZM91.367 84V78.276H90.299V84H91.367ZM95.881 84.024L95.737 83.112C95.605 83.136 95.437 83.148 95.245 83.148C94.645 83.148 94.453 82.86 94.453 82.392V79.176H95.833L95.689 78.276H94.453V76.212L93.409 76.368V78.276H92.545V79.176H93.409V82.584C93.409 83.736 94.069 84.096 95.077 84.096C95.449 84.096 95.701 84.06 95.881 84.024ZM103.077 82.428C102.597 82.92 101.997 83.232 101.373 83.232C100.833 83.232 100.521 82.932 100.521 82.464C100.521 81.876 100.965 81.3 103.077 81.096V82.428ZM104.145 84V79.992C104.145 78.72 103.473 78.156 102.081 78.156C101.193 78.156 100.545 78.36 99.8607 78.636L100.005 79.56C100.629 79.284 101.289 79.068 101.985 79.068C102.645 79.068 103.077 79.32 103.077 80.04V80.28C100.689 80.532 99.4647 81.096 99.4647 82.524C99.4647 83.496 100.113 84.12 101.145 84.12C102.081 84.12 102.705 83.7 103.161 83.232L103.281 84H104.145ZM106.953 84V75.336L105.885 75.504V84H106.953ZM109.871 84V75.336L108.803 75.504V84H109.871ZM115.57 76.452C115.57 76.08 115.27 75.768 114.898 75.768C114.526 75.768 114.214 76.08 114.214 76.452C114.214 76.824 114.526 77.124 114.898 77.124C115.27 77.124 115.57 76.824 115.57 76.452ZM115.426 84V78.276H114.358V84H115.426ZM121.86 84V79.836C121.86 78.804 121.284 78.156 120.204 78.156C119.388 78.156 118.716 78.612 118.176 79.104L118.044 78.276H117.192V84H118.26V80.04C118.776 79.488 119.352 79.116 119.916 79.116C120.54 79.116 120.792 79.512 120.792 80.1V84H121.86ZM128.904 84.024L128.76 83.112C128.628 83.136 128.46 83.148 128.268 83.148C127.668 83.148 127.476 82.86 127.476 82.392V79.176H128.856L128.712 78.276H127.476V76.212L126.432 76.368V78.276H125.568V79.176H126.432V82.584C126.432 83.736 127.092 84.096 128.1 84.096C128.472 84.096 128.724 84.06 128.904 84.024ZM134.867 84V79.836C134.867 78.804 134.291 78.156 133.211 78.156C132.395 78.156 131.735 78.612 131.267 79.032V75.336L130.199 75.504V84H131.267V80.04C131.783 79.488 132.359 79.116 132.923 79.116C133.547 79.116 133.799 79.512 133.799 80.1V84H134.867ZM138.712 78.996C139.54 78.996 139.948 79.524 140.08 80.448H137.32C137.488 79.476 138.052 78.996 138.712 78.996ZM141.148 83.352L140.992 82.392C140.368 82.884 139.768 83.208 138.94 83.208C137.944 83.208 137.32 82.584 137.271 81.252H141.16V81.024C141.16 79.44 140.392 78.156 138.724 78.156C137.284 78.156 136.204 79.284 136.204 81.12C136.204 83.22 137.368 84.12 138.855 84.12C139.804 84.12 140.536 83.832 141.148 83.352ZM48.836 98.404C48.836 97.312 48.2 96.904 46.784 96.544C45.884 96.316 45.596 96.1 45.596 95.716C45.596 95.308 45.932 95.056 46.58 95.056C47.18 95.056 47.816 95.26 48.32 95.548L48.488 94.54C47.948 94.3 47.312 94.156 46.604 94.156C45.356 94.156 44.588 94.828 44.588 95.74C44.588 96.76 45.128 97.168 46.472 97.504C47.504 97.756 47.828 97.948 47.828 98.476C47.828 98.956 47.396 99.232 46.664 99.232C45.884 99.232 45.188 98.944 44.648 98.572L44.492 99.58C44.984 99.856 45.824 100.12 46.58 100.12C48.056 100.12 48.836 99.448 48.836 98.404ZM53.4126 98.428C52.9326 98.92 52.3326 99.232 51.7086 99.232C51.1686 99.232 50.8566 98.932 50.8566 98.464C50.8566 97.876 51.3006 97.3 53.4126 97.096V98.428ZM54.4806 100V95.992C54.4806 94.72 53.8086 94.156 52.4166 94.156C51.5286 94.156 50.8806 94.36 50.1966 94.636L50.3406 95.56C50.9646 95.284 51.6246 95.068 52.3206 95.068C52.9806 95.068 53.4126 95.32 53.4126 96.04V96.28C51.0246 96.532 49.8006 97.096 49.8006 98.524C49.8006 99.496 50.4486 100.12 51.4806 100.12C52.4166 100.12 53.0406 99.7 53.4966 99.232L53.6166 100H54.4806ZM64.2609 100V95.836C64.2609 94.804 63.7329 94.156 62.6409 94.156C61.8369 94.156 61.1409 94.612 60.6249 95.104C60.4089 94.516 59.9529 94.156 59.1129 94.156C58.3089 94.156 57.6609 94.612 57.1209 95.104L56.9889 94.276H56.1369V100H57.2049V96.04C57.7209 95.488 58.2609 95.116 58.8249 95.116C59.4489 95.116 59.6649 95.512 59.6649 96.1V100H60.7329V96.04C61.2489 95.488 61.7889 95.116 62.3529 95.116C62.9769 95.116 63.1929 95.512 63.1929 96.1V100H64.2609ZM68.106 94.996C68.934 94.996 69.342 95.524 69.474 96.448H66.714C66.882 95.476 67.446 94.996 68.106 94.996ZM70.542 99.352L70.386 98.392C69.762 98.884 69.162 99.208 68.334 99.208C67.338 99.208 66.714 98.584 66.666 97.252H70.554V97.024C70.554 95.44 69.786 94.156 68.118 94.156C66.678 94.156 65.598 95.284 65.598 97.12C65.598 99.22 66.762 100.12 68.25 100.12C69.198 100.12 69.93 99.832 70.542 99.352ZM82.671 100V95.836C82.671 94.804 82.143 94.156 81.051 94.156C80.247 94.156 79.551 94.612 79.035 95.104C78.819 94.516 78.363 94.156 77.523 94.156C76.719 94.156 76.071 94.612 75.531 95.104L75.399 94.276H74.547V100H75.615V96.04C76.131 95.488 76.671 95.116 77.235 95.116C77.859 95.116 78.075 95.512 78.075 96.1V100H79.143V96.04C79.659 95.488 80.199 95.116 80.763 95.116C81.387 95.116 81.603 95.512 81.603 96.1V100H82.671ZM86.5162 94.996C87.3442 94.996 87.7522 95.524 87.8842 96.448H85.1242C85.2922 95.476 85.8562 94.996 86.5162 94.996ZM88.9522 99.352L88.7962 98.392C88.1722 98.884 87.5722 99.208 86.7442 99.208C85.7482 99.208 85.1242 98.584 85.0762 97.252H88.9642V97.024C88.9642 95.44 88.1962 94.156 86.5282 94.156C85.0882 94.156 84.0082 95.284 84.0082 97.12C84.0082 99.22 85.1722 100.12 86.6602 100.12C87.6082 100.12 88.3402 99.832 88.9522 99.352ZM94.3165 98.404C94.3165 97.312 93.6805 96.904 92.2645 96.544C91.3645 96.316 91.0765 96.1 91.0765 95.716C91.0765 95.308 91.4125 95.056 92.0605 95.056C92.6605 95.056 93.2965 95.26 93.8005 95.548L93.9685 94.54C93.4285 94.3 92.7925 94.156 92.0845 94.156C90.8365 94.156 90.0685 94.828 90.0685 95.74C90.0685 96.76 90.6085 97.168 91.9525 97.504C92.9845 97.756 93.3085 97.948 93.3085 98.476C93.3085 98.956 92.8765 99.232 92.1445 99.232C91.3645 99.232 90.6685 98.944 90.1285 98.572L89.9725 99.58C90.4645 99.856 91.3045 100.12 92.0605 100.12C93.5365 100.12 94.3165 99.448 94.3165 98.404ZM99.5782 98.404C99.5782 97.312 98.9422 96.904 97.5262 96.544C96.6262 96.316 96.3382 96.1 96.3382 95.716C96.3382 95.308 96.6742 95.056 97.3222 95.056C97.9222 95.056 98.5582 95.26 99.0622 95.548L99.2302 94.54C98.6902 94.3 98.0542 94.156 97.3462 94.156C96.0982 94.156 95.3302 94.828 95.3302 95.74C95.3302 96.76 95.8702 97.168 97.2142 97.504C98.2462 97.756 98.5702 97.948 98.5702 98.476C98.5702 98.956 98.1382 99.232 97.4062 99.232C96.6262 99.232 95.9302 98.944 95.3902 98.572L95.2342 99.58C95.7262 99.856 96.5662 100.12 97.3222 100.12C98.7982 100.12 99.5782 99.448 99.5782 98.404ZM104.155 98.428C103.675 98.92 103.075 99.232 102.451 99.232C101.911 99.232 101.599 98.932 101.599 98.464C101.599 97.876 102.043 97.3 104.155 97.096V98.428ZM105.223 100V95.992C105.223 94.72 104.551 94.156 103.159 94.156C102.271 94.156 101.623 94.36 100.939 94.636L101.083 95.56C101.707 95.284 102.367 95.068 103.063 95.068C103.723 95.068 104.155 95.32 104.155 96.04V96.28C101.767 96.532 100.543 97.096 100.543 98.524C100.543 99.496 101.191 100.12 102.223 100.12C103.159 100.12 103.783 99.7 104.239 99.232L104.359 100H105.223ZM110.011 96.136C110.011 96.82 109.555 97.36 108.823 97.36C108.115 97.36 107.659 96.844 107.659 96.184C107.659 95.488 108.103 94.936 108.823 94.936C109.531 94.936 110.011 95.452 110.011 96.136ZM111.715 100.42C111.715 99.532 110.959 99.148 109.747 98.932L109.339 98.86C108.331 98.68 108.127 98.632 108.127 98.428C108.127 98.32 108.247 98.188 108.415 98.08C108.559 98.104 108.703 98.116 108.847 98.116C110.011 98.116 111.043 97.372 111.043 96.148C111.043 95.824 110.971 95.524 110.815 95.26L111.907 95.152L111.751 94.192L110.299 94.636C109.903 94.324 109.399 94.156 108.823 94.156C107.659 94.156 106.627 94.912 106.627 96.148C106.627 96.928 107.059 97.528 107.695 97.852C107.311 98.08 107.095 98.356 107.095 98.632C107.095 98.848 107.203 99.052 107.455 99.232C106.651 99.664 106.243 100.12 106.243 100.708C106.243 101.716 107.431 102.184 108.919 102.184C110.407 102.184 111.715 101.62 111.715 100.42ZM108.967 101.416C107.851 101.416 107.263 101.08 107.263 100.624C107.263 100.228 107.563 99.892 108.235 99.556C108.463 99.604 108.631 99.64 108.943 99.7L109.627 99.82C110.443 99.964 110.707 100.204 110.707 100.552C110.707 101.032 110.083 101.416 108.967 101.416ZM115.016 94.996C115.844 94.996 116.252 95.524 116.384 96.448H113.624C113.792 95.476 114.356 94.996 115.016 94.996ZM117.452 99.352L117.296 98.392C116.672 98.884 116.072 99.208 115.244 99.208C114.248 99.208 113.624 98.584 113.576 97.252H117.464V97.024C117.464 95.44 116.696 94.156 115.028 94.156C113.588 94.156 112.508 95.284 112.508 97.12C112.508 99.22 113.672 100.12 115.16 100.12C116.108 100.12 116.84 99.832 117.452 99.352Z" fill="#DCDDDE"/>
<path d="M29 41.5007C24.8645 41.5007 21.5 44.8652 21.5 49.0007C21.5 53.1362 24.8645 56.5007 29 56.5007C33.1355 56.5007 36.5 53.1362 36.5 49.0007C36.5 44.8652 33.1355 41.5007 29 41.5007ZM32.75 49.7507H29.75V52.7507H28.25V49.7507H25.25V48.2507H28.25V45.2507H29.75V48.2507H32.75V49.7507Z" fill="#B9BBBE"/>
<g clip-path="url(#clip0)">
    <path d="M132.494 90.8069C131.918 90.0472 130.719 90.254 130.423 91.1597L129.575 93.752C129.54 93.8603 129.449 93.9411 129.338 93.9643L127.914 94.2573C127.795 94.2817 127.673 94.2363 127.599 94.1412L125.912 91.9692C125.473 91.4052 124.579 91.5744 124.378 92.259L123.452 95.4185C123.427 95.5877 122.647 97.8117 122.532 98.3016C122.163 99.8941 122.578 101.685 123.528 103.05H129.216H130.067H130.438H135.06C138.408 102.36 134.899 93.9787 132.494 90.8069Z" fill="#F9CDF8"/>
    <path d="M132.451 97.6171C132.424 97.4623 132.317 97.3207 132.199 97.2245C132.077 97.1239 131.918 97.0486 131.756 97.0498C131.443 97.0531 131.103 97.2444 131.023 97.5662C130.998 97.6624 130.967 97.7619 130.976 97.8615C130.996 98.0683 131.028 98.2386 131.177 98.3978C131.302 98.5316 131.512 98.6378 131.7 98.6356C131.894 98.6334 132.097 98.577 132.238 98.4354C132.279 98.3868 132.32 98.337 132.361 98.2884C132.433 98.1744 132.472 98.0495 132.477 97.9146C132.493 97.8161 132.468 97.7155 132.451 97.6171Z" fill="#9C5CE0"/>
    <path d="M133.506 97.5915C131.677 97.9686 132.262 100.802 134.094 100.425C135.922 100.048 135.338 97.2133 133.506 97.5915Z" fill="#FF8FC2"/>
    <path d="M123.625 100.004C121.795 100.381 122.379 103.216 124.213 102.838C126.044 102.461 125.458 99.6253 123.625 100.004Z" fill="#FF8FC2"/>
    <path d="M126.052 99.3079C126.025 99.1531 125.917 99.0116 125.8 98.9153C125.678 98.8147 125.519 98.7395 125.357 98.7406C125.044 98.7439 124.703 98.9353 124.623 99.2571C124.599 99.3533 124.568 99.4528 124.577 99.5523C124.597 99.7591 124.629 99.9295 124.778 100.089C124.903 100.223 125.113 100.329 125.3 100.326C125.495 100.324 125.698 100.268 125.839 100.126C125.88 100.078 125.921 100.028 125.962 99.9792C126.034 99.8653 126.073 99.7403 126.077 99.6054C126.094 99.507 126.068 99.4064 126.052 99.3079Z" fill="#9C5CE0"/>
    <path d="M129.496 98.5138C129.53 98.8456 129.276 99.2382 129.013 98.8423C128.87 98.6266 128.5 98.6333 128.394 98.8832C128.305 99.0911 128.174 99.5191 127.781 99.2769C127.651 99.1973 127.556 98.9584 127.486 98.8346C127.262 98.4331 126.667 98.8346 126.891 99.2349C127.125 99.6551 127.454 100.088 127.984 100.104C128.344 100.115 128.599 99.9205 128.788 99.6584C129.011 99.8254 129.275 99.8741 129.603 99.6972C130.049 99.4572 130.265 98.9617 130.213 98.4729C130.165 98.0162 129.448 98.0549 129.496 98.5138Z" fill="#9C5CE0"/>
    <path d="M123.938 101.097C123.963 101.096 123.989 101.094 124.012 101.09C124.213 101.049 124.326 100.862 124.323 100.684C124.318 100.479 124.172 100.339 123.969 100.344C123.447 100.356 122.919 100.34 122.397 100.293C122.263 100.281 122.144 100.334 122.071 100.438C121.99 100.552 121.978 100.71 122.038 100.84C122.094 100.96 122.205 101.035 122.343 101.048C122.87 101.093 123.407 101.111 123.938 101.097Z" fill="#9C5CE0"/>
    <path d="M124.054 101.595C123.601 101.818 123.146 102.05 122.703 102.283C122.489 102.396 122.466 102.631 122.552 102.795C122.625 102.931 122.774 103.028 122.945 102.993C122.98 102.986 123.015 102.973 123.052 102.954C123.494 102.722 123.946 102.491 124.397 102.268C124.518 102.209 124.592 102.101 124.601 101.973C124.61 101.833 124.539 101.691 124.421 101.613C124.31 101.541 124.177 101.534 124.054 101.595Z" fill="#9C5CE0"/>
    <path d="M133.507 98.8059C133.539 98.7993 133.572 98.7882 133.605 98.7716C134.098 98.5294 134.591 98.2695 135.069 98.0008C135.284 97.8792 135.301 97.6381 135.208 97.4733C135.119 97.3163 134.922 97.2178 134.716 97.3328C134.241 97.6005 133.752 97.8581 133.263 98.0981C133.048 98.2043 133.018 98.4277 133.101 98.5947C133.172 98.7373 133.327 98.8424 133.507 98.8059Z" fill="#9C5CE0"/>
    <path d="M135.908 99.2759C135.825 99.1554 135.694 99.0935 135.547 99.1045C134.938 99.1532 134.301 99.1819 133.655 99.1897C133.512 99.1908 133.391 99.2627 133.323 99.3843C133.252 99.5104 133.251 99.6674 133.321 99.7847C133.382 99.8875 133.493 99.9461 133.623 99.945C134.286 99.9373 134.977 99.9041 135.674 99.8488C135.691 99.8477 135.708 99.8455 135.725 99.8411C135.828 99.8201 135.907 99.7603 135.95 99.6697C136.008 99.5502 135.99 99.3954 135.908 99.2759Z" fill="#9C5CE0"/>
    <path d="M136.998 87.7889H133.002V103.05H136.998V87.7889Z" fill="#92CEFF"/>
    <path d="M136.999 93.9455V93.6137H137V89.8912H136.999V89.5672H134.517V87.5312H133.851V89.5672H133.002V90.2307H136.334V93.2819H133.002V93.9455H133.851V96.9955H133.002V97.6591H136.334V100.71H133.002V101.374H133.851V103.179H134.517V101.374H136.999V101.042H137V97.3196H136.999V96.9955H134.517V93.9455H136.999Z" fill="#826CEF"/>
</g>
<defs>
    <clipPath id="clip0">
        <rect width="15" height="15" fill="white" transform="translate(122 88)"/>
    </clipPath>
</defs>
</svg>
