<?xml version="1.0" encoding="utf-8"?>
<!-- Generator: Adobe Illustrator 25.2.0, SVG Export Plug-In . SVG Version: 6.00 Build 0)  -->
<svg version="1.1" id="Layer_1" xmlns="http://www.w3.org/2000/svg" xmlns:xlink="http://www.w3.org/1999/xlink" x="0px" y="0px"
	 viewBox="0 0 660 464" style="enable-background:new 0 0 660 464;" xml:space="preserve">
<style type="text/css">
	.st0{fill:url(#SVGID_1_);}
	.st1{fill:#252140;}
	.st2{fill:#6A94FF;}
	.st3{fill:#202225;}
	.st4{fill:#A9C7FF;}
	.st5{opacity:0.33;fill:#281D33;enable-background:new    ;}
	.st6{fill:#82A5FF;}
	.st7{fill:#05124A;}
	.st8{fill:#2960E3;}
	.st9{fill:#FFCDF9;}
	.st10{fill:#356DF0;}
	.st11{opacity:0.28;fill:#356DF0;enable-background:new    ;}
	.st12{fill:url(#SVGID_2_);}
	.st13{fill:url(#SVGID_3_);}
	.st14{fill:url(#SVGID_4_);}
	.st15{opacity:0.49;fill:#FFCDF9;enable-background:new    ;}
	.st16{fill:#F0417D;}
	.st17{fill:#EF64B4;}
	.st18{fill:#564d89;}
	.st19{fill:#453e6f;}
	.st20{fill:#FB68F8;}
	.st21{fill:#FFAAFC;}
	.st22{fill:#E74FD5;}
	.st23{fill:#FFFFFF;}
	.st24{fill:#A351F5;}
	.st25{fill:#A758F5;}
	.st26{opacity:0.41;fill:#FFCDF9;enable-background:new    ;}
	.st27{fill:#EBF0F7;}
	.st28{opacity:0.8;fill:#FFFFFF;enable-background:new    ;}
	.st29{opacity:0.5;fill:#FFFFFF;enable-background:new    ;}
	.st30{opacity:0.32;fill:#FFCDF9;enable-background:new    ;}
	.st31{opacity:0.25;fill:#FFFFFF;enable-background:new    ;}
	.st32{fill:#342e52;}
	.st33{opacity:0.22;fill:#281D33;enable-background:new    ;}
	.st34{fill:#FB5FDC;}
	.st35{fill:#F7E080;}
	.st36{fill:#ED8700;}
	.st37{fill:#FFB300;}
	.st38{fill:#225FF0;}
	.st39{opacity:0.35;fill:#F79400;enable-background:new    ;}
	.st40{fill:#342e52;}
	.st41{fill-rule:evenodd;clip-rule:evenodd;fill:#F8F9F9;}
	.st42{fill:#FFDA47;}
	.st43{fill:#DE3C74;}
	.st44{fill:#2E3338;}
	.st45{fill:none;stroke:#2E3338;stroke-width:5;stroke-linecap:round;stroke-miterlimit:10;}
	.st46{fill:#747F8D;}
	.st47{fill:#D99CFF;}
	.st48{fill:#FFCB1F;}
	.st49{fill:#FF9B00;}
	.st50{fill:#FFE55E;}
	.st51{fill:#92AEF0;}
	.st52{fill:#2964F0;}
</style>
<linearGradient id="SVGID_1_" gradientUnits="userSpaceOnUse" x1="71.3701" y1="384.6301" x2="644.3801" y2="50.9001" gradientTransform="matrix(1 0 0 -1 0 466)">
	<stop  offset="0.16" style="stop-color:#A764ED"/>
	<stop  offset="0.43" style="stop-color:#B670DC"/>
	<stop  offset="0.94" style="stop-color:#DD8EAF"/>
	<stop  offset="1" style="stop-color:#E292AA"/>
</linearGradient>
<path class="st0" d="M652,0H8C3.6,0,0,3.6,0,8v448c0,4.4,3.6,8,8,8h644c4.4,0,8-3.6,8-8V8C660,3.6,656.4,0,652,0z"/>
<path class="st1" d="M337.9,404.2h211.1c6.5,0,12.7,2.6,17.3,7.2c4.6,4.6,7.2,10.8,7.2,17.3V464h-260v-35.3c0-6.5,2.6-12.7,7.2-17.3
	C325.2,406.8,331.5,404.2,337.9,404.2z"/>
<path class="st2" d="M490,464v-21.7c0-2.6-0.5-5.3-1.5-7.7c-1-2.4-2.5-4.7-4.4-6.5c-1.9-1.9-4.1-3.3-6.5-4.4c-2.4-1-5.1-1.5-7.7-1.5
	l-71,0.1c-2.6,0-5.3,0.5-7.7,1.5s-4.7,2.5-6.5,4.4c-1.9,1.9-3.3,4.1-4.4,6.5c-1,2.4-1.5,5.1-1.5,7.7V464H490z"/>
<path class="st2" d="M508.9,464v-13c0-1.2-0.2-2.3-0.7-3.4c-0.4-1.1-1.1-2.1-1.9-2.9c-0.8-0.8-1.8-1.5-2.9-1.9
	c-1.1-0.4-2.2-0.7-3.4-0.7H482v21.9L508.9,464z"/>
<path class="st2" d="M387.9,464v-21.8H370c-2.4,0-4.6,1-6.3,2.7c-1.7,1.7-2.6,4-2.6,6.3V464H387.9z"/>
<path class="st3" d="M475,459.4c3.3,0,6-2.7,6-6s-2.7-6-6-6s-6,2.7-6,6S471.7,459.4,475,459.4z"/>
<path class="st3" d="M395.8,460c3.3,0,6-2.7,6-6c0-3.3-2.7-6-6-6s-6,2.7-6,6C389.8,457.3,392.5,460,395.8,460z"/>
<path class="st4" d="M409.5,464h53.2c0.1-0.7,0.1-1.3,0.1-2v-15.7c0-0.8-0.2-1.7-0.5-2.5c-0.3-0.8-0.8-1.5-1.4-2.1
	c-0.6-0.6-1.3-1.1-2.1-1.4c-0.8-0.3-1.6-0.5-2.5-0.5l-40.8,0.1c-0.8,0-1.7,0.2-2.5,0.5c-0.8,0.3-1.5,0.8-2.1,1.4
	c-0.6,0.6-1.1,1.3-1.4,2.1c-0.3,0.8-0.5,1.6-0.5,2.5v14.4C409.1,461.8,409.2,462.9,409.5,464z"/>
<path class="st4" d="M502.8,464v-10.7c0-1.2-0.5-2.3-1.3-3.2c-0.8-0.8-2-1.3-3.2-1.3h-9V464L502.8,464z"/>
<path class="st4" d="M380.6,464v-15.1h-9c-1.2,0-2.3,0.5-3.2,1.3c-0.8,0.8-1.3,2-1.3,3.2V464H380.6z"/>
<path class="st2" d="M428.1,464c0.3-0.4,0.4-0.9,0.4-1.4c0-0.5-0.1-1-0.4-1.4c-0.2-0.4-0.6-0.8-1-1c-0.4-0.2-0.9-0.4-1.4-0.4h-5.6
	c-0.7,0-1.4,0.3-2,0.8c-0.5,0.5-0.8,1.2-0.8,2c0,0.5,0.1,1,0.4,1.4H428.1z"/>
<path class="st2" d="M454.1,464c0.3-0.4,0.4-0.9,0.4-1.4c0-0.5-0.1-1-0.4-1.4c-0.2-0.4-0.6-0.8-1-1c-0.4-0.2-0.9-0.4-1.4-0.4h-5.6
	c-0.7,0-1.4,0.3-2,0.8c-0.5,0.5-0.8,1.2-0.8,2c0,0.5,0.1,1,0.4,1.4H454.1z"/>
<path class="st2" d="M541.7,464l2.9-7.2c2.3-5.6-0.4-12-6-14.3c-5.6-2.3-12,0.4-14.3,6l-6.3,15.5H541.7z"/>
<path class="st5" d="M549.1,404.2H341.5v4.8c0,6.5,2.6,12.7,7.2,17.3c4.6,4.6,10.8,7.2,17.3,7.2h207.6v-4.8c0-6.5-2.6-12.7-7.2-17.3
	C561.8,406.8,555.5,404.2,549.1,404.2z"/>
<path class="st6" d="M126.4,69.1l-18.6-27.5L73,105.2l72-8.6L126.4,69.1z"/>
<path class="st7" d="M143.2,95.7c-4.1,0-13.7-7.7-23.4-22.1c-4.9-7.2-8.7-14.6-10.7-20.6c-2.1-6.3-1.5-9.4-0.5-10.1
	c0.3-0.2,0.6-0.3,1-0.2c4.1,0,13.7,7.7,23.4,22.1c11,16.3,13.9,28.9,11.1,30.7C143.9,95.6,143.5,95.7,143.2,95.7z"/>
<path class="st8" d="M109.7,44.1c3.1,0,12.3,6.8,22.1,21.4c11,16.2,12.7,27.1,11.5,28.7h-0.2c-3.1,0-12.3-6.8-22.1-21.4
	c-10.9-16.2-12.7-27.1-11.5-28.6H109.7z M109.7,41.1c-0.6,0-1.3,0.2-1.8,0.5c-4.3,2.9,0.5,17.6,10.7,32.8
	c9,13.4,19.3,22.7,24.6,22.7c0.7,0,1.3-0.2,1.8-0.5c4.3-2.9-0.5-17.6-10.7-32.8C125.2,50.4,114.9,41.1,109.7,41.1z"/>
<path class="st9" d="M93.9,91.4c-2.6-3.9-4.8-8-6.6-12.4l-5.7,10.3c1.3,2.5,2.8,5,4.4,7.3c1.5,2.2,3.1,4.4,4.9,6.4l11.6-1.4
	C99.3,98.5,96.4,95.1,93.9,91.4z"/>
<path class="st9" d="M113.5,100.4l13.3-1.6c-14.2-9.7-24.1-24.5-27.6-41.3l-6.5,11.9C96.9,81.3,104.1,91.9,113.5,100.4z"/>
<path class="st10" d="M93.9,91.4c-2.6-3.9-4.8-8-6.6-12.4l-5.7,10.3c1.3,2.5,2.8,5,4.4,7.3c1.5,2.2,3.1,4.4,4.9,6.4l11.6-1.4
	C99.3,98.5,96.4,95.1,93.9,91.4z"/>
<path class="st10" d="M113.5,100.4l13.3-1.6c-14.2-9.7-24.1-24.5-27.6-41.3l-6.5,11.9C96.9,81.3,104.1,91.9,113.5,100.4z"/>
<path class="st11" d="M135,91l-8-8l-46,18l1.2,3.1l62.8-7.5L135,91z"/>
<linearGradient id="SVGID_2_" gradientUnits="userSpaceOnUse" x1="133.3823" y1="395.394" x2="162.6823" y2="378.334" gradientTransform="matrix(1 0 0 -1 0 466)">
	<stop  offset="0.16" style="stop-color:#FFBAF5"/>
	<stop  offset="0.29" style="stop-color:#FFC9F7"/>
	<stop  offset="0.45" style="stop-color:#FFD6F9"/>
	<stop  offset="0.59" style="stop-color:#FFDBFA"/>
</linearGradient>
<path class="st12" d="M123.6,77l3.8,8.2c0,0,21.4-9.3,35.6,5.8l9-16C172,75,151,64,123.6,77z"/>
<linearGradient id="SVGID_3_" gradientUnits="userSpaceOnUse" x1="161.0099" y1="396.8601" x2="186.0399" y2="428.7701" gradientTransform="matrix(1 0 0 -1 0 466)">
	<stop  offset="0.2" style="stop-color:#FFBAF5"/>
	<stop  offset="0.41" style="stop-color:#FFCCF8"/>
	<stop  offset="0.63" style="stop-color:#FFDBFA"/>
</linearGradient>
<path class="st13" d="M159,52l5,8c0,0,21,2,35-20l-14-12C185,28,183,48,159,52z"/>
<linearGradient id="SVGID_4_" gradientUnits="userSpaceOnUse" x1="117.9222" y1="391.3783" x2="150.5022" y2="432.9283" gradientTransform="matrix(1 0 0 -1 0 466)">
	<stop  offset="0.2" style="stop-color:#FFBAF5"/>
	<stop  offset="0.45" style="stop-color:#FFCCF8"/>
	<stop  offset="0.71" style="stop-color:#FFDBFA"/>
</linearGradient>
<path class="st14" d="M120.6,57.7c0,0,18.4,0.3,20.4-30.7l18.9,2.5c0,0-3.4,30.2-33.9,36.5L120.6,57.7z"/>
<path class="st8" d="M143.3,94.2h-0.1c-3.1,0-12.3-6.8-22.1-21.4c-10.5-15.5-12.5-26.2-11.7-28.4l-1.8-2.6
	c-4,3.3,0.8,17.7,10.9,32.7c9,13.4,19.3,22.7,24.6,22.7c0.6,0,1.3-0.2,1.8-0.5L143.3,94.2z"/>
<path class="st15" d="M660,0h-17.7c-2.7,2.6-4.5,6-5.1,9.8c-1.9-1.5-4-2.6-6.4-3.1s-4.7-0.6-7.1-0.2c-2.4,0.4-4.6,1.4-6.5,2.8
	c-2,1.4-3.6,3.2-4.8,5.2c-1.2,2.1-2,4.4-2.2,6.8c-0.2,2.4,0,4.8,0.8,7s2,4.3,3.7,6.1c1.6,1.7,3.6,3.1,5.9,4
	c-2.1,1.2-3.9,2.9-5.2,4.8c-1.4,2-2.3,4.2-2.8,6.6c-0.4,2.4-0.4,4.8,0.2,7.1c0.6,2.3,1.7,4.5,3.2,6.4c1.5,1.9,3.4,3.4,5.6,4.5
	c2.2,1.1,4.5,1.7,6.9,1.7c2.4,0.1,4.8-0.4,7-1.3c2.2-0.9,4.2-2.3,5.8-4.1c1.1,3.6,3.4,6.8,6.5,9c3.1,2.2,6.9,3.2,10.7,2.9
	c0.5,0,0.9-0.1,1.4-0.2V0z"/>
<path class="st16" d="M123,154.8c-2.1-2.1-4.6-3.7-7.3-4.9c-2.7-1.1-5.7-1.7-8.6-1.7c-3,0-5.9,0.6-8.6,1.7c-2.7,1.1-5.2,2.8-7.3,4.9
	l-4.4,4.3l-4.6-4.3c-4.2-4.2-9.9-6.6-15.9-6.6s-11.7,2.4-15.9,6.6s-6.6,9.9-6.6,15.9s2.4,11.7,6.6,15.9l4.5,4.5l-0.1,0.1l32,31.7
	l31.8-31.7l-0.1-0.1l4.5-4.5c2.1-2.1,3.8-4.6,4.9-7.3c1.1-2.7,1.7-5.7,1.7-8.6s-0.6-5.9-1.7-8.6C126.7,159.4,125.1,156.9,123,154.8z
	"/>
<path class="st17" d="M118.6,191.2L118.6,191.2l4.4-4.6c2.1-2.1,3.7-4.6,4.9-7.3c1.1-2.7,1.7-5.7,1.7-8.6s-0.6-5.9-1.7-8.6
	c-1.1-2.7-2.8-5.2-4.9-7.3c-2.1-2.1-4.6-3.7-7.3-4.9c-2.7-1.1-5.7-1.7-8.6-1.7s-5.9,0.6-8.6,1.7c-2.7,1.1-5.2,2.8-7.3,4.9l-4.4,4.3
	V223L118.6,191.2z"/>
<path class="st9" d="M127,185.4c-0.8-0.8-1.8-1.5-2.9-1.9c-1.1-0.4-2.2-0.7-3.4-0.7s-2.3,0.2-3.4,0.7c-1.1,0.4-2,1.1-2.9,1.9
	l-1.8,1.8l-1.8-1.8c-1.7-1.6-3.9-2.6-6.2-2.6c-2.3,0-4.6,0.9-6.2,2.6c-1.6,1.6-2.6,3.9-2.6,6.2c0,2.3,0.9,4.6,2.6,6.2l1.8,1.8
	l12.4,12.4l12.5-12.4l1.8-1.8c0.8-0.8,1.5-1.8,1.9-2.9c0.4-1.1,0.7-2.2,0.7-3.4c0-1.2-0.2-2.3-0.7-3.4S127.8,186.2,127,185.4z"/>
<path class="st18" d="M604.9,244.2H660v119.2h-55.1c-6.5,0-12.7-2.6-17.3-7.2c-4.6-4.6-7.2-10.8-7.2-17.3v-70.4
	c0-6.5,2.6-12.7,7.2-17.3C592.2,246.8,598.5,244.2,604.9,244.2z"/>
<path class="st19" d="M511.4,275.8H660V395H511.4c-6.5,0-12.7-2.6-17.3-7.2c-4.6-4.6-7.2-10.8-7.2-17.3v-70.4
	c0-6.5,2.6-12.7,7.2-17.3C498.7,278.3,505,275.8,511.4,275.8z"/>
<path class="st20" d="M148.9,265.1l-27.1,27.1v38.2l27.1,27.1l27.1-27.1v-38.2L148.9,265.1z M162.4,324.8l-13.6,13.5l-13.5-13.5v-27
	l13.5-13.6l13.6,13.6V324.8z"/>
<path class="st21" d="M148.9,265.1v19.2l13.6,13.5l13.6-5.6L148.9,265.1z"/>
<path class="st22" d="M135.4,324.8l-13.6,5.6l27.1,27.1v-19.2L135.4,324.8z"/>
<path class="st9" d="M135.4,297.8v27l13.5,13.5l13.6-13.5v-27l-13.6-13.5L135.4,297.8z"/>
<path class="st23" d="M162.4,297.8L162.4,297.8l-27,27l0-0.1v-7.3l23.4-23.4L162.4,297.8z"/>
<path class="st23" d="M162.4,308v7.5l-18.2,18.2l-3.7-3.7L162.4,308z"/>
<path class="st24" d="M62,305.4l-21.1-21.1l-21.1,21.1v29.7l21.1,21.1L62,335.1V305.4z"/>
<path class="st24" d="M86.9,276.5l-7.5-7.5l-7.5,7.5V287l7.5,7.5l7.5-7.5V276.5z"/>
<path class="st20" d="M105.9,327.7l-15.7,15.7v22.1l15.7,15.7l15.7-15.7v-22.1L105.9,327.7z M113.8,362.2l-7.8,7.8l-7.8-7.8v-15.6
	l7.8-7.8l7.8,7.8V362.2z"/>
<path class="st21" d="M105.9,327.7v11.1l7.8,7.8l7.8-3.2L105.9,327.7z"/>
<path class="st22" d="M98.1,362.2l-7.8,3.2l15.7,15.7V370L98.1,362.2z"/>
<path class="st9" d="M98.1,346.6v15.6l7.8,7.8l7.8-7.8v-15.6l-7.8-7.8L98.1,346.6z"/>
<path class="st23" d="M113.8,346.6L113.8,346.6l-15.6,15.6l0,0V358l13.5-13.5L113.8,346.6z"/>
<path class="st23" d="M113.8,352.5v4.3l-10.5,10.5l-2.2-2.1L113.8,352.5z"/>
<path class="st25" d="M633,80c0-4.9-1.3-9.8-3.7-14.1c-2.4-4.3-5.9-7.9-10-10.5c-4.2-2.6-9-4.1-13.9-4.3c-4.9-0.2-9.8,0.8-14.3,3
	c1.1-4.3,1.1-8.7,0.2-13c-0.9-4.3-2.8-8.4-5.5-11.8c-2.7-3.5-6.2-6.3-10.1-8.2c-4-1.9-8.3-2.9-12.7-2.9s-8.8,1-12.7,2.9
	c-4,1.9-7.4,4.7-10.1,8.2c-2.7,3.5-4.6,7.5-5.5,11.8c-0.9,4.3-0.8,8.8,0.2,13c-3.7-1.8-7.7-2.8-11.8-3c-4.1-0.2-8.2,0.6-12,2.1
	c-3.8,1.5-7.2,3.9-10.1,6.8s-5,6.5-6.4,10.4c-1.4,3.9-1.9,8-1.5,12.1s1.6,8.1,3.5,11.6c2,3.6,4.7,6.7,8,9.2
	c3.3,2.5,7.1,4.2,11.1,5.1c-2.8,3.1-5,6.7-6.3,10.6c-1.3,4-1.7,8.1-1.3,12.3c0.5,4.1,1.8,8.1,3.9,11.7c2.1,3.6,5,6.6,8.4,9
	c3.4,2.4,7.3,4,11.4,4.7c4.1,0.7,8.3,0.6,12.3-0.5c4-1,7.8-2.9,11-5.6c3.2-2.6,5.9-5.9,7.7-9.6c1.8,3.7,4.5,7,7.7,9.7s7,4.5,11,5.6
	c4,1,8.2,1.2,12.3,0.5c4.1-0.7,8-2.3,11.4-4.7c3.4-2.4,6.3-5.4,8.4-9c2.1-3.6,3.5-7.6,3.9-11.7s0-8.3-1.3-12.3
	c-1.3-4-3.4-7.6-6.3-10.6c6.4-1.4,12.2-5,16.3-10.2C630.7,93,633,86.6,633,80z"/>
<path class="st26" d="M546.8,199.9c-0.6-0.6-1.3-1.1-2.1-1.4c-0.8-0.3-1.6-0.5-2.5-0.5s-1.7,0.2-2.5,0.5c-0.8,0.3-1.5,0.8-2.1,1.4
	c-0.7,0.7-1.3,1.6-1.6,2.5c-0.5-0.8-1.1-1.5-1.9-2c-0.8-0.5-1.6-0.9-2.5-1.1c-0.9-0.2-1.9-0.2-2.8,0.1c-0.9,0.2-1.8,0.6-2.5,1.2
	c-0.7,0.6-1.3,1.3-1.8,2.1c-0.4,0.8-0.7,1.7-0.7,2.7c-0.1,0.9,0.1,1.9,0.4,2.7c0.3,0.9,0.9,1.7,1.5,2.3c0.4,0.4,0.8,0.7,1.3,1
	c-1.1,0.4-2,1-2.8,1.8c-0.8,0.8-1.3,1.8-1.5,2.9c-0.3,1.1-0.2,2.2,0.1,3.3c0.3,1.1,0.9,2,1.7,2.8c1.1,1.1,2.4,1.7,3.9,1.9
	c1.5,0.2,3-0.2,4.2-1c0,0.9,0.3,1.9,0.7,2.7c0.4,0.8,1,1.6,1.8,2.2c0.7,0.6,1.6,1,2.5,1.2c0.9,0.2,1.9,0.3,2.8,0.1
	c0.9-0.2,1.8-0.5,2.6-1.1c0.8-0.5,1.4-1.2,1.9-2.1c0.5-0.8,0.8-1.7,0.9-2.7c0.1-0.9,0-1.9-0.3-2.8c0.9,0.3,1.8,0.4,2.8,0.3
	c0.9-0.1,1.8-0.4,2.7-0.9c0.8-0.5,1.5-1.1,2-1.9c0.5-0.8,0.9-1.6,1.1-2.6c0.2-0.9,0.1-1.9-0.1-2.8s-0.7-1.8-1.2-2.5
	s-1.3-1.3-2.2-1.8c-0.8-0.4-1.8-0.7-2.7-0.7c0.8-1.3,1.2-2.8,1-4.2C548.6,202.3,547.9,200.9,546.8,199.9z"/>
<path class="st23" d="M521.4,71.9c7.7,0,13.9-9.1,13.9-20.2s-6.2-20.2-13.9-20.2c-7.7,0-13.9,9.1-13.9,20.2S513.7,71.9,521.4,71.9z"
	/>
<path d="M518.5,67.3c4.1,0,7.5-4.1,7.5-9.2c0-5.1-3.4-9.2-7.5-9.2s-7.5,4.1-7.5,9.2C511,63.2,514.3,67.3,518.5,67.3z"/>
<path class="st23" d="M545.6,71.9c7.7,0,13.9-9.1,13.9-20.2s-6.2-20.2-13.9-20.2c-7.7,0-13.9,9.1-13.9,20.2S538,71.9,545.6,71.9z"/>
<path d="M542.7,67.3c4.1,0,7.5-4.1,7.5-9.2c0-5.1-3.4-9.2-7.5-9.2s-7.5,4.1-7.5,9.2C535.2,63.2,538.6,67.3,542.7,67.3z"/>
<path class="st27" d="M516.7,63.8c1.3,0,2.3-1,2.3-2.3c0-1.3-1-2.3-2.3-2.3s-2.3,1-2.3,2.3C514.4,62.8,515.5,63.8,516.7,63.8z"/>
<path class="st27" d="M541,63.8c1.3,0,2.3-1,2.3-2.3c0-1.3-1-2.3-2.3-2.3s-2.3,1-2.3,2.3C538.7,62.8,539.7,63.8,541,63.8z"/>
<path class="st28" d="M489.5,24.8l2.2,4.9c0,0,0,0,0,0c0,0,0,0,0.1,0s0,0,0.1,0c0,0,0,0,0,0l2.2-4.9c0,0,0,0,0.1-0.1l4.9-2.2
	c0,0,0,0,0,0c0,0,0,0,0-0.1c0,0,0,0,0-0.1c0,0,0,0,0,0l-4.9-2.2c0,0,0,0-0.1,0l-2.2-4.9c0,0,0,0,0,0c0,0,0,0-0.1,0s0,0-0.1,0
	c0,0,0,0,0,0l-2.2,4.9c0,0,0,0-0.1,0l-4.9,2.2c0,0,0,0,0,0c0,0,0,0,0,0.1c0,0,0,0,0,0.1c0,0,0,0,0,0L489.5,24.8
	C489.4,24.7,489.4,24.7,489.5,24.8z"/>
<path class="st29" d="M271.4,391.4l2.4,5.4c0,0,0,0,0,0.1c0,0,0,0,0.1,0c0,0,0,0,0.1,0c0,0,0,0,0-0.1l2.4-5.4c0,0,0,0,0,0
	c0,0,0,0,0,0l5.4-2.4c0,0,0,0,0.1,0c0,0,0,0,0-0.1c0,0,0,0,0-0.1c0,0,0,0-0.1,0l-5.4-2.4c0,0,0,0-0.1-0.1l-2.5-5.4c0,0,0,0,0-0.1
	c0,0,0,0-0.1,0c0,0,0,0-0.1,0c0,0,0,0,0,0.1l-2.4,5.4l-0.1,0.1l-5.4,2.4c0,0,0,0-0.1,0c0,0,0,0,0,0.1c0,0,0,0,0,0.1c0,0,0,0,0.1,0
	l5.4,2.4C271.3,391.4,271.4,391.4,271.4,391.4C271.4,391.4,271.4,391.4,271.4,391.4z"/>
<path class="st23" d="M88.3,334l-2.3,6c0,0,0,0,0,0.1c0,0,0,0,0,0.1c0,0,0,0,0.1,0c0,0,0.1,0,0.1,0l6-2.3h0.1l6,2.3c0,0,0.1,0,0.1,0
	c0,0,0,0,0.1,0c0,0,0,0,0-0.1c0,0,0-0.1,0-0.1l-2.3-6c0,0,0-0.1,0-0.1l2.3-6c0,0,0,0,0-0.1c0,0,0,0,0-0.1c0,0,0,0-0.1,0
	c0,0-0.1,0-0.1,0l-6,2.3h-0.1l-6-2.3c0,0,0,0-0.1,0c0,0,0,0-0.1,0c0,0,0,0,0,0.1c0,0,0,0.1,0,0.1l2.3,6
	C88.3,333.9,88.3,334,88.3,334z"/>
<path class="st9" d="M36.3,441.2l2,4.5c0,0,0,0,0,0c0,0,0,0,0.1,0s0,0,0.1,0c0,0,0,0,0,0l2-4.5v0l4.5-2c0,0,0,0,0,0c0,0,0,0,0-0.1
	s0,0,0-0.1c0,0,0,0,0,0l-4.5-2v0l-2-4.5c0,0,0,0,0,0s0,0-0.1,0s0,0-0.1,0s0,0,0,0l-2,4.5c0,0,0,0,0,0c0,0,0,0,0,0l-4.5,2
	c0,0,0,0,0,0c0,0,0,0,0,0.1s0,0,0,0.1c0,0,0,0,0,0L36.3,441.2C36.2,441.2,36.2,441.2,36.3,441.2C36.3,441.2,36.3,441.2,36.3,441.2z"
	/>
<path class="st30" d="M18.1,420.7l-0.9,2.3c0,0,0,0,0,0c0,0,0,0,0,0c0,0,0,0,0,0s0,0,0,0l2.3-0.9l2.3,0.9l0.1-0.1l-0.9-2.3l0.9-2.3
	c0,0,0,0,0,0c0,0,0,0,0,0c0,0,0,0,0,0c0,0,0,0,0,0l-2.3,0.9l-2.3-0.9c0,0,0,0,0,0c0,0,0,0,0,0c0,0,0,0,0,0c0,0,0,0,0,0L18.1,420.7
	C18.1,420.7,18.1,420.7,18.1,420.7z"/>
<path class="st31" d="M473.4,38.9l-1.2,3.2c0,0,0,0,0,0c0,0,0,0,0,0c0,0,0,0,0,0s0,0,0,0l3.2-1.2h0.1l3.2,1.2c0,0,0,0,0,0s0,0,0,0
	c0,0,0,0,0,0c0,0,0,0,0,0l-1.2-3.2l1.2-3.2c0,0,0,0,0,0c0,0,0,0,0,0c0,0,0,0,0,0c0,0,0,0,0,0l-3.2,1.2h-0.1l-3.2-1.2c0,0,0,0,0,0
	c0,0,0,0,0,0c0,0,0,0,0,0c0,0,0,0,0,0L473.4,38.9z"/>
<path class="st28" d="M612.6,226.9l-1.9,5c0,0,0,0,0,0.1c0,0,0,0,0,0.1c0,0,0,0,0.1,0c0,0,0,0,0.1,0l5-1.9c0,0,0.1,0,0.1,0l5,1.9
	c0,0,0,0,0.1,0c0,0,0,0,0.1,0c0,0,0,0,0-0.1c0,0,0,0,0-0.1l-1.9-5c0,0,0-0.1,0-0.1l1.9-5c0,0,0,0,0-0.1c0,0,0,0,0-0.1c0,0,0,0-0.1,0
	c0,0,0,0-0.1,0l-5,1.9c0,0-0.1,0-0.1,0l-5-1.9c0,0,0,0-0.1,0c0,0,0,0-0.1,0c0,0,0,0,0,0.1c0,0,0,0,0,0.1L612.6,226.9
	C612.7,226.8,612.7,226.9,612.6,226.9z"/>
<path class="st32" d="M584.6,307.8H373.4c-13.5,0-24.4,10.9-24.4,24.4v70.4c0,13.5,10.9,24.4,24.4,24.4h211.1
	c13.5,0,24.4-10.9,24.4-24.4v-70.4C609,318.7,598.1,307.8,584.6,307.8z"/>
<path class="st33" d="M542.5,331c-5.6,0-11.1,1.1-16.2,3.2c-5.1,2.1-9.8,5.2-13.8,9.2c-7.6-7.6-17.9-12-28.6-12.4
	c-10.8-0.3-21.3,3.4-29.4,10.5c-6.1-5.4-13.7-8.9-21.8-10.1c-8.1-1.2-16.3,0-23.8,3.3c-7.4,3.4-13.8,8.8-18.2,15.7
	c-4.4,6.9-6.8,14.9-6.8,23s2.4,16.2,6.8,23c4.4,6.9,10.7,12.3,18.2,15.7c7.4,3.4,15.7,4.5,23.8,3.3c8.1-1.2,15.6-4.7,21.8-10.1
	c8.1,7.1,18.6,10.9,29.4,10.5c10.8-0.3,21-4.8,28.6-12.4c4.9,4.9,11,8.6,17.7,10.6c6.7,2,13.8,2.4,20.6,1c6.9-1.4,13.3-4.4,18.7-8.8
	c5.4-4.4,9.6-10.1,12.3-16.6c2.7-6.5,3.7-13.5,3-20.4c-0.7-7-3.1-13.6-7-19.4c-3.9-5.8-9.1-10.6-15.3-13.9
	C556.4,332.7,549.5,331,542.5,331z"/>
<path class="st16" d="M422.5,410c23.5,0,42.5-19,42.5-42.5S446,325,422.5,325S380,344,380,367.5S399,410,422.5,410z"/>
<path class="st23" d="M441.3,350.3c-3.5-1.6-7.3-2.8-11.3-3.5c-0.5,0.9-1,2.1-1.4,2.9c-4.2-0.7-8.3-0.7-12.5,0
	c-0.3-0.9-1-2.1-1.4-2.9c-4,0.7-7.8,1.9-11.3,3.5c-7.1,10.6-9,20.8-8.2,30.9l0,0c4.7,3.5,9.4,5.6,13.9,6.9c1-1.6,2.1-3.1,2.9-4.7
	c-1.6-0.5-3.1-1.4-4.7-2.3c0.3-0.3,0.7-0.5,1.2-0.9c9,4.2,18.7,4.2,27.6,0c0.3,0.3,0.7,0.5,1.2,0.9c-1.6,0.9-2.9,1.6-4.7,2.3
	c0.9,1.7,1.9,3.3,2.9,4.7c4.5-1.4,9-3.5,13.9-6.9l0,0C450.5,369.6,447.4,359.3,441.3,350.3z M413.2,375c-2.8,0-4.9-2.4-4.9-5.4
	c0-2.9,2.1-5.4,4.9-5.4c2.8,0,5,2.4,4.9,5.4C418.3,372.5,416,375,413.2,375z M431.5,375c-2.8,0-4.9-2.4-4.9-5.4
	c0-2.9,2.1-5.4,4.9-5.4c2.8,0,5,2.4,4.9,5.4C436.3,372.5,434.2,375,431.5,375z"/>
<path class="st34" d="M480.5,410c23.5,0,42.5-19,42.5-42.5S504,325,480.5,325S438,344,438,367.5S457,410,480.5,410z"/>
<path class="st23" d="M499.3,350.3c-3.5-1.6-7.3-2.8-11.3-3.5c-0.5,0.9-1,2.1-1.4,2.9c-4.2-0.7-8.3-0.7-12.5,0
	c-0.3-0.9-1-2.1-1.4-2.9c-4,0.7-7.8,1.9-11.3,3.5c-7.1,10.6-9,20.8-8.2,30.9l0,0c4.7,3.5,9.4,5.6,13.9,6.9c1-1.6,2.1-3.1,2.9-4.7
	c-1.6-0.5-3.1-1.4-4.7-2.3c0.3-0.3,0.7-0.5,1.2-0.9c9,4.2,18.7,4.2,27.6,0c0.3,0.3,0.7,0.5,1.2,0.9c-1.6,0.9-2.9,1.6-4.7,2.3
	c0.9,1.7,1.9,3.3,2.9,4.7c4.5-1.4,9-3.5,13.9-6.9l0,0C508.5,369.6,505.4,359.3,499.3,350.3z M471.2,375c-2.8,0-4.9-2.4-4.9-5.4
	c0-2.9,2.1-5.4,4.9-5.4c2.8,0,5,2.4,4.9,5.4C476.3,372.5,474,375,471.2,375z M489.5,375c-2.8,0-4.9-2.4-4.9-5.4
	c0-2.9,2.1-5.4,4.9-5.4c2.8,0,5,2.4,4.9,5.4C494.3,372.5,492.2,375,489.5,375z"/>
<path class="st2" d="M538.5,410c23.5,0,42.5-19,42.5-42.5S562,325,538.5,325S496,344,496,367.5S515,410,538.5,410z"/>
<path class="st35" d="M599.8,335.5c2.9-2.5,5.2-5.7,6.7-9.3c1.4-3.6,2-7.5,1.6-11.3c-0.4-3.8-1.7-7.5-3.8-10.8
	c-2.1-3.2-5-5.9-8.4-7.7c-3.4-1.9-7.2-2.9-11-2.9c-3.9-0.1-7.7,0.8-11.1,2.5c-3.5,1.7-6.4,4.3-8.7,7.4c-2.2,3.1-3.7,6.8-4.2,10.6
	c-0.2,1.7-1.1,3.3-2.3,4.5c-1.3,1.2-2.9,1.9-4.7,2c-2,0.1-3.9,0.5-5.1,1.5c-0.9,0.7-1.6,1.6-2.1,2.6c-0.5,1-0.8,2.1-0.9,3.3
	s0,2.3,0.4,3.4c0.3,1.1,0.9,2.1,1.6,3C572.9,364,599.8,335.5,599.8,335.5z"/>
<path class="st36" d="M600,316c7.7,0,14-6.3,14-14s-6.3-14-14-14s-14,6.3-14,14S592.3,316,600,316z"/>
<path class="st37" d="M660,204.6l-68.2,82.3c-1.4,1.7-2.5,3.6-3.1,5.7s-0.9,4.3-0.6,6.5c0.2,2.2,0.9,4.3,1.9,6.2
	c1.1,1.9,2.5,3.6,4.2,5c1.7,1.4,3.7,2.4,5.8,2.9c2.1,0.6,4.3,0.7,6.5,0.5c2.2-0.3,4.3-1,6.1-2.1c1.9-1.1,3.5-2.6,4.8-4.3l42.5-56.4
	V204.6z"/>
<path class="st38" d="M601.8,427.5c-0.1,2.7-1.2,5.3-3.2,7.2c-2,1.9-4.6,3-7.3,3s-5.4-1.1-7.3-3c-2-1.9-3.1-4.5-3.2-7.2
	c0-4,5-15.1,8.1-21.7c0.2-0.5,0.6-0.9,1-1.1c0.4-0.3,0.9-0.4,1.5-0.4s1,0.1,1.5,0.4c0.4,0.3,0.8,0.7,1,1.1
	C596.8,412.4,601.8,423.5,601.8,427.5z"/>
<path class="st39" d="M599,324c-6,4.3-21.5,4.6-25,11c-1.2,2.2,1.6,0.5,0.9,2.9c-0.4,1.5-0.7,2.9-0.9,4.5c1,1.8,2.1,3.5,3.3,5.1
	c13-1.9,22.6-12,22.6-12c3.5-3,6-6.8,7.4-11.2c1.3-4.4,1.4-9,0.1-13.4C602.2,310.8,606,319,599,324z"/>
<path class="st10" d="M589,343.5c-0.3-2-1.1-3.9-2.5-5.4c-1.3-1.5-3.1-2.6-5.1-3c3.3-3.6,4.4-8.3,2.2-11.7c-2.4-3.7-7.9-4.5-13-2.1
	c0.5-2.6-0.1-5.2-1.6-7.3c-1.5-2.2-3.7-3.7-6.2-4.2c-0.3-0.1-0.7-0.1-1-0.2c-0.5,1.5-0.8,3-1.1,4.5c-0.2,1.7-1.1,3.3-2.3,4.5
	c-1.3,1.2-2.9,1.9-4.7,2c-2,0.1-3.9,0.5-5.1,1.5c-0.9,0.7-1.6,1.6-2.1,2.6c-0.5,1-0.8,2.1-0.9,3.3c-0.1,1.1,0,2.3,0.4,3.4
	s0.9,2.1,1.6,3C562.9,352.2,578.8,348.9,589,343.5z"/>
<path class="st40" d="M93.8,443.6c11.5,0,20.8-9.3,20.8-20.8S105.3,402,93.8,402S73,411.3,73,422.8S82.3,443.6,93.8,443.6z"/>
<path class="st23" d="M100.8,420.2c-0.1-0.1-0.2-0.1-0.3-0.1s-0.2,0-0.3,0.1l-1.7,0.9v-1.6c0-0.4-0.1-0.7-0.4-0.9
	c-0.3-0.3-0.6-0.4-0.9-0.4h-8c-0.4,0-0.7,0.1-1,0.4c-0.3,0.3-0.4,0.6-0.4,0.9v6.7c0,0.4,0.1,0.7,0.4,0.9c0.3,0.3,0.6,0.4,1,0.4h8
	c0.4,0,0.7-0.1,0.9-0.4c0.3-0.3,0.4-0.6,0.4-0.9v-1.6l1.7,0.9c0.1,0,0.2,0.1,0.3,0.1c0.1,0,0.2,0,0.3-0.1c0.1-0.1,0.2-0.1,0.2-0.2
	c0.1-0.1,0.1-0.2,0.1-0.3v-4c0-0.1,0-0.2-0.1-0.4C101,420.4,101,420.3,100.8,420.2z"/>
<path class="st40" d="M190.6,443.6c11.5,0,20.8-9.3,20.8-20.8S202,402,190.6,402c-11.5,0-20.8,9.3-20.8,20.8
	S179.1,443.6,190.6,443.6z"/>
<path class="st41" d="M192.6,422.1c0,0.5-0.2,1-0.6,1.4s-0.9,0.6-1.4,0.6s-1-0.2-1.4-0.6s-0.6-0.9-0.6-1.4v-4c0-0.5,0.2-1,0.6-1.4
	s0.9-0.6,1.4-0.6s1,0.2,1.4,0.6s0.6,0.9,0.6,1.4V422.1z M190.6,425.5c0.5,0,0.9-0.1,1.3-0.2c0.4-0.2,0.8-0.4,1.1-0.7
	c0.3-0.3,0.6-0.7,0.8-1.1c0.2-0.4,0.3-0.9,0.3-1.3h1.1c0,1.1-0.4,2.2-1.2,3c-0.7,0.8-1.7,1.4-2.8,1.5v2.9h-1.3v-2.9
	c-1.1-0.2-2.1-0.7-2.8-1.5c-0.7-0.8-1.1-1.9-1.2-3h1.1c0,0.5,0.1,0.9,0.3,1.3c0.2,0.4,0.4,0.8,0.8,1.1c0.3,0.3,0.7,0.6,1.1,0.7
	C189.6,425.5,190.1,425.5,190.6,425.5z"/>
<path class="st40" d="M238.9,443.6c11.5,0,20.8-9.3,20.8-20.8s-9.3-20.8-20.8-20.8c-11.5,0-20.8,9.3-20.8,20.8
	S227.5,443.6,238.9,443.6z"/>
<path class="st41" d="M244.8,415.8l1.2,1.2l-2.1,2.1l2.1,2.1l-1.2,1.2l-2.1-2.1l-2.1,2.1l-1.2-1.2l2.1-2.1l-2.1-2.1l1.2-1.2l2.1,2.1
	L244.8,415.8z M242.7,429.8h-3.3c-1,0-1.9-0.2-2.8-0.6c-0.9-0.4-1.7-0.9-2.4-1.6c-0.7-0.7-1.2-1.5-1.6-2.4c-0.4-0.9-0.6-1.9-0.6-2.8
	v-3.4c0-0.2,0.1-0.3,0.2-0.5c0.1-0.1,0.3-0.2,0.5-0.2h2.7c0.2,0,0.3,0.1,0.5,0.2c0.1,0.1,0.2,0.3,0.2,0.5v2.7c0,0.1,0,0.2,0,0.3
	c0,0.1-0.1,0.2-0.1,0.2c-0.1,0.1-0.1,0.1-0.2,0.1s-0.2,0.1-0.3,0.1h-0.7c0,0.6,0.1,1.2,0.3,1.8c0.2,0.6,0.6,1.1,1,1.5
	c0.4,0.4,1,0.8,1.5,1c0.6,0.2,1.2,0.3,1.8,0.3v-0.7c0-0.2,0.1-0.3,0.2-0.5c0.1-0.1,0.3-0.2,0.5-0.2h2.7c0.2,0,0.3,0.1,0.5,0.2
	c0.1,0.1,0.2,0.3,0.2,0.5v2.7c0,0.2-0.1,0.3-0.2,0.5C243,429.7,242.8,429.8,242.7,429.8z"/>
<path class="st40" d="M142.1,443.6c11.5,0,20.8-9.3,20.8-20.8c0-11.5-9.3-20.8-20.8-20.8s-20.8,9.3-20.8,20.8
	C121.3,434.3,130.6,443.6,142.1,443.6z"/>
<path class="st41" d="M135.4,417.8c0-0.4,0.1-0.7,0.4-0.9c0.3-0.3,0.6-0.4,0.9-0.4h10.7c0.4,0,0.7,0.1,0.9,0.4
	c0.3,0.3,0.4,0.6,0.4,0.9v7.4c0,0.4-0.1,0.7-0.4,0.9c-0.3,0.3-0.6,0.4-0.9,0.4h-4.7v1.3h2.7v1.3h-6.7v-1.3h2.7v-1.3h-4.7
	c-0.4,0-0.7-0.1-0.9-0.4c-0.3-0.3-0.4-0.6-0.4-0.9V417.8z M142.9,424.4v-1.8c-0.9-0.1-1.9,0.1-2.7,0.5c-0.8,0.4-1.6,1-2.1,1.8
	c0.4-2.2,1.7-4.5,4.8-4.9v-1.8l3.2,3.1L142.9,424.4z"/>
<path class="st42" d="M207.6,0c-1.2,4.5-1.4,9.1-0.6,13.7c0.9,4.5,2.8,8.8,5.6,12.5s6.4,6.7,10.6,8.7c4.1,2.1,8.7,3.1,13.3,3.1
	s9.2-1.1,13.3-3.1c4.1-2.1,7.8-5.1,10.6-8.7s4.7-8,5.6-12.5c0.9-4.5,0.7-9.2-0.6-13.7H207.6z"/>
<path class="st37" d="M21,0c6.6,9.3,15.2,16.8,25.3,22.1C56.5,27.3,67.6,30,79,30c11.4,0,22.6-2.7,32.7-7.9S130.4,9.3,137,0H21z"/>
<path class="st43" d="M82.2,154.8c-3.8-3.8-8.8-6.1-14.2-6.5c-5.4-0.4-10.7,1.1-15,4.3c-4.3,3.2-7.4,7.8-8.6,13
	c-1.2,5.2-0.5,10.7,1.9,15.5C60.7,176.4,73.3,167.2,82.2,154.8L82.2,154.8z"/>
<path class="st20" d="M0.1,205.1L0,205.2v152.7l0.1,0.1L45,313.1v-63.2L0.1,205.1z"/>
<path class="st21" d="M0.1,205.1v31.7l22.4,22.4l22.4-9.3L0.1,205.1z"/>
<path class="st9" d="M0.1,236.8L0,236.9v89.2l0.1,0.1l22.4-22.4v-44.6L0.1,236.8z"/>
<path class="st23" d="M16.5,253.1L0,269.5v12.3l22.5-22.5v-0.1L16.5,253.1z"/>
<path class="st23" d="M0,298.6V311l22.5-22.5v-12.3L0,298.6z"/>
<path class="st22" d="M22.5,304.4l22.5,9.3l-45,45v-31.8L22.5,304.4z"/>
<path class="st42" d="M20,38c-6.8,0-13.5,1-20,2.9v136.2c9.8,2.9,20,3.6,30.1,2.2c10.1-1.4,19.7-5,28.3-10.5
	c8.6-5.5,15.8-12.8,21.3-21.3s9.1-18.2,10.5-28.3C91.7,109,91,98.8,88.1,89s-7.8-18.8-14.5-26.5C67,54.8,58.8,48.6,49.5,44.4
	C40.2,40.2,30.2,38,20,38z"/>
<path class="st44" d="M68.7,90H0v27.4c4.4-0.9,8.5-2.9,12-5.8c3.5-2.9,6.2-6.5,8-10.7c2.3,5.5,6.4,10.2,11.5,13.2
	c5.2,3.1,11.1,4.4,17.1,3.8c6-0.6,11.6-3.1,16-7.1c4.4-4,7.5-9.4,8.6-15.2c0.1-0.7,0.1-1.4-0.1-2c-0.2-0.7-0.5-1.3-0.9-1.8
	c-0.4-0.5-1-0.9-1.6-1.2C70,90.1,69.4,90,68.7,90z"/>
<path class="st45" d="M7.5,124.5c0,0,12,16,25,0"/>
<path class="st46" d="M62.2,90H47.7l-19,22.2c3,2.4,6.5,4.1,10.2,5L62.2,90z"/>
<path class="st46" d="M0,115.9L22.2,90h-4.4H7.7L0,99V115.9z"/>
<path class="st39" d="M617.5,307.2l42.5-56.4v-21.4l-66.8,79.9c0.3,0.3,0.7,0.6,1,0.9c1.7,1.4,3.7,2.4,5.8,3s4.3,0.7,6.5,0.5
	c2.2-0.3,4.3-1,6.2-2.1C614.5,310.5,616.1,309,617.5,307.2z"/>
<path class="st44" d="M219.8,11c-0.3,0-0.7,0.1-1,0.2c-0.3,0.1-0.6,0.4-0.8,0.6c-0.2,0.3-0.4,0.6-0.5,0.9c-0.1,0.3-0.1,0.7,0,1
	c0.5,2.5,1.5,4.8,3,6.8c1.5,2,3.4,3.7,5.6,4.9c3.4,1.7,7.1,2.6,10.9,2.4c3.8-0.1,7.5-1.2,10.7-3.1c2-1.2,3.7-2.8,5-4.7
	c1.3-1.9,2.2-4.1,2.7-6.3c0.1-0.3,0.1-0.7,0-1c-0.1-0.3-0.2-0.6-0.5-0.9c-0.2-0.3-0.5-0.5-0.8-0.6c-0.3-0.1-0.6-0.2-1-0.2H219.8z"/>
<path class="st20" d="M232.1,15.8c-4.4-0.1-8.8,0.8-12.8,2.6c1.5,3,3.9,5.4,6.9,7c3.4,1.7,7.1,2.6,10.9,2.4
	c3.8-0.1,7.5-1.2,10.7-3.1c0.8-0.5,1.5-1,2.2-1.6C248.5,19,241.1,15.8,232.1,15.8z"/>
<path class="st47" d="M639,121.7c0-3.4-0.9-6.7-2.5-9.6c-1.6-2.9-4-5.4-6.9-7.2s-6.1-2.8-9.5-3c-3.4-0.2-6.7,0.5-9.7,2
	c0.7-2.9,0.8-6,0.2-8.9c-0.6-2.9-1.9-5.7-3.8-8.1c-1.9-2.4-4.2-4.3-6.9-5.6c-2.7-1.3-5.7-2-8.7-2s-6,0.7-8.7,2
	c-2.7,1.3-5.1,3.2-6.9,5.6c-1.9,2.4-3.1,5.1-3.8,8.1c-0.6,2.9-0.6,6,0.2,8.9c-2.5-1.2-5.3-1.9-8.1-2c-2.8-0.1-5.6,0.4-8.2,1.5
	c-2.6,1.1-4.9,2.7-6.9,4.7c-1.9,2-3.4,4.4-4.3,7.1s-1.3,5.4-1.1,8.2c0.2,2.8,1.1,5.5,2.4,7.9c1.4,2.4,3.2,4.6,5.4,6.3
	c2.2,1.7,4.8,2.9,7.5,3.5c-1.9,2.1-3.4,4.6-4.3,7.3c-0.9,2.7-1.2,5.6-0.9,8.4c0.3,2.8,1.2,5.5,2.7,8c1.5,2.4,3.4,4.5,5.8,6.1
	c2.3,1.6,5,2.7,7.8,3.2c2.8,0.5,5.7,0.4,8.4-0.3c2.8-0.7,5.3-2,7.5-3.8c2.2-1.8,4-4,5.3-6.6c1.3,2.5,3.1,4.8,5.3,6.6
	c2.2,1.8,4.8,3.1,7.5,3.8c2.8,0.7,5.6,0.8,8.4,0.3c2.8-0.5,5.5-1.6,7.8-3.2c2.3-1.6,4.3-3.7,5.8-6.1c1.5-2.4,2.4-5.2,2.7-8
	c0.3-2.8,0-5.7-0.9-8.4c-0.9-2.7-2.3-5.2-4.3-7.3c4.4-1,8.3-3.4,11.2-6.9C637.5,130.5,639,126.2,639,121.7z"/>
<path class="st48" d="M602.9,109.2c-0.7-0.2-1.5-0.3-2.3-0.3c-0.8,0.1-1.5,0.3-2.2,0.6c-0.7,0.4-1.3,0.8-1.8,1.4
	c-0.5,0.6-0.9,1.3-1.1,2l-3.7,11.4l-3.9-12.2c-0.2-0.8-0.6-1.5-1.1-2.1c-0.5-0.6-1.1-1.1-1.8-1.5c-0.7-0.4-1.5-0.6-2.2-0.7
	c-0.8-0.1-1.6,0-2.3,0.3c-0.8,0.2-1.4,0.6-2,1.1c-0.6,0.5-1.1,1.1-1.4,1.9c-0.3,0.7-0.5,1.5-0.6,2.3c0,0.8,0.1,1.6,0.3,2.3l5,15.6
	c-1.9,1.1-3.5,2.6-4.6,4.5c-1.1,1.9-1.8,4-1.8,6.2c0,7.3,7,13.3,15.6,13.3c8.6,0,15.6-5.9,15.6-13.3c0-1.9-0.5-3.8-1.4-5.4
	c-0.9-1.7-2.1-3.1-3.6-4.3l5.1-15.8c0.5-1.5,0.3-3.1-0.4-4.5C605.6,110.8,604.4,109.7,602.9,109.2z"/>
<path class="st37" d="M589.8,144.7c4.8-3.2,6.6-8.8,4.1-12.7c-2.5-3.8-8.5-4.4-13.3-1.2c-4.8,3.2-6.6,8.8-4.1,12.7
	C579,147.3,585,147.9,589.8,144.7z"/>
<path class="st49" d="M590.1,144.5c0.7-0.5,1.3-1,1.9-1.6c-1-2.8-2.6-5.2-4.8-7.2c-2.2-2-4.8-3.4-7.6-4.1c-0.7,0.6-1.4,1.3-2,2
	C580.2,133.9,587,135.6,590.1,144.5z"/>
<path class="st50" d="M606.2,138.8l-7.5-7.5c-0.5-0.5-1.1-0.9-1.8-1.2c-0.7-0.3-1.4-0.4-2.1-0.4c-0.7,0-1.4,0.1-2.1,0.4
	c-0.7,0.3-1.3,0.7-1.8,1.2c-1,1-1.6,2.4-1.6,3.8s0.6,2.8,1.6,3.8l11.9,11.8c1.2-1.1,2.1-2.5,2.8-3.9c0.7-1.5,1-3.1,1-4.7
	C606.7,141,606.5,139.9,606.2,138.8z"/>
<path class="st10" d="M588.8,405.8c-3.1,6.6-8.1,17.7-8.1,21.7c0,1,0.2,2,0.5,3c0.7,1,1.7,1.9,2.8,2.5c1.1,0.6,2.3,1,3.6,1
	c5.8,0,10.5-7.6,10.5-17c0-0.6,0-1.2,0-1.7c-1.4-3.4-3-6.8-4.3-9.5c-0.2-0.5-0.6-0.9-1-1.2c-0.4-0.3-1-0.4-1.5-0.4s-1,0.2-1.5,0.4
	C589.3,404.9,589,405.3,588.8,405.8z"/>
<path class="st51" d="M589,413.3c0.6-1.6,0.6-3,0.1-3.2c-0.5-0.2-1.4,0.9-2,2.5c-0.6,1.6-0.6,3-0.1,3.2
	C587.5,416,588.4,414.9,589,413.3z"/>
<path class="st52" d="M559,344c11.4,6.5,22.3,3.6,30-0.5c-0.3-2-1.1-3.9-2.5-5.4c-1.3-1.5-3.1-2.6-5.1-3c1.7-1.7,2.8-3.9,3.2-6.3
	c-3.3,0.5-6.6,1.4-9.7,2.7C568.6,334.1,563,338.4,559,344z"/>
<path class="st37" d="M90,24H78v6h12V24z"/>
<path class="st42" d="M31,0c6.6,9.3,15.2,16.8,25.3,22.1C66.5,27.3,77.6,30,89,30c11.4,0,22.6-2.7,32.7-7.9S140.4,9.3,147,0H31z"/>
<path class="st23" d="M557.3,350.3c-3.5-1.6-7.3-2.8-11.3-3.5c-0.5,0.9-1,2.1-1.4,2.9c-4.2-0.7-8.3-0.7-12.5,0
	c-0.3-0.9-1-2.1-1.4-2.9c-4,0.7-7.8,1.9-11.3,3.5c-7.1,10.6-9,20.8-8.2,30.9l0,0c4.7,3.5,9.4,5.6,13.9,6.9c1-1.6,2.1-3.1,2.9-4.7
	c-1.6-0.5-3.1-1.4-4.7-2.3c0.3-0.3,0.7-0.5,1.2-0.9c9,4.2,18.7,4.2,27.6,0c0.3,0.3,0.7,0.5,1.2,0.9c-1.6,0.9-2.9,1.6-4.7,2.3
	c0.9,1.7,1.9,3.3,2.9,4.7c4.5-1.4,9-3.5,13.9-6.9l0,0C566.5,369.6,563.4,359.3,557.3,350.3z M529.2,375c-2.8,0-4.9-2.4-4.9-5.4
	c0-2.9,2.1-5.4,4.9-5.4s5,2.4,4.9,5.4C534.3,372.5,532,375,529.2,375z M547.5,375c-2.8,0-4.9-2.4-4.9-5.4c0-2.9,2.1-5.4,4.9-5.4
	c2.8,0,5,2.4,4.9,5.4C552.3,372.5,550.2,375,547.5,375z"/>
</svg>
