<svg width="177" height="97" viewBox="0 0 177 97" fill="none" xmlns="http://www.w3.org/2000/svg">
<rect width="177" height="97" rx="8" fill="#101019"/>
<path d="M58.3445 22.2104L58.1285 20.7944H55.3685V13.9304H53.7725V22.2104H58.3445ZM64.3432 19.3064C64.3432 17.4224 63.1912 16.2944 61.6072 16.2944C60.0352 16.2944 58.8832 17.4344 58.8832 19.3184C58.8832 21.2024 60.0232 22.3304 61.5952 22.3304C63.1792 22.3304 64.3432 21.1904 64.3432 19.3064ZM62.9392 19.3184C62.9392 20.3984 62.4832 21.1544 61.5952 21.1544C60.7552 21.1544 60.2872 20.3744 60.2872 19.3064C60.2872 18.2384 60.7432 17.4704 61.5952 17.4704C62.4592 17.4704 62.9392 18.2504 62.9392 19.3184ZM70.4553 22.2104V18.0344C70.4553 16.9544 69.8793 16.2944 68.7993 16.2944C68.0193 16.2944 67.4073 16.7144 66.8673 17.2304L66.7353 16.4144H65.5113V22.2104H66.9513V18.2984C67.3713 17.8544 67.8273 17.5664 68.2713 17.5664C68.7993 17.5664 69.0153 17.9144 69.0153 18.4184V22.2104H70.4553ZM74.202 17.2904C74.898 17.2904 75.258 17.7944 75.354 18.6944H73.038C73.146 17.7584 73.626 17.2904 74.202 17.2904ZM76.746 21.6224L76.578 20.4944C75.942 20.9384 75.33 21.2144 74.586 21.2144C73.698 21.2144 73.086 20.7224 73.026 19.5944H76.746C76.746 19.5104 76.758 19.3664 76.758 19.2464C76.758 17.6024 75.978 16.2944 74.238 16.2944C72.726 16.2944 71.598 17.4344 71.598 19.3184C71.598 21.4064 72.81 22.3304 74.43 22.3304C75.366 22.3304 76.122 22.0544 76.746 21.6224ZM91.4799 13.9304H89.8719L88.3719 19.7744L86.6559 13.9304H85.0479L83.3319 19.7744L81.7839 13.8464L80.1039 14.1464L82.4199 22.2344H83.9199L85.7559 16.1864L87.5919 22.2344H89.1039L91.4799 13.9304ZM95.0465 20.6144C94.6505 20.9984 94.1825 21.2384 93.6905 21.2384C93.2465 21.2384 92.9825 20.9864 92.9825 20.5664C92.9825 20.0144 93.3785 19.5224 95.0465 19.3184V20.6144ZM96.4865 22.2104V18.2384C96.4865 16.8464 95.7425 16.2944 94.2425 16.2944C93.3185 16.2944 92.6105 16.4984 91.9385 16.7624L92.1185 17.9144C92.7425 17.6384 93.3785 17.4464 94.0505 17.4464C94.6865 17.4464 95.0465 17.6864 95.0465 18.3104V18.4784C92.7065 18.7064 91.5545 19.3184 91.5545 20.7224C91.5545 21.7304 92.2145 22.3304 93.1985 22.3304C94.0625 22.3304 94.6625 21.9464 95.1305 21.4544L95.2505 22.2104H96.4865ZM102.858 22.2104V18.0344C102.858 16.9544 102.282 16.2944 101.202 16.2944C100.422 16.2944 99.8096 16.7144 99.2696 17.2304L99.1376 16.4144H97.9136V22.2104H99.3536V18.2984C99.7736 17.8544 100.23 17.5664 100.674 17.5664C101.202 17.5664 101.418 17.9144 101.418 18.4184V22.2104H102.858ZM105.464 19.3904C105.464 18.1184 106.004 17.5064 106.76 17.5064C107.252 17.5064 107.528 17.5904 107.888 17.7584V20.2424C107.504 20.7344 107.096 21.0464 106.568 21.0464C105.932 21.0464 105.464 20.5184 105.464 19.3904ZM104.012 19.4744C104.012 21.4304 104.984 22.3304 106.196 22.3304C107 22.3304 107.564 21.8984 107.972 21.4064L108.092 22.2104H109.328V13.5464L107.888 13.7744V16.5704C107.54 16.4504 107.096 16.3544 106.544 16.3544C105.2 16.3544 104.012 17.3144 104.012 19.4744ZM113.097 17.2904C113.793 17.2904 114.153 17.7944 114.249 18.6944H111.933C112.041 17.7584 112.521 17.2904 113.097 17.2904ZM115.641 21.6224L115.473 20.4944C114.837 20.9384 114.225 21.2144 113.481 21.2144C112.593 21.2144 111.981 20.7224 111.921 19.5944H115.641C115.641 19.5104 115.653 19.3664 115.653 19.2464C115.653 17.6024 114.873 16.2944 113.133 16.2944C111.621 16.2944 110.493 17.4344 110.493 19.3184C110.493 21.4064 111.705 22.3304 113.325 22.3304C114.261 22.3304 115.017 22.0544 115.641 21.6224ZM120.308 17.7224L120.08 16.2944C119.18 16.3424 118.604 16.9064 118.22 17.5784L118.04 16.4144H116.816V22.2104H118.256V18.8864C118.676 18.2624 119.408 17.7824 120.308 17.7224ZM123.374 17.2904C124.07 17.2904 124.43 17.7944 124.526 18.6944H122.21C122.318 17.7584 122.798 17.2904 123.374 17.2904ZM125.918 21.6224L125.75 20.4944C125.114 20.9384 124.502 21.2144 123.758 21.2144C122.87 21.2144 122.258 20.7224 122.198 19.5944H125.918C125.918 19.5104 125.93 19.3664 125.93 19.2464C125.93 17.6024 125.15 16.2944 123.41 16.2944C121.898 16.2944 120.77 17.4344 120.77 19.3184C120.77 21.4064 121.982 22.3304 123.602 22.3304C124.538 22.3304 125.294 22.0544 125.918 21.6224ZM130.585 17.7224L130.357 16.2944C129.457 16.3424 128.881 16.9064 128.497 17.5784L128.317 16.4144H127.093V22.2104H128.533V18.8864C128.953 18.2624 129.685 17.7824 130.585 17.7224Z" fill="white"/>
<path d="M58.7045 37.7334C58.7045 35.8494 57.5765 34.7454 56.0405 34.7454C54.5165 34.7454 53.4125 35.8494 53.4125 37.7334C53.4125 39.6174 54.5165 40.7094 56.0405 40.7094C57.5765 40.7094 58.7045 39.6174 58.7045 37.7334ZM57.6245 37.7334C57.6245 38.9334 57.0965 39.8214 56.0405 39.8214C55.0325 39.8214 54.4925 38.9094 54.4925 37.7334C54.4925 36.5334 55.0085 35.6334 56.0405 35.6334C57.0725 35.6334 57.6245 36.5574 57.6245 37.7334ZM68.1886 40.5894V36.4254C68.1886 35.3934 67.6606 34.7454 66.5686 34.7454C65.7646 34.7454 65.0686 35.2014 64.5526 35.6934C64.3366 35.1054 63.8806 34.7454 63.0406 34.7454C62.2366 34.7454 61.5886 35.2014 61.0486 35.6934L60.9166 34.8654H60.0646V40.5894H61.1326V36.6294C61.6486 36.0774 62.1886 35.7054 62.7526 35.7054C63.3766 35.7054 63.5926 36.1014 63.5926 36.6894V40.5894H64.6606V36.6294C65.1766 36.0774 65.7166 35.7054 66.2806 35.7054C66.9046 35.7054 67.1206 36.1014 67.1206 36.6894V40.5894H68.1886ZM72.9818 36.7254C72.9818 37.4094 72.5258 37.9494 71.7938 37.9494C71.0858 37.9494 70.6298 37.4334 70.6298 36.7734C70.6298 36.0774 71.0738 35.5254 71.7938 35.5254C72.5018 35.5254 72.9818 36.0414 72.9818 36.7254ZM74.6858 41.0094C74.6858 40.1214 73.9298 39.7374 72.7178 39.5214L72.3098 39.4494C71.3018 39.2694 71.0978 39.2214 71.0978 39.0174C71.0978 38.9094 71.2178 38.7774 71.3858 38.6694C71.5298 38.6934 71.6738 38.7054 71.8178 38.7054C72.9818 38.7054 74.0138 37.9614 74.0138 36.7374C74.0138 36.4134 73.9418 36.1134 73.7858 35.8494L74.8778 35.7414L74.7218 34.7814L73.2698 35.2254C72.8738 34.9134 72.3698 34.7454 71.7938 34.7454C70.6298 34.7454 69.5978 35.5014 69.5978 36.7374C69.5978 37.5174 70.0298 38.1174 70.6658 38.4414C70.2818 38.6694 70.0658 38.9454 70.0658 39.2214C70.0658 39.4374 70.1738 39.6414 70.4258 39.8214C69.6218 40.2534 69.2138 40.7094 69.2138 41.2974C69.2138 42.3054 70.4018 42.7734 71.8898 42.7734C73.3778 42.7734 74.6858 42.2094 74.6858 41.0094ZM71.9378 42.0054C70.8218 42.0054 70.2338 41.6694 70.2338 41.2134C70.2338 40.8174 70.5338 40.4814 71.2058 40.1454C71.4338 40.1934 71.6018 40.2294 71.9138 40.2894L72.5978 40.4094C73.4138 40.5534 73.6778 40.7934 73.6778 41.1414C73.6778 41.6214 73.0538 42.0054 71.9378 42.0054ZM83.2014 40.5894V36.4254C83.2014 35.3934 82.6254 34.7454 81.5454 34.7454C80.7294 34.7454 80.0574 35.2014 79.5174 35.6934L79.3854 34.8654H78.5334V40.5894H79.6014V36.6294C80.1174 36.0774 80.6934 35.7054 81.2574 35.7054C81.8814 35.7054 82.1334 36.1014 82.1334 36.6894V40.5894H83.2014ZM86.1575 33.0414C86.1575 32.6694 85.8575 32.3574 85.4855 32.3574C85.1135 32.3574 84.8015 32.6694 84.8015 33.0414C84.8015 33.4134 85.1135 33.7134 85.4855 33.7134C85.8575 33.7134 86.1575 33.4134 86.1575 33.0414ZM86.0135 40.5894V34.8654H84.9455V40.5894H86.0135ZM92.0755 40.1214L91.9195 39.1374C91.3555 39.6174 90.7915 39.7734 90.2155 39.7734C89.2555 39.7734 88.5355 39.1134 88.5355 37.7214C88.5355 36.4014 89.1955 35.6814 90.1795 35.6814C90.8395 35.6814 91.3675 35.9214 91.8595 36.3174L92.0155 35.2734C91.6315 34.9974 91.0195 34.7454 90.1915 34.7454C88.6555 34.7454 87.4555 35.7894 87.4555 37.7334C87.4555 39.6414 88.5835 40.7094 90.1195 40.7094C90.9355 40.7094 91.5475 40.5174 92.0755 40.1214ZM95.4595 35.5854C96.2875 35.5854 96.6955 36.1134 96.8275 37.0374H94.0675C94.2355 36.0654 94.7995 35.5854 95.4595 35.5854ZM97.8955 39.9414L97.7395 38.9814C97.1155 39.4734 96.5155 39.7974 95.6875 39.7974C94.6915 39.7974 94.0675 39.1734 94.0195 37.8414H97.9075V37.6134C97.9075 36.0294 97.1395 34.7454 95.4715 34.7454C94.0315 34.7454 92.9515 35.8734 92.9515 37.7094C92.9515 39.8094 94.1155 40.7094 95.6035 40.7094C96.5515 40.7094 97.2835 40.4214 97.8955 39.9414ZM104.085 35.5854C104.913 35.5854 105.321 36.1134 105.453 37.0374H102.693C102.861 36.0654 103.425 35.5854 104.085 35.5854ZM106.521 39.9414L106.365 38.9814C105.741 39.4734 105.141 39.7974 104.313 39.7974C103.317 39.7974 102.693 39.1734 102.645 37.8414H106.533V37.6134C106.533 36.0294 105.765 34.7454 104.097 34.7454C102.657 34.7454 101.577 35.8734 101.577 37.7094C101.577 39.8094 102.741 40.7094 104.229 40.7094C105.177 40.7094 105.909 40.4214 106.521 39.9414ZM116.013 40.5894V36.4254C116.013 35.3934 115.485 34.7454 114.393 34.7454C113.589 34.7454 112.893 35.2014 112.377 35.6934C112.161 35.1054 111.705 34.7454 110.865 34.7454C110.061 34.7454 109.413 35.2014 108.873 35.6934L108.741 34.8654H107.889V40.5894H108.957V36.6294C109.473 36.0774 110.013 35.7054 110.577 35.7054C111.201 35.7054 111.417 36.1014 111.417 36.6894V40.5894H112.485V36.6294C113.001 36.0774 113.541 35.7054 114.105 35.7054C114.729 35.7054 114.945 36.1014 114.945 36.6894V40.5894H116.013ZM122.642 37.7334C122.642 35.8494 121.514 34.7454 119.978 34.7454C118.454 34.7454 117.35 35.8494 117.35 37.7334C117.35 39.6174 118.454 40.7094 119.978 40.7094C121.514 40.7094 122.642 39.6174 122.642 37.7334ZM121.562 37.7334C121.562 38.9334 121.034 39.8214 119.978 39.8214C118.97 39.8214 118.43 38.9094 118.43 37.7334C118.43 36.5334 118.946 35.6334 119.978 35.6334C121.01 35.6334 121.562 36.5574 121.562 37.7334ZM125.298 33.0414C125.298 32.6694 124.998 32.3574 124.626 32.3574C124.254 32.3574 123.942 32.6694 123.942 33.0414C123.942 33.4134 124.254 33.7134 124.626 33.7134C124.998 33.7134 125.298 33.4134 125.298 33.0414ZM125.154 41.3094V34.8654H124.086V41.2134C124.086 41.6454 123.858 41.8374 123.486 41.8374C123.318 41.8374 123.114 41.8254 122.982 41.7894L123.138 42.7374C123.222 42.7614 123.45 42.7734 123.63 42.7734C124.542 42.7734 125.154 42.3414 125.154 41.3094ZM128.216 33.0414C128.216 32.6694 127.916 32.3574 127.544 32.3574C127.172 32.3574 126.86 32.6694 126.86 33.0414C126.86 33.4134 127.172 33.7134 127.544 33.7134C127.916 33.7134 128.216 33.4134 128.216 33.0414ZM128.072 40.5894V34.8654H127.004V40.5894H128.072Z" fill="#DCDDDE"/>
<mask id="mask0" mask-type="alpha" maskUnits="userSpaceOnUse" x="134" y="29" width="15" height="15">
    <rect x="134.276" y="29.6104" width="14.2414" height="14.2947" fill="#C4C4C4"/>
</mask>
<g mask="url(#mask0)">
    <path d="M135.844 30.4158C136.463 30.0069 138.047 29.7945 138.641 30.0497C139.255 30.3133 139.329 31.7719 139.669 32.3871C139.965 32.9218 139.908 33.5198 139.516 33.9617C139.508 34.0191 139.483 34.0777 139.433 34.1338C138.825 34.8296 138.181 35.5131 137.474 36.1112C137.062 36.4603 136.042 36.5787 135.479 36.3968C134.154 35.9721 134.441 33.294 134.628 32.2468C134.732 31.6572 135.302 30.7735 135.844 30.4158Z" fill="#754A4A"/>
    <path d="M136.269 30.8433C136.888 30.4344 138.472 30.222 139.066 30.4771C139.68 30.7408 139.754 32.1994 140.095 32.8146C140.39 33.3492 140.333 33.9473 139.941 34.3892C139.933 34.4466 139.909 34.5052 139.859 34.5613C139.251 35.2571 138.606 35.9406 137.9 36.5387C137.487 36.8878 136.467 37.0062 135.904 36.8243C134.58 36.3995 134.32 34.759 134.506 33.7118C134.61 33.1222 135.728 31.201 136.269 30.8433Z" fill="#483039"/>
    <mask id="mask1" mask-type="alpha" maskUnits="userSpaceOnUse" x="134" y="29" width="15" height="15">
        <path d="M134.505 43.7205H148.612C148.612 42.1337 148.496 40.8142 148.59 39.0212C148.715 36.6263 148.298 34.2705 147.414 32.6642C146.558 31.1116 145.411 30.3744 144.301 30.0094C142.703 29.4845 141.033 29.5346 139.426 29.847C137.768 30.1693 136.238 30.5379 135.281 33.5125C134.38 36.3102 134.505 43.7205 134.505 43.7205Z" fill="#E3BF7A"/>
    </mask>
    <g mask="url(#mask1)">
        <path d="M134.505 43.7205H148.612C148.612 42.1337 148.496 40.8142 148.59 39.0212C148.715 36.6263 148.298 34.2705 147.414 32.6642C146.558 31.1116 145.411 30.3744 144.301 30.0094C142.703 29.4845 141.033 29.5346 139.426 29.847C137.768 30.1693 136.238 30.5379 135.281 33.5125C134.38 36.3102 134.505 43.7205 134.505 43.7205Z" fill="#E3BF7A"/>
        <path d="M145.25 42.3023C143.892 42.5586 142.465 42.4683 141.098 42.483C138.79 42.5062 136.252 42.251 134.507 40.0198C134.502 40.746 134.517 41.4723 134.507 42.1986C135.3 42.7283 136.284 43.0908 137.11 43.3374C138.752 43.8281 140.461 43.8769 142.161 43.9013C143.8 43.9245 145.494 43.8781 147.046 43.2849C147.665 43.0481 148.18 42.6807 148.62 42.2315V39.8538C147.607 40.9694 146.568 42.0533 145.25 42.3023Z" fill="#DA5C58"/>
        <path d="M146.058 28.7071C144.482 28.0028 140.693 29.4029 139.148 29.5542C138.469 29.6214 137.703 29.6958 137.16 30.2341C136.819 30.5735 136.621 31.0434 136.387 31.4804C135.549 33.0427 134.081 34.5258 134.298 36.4775C134.319 36.6655 134.357 36.8608 134.478 37.0061C134.599 37.1525 134.787 37.2246 134.972 37.2697C135.469 37.3906 136.006 37.3417 136.475 37.1342C137.371 36.7388 137.683 36.3921 138.672 36.6887C139.475 36.9292 140.213 37.3124 140.95 37.7055C142.342 38.4488 143.745 39.2849 145.372 39.2935C146.062 39.2972 146.779 39.1055 147.279 38.6283C147.619 38.3048 147.836 37.8727 147.983 37.4272C148.43 36.0674 148.231 34.5197 147.499 33.2905C146.741 32.0138 147.487 29.3455 146.058 28.7071Z" fill="#F4DD92"/>
        <path d="M138.845 34.5085C138.806 34.1082 138.744 33.7945 138.509 33.4527C138.302 33.1512 138.012 32.8998 137.658 32.7948C136.878 32.5617 136.031 32.5409 135.415 33.1366C134.926 33.6089 134.705 34.323 134.812 34.9907C134.892 35.4887 135.063 36.0209 135.47 36.3443C135.917 36.7007 136.598 36.9082 137.168 36.8838C137.883 36.8521 138.457 36.3053 138.72 35.6681C138.852 35.3495 138.922 34.9907 138.864 34.6489C138.854 34.6013 138.849 34.5549 138.845 34.5085Z" fill="white"/>
        <path d="M135.172 33.6274C134.077 34.505 135.17 36.4555 136.476 35.7622C136.903 35.5352 137.163 35.0677 137.191 34.5916C137.252 33.5602 135.938 33.0146 135.172 33.6274Z" fill="#222034"/>
        <path d="M135.273 33.7298C134.907 34.0435 135.272 34.7405 135.709 34.4927C135.851 34.4121 135.938 34.2449 135.948 34.074C135.969 33.7054 135.529 33.5101 135.273 33.7298Z" fill="white"/>
        <path d="M144.96 38.6855C145.02 40.1918 144.405 41.5088 143.102 42.1423C141.656 42.8442 138.119 43.5008 136.731 42.8332C135.48 42.2314 136.653 41.1255 136.453 39.7914C136.309 38.8442 135.801 38.1656 135.616 37.5699C134.692 34.605 139.567 35.4802 141.865 35.4168C142.327 35.4033 142.774 35.4778 143.204 35.656C144.464 36.1784 144.906 37.3197 144.96 38.6855Z" fill="#B88A7D"/>
        <mask id="mask2" mask-type="alpha" maskUnits="userSpaceOnUse" x="136" y="37" width="7" height="6">
            <path d="M141.17 40.9387C141.739 40.5127 142.712 39.7572 142.556 38.6891C142.365 37.3819 140.579 37.2708 139.939 37.2708C138.984 37.2708 138.764 37.2488 137.889 37.2549C137.636 37.2561 136.572 37.1805 136.421 37.4136C136.268 37.6492 136.25 37.748 136.758 38.4999C136.957 38.7941 137.044 39.1249 137.052 39.4838C137.061 39.8426 137.038 40.2064 136.986 40.5603C136.909 41.1023 136.637 41.7834 137.145 42.0788C137.717 42.412 138.667 42.185 139.241 41.9958C139.924 41.77 140.567 41.3891 141.17 40.9387Z" fill="#633630"/>
        </mask>
        <g mask="url(#mask2)">
            <path d="M141.17 40.9387C141.739 40.5127 142.712 39.7572 142.556 38.6891C142.365 37.3819 140.579 37.2708 139.939 37.2708C138.984 37.2708 138.764 37.2488 137.889 37.2549C137.636 37.2561 136.572 37.1805 136.421 37.4136C136.268 37.6492 136.25 37.748 136.758 38.4999C136.957 38.7941 137.044 39.1249 137.052 39.4838C137.061 39.8426 137.038 40.2064 136.986 40.5603C136.909 41.1023 136.637 41.7834 137.145 42.0788C137.717 42.412 138.667 42.185 139.241 41.9958C139.924 41.77 140.567 41.3891 141.17 40.9387Z" fill="#633630"/>
            <path d="M142.5 40.1832C141.347 39.3154 137.822 39.081 136.858 40.5177C136.619 40.8729 136.594 41.3587 136.809 41.709C136.81 41.7456 136.815 41.7834 136.825 41.8237C137.246 43.4959 140.582 41.6687 141.419 41.2183C141.757 41.0364 142.764 40.381 142.5 40.1832Z" fill="#D04A69"/>
        </g>
        <path d="M144.074 34.5085C144.035 34.1082 143.973 33.7945 143.738 33.4527C143.532 33.1512 143.241 32.8998 142.887 32.7948C142.108 32.5617 141.26 32.5409 140.645 33.1366C140.156 33.6089 139.935 34.323 140.042 34.9907C140.122 35.4887 140.292 36.0209 140.699 36.3443C141.147 36.7007 141.828 36.9082 142.397 36.8838C143.112 36.8521 143.686 36.3053 143.95 35.6681C144.081 35.3495 144.152 34.9907 144.093 34.6489C144.084 34.6013 144.079 34.5549 144.074 34.5085Z" fill="white"/>
        <path d="M140.406 33.6274C139.311 34.505 140.404 36.4555 141.71 35.7622C142.137 35.5352 142.397 35.0677 142.425 34.5916C142.486 33.5602 141.172 33.0146 140.406 33.6274Z" fill="#222034"/>
        <path d="M140.64 33.7298C140.274 34.0435 140.639 34.7405 141.075 34.4927C141.218 34.4121 141.305 34.2449 141.315 34.074C141.335 33.7054 140.895 33.5101 140.64 33.7298Z" fill="white"/>
        <path d="M141.812 31.5433C141.376 31.3383 140.904 31.3395 140.476 31.5714C140.312 31.6605 140.273 31.8131 140.308 31.9522C140.315 32.1072 140.412 32.2757 140.572 32.2977C140.965 32.3538 141.345 32.3379 141.725 32.2122C141.996 32.1219 142.115 31.6861 141.812 31.5433Z" fill="#B88A7D"/>
        <path d="M137.921 31.5433C137.484 31.3383 137.012 31.3395 136.584 31.5714C136.42 31.6605 136.381 31.8131 136.416 31.9522C136.424 32.1072 136.521 32.2757 136.68 32.2977C137.073 32.3538 137.454 32.3379 137.833 32.2122C138.104 32.1219 138.223 31.6861 137.921 31.5433Z" fill="#B88A7D"/>
        <path d="M138.684 35.3341C138.256 35.3097 137.181 35.3121 136.973 35.8003C136.746 36.3362 137.48 36.789 137.917 36.8586C137.957 36.8647 138.001 36.8696 138.046 36.872C138.079 36.9721 138.088 37.0551 138.079 37.1711C138.069 37.2956 138.214 37.4079 138.333 37.3969C138.478 37.3835 138.554 37.2809 138.564 37.1479C138.571 37.0454 138.562 36.9416 138.54 36.8403C138.7 36.8159 138.857 36.7805 138.983 36.7402C139.285 36.645 139.633 36.479 139.737 36.1604C139.941 35.5428 139.117 35.3597 138.684 35.3341Z" fill="#483039"/>
        <path d="M139.967 39.2751C139.157 39.3337 138.662 39.9233 138.216 40.5409C137.986 40.8595 138.513 41.1646 138.741 40.8485C139.044 40.4298 139.407 39.9269 139.967 39.8854C140.355 39.8573 140.359 39.247 139.967 39.2751Z" fill="#9C3D53"/>
    </g>
    <path d="M149.228 33.3372C149.044 32.412 148.618 31.5087 147.967 30.8215C147.212 30.022 146.239 29.9805 145.18 29.9683C144.803 29.9647 144.398 29.9903 144.098 30.2198C143.642 30.5676 143.608 31.2976 143.928 31.7748C144.921 33.253 146.067 34.8801 147.819 35.5136C148.245 35.6674 148.985 35.8431 149.233 35.2719C149.464 34.7348 149.339 33.8926 149.228 33.3372Z" fill="#483039"/>
    <path d="M148.257 31.3879C148.105 30.9973 147.754 30.6177 147.218 30.3272C146.596 29.9903 145.794 29.972 144.923 29.9671C144.611 29.9659 144.278 29.9769 144.03 30.0733C143.654 30.2198 143.604 31.0693 143.868 31.2707C144.687 31.8945 145.651 32.0385 147.094 32.3058C147.446 32.3705 148.055 32.445 148.259 32.2033C148.453 31.9775 148.348 31.6223 148.257 31.3879Z" fill="#754A4A"/>
</g>
<ellipse cx="27.4655" cy="27.5683" rx="17.2931" ry="17.3579" fill="#EDF6F3"/>
<g clip-path="url(#clip0)">
    <path d="M27.4658 38.7999C26.1432 38.7999 24.9001 38.3084 23.965 37.4162C23.9479 37.3999 23.9479 37.3735 23.965 37.3572C23.9821 37.3409 24.0097 37.3409 24.0269 37.3572C24.9453 38.2335 26.1665 38.7162 27.4653 38.7162C28.7642 38.7162 29.9854 38.2335 30.9038 37.3572C30.9209 37.3409 30.9485 37.3409 30.9657 37.3572C30.9828 37.3735 30.9828 37.3999 30.9657 37.4162C30.0314 38.3088 28.7879 38.7999 27.4658 38.7999Z" fill="#333333"/>
    <path d="M26.0827 23.385L25.3455 29.7527C24.4661 29.9152 23.8018 30.6533 23.8018 31.54C23.8018 32.5456 24.6565 33.3611 25.7106 33.3611C25.7597 33.3611 25.808 33.3586 25.8562 33.3552C26.195 33.8622 26.7891 34.1984 27.4658 34.1984C28.1424 34.1984 28.7366 33.8622 29.0758 33.3552C29.1236 33.3586 29.1723 33.3611 29.221 33.3611C30.275 33.3611 31.1298 32.5456 31.1298 31.54C31.1298 30.6533 30.4655 29.9152 29.5861 29.7527L28.8493 23.385" fill="#333333"/>
    <path d="M27.4657 34.2405C26.8044 34.2405 26.1963 33.9265 25.8334 33.399C25.7882 33.4019 25.7487 33.4032 25.7105 33.4032C24.6337 33.4032 23.7578 32.5675 23.7578 31.5402C23.7578 30.6602 24.4068 29.8986 25.3055 29.7178L26.0392 23.3806C26.0418 23.3576 26.0637 23.3412 26.0874 23.3438C26.1116 23.3463 26.1287 23.3672 26.126 23.3898L25.3889 29.7571C25.3867 29.7755 25.3726 29.7902 25.3537 29.7935C24.4796 29.9551 23.8456 30.6895 23.8456 31.5397C23.8456 32.5207 24.6819 33.319 25.7105 33.319C25.7531 33.319 25.7983 33.3173 25.8527 33.3132C25.8689 33.3119 25.8843 33.3194 25.893 33.3324C26.2379 33.8482 26.8259 34.1563 27.4657 34.1563C28.1055 34.1563 28.6935 33.8482 29.0384 33.3324C29.0472 33.3194 29.0625 33.3119 29.0788 33.3132C29.1332 33.3169 29.1784 33.319 29.2209 33.319C30.2491 33.319 31.0859 32.5211 31.0859 31.5397C31.0859 30.6895 30.4513 29.9547 29.5772 29.7935C29.5584 29.7902 29.5439 29.7751 29.5421 29.7571L28.8049 23.3898C28.8023 23.3668 28.8194 23.3463 28.8436 23.3438C28.8681 23.3412 28.8892 23.358 28.8918 23.3806L29.6251 29.7178C30.5237 29.8986 31.1727 30.6602 31.1727 31.5402C31.1727 32.5675 30.2969 33.4032 29.2201 33.4032C29.1823 33.4032 29.1428 33.4019 29.0972 33.399C28.7352 33.9265 28.127 34.2405 27.4657 34.2405Z" fill="#333333"/>
    <path d="M26.0827 22.5479L25.3455 28.9156C24.4661 29.078 23.8018 29.8165 23.8018 30.7028C23.8018 31.7084 24.6565 32.524 25.7106 32.524C25.7597 32.524 25.808 32.5214 25.8562 32.5181C26.195 33.0251 26.7891 33.3613 27.4658 33.3613C28.1424 33.3613 28.7366 33.0251 29.0758 32.5181C29.1236 32.5214 29.1723 32.524 29.221 32.524C30.275 32.524 31.1298 31.7084 31.1298 30.7028C31.1298 29.8161 30.4655 29.078 29.5861 28.9156L28.8493 22.5479" fill="#7FD6C7"/>
    <path d="M27.4657 33.4031C26.8044 33.4031 26.1963 33.0891 25.8334 32.5616C25.7882 32.5645 25.7487 32.5658 25.7105 32.5658C24.6337 32.5658 23.7578 31.7301 23.7578 30.7028C23.7578 29.8228 24.4068 29.0612 25.3055 28.8804L26.0392 22.5432C26.0418 22.5202 26.0637 22.5038 26.0874 22.5064C26.1116 22.5089 26.1287 22.5298 26.126 22.5524L25.3889 28.9197C25.3867 28.9381 25.3726 28.9528 25.3537 28.9561C24.4796 29.1177 23.8456 29.8521 23.8456 30.7023C23.8456 31.6833 24.6819 32.4816 25.7105 32.4816C25.7531 32.4816 25.7983 32.4799 25.8527 32.4758C25.8689 32.4745 25.8843 32.482 25.893 32.495C26.2379 33.0108 26.8259 33.3189 27.4657 33.3189C28.1055 33.3189 28.6935 33.0108 29.0384 32.495C29.0472 32.482 29.0625 32.4745 29.0788 32.4758C29.1332 32.4795 29.1784 32.4816 29.2209 32.4816C30.2491 32.4816 31.0859 31.6837 31.0859 30.7023C31.0859 29.8521 30.4513 29.1173 29.5772 28.9561C29.5584 28.9528 29.5439 28.9377 29.5421 28.9197L29.0301 24.4941C29.0274 24.4711 29.0445 24.4506 29.0687 24.4481C29.0932 24.4456 29.1143 24.4623 29.1169 24.4849L29.6255 28.8804C30.5242 29.0612 31.1732 29.8228 31.1732 30.7028C31.1732 31.7301 30.2973 32.5658 29.2205 32.5658C29.1828 32.5658 29.1433 32.5645 29.0976 32.5616C28.7352 33.0891 28.127 33.4031 27.4657 33.4031ZM28.977 23.6995C28.955 23.6995 28.9357 23.6836 28.9335 23.6623L28.8049 22.5528C28.8023 22.5298 28.8194 22.5093 28.8436 22.5068C28.8681 22.5043 28.8892 22.521 28.8918 22.5436L29.0204 23.6531C29.023 23.6761 29.0055 23.6966 28.9818 23.6991C28.98 23.6995 28.9787 23.6995 28.977 23.6995Z" fill="#333333"/>
    <path d="M26.9654 29.3634C26.9641 29.3634 26.9632 29.3634 26.9619 29.3634C26.9377 29.3617 26.9197 29.3416 26.9215 29.3186L26.9829 28.565C26.9847 28.542 27.0057 28.5248 27.0299 28.5265C27.054 28.5282 27.072 28.5483 27.0702 28.5713L27.0088 29.3249C27.0075 29.3466 26.9882 29.3634 26.9654 29.3634Z" fill="#333333"/>
    <path d="M27.4658 29.3635C27.4416 29.3635 27.4219 29.3446 27.4219 29.3216V28.568C27.4219 28.545 27.4416 28.5261 27.4658 28.5261C27.4899 28.5261 27.5096 28.545 27.5096 28.568V29.3216C27.5096 29.3446 27.4899 29.3635 27.4658 29.3635Z" fill="#333333"/>
    <path d="M27.9653 29.3637C27.9425 29.3637 27.9232 29.3469 27.9215 29.3252L27.9179 29.2812C27.9162 29.2582 27.9342 29.2381 27.9583 29.2364C27.9829 29.2347 28.0035 29.2519 28.0053 29.2749L28.0088 29.3189C28.0105 29.3419 27.9925 29.362 27.9684 29.3637C27.9675 29.3632 27.9666 29.3637 27.9653 29.3637ZM27.928 28.9023C27.9052 28.9023 27.8859 28.8856 27.8842 28.8638L27.8605 28.5716C27.8587 28.5486 27.8767 28.5285 27.9008 28.5268C27.9254 28.5247 27.946 28.5423 27.9478 28.5653L27.9715 28.8575C27.9732 28.8805 27.9552 28.9006 27.9311 28.9023C27.9302 28.9023 27.9289 28.9023 27.928 28.9023Z" fill="#333333"/>
    <path d="M20.9164 28.8087C20.9164 29.3793 20.0178 29.4229 18.9089 29.4229C17.8005 29.4229 16.9014 29.3789 16.9014 28.8087C16.9014 28.2381 17.8 27.7759 18.9089 27.7759C20.0178 27.7755 20.9164 28.2381 20.9164 28.8087Z" fill="#7FD6C7"/>
    <path d="M38.0297 28.8087C38.0297 29.3793 37.131 29.4228 36.0222 29.4228C34.9133 29.4228 34.0146 29.3789 34.0146 28.8087C34.0146 28.2381 34.9133 27.7759 36.0222 27.7759C37.131 27.7759 38.0297 28.2381 38.0297 28.8087Z" fill="#7FD6C7"/>
    <path d="M23.0963 23.729C23.0963 23.729 21.3516 25.8223 19.1993 25.8223C17.0469 25.8223 15.3022 23.729 15.3022 23.729C15.3022 23.729 17.0469 21.6357 19.1993 21.6357C21.3516 21.6357 23.0963 23.729 23.0963 23.729Z" fill="white"/>
    <path d="M19.1996 25.8642C17.0512 25.8642 15.2859 23.7764 15.2683 23.755C15.2556 23.7399 15.2556 23.7182 15.2683 23.7027C15.2859 23.6818 17.0512 21.5935 19.1996 21.5935C21.348 21.5935 23.1133 23.6813 23.1308 23.7027C23.1436 23.7178 23.1436 23.7395 23.1308 23.755C23.1128 23.7764 21.348 25.8642 19.1996 25.8642ZM15.3592 23.7291C15.5698 23.9694 17.2232 25.7805 19.1991 25.7805C21.1751 25.7805 22.8285 23.9694 23.0391 23.7291C22.8285 23.4888 21.1751 21.6777 19.1991 21.6777C17.2223 21.6777 15.5698 23.4888 15.3592 23.7291Z" fill="#333333"/>
    <path d="M21.3934 23.729C21.3934 24.8849 20.4109 25.8223 19.1994 25.8223C17.9879 25.8223 17.0054 24.8849 17.0054 23.729C17.0054 22.5731 17.9879 21.6357 19.1994 21.6357C20.4109 21.6357 21.3934 22.5731 21.3934 23.729Z" fill="#333333"/>
    <path d="M19.1993 25.864C17.9654 25.864 16.9614 24.9061 16.9614 23.7289C16.9614 22.5516 17.9654 21.5938 19.1993 21.5938C20.4333 21.5938 21.4372 22.5516 21.4372 23.7289C21.4372 24.9061 20.4333 25.864 19.1993 25.864ZM19.1993 21.6775C18.0137 21.6775 17.0492 22.5977 17.0492 23.7289C17.0492 24.8601 18.0137 25.7803 19.1993 25.7803C20.385 25.7803 21.3495 24.8601 21.3495 23.7289C21.3495 22.5977 20.3845 21.6775 19.1993 21.6775Z" fill="#333333"/>
    <path d="M20.5156 23.7289C20.5156 24.4226 19.9263 24.9848 19.1992 24.9848C18.4721 24.9848 17.8828 24.4226 17.8828 23.7289C17.8828 23.0352 18.4721 22.4729 19.1992 22.4729C19.9259 22.4729 20.5156 23.0356 20.5156 23.7289Z" fill="white"/>
    <path d="M19.1992 25.0268C18.4492 25.0268 17.8389 24.4445 17.8389 23.729C17.8389 23.0135 18.4492 22.4312 19.1992 22.4312C19.9491 22.4312 20.5595 23.0135 20.5595 23.729C20.5595 24.4445 19.9491 25.0268 19.1992 25.0268ZM19.1992 22.5149C18.4975 22.5149 17.9266 23.0596 17.9266 23.729C17.9266 24.3984 18.4975 24.9431 19.1992 24.9431C19.9008 24.9431 20.4717 24.3984 20.4717 23.729C20.4717 23.0596 19.9008 22.5149 19.1992 22.5149Z" fill="#333333"/>
    <path d="M19.1992 26.7432C19.175 26.7432 19.1553 26.7244 19.1553 26.7013C19.1553 26.6783 19.175 26.6595 19.1992 26.6595C21.3059 26.6595 23.0444 24.6026 23.0615 24.5821C23.0764 24.5641 23.1041 24.5612 23.1234 24.5754C23.1423 24.5896 23.1453 24.616 23.1304 24.6344C23.1124 24.6554 21.3476 26.7432 19.1992 26.7432Z" fill="#333333"/>
    <path d="M31.8354 23.729C31.8354 23.729 33.5801 25.8223 35.7325 25.8223C37.8848 25.8223 39.6295 23.729 39.6295 23.729C39.6295 23.729 37.8848 21.6357 35.7325 21.6357C33.5801 21.6357 31.8354 23.729 31.8354 23.729Z" fill="white"/>
    <path d="M35.7318 25.8642C33.5834 25.8642 31.8181 23.7764 31.8006 23.755C31.7878 23.7399 31.7878 23.7182 31.8006 23.7027C31.8181 23.6818 33.5834 21.5935 35.7318 21.5935C37.8802 21.5935 39.6456 23.6813 39.6631 23.7027C39.6758 23.7178 39.6758 23.7395 39.6631 23.755C39.6456 23.7764 37.8802 25.8642 35.7318 25.8642ZM31.8918 23.7291C32.1025 23.9694 33.7559 25.7805 35.7318 25.7805C37.7078 25.7805 39.3612 23.9694 39.5718 23.7291C39.3612 23.4888 37.7078 21.6777 35.7318 21.6777C33.7559 21.6777 32.1025 23.4888 31.8918 23.7291Z" fill="#333333"/>
    <path d="M33.5381 23.729C33.5381 24.8849 34.5206 25.8223 35.7321 25.8223C36.9437 25.8223 37.9261 24.8849 37.9261 23.729C37.9261 22.5731 36.9437 21.6357 35.7321 21.6357C34.5206 21.6357 33.5381 22.5731 33.5381 23.729Z" fill="#333333"/>
    <path d="M35.7321 25.864C34.4981 25.864 33.4941 24.9061 33.4941 23.7289C33.4941 22.5516 34.4981 21.5938 35.7321 21.5938C36.966 21.5938 37.97 22.5516 37.97 23.7289C37.97 24.9061 36.966 25.864 35.7321 25.864ZM35.7321 21.6775C34.5464 21.6775 33.5819 22.5977 33.5819 23.7289C33.5819 24.8601 34.5464 25.7803 35.7321 25.7803C36.9177 25.7803 37.8822 24.8601 37.8822 23.7289C37.8822 22.5977 36.9177 21.6775 35.7321 21.6775Z" fill="#333333"/>
    <path d="M34.416 23.7289C34.416 24.4226 35.0053 24.9848 35.7324 24.9848C36.4595 24.9848 37.0488 24.4226 37.0488 23.7289C37.0488 23.0352 36.4595 22.4729 35.7324 22.4729C35.0053 22.4729 34.416 23.0356 34.416 23.7289Z" fill="white"/>
    <path d="M35.7324 25.0268C34.9824 25.0268 34.3721 24.4445 34.3721 23.729C34.3721 23.0135 34.9824 22.4312 35.7324 22.4312C36.4823 22.4312 37.0927 23.0135 37.0927 23.729C37.0927 24.4445 36.4823 25.0268 35.7324 25.0268ZM35.7324 22.5149C35.0307 22.5149 34.4598 23.0596 34.4598 23.729C34.4598 24.3984 35.0307 24.9431 35.7324 24.9431C36.434 24.9431 37.0049 24.3984 37.0049 23.729C37.0049 23.0596 36.434 22.5149 35.7324 22.5149Z" fill="#333333"/>
    <path d="M35.7322 26.7431C35.5172 26.7431 35.2965 26.7222 35.0762 26.6808C35.0525 26.6762 35.0367 26.6544 35.0415 26.6318C35.0463 26.6092 35.0692 26.5941 35.0928 26.5987C35.3079 26.6389 35.5229 26.6594 35.7322 26.6594C35.7563 26.6594 35.7761 26.6783 35.7761 26.7013C35.7761 26.7243 35.7563 26.7431 35.7322 26.7431ZM34.6597 26.5774C34.6554 26.5774 34.651 26.5765 34.6466 26.5753C33.0221 26.0821 31.8132 24.6486 31.8009 24.634C31.786 24.616 31.7891 24.5896 31.808 24.5749C31.8268 24.5607 31.8545 24.5636 31.8694 24.5816C31.8812 24.5959 33.0744 26.0097 34.6729 26.4953C34.6962 26.5024 34.7089 26.5259 34.7014 26.5481C34.6957 26.5661 34.6782 26.5774 34.6597 26.5774Z" fill="#333333"/>
    <path d="M23.005 20.9937C22.9936 20.9937 22.9826 20.9895 22.9738 20.9816C22.6281 20.6517 22.2388 20.3691 21.8172 20.1418C21.7961 20.1305 21.7886 20.1049 21.8005 20.0848C21.8123 20.0647 21.8391 20.0576 21.8602 20.0689C22.2889 20.3 22.6842 20.5868 23.0357 20.9221C23.0528 20.9385 23.0528 20.9648 23.0357 20.9812C23.0274 20.9899 23.0164 20.9937 23.005 20.9937ZM15.3623 20.9937C15.3509 20.9937 15.34 20.9895 15.3312 20.9816C15.3141 20.9652 15.3141 20.9389 15.3312 20.9225C16.3602 19.9408 17.7284 19.3999 19.1839 19.3999C19.9685 19.3999 20.7583 19.5649 21.467 19.8767C21.4889 19.8864 21.4986 19.9115 21.4885 19.9324C21.4784 19.9534 21.4521 19.9626 21.4301 19.9529C20.7324 19.6461 19.9557 19.4836 19.1839 19.4836C17.7521 19.4836 16.4058 20.0157 15.3935 20.9816C15.3847 20.9899 15.3738 20.9937 15.3623 20.9937Z" fill="#333333"/>
    <path d="M39.5685 20.9937C39.5571 20.9937 39.5461 20.9895 39.5374 20.9816C38.525 20.0157 37.1792 19.4836 35.7474 19.4836C34.3156 19.4836 32.9693 20.0157 31.957 20.9816C31.9399 20.9979 31.9123 20.9979 31.8952 20.9816C31.878 20.9652 31.878 20.9389 31.8952 20.9225C32.9237 19.9408 34.2919 19.3999 35.7474 19.3999C37.2025 19.3999 38.5707 19.9408 39.5997 20.9225C39.6168 20.9389 39.6168 20.9652 39.5997 20.9816C39.5913 20.9899 39.5799 20.9937 39.5685 20.9937Z" fill="#333333"/>
</g>
<path d="M56.8565 61.7937V55.7937H55.2725V61.5897C55.2725 62.4777 54.8285 62.8137 54.0965 62.8137C53.6645 62.8137 53.4125 62.7657 53.1485 62.6937L53.3645 64.0737C53.5805 64.1097 53.9405 64.1577 54.3125 64.1577C55.8005 64.1577 56.8565 63.4737 56.8565 61.7937ZM60.702 59.1537C61.398 59.1537 61.758 59.6577 61.854 60.5577H59.538C59.646 59.6217 60.126 59.1537 60.702 59.1537ZM63.246 63.4857L63.078 62.3577C62.442 62.8017 61.83 63.0777 61.086 63.0777C60.198 63.0777 59.586 62.5857 59.526 61.4577H63.246C63.246 61.3737 63.258 61.2297 63.258 61.1097C63.258 59.4657 62.478 58.1577 60.738 58.1577C59.226 58.1577 58.098 59.2977 58.098 61.1817C58.098 63.2697 59.31 64.1937 60.93 64.1937C61.866 64.1937 62.622 63.9177 63.246 63.4857ZM68.7175 62.3697C68.7175 61.2777 68.1295 60.8697 66.6295 60.4857C65.7655 60.2577 65.5495 60.0777 65.5495 59.7657C65.5495 59.4537 65.8135 59.2377 66.3535 59.2377C66.9295 59.2377 67.6135 59.4417 68.1895 59.7657L68.3815 58.5657C67.8055 58.3137 67.1095 58.1577 66.3535 58.1577C65.0095 58.1577 64.2175 58.8657 64.2175 59.8737C64.2175 60.9297 64.8055 61.3377 66.2095 61.6977C67.1335 61.9257 67.3855 62.0937 67.3855 62.5017C67.3855 62.8857 67.0495 63.1137 66.4255 63.1137C65.7055 63.1137 64.9375 62.8377 64.3135 62.4297L64.1215 63.6297C64.6735 63.9297 65.5375 64.1937 66.3775 64.1937C67.9015 64.1937 68.7175 63.5097 68.7175 62.3697ZM69.835 58.2777V62.4417C69.835 63.5337 70.399 64.1937 71.491 64.1937C72.259 64.1937 72.883 63.7737 73.423 63.2577L73.555 64.0737H74.779V58.2777H73.339V62.1897C72.919 62.6217 72.463 62.9097 72.019 62.9097C71.491 62.9097 71.275 62.5737 71.275 62.0697V58.2777H69.835ZM79.7377 59.5857L79.5097 58.1577C78.6097 58.2057 78.0337 58.7697 77.6497 59.4417L77.4697 58.2777H76.2457V64.0737H77.6857V60.7497C78.1057 60.1257 78.8377 59.6457 79.7377 59.5857ZM84.2039 64.1577L85.7399 63.9297L83.4719 60.8937L85.6079 58.2777H83.9759L82.0919 60.6777V55.4097L80.6519 55.6377V64.0737H82.0919V61.1937L84.2039 64.1577ZM89.6324 62.4777C89.2364 62.8617 88.7684 63.1017 88.2764 63.1017C87.8324 63.1017 87.5684 62.8497 87.5684 62.4297C87.5684 61.8777 87.9644 61.3857 89.6324 61.1817V62.4777ZM91.0724 64.0737V60.1017C91.0724 58.7097 90.3284 58.1577 88.8284 58.1577C87.9044 58.1577 87.1964 58.3617 86.5244 58.6257L86.7044 59.7777C87.3284 59.5017 87.9644 59.3097 88.6364 59.3097C89.2724 59.3097 89.6324 59.5497 89.6324 60.1737V60.3417C87.2924 60.5697 86.1404 61.1817 86.1404 62.5857C86.1404 63.5937 86.8004 64.1937 87.7844 64.1937C88.6484 64.1937 89.2484 63.8097 89.7164 63.3177L89.8364 64.0737H91.0724Z" fill="white"/>
<path d="M56.4845 82.4766L56.3405 81.5646C56.2085 81.5886 56.0405 81.6006 55.8485 81.6006C55.2485 81.6006 55.0565 81.3126 55.0565 80.8446V77.6286H56.4365L56.2925 76.7286H55.0565V74.6646L54.0125 74.8206V76.7286H53.1485V77.6286H54.0125V81.0366C54.0125 82.1886 54.6725 82.5486 55.6805 82.5486C56.0525 82.5486 56.3045 82.5126 56.4845 82.4766ZM62.4475 82.4526V78.2886C62.4475 77.2566 61.8715 76.6086 60.7915 76.6086C59.9755 76.6086 59.3155 77.0646 58.8475 77.4846V73.7886L57.7795 73.9566V82.4526H58.8475V78.4926C59.3635 77.9406 59.9395 77.5686 60.5035 77.5686C61.1275 77.5686 61.3795 77.9646 61.3795 78.5526V82.4526H62.4475ZM67.3716 80.8806C66.8916 81.3726 66.2916 81.6846 65.6676 81.6846C65.1276 81.6846 64.8156 81.3846 64.8156 80.9166C64.8156 80.3286 65.2596 79.7526 67.3716 79.5486V80.8806ZM68.4396 82.4526V78.4446C68.4396 77.1726 67.7676 76.6086 66.3756 76.6086C65.4876 76.6086 64.8396 76.8126 64.1556 77.0886L64.2996 78.0126C64.9236 77.7366 65.5836 77.5206 66.2796 77.5206C66.9396 77.5206 67.3716 77.7726 67.3716 78.4926V78.7326C64.9836 78.9846 63.7596 79.5486 63.7596 80.9766C63.7596 81.9486 64.4076 82.5726 65.4396 82.5726C66.3756 82.5726 66.9996 82.1526 67.4556 81.6846L67.5756 82.4526H68.4396ZM74.7639 82.4526V78.2886C74.7639 77.2566 74.1879 76.6086 73.1079 76.6086C72.2919 76.6086 71.6199 77.0646 71.0799 77.5566L70.9479 76.7286H70.0959V82.4526H71.1639V78.4926C71.6799 77.9406 72.2559 77.5686 72.8199 77.5686C73.4439 77.5686 73.6959 77.9646 73.6959 78.5526V82.4526H74.7639ZM80.036 82.5366L81.2 82.3566L78.584 79.2606L80.996 76.7286H79.712L77.492 79.1286V73.7886L76.424 73.9566V82.4526H77.492V79.4526L80.036 82.5366ZM86.0919 80.8566C86.0919 79.7646 85.4559 79.3566 84.0399 78.9966C83.1399 78.7686 82.8519 78.5526 82.8519 78.1686C82.8519 77.7606 83.1879 77.5086 83.8359 77.5086C84.4359 77.5086 85.0719 77.7126 85.5759 78.0006L85.7439 76.9926C85.2039 76.7526 84.5679 76.6086 83.8599 76.6086C82.6119 76.6086 81.8439 77.2806 81.8439 78.1926C81.8439 79.2126 82.3839 79.6206 83.7279 79.9566C84.7599 80.2086 85.0839 80.4006 85.0839 80.9286C85.0839 81.4086 84.6519 81.6846 83.9199 81.6846C83.1399 81.6846 82.4439 81.3966 81.9039 81.0246L81.7479 82.0326C82.2399 82.3086 83.0799 82.5726 83.8359 82.5726C85.3119 82.5726 86.0919 81.9006 86.0919 80.8566ZM88.8445 74.1726H87.5605L87.8485 79.9926L88.5445 79.8366L88.8445 74.1726ZM88.7965 82.4526V81.0246H87.5965V82.4526H88.7965ZM92.114 74.1726H90.83L91.118 79.9926L91.814 79.8366L92.114 74.1726ZM92.066 82.4526V81.0246H90.866V82.4526H92.066ZM97.8762 74.9046C97.8762 74.5326 97.5762 74.2206 97.2042 74.2206C96.8322 74.2206 96.5202 74.5326 96.5202 74.9046C96.5202 75.2766 96.8322 75.5766 97.2042 75.5766C97.5762 75.5766 97.8762 75.2766 97.8762 74.9046ZM97.7322 82.4526V76.7286H96.6642V82.4526H97.7322ZM110.259 82.4526V78.2886C110.259 77.2566 109.731 76.6086 108.639 76.6086C107.835 76.6086 107.139 77.0646 106.623 77.5566C106.407 76.9686 105.951 76.6086 105.111 76.6086C104.307 76.6086 103.659 77.0646 103.119 77.5566L102.987 76.7286H102.135V82.4526H103.203V78.4926C103.719 77.9406 104.259 77.5686 104.823 77.5686C105.447 77.5686 105.663 77.9646 105.663 78.5526V82.4526H106.731V78.4926C107.247 77.9406 107.787 77.5686 108.351 77.5686C108.975 77.5686 109.191 77.9646 109.191 78.5526V82.4526H110.259ZM115.184 80.8806C114.704 81.3726 114.104 81.6846 113.48 81.6846C112.94 81.6846 112.628 81.3846 112.628 80.9166C112.628 80.3286 113.072 79.7526 115.184 79.5486V80.8806ZM116.252 82.4526V78.4446C116.252 77.1726 115.58 76.6086 114.188 76.6086C113.3 76.6086 112.652 76.8126 111.968 77.0886L112.112 78.0126C112.736 77.7366 113.396 77.5206 114.092 77.5206C114.752 77.5206 115.184 77.7726 115.184 78.4926V78.7326C112.796 78.9846 111.572 79.5486 111.572 80.9766C111.572 81.9486 112.22 82.5726 113.252 82.5726C114.188 82.5726 114.812 82.1526 115.268 81.6846L115.388 82.4526H116.252ZM118.664 79.7046C118.664 78.2886 119.312 77.5566 120.212 77.5566C120.824 77.5566 121.172 77.6526 121.616 77.8806V80.6166C121.16 81.2286 120.656 81.6246 119.996 81.6246C119.228 81.6246 118.664 80.9646 118.664 79.7046ZM117.584 79.7526C117.584 81.6726 118.604 82.5726 119.84 82.5726C120.68 82.5726 121.268 82.1406 121.7 81.6246L121.832 82.4526H122.684V73.7886L121.616 73.9566V76.9086C121.256 76.7646 120.74 76.6566 120.176 76.6566C118.784 76.6566 117.584 77.6646 117.584 79.7526ZM126.549 77.4486C127.377 77.4486 127.785 77.9766 127.917 78.9006H125.157C125.325 77.9286 125.889 77.4486 126.549 77.4486ZM128.985 81.8046L128.829 80.8446C128.205 81.3366 127.605 81.6606 126.777 81.6606C125.781 81.6606 125.157 81.0366 125.109 79.7046H128.997V79.4766C128.997 77.8926 128.229 76.6086 126.561 76.6086C125.121 76.6086 124.041 77.7366 124.041 79.5726C124.041 81.6726 125.205 82.5726 126.693 82.5726C127.641 82.5726 128.373 82.2846 128.985 81.8046ZM134.286 74.9046C134.286 74.5326 133.986 74.2206 133.614 74.2206C133.242 74.2206 132.93 74.5326 132.93 74.9046C132.93 75.2766 133.242 75.5766 133.614 75.5766C133.986 75.5766 134.286 75.2766 134.286 74.9046ZM134.142 82.4526V76.7286H133.074V82.4526H134.142ZM138.656 82.4766L138.512 81.5646C138.38 81.5886 138.212 81.6006 138.02 81.6006C137.42 81.6006 137.228 81.3126 137.228 80.8446V77.6286H138.608L138.464 76.7286H137.228V74.6646L136.184 74.8206V76.7286H135.32V77.6286H136.184V81.0366C136.184 82.1886 136.844 82.5486 137.852 82.5486C138.224 82.5486 138.476 82.5126 138.656 82.4766ZM141.391 74.1726H140.107L140.395 79.9926L141.091 79.8366L141.391 74.1726ZM141.343 82.4526V81.0246H140.143V82.4526H141.343Z" fill="#DCDDDE"/>
<g clip-path="url(#clip1)">
    <path d="M153.65 75.6927H155.123C155.238 75.6927 155.344 75.6311 155.403 75.5298L156.777 73.1145C157.257 72.2712 158.489 72.3109 158.903 73.1894C160.636 76.853 162.614 84.7474 159.151 84.7474H154.724V84.7429L148.7 84.7474C148.309 84.7474 147.95 84.4776 147.76 84.1331C146.85 82.4807 146.701 80.3263 147.481 78.6254C147.695 78.1587 148.926 76.099 148.987 75.9338L150.555 72.9681C150.895 72.3252 151.817 72.3406 152.135 72.9945L153.361 75.5111C153.415 75.6223 153.527 75.6927 153.65 75.6927Z" fill="#FFFBF0"/>
    <path d="M158.769 80.5562C156.877 80.5562 156.874 83.5065 158.769 83.5065C160.66 83.5065 160.663 80.5562 158.769 80.5562Z" fill="#FFBEB3"/>
    <path d="M148.24 80.4341C146.347 80.4341 146.344 83.3866 148.24 83.3866C150.133 83.3866 150.136 80.4341 148.24 80.4341Z" fill="#FFBEB3"/>
    <path d="M150.38 81.9874C149.099 81.9026 148.994 83.7851 148.959 84.7473H149.609C149.637 84.1088 149.769 82.1977 150.614 82.7855C151.174 83.1763 151.176 84.1077 151.157 84.7473H151.806C151.823 83.7774 151.627 82.07 150.38 81.9874Z" fill="#CCB2CE"/>
    <path d="M156.303 81.9874C155.022 81.9026 154.916 83.7851 154.881 84.7473H155.532C155.559 84.1088 155.692 82.1977 156.536 82.7855C157.097 83.1763 157.098 84.1077 157.079 84.7473H157.729C157.745 83.7774 157.55 82.07 156.303 81.9874Z" fill="#CCB2CE"/>
    <path d="M154.369 80.1533C154.335 80.4923 154.002 80.8314 153.822 80.3812C153.725 80.1368 153.357 80.0674 153.199 80.2953C153.069 80.4846 152.851 80.8854 152.511 80.5628C152.399 80.456 152.353 80.1984 152.309 80.0597C152.17 79.6117 151.497 79.8913 151.637 80.3371C151.782 80.8061 152.019 81.3048 152.541 81.4314C152.896 81.5173 153.19 81.3741 153.43 81.1518C153.616 81.3642 153.868 81.4677 154.231 81.3587C154.723 81.2112 155.039 80.7599 155.088 80.2612C155.134 79.7944 154.415 79.6854 154.369 80.1533Z" fill="#745A77"/>
    <path d="M158.183 79.592C158.142 79.0779 157.353 79.1891 157.393 79.701C157.415 79.9817 157.383 80.64 156.95 80.6103C156.547 80.5817 156.583 79.8584 156.567 79.5975C156.541 79.1714 155.835 79.1681 155.813 79.5986C155.774 80.3615 156.02 81.4282 156.985 81.404C157.933 81.3809 158.245 80.3846 158.183 79.592Z" fill="#745A77"/>
    <path d="M151.132 79.592C151.092 79.0779 150.302 79.1891 150.342 79.701C150.364 79.9817 150.333 80.64 149.899 80.6103C149.496 80.5817 149.532 79.8584 149.517 79.5975C149.49 79.1714 148.784 79.1681 148.762 79.5986C148.724 80.3615 148.969 81.4282 149.934 81.404C150.882 81.3809 151.195 80.3846 151.132 79.592Z" fill="#745A77"/>
    <path d="M148.324 81.5912C148.351 81.5956 148.375 81.5978 148.4 81.5978C148.607 81.5978 148.759 81.4348 148.792 81.2565C148.829 81.0506 148.714 80.8811 148.51 80.8437C147.99 80.749 147.469 80.6235 146.962 80.4694C146.832 80.4298 146.702 80.4584 146.609 80.5464C146.506 80.6444 146.46 80.7985 146.494 80.9406C146.525 81.0727 146.619 81.1706 146.754 81.2114C147.267 81.3666 147.796 81.4943 148.324 81.5912Z" fill="#745A77"/>
    <path d="M148.337 82.1117C147.843 82.2416 147.344 82.3792 146.857 82.5212C146.621 82.5895 146.55 82.8196 146.601 83.0012C146.645 83.152 146.773 83.2797 146.95 83.2797C146.986 83.2797 147.024 83.2742 147.063 83.2632C147.549 83.1223 148.046 82.9847 148.538 82.8559C148.671 82.8207 148.766 82.7293 148.801 82.6038C148.839 82.4662 148.798 82.3098 148.697 82.2064C148.604 82.1106 148.472 82.0765 148.337 82.1117Z" fill="#745A77"/>
    <path d="M158.626 81.7916C158.66 81.7916 158.696 81.7872 158.732 81.7773C159.27 81.6364 159.812 81.479 160.342 81.3084C160.581 81.2313 160.647 80.9946 160.587 80.8097C160.532 80.6346 160.356 80.4948 160.129 80.5675C159.603 80.737 159.064 80.8933 158.531 81.0331C158.295 81.0948 158.221 81.3117 158.268 81.4955C158.309 81.6551 158.441 81.7916 158.626 81.7916Z" fill="#745A77"/>
    <path d="M160.911 82.7548C160.853 82.6171 160.735 82.528 160.588 82.5093C159.974 82.4322 159.337 82.3298 158.695 82.2043C158.554 82.1768 158.419 82.223 158.326 82.3298C158.229 82.441 158.195 82.5984 158.24 82.7283C158.28 82.8439 158.377 82.9254 158.507 82.9507C159.167 83.0795 159.858 83.1885 160.561 83.2777C160.579 83.2799 160.596 83.281 160.614 83.281C160.72 83.281 160.811 83.238 160.873 83.1566C160.954 83.0498 160.969 82.8924 160.911 82.7548Z" fill="#745A77"/>
</g>
<ellipse cx="27.4655" cy="69.4316" rx="17.2931" ry="17.3579" fill="#69C49A"/>
<path d="M16.6908 61.4368L16.7599 61.6321C16.9954 62.2989 17.3897 62.9013 17.9 63.3749L17.9254 63.3984C18.2629 63.7119 18.5508 64.0758 18.7809 64.48C19.14 65.1109 19.6514 65.641 20.2601 66.0139C20.2606 66.0139 20.2606 66.0144 20.2612 66.0144C20.6511 66.2529 21.0021 66.5513 21.3046 66.9012L21.3278 66.9281C21.7847 67.4565 22.3663 67.8652 23.009 68.1093L23.198 68.181C23.5167 68.3019 23.8223 68.462 24.1064 68.6557L24.8474 69.1612L24.3592 68.3931C24.1723 68.0992 24.0184 67.7818 23.9012 67.4515L23.8321 67.2561C23.5966 66.5894 23.2023 65.987 22.692 65.5134L22.6666 65.4899C22.3291 65.1764 22.0412 64.8125 21.8111 64.4083C21.452 63.7779 20.9406 63.2478 20.3325 62.8749C20.3319 62.8744 20.3314 62.8744 20.3308 62.8738C19.9409 62.6353 19.5899 62.337 19.2874 61.9871L19.2642 61.9607C18.8073 61.4317 18.2257 61.023 17.583 60.779L17.394 60.7073C17.0748 60.5858 16.7691 60.4263 16.4856 60.2326L15.7446 59.7271L16.2328 60.4951C16.4197 60.7885 16.5736 61.1053 16.6908 61.4368ZM20.2957 63.5624C20.7645 63.5624 21.1458 63.9576 21.1458 64.4436C21.1458 64.9295 20.7645 65.3247 20.2957 65.3247C19.827 65.3247 19.4457 64.9295 19.4457 64.4436C19.4457 63.9576 19.827 63.5624 20.2957 63.5624Z" fill="#FFF9C6"/>
<path d="M17.7559 63.5414L17.7813 63.5649C18.1021 63.8627 18.3759 64.2087 18.5946 64.5933C18.9726 65.2567 19.5105 65.8148 20.1511 66.2067C20.1516 66.2067 20.1516 66.2073 20.1521 66.2073C20.5226 66.434 20.8564 66.7179 21.1431 67.0498L21.1664 67.0767C21.647 67.6326 22.2584 68.062 22.9345 68.319L23.1236 68.3906C23.4271 68.5059 23.7176 68.6577 23.9877 68.8418L25.1666 69.6469C25.185 69.6592 25.2055 69.6653 25.226 69.6653C25.2541 69.6653 25.2816 69.6541 25.3022 69.6323C25.3384 69.5948 25.3443 69.536 25.3162 69.4918L24.5396 68.2691C24.3619 67.9892 24.215 67.688 24.1043 67.3734L24.0352 67.178C23.7873 66.4771 23.3731 65.8434 22.8368 65.3452L22.8114 65.3216C22.4906 65.0238 22.2168 64.6778 21.9981 64.2932C21.62 63.6298 21.0821 63.0717 20.4416 62.6798C20.4411 62.6793 20.4405 62.6793 20.44 62.6787C20.0695 62.452 19.7363 62.1687 19.4495 61.8362L19.4263 61.8098C18.9456 61.2539 18.3343 60.824 17.6581 60.5676L17.4691 60.4959C17.1656 60.3806 16.875 60.2289 16.605 60.0447L15.426 59.2397C15.3834 59.2106 15.3267 59.2162 15.2905 59.2542C15.2543 59.2917 15.2484 59.3505 15.2764 59.3947L16.0531 60.6168C16.2307 60.8968 16.3771 61.1979 16.4883 61.5126L16.5575 61.708C16.8048 62.4094 17.2196 63.0431 17.7559 63.5414ZM16.4856 60.2317C16.7692 60.4254 17.0749 60.5849 17.394 60.7064L17.5831 60.7781C18.2263 61.0222 18.8074 61.4308 19.2643 61.9599L19.2875 61.9862C19.5899 62.3361 19.9404 62.6339 20.3309 62.873C20.3314 62.8735 20.332 62.8735 20.3325 62.8741C20.9406 63.2464 21.4521 63.7771 21.8112 64.4074C22.0413 64.8116 22.3291 65.1755 22.6667 65.489L22.692 65.5125C23.2024 65.9862 23.5961 66.5891 23.8321 67.2553L23.9012 67.4507C24.0179 67.7815 24.1724 68.0984 24.3592 68.3923L24.8474 69.1604L24.1065 68.6549C23.8224 68.4612 23.5167 68.3016 23.1981 68.1801L23.0091 68.1085C22.3658 67.8644 21.7847 67.4557 21.3278 66.9272L21.3046 66.9004C21.0022 66.5505 20.6517 66.2526 20.2612 66.0136C20.2607 66.0136 20.2607 66.013 20.2601 66.013C19.6515 65.6402 19.1401 65.11 18.7809 64.4791C18.5503 64.0749 18.263 63.711 17.9255 63.3975L17.9001 63.374C17.3903 62.9004 16.996 62.2975 16.76 61.6313L16.6909 61.4359C16.5737 61.105 16.4198 60.7882 16.2329 60.4937L15.7447 59.7256L16.4856 60.2317Z" fill="#69C49A"/>
<path d="M20.2954 65.3253C20.7641 65.3253 21.1454 64.9301 21.1454 64.4442C21.1454 63.9582 20.7641 63.563 20.2954 63.563C19.8266 63.563 19.4453 63.9582 19.4453 64.4442C19.4453 64.9301 19.8266 65.3253 20.2954 65.3253Z" fill="#69C49A"/>
<path d="M39.1853 59.7263L38.4443 60.2318C38.1608 60.4255 37.8551 60.5851 37.5359 60.7066L37.3469 60.7782C36.7037 61.0223 36.1226 61.431 35.6657 61.96L35.6425 61.9869C35.34 62.3368 34.9895 62.6346 34.5991 62.8737C34.5985 62.8737 34.5985 62.8742 34.598 62.8742C33.9893 63.2471 33.4779 63.7772 33.1187 64.4081C32.8887 64.8123 32.6008 65.1762 32.2633 65.4897L32.2379 65.5132C31.7275 65.9868 31.3338 66.5898 31.0978 67.256L31.0287 67.4513C30.9115 67.7822 30.7576 68.0991 30.5707 68.393L30.0825 69.161L30.8235 68.6555C31.1076 68.4618 31.4132 68.3023 31.7319 68.1808L31.9209 68.1091C32.5641 67.865 33.1452 67.4564 33.6021 66.9273L33.6253 66.9005C33.9278 66.5506 34.2788 66.2522 34.6687 66.0137C35.2779 65.6409 35.7893 65.1107 36.149 64.4792C36.3791 64.075 36.6669 63.7111 37.0045 63.3976L37.0299 63.3741C37.5402 62.9005 37.9339 62.2976 38.1699 61.6314L38.2391 61.436C38.3563 61.1052 38.5102 60.7883 38.697 60.4938L39.1853 59.7263ZM34.6342 65.3251C34.1654 65.3251 33.7841 64.9299 33.7841 64.444C33.7841 63.958 34.1654 63.5628 34.6342 63.5628C35.1029 63.5628 35.4842 63.958 35.4842 64.444C35.4842 64.9299 35.1029 65.3251 34.6342 65.3251Z" fill="#FFF9C6"/>
<path d="M39.6413 59.2541C39.6051 59.2165 39.5484 59.2104 39.5057 59.2395L38.3268 60.0445C38.0567 60.2287 37.7662 60.3804 37.4627 60.4957L37.2736 60.5674C36.5975 60.8244 35.9861 61.2537 35.5055 61.8097L35.4822 61.8365C35.1949 62.1685 34.8617 62.4523 34.4912 62.6791C34.4907 62.6791 34.4907 62.6796 34.4902 62.6796C33.8502 63.0715 33.3117 63.6291 32.9337 64.293C32.7144 64.6776 32.4412 65.0236 32.1204 65.3214L32.095 65.3449C31.5587 65.8432 31.1439 66.4769 30.896 67.1778L30.8269 67.3732C30.7156 67.6878 30.5693 67.989 30.3916 68.2689L29.615 69.491C29.5869 69.5352 29.5923 69.594 29.629 69.6315C29.6501 69.6534 29.6776 69.6646 29.7057 69.6646C29.7262 69.6646 29.7468 69.6584 29.7651 69.6461L30.9441 68.841C31.2141 68.6569 31.5047 68.5052 31.8082 68.3898L31.9972 68.3182C32.6734 68.0612 33.2847 67.6318 33.7654 67.0759L33.7886 67.0491C34.0759 66.7165 34.4097 66.4327 34.7807 66.206C35.4212 65.8141 35.9591 65.2565 36.3372 64.5925C36.5559 64.2079 36.8297 63.862 37.1505 63.5641L37.1759 63.5406C37.7122 63.0424 38.1269 62.4087 38.3743 61.7078L38.4434 61.5124C38.5547 61.1978 38.701 60.8966 38.8787 60.6167L39.6553 59.3946C39.6829 59.3503 39.6775 59.2916 39.6413 59.2541ZM38.1707 61.6316C37.9352 62.2984 37.541 62.9008 37.0306 63.3744L37.0052 63.3979C36.6677 63.7114 36.3804 64.0753 36.1498 64.4795C35.7901 65.1104 35.2786 65.6411 34.6695 66.0139C34.2795 66.2524 33.9285 66.5508 33.626 66.9007L33.6028 66.9276C33.1459 67.456 32.5643 67.8647 31.9216 68.1094L31.7326 68.181C31.4134 68.3019 31.1077 68.462 30.8242 68.6557L30.0832 69.1613L30.5714 68.3932C30.7583 68.0993 30.9122 67.7824 31.0294 67.4516L31.0986 67.2562C31.334 66.5894 31.7283 65.9871 32.2386 65.5135L32.264 65.4899C32.6015 65.177 32.8894 64.8131 33.1195 64.4084C33.4786 63.7774 33.9901 63.2473 34.5987 62.8744C34.5992 62.8744 34.5992 62.8739 34.5998 62.8739C34.9897 62.6354 35.3408 62.337 35.6432 61.9871L35.6664 61.9602C36.1233 61.4312 36.705 61.0231 37.3476 60.7785L37.5367 60.7068C37.8558 60.5853 38.1615 60.4258 38.445 60.2321L39.186 59.7265L38.6978 60.4946C38.5109 60.7891 38.3565 61.106 38.2398 61.4368L38.1707 61.6316Z" fill="#69C49A"/>
<path d="M34.6348 63.5623C34.166 63.5623 33.7847 63.9575 33.7847 64.4434C33.7847 64.9293 34.166 65.3246 34.6348 65.3246C35.1036 65.3246 35.4849 64.9293 35.4849 64.4434C35.4849 63.9575 35.1036 63.5623 34.6348 63.5623Z" fill="#69C49A"/>
<path d="M23.7499 78.3041C23.9984 78.8404 24.3716 79.5217 25.0574 80.0367C25.7082 80.5361 26.6069 80.8283 27.465 80.8233C28.3248 80.8289 29.2235 80.5361 29.8737 80.0373C30.5671 79.5161 30.9355 78.8348 31.179 78.2996C31.2206 78.196 31.2638 78.0885 31.307 77.9805C31.4582 77.6032 31.6111 77.2219 31.7952 76.8183L31.354 75.8274L30.1562 78.5185C30.1383 78.5582 30.1 78.5834 30.0579 78.5834C30.0157 78.5834 29.9774 78.5582 29.9596 78.5185L28.7612 75.8274L27.5628 78.5185C27.545 78.5582 27.5066 78.5834 27.4645 78.5834C27.4224 78.5834 27.384 78.5582 27.3662 78.5185L26.1683 75.828L24.9705 78.5185C24.9527 78.5582 24.9143 78.5834 24.8722 78.5834C24.8301 78.5834 24.7917 78.5582 24.7739 78.5185L23.576 75.828L23.1343 76.82C23.3206 77.2292 23.474 77.6149 23.6263 77.9973C23.6679 78.1003 23.7089 78.2022 23.7499 78.3041Z" fill="#FFF9C6"/>
<path d="M33.7731 73.6401C29.7913 75.2412 25.1381 75.2412 21.1562 73.6401C22.0781 74.8146 22.6198 75.7395 23.013 76.5596L23.4785 75.5144C23.4963 75.4747 23.5347 75.4495 23.5768 75.4495C23.6189 75.4495 23.6573 75.4747 23.6751 75.5144L24.8729 78.2049L26.0708 75.5144C26.0886 75.4747 26.127 75.4495 26.1691 75.4495C26.2112 75.4495 26.2496 75.4747 26.2674 75.5144L27.4652 78.2049L28.6631 75.5144C28.6809 75.4747 28.7192 75.4495 28.7614 75.4495C28.8035 75.4495 28.8418 75.4747 28.8597 75.5144L30.0581 78.2055L31.2559 75.5144C31.2737 75.4747 31.3121 75.4495 31.3542 75.4495C31.3963 75.4495 31.4347 75.4747 31.4525 75.5144L31.9175 76.5591C32.3096 75.7389 32.8512 74.8146 33.7731 73.6401Z" fill="#FFF9C6"/>
<path d="M34.2119 73.4435C34.2443 73.4037 34.2459 73.3466 34.2162 73.3052C34.1865 73.2638 34.1336 73.2481 34.0877 73.2683C29.9411 75.0681 24.9893 75.0686 20.8422 73.2683C20.7963 73.2481 20.7428 73.2638 20.7137 73.3052C20.6845 73.3466 20.6861 73.4043 20.718 73.4435C22.404 75.5131 22.9241 76.8198 23.4269 78.0838C23.468 78.1874 23.509 78.2904 23.5506 78.394C23.5511 78.3957 23.5522 78.3973 23.5527 78.3996C23.812 78.96 24.203 79.6737 24.9283 80.219C25.6169 80.7475 26.5279 81.0492 27.432 81.0492C27.4531 81.0492 27.4741 81.0492 27.4952 81.0492C28.4009 81.0492 29.3119 80.7475 30 80.2196C30.7323 79.6693 31.1184 78.9566 31.3744 78.3929C31.4182 78.2848 31.4614 78.1768 31.5051 78.0687C32.0101 76.808 32.5323 75.5053 34.2119 73.4435ZM31.3528 75.4499C31.3107 75.4499 31.2724 75.4751 31.2545 75.5148L30.0567 78.2059L28.8583 75.5148C28.8405 75.4751 28.8021 75.4499 28.76 75.4499C28.7179 75.4499 28.6795 75.4751 28.6617 75.5148L27.4639 78.2053L26.266 75.5148C26.2482 75.4751 26.2098 75.4499 26.1677 75.4499C26.1256 75.4499 26.0872 75.4751 26.0694 75.5148L24.8716 78.2053L23.6737 75.5148C23.6559 75.4751 23.6176 75.4499 23.5754 75.4499C23.5333 75.4499 23.495 75.4751 23.4771 75.5148L23.0116 76.56C22.6184 75.7399 22.0768 74.815 21.1549 73.6405C25.1367 75.2416 29.7899 75.2416 33.7718 73.6405C32.8499 74.815 32.3082 75.7393 31.9139 76.5594L31.449 75.5148C31.4333 75.4756 31.3949 75.4499 31.3528 75.4499ZM23.5765 75.8294L24.7744 78.5199C24.7922 78.5597 24.8305 78.5849 24.8726 78.5849C24.9148 78.5849 24.9531 78.5597 24.9709 78.5199L26.1688 75.8294L27.3666 78.5199C27.3845 78.5597 27.4228 78.5849 27.4649 78.5849C27.5071 78.5849 27.5454 78.5597 27.5632 78.5199L28.7616 75.8289L29.96 78.5199C29.9778 78.5597 30.0162 78.5849 30.0583 78.5849C30.1004 78.5849 30.1388 78.5597 30.1566 78.5199L31.3544 75.8289L31.7957 76.8198C31.6115 77.2234 31.4587 77.6046 31.3075 77.982C31.2643 78.09 31.221 78.1975 31.1795 78.3011C30.9359 78.8362 30.5681 79.517 29.8741 80.0387C29.2244 80.5375 28.3252 80.8303 27.4655 80.8247C26.6073 80.8298 25.7087 80.5375 25.0579 80.0382C24.372 79.5226 23.9988 78.8418 23.7504 78.3055C23.7094 78.2031 23.6689 78.1012 23.6278 77.9993C23.4755 77.6175 23.3221 77.2312 23.1358 76.822L23.5765 75.8294Z" fill="#69C49A"/>
<defs>
    <clipPath id="clip0">
        <rect width="24.4138" height="19.4" fill="white" transform="translate(15.2588 19.3999)"/>
    </clipPath>
    <clipPath id="clip1">
        <rect width="14.5759" height="12.2526" fill="white" transform="translate(146.483 72.4949)"/>
    </clipPath>
</defs>
</svg>
