<svg width="193" height="113" viewBox="0 0 193 113" fill="none" xmlns="http://www.w3.org/2000/svg">
<path d="M0 8C0 3.58173 3.58172 0 8 0H193V105C193 109.418 189.418 113 185 113H0V8Z" fill="#101019"/>
<path d="M0 81.4414H193V105C193 109.418 189.418 113 185 113H0V81.4414Z" fill="#181926"/>
<path d="M87.4372 30.3863L89.3972 30.0363L86.7792 26.2423C87.9832 25.8223 88.7392 24.9403 88.7392 23.5263C88.7392 21.6503 87.4372 20.6283 85.2812 20.6283H82.2852V30.2883H84.1332V26.5923H84.9172L87.4372 30.3863ZM86.9192 23.6243C86.9192 24.6323 86.2052 25.1783 85.0572 25.1783H84.1192V22.1123H85.1412C86.3032 22.1123 86.9192 22.6583 86.9192 23.6243ZM96.1899 26.9003C96.1899 24.7023 94.8459 23.3863 92.9979 23.3863C91.1639 23.3863 89.8199 24.7163 89.8199 26.9143C89.8199 29.1123 91.1499 30.4283 92.9839 30.4283C94.8319 30.4283 96.1899 29.0983 96.1899 26.9003ZM94.5519 26.9143C94.5519 28.1743 94.0199 29.0563 92.9839 29.0563C92.0039 29.0563 91.4579 28.1463 91.4579 26.9003C91.4579 25.6543 91.9899 24.7583 92.9839 24.7583C93.9919 24.7583 94.5519 25.6683 94.5519 26.9143ZM101.697 30.3863L103.489 30.1203L100.843 26.5783L103.335 23.5263H101.431L99.2327 26.3263V20.1803L97.5527 20.4463V30.2883H99.2327V26.9283L101.697 30.3863ZM108.03 28.4263C107.568 28.8743 107.022 29.1543 106.448 29.1543C105.93 29.1543 105.622 28.8603 105.622 28.3703C105.622 27.7263 106.084 27.1523 108.03 26.9143V28.4263ZM109.71 30.2883V25.6543C109.71 24.0303 108.842 23.3863 107.092 23.3863C106.014 23.3863 105.188 23.6243 104.404 23.9323L104.614 25.2763C105.342 24.9543 106.084 24.7303 106.868 24.7303C107.61 24.7303 108.03 25.0103 108.03 25.7383V25.9343C105.3 26.2003 103.956 26.9143 103.956 28.5523C103.956 29.7283 104.726 30.4283 105.874 30.4283C106.882 30.4283 107.582 29.9803 108.128 29.4063L108.268 30.2883H109.71Z" fill="white"/>
<path d="M115.321 27.3123H113.305L113.641 25.1523H115.657L115.321 27.3123ZM114.841 30.3123H115.693L116.029 28.2243H117.709L117.553 27.3123H116.173L116.509 25.1523H117.949V24.2403H116.653L116.965 22.2723L116.149 22.0923L115.801 24.2403H113.785L114.121 22.1523H113.269L112.933 24.2403H111.253L111.409 25.1523H112.789L112.453 27.3123H111.013V28.2243H112.309L111.997 30.1923L112.813 30.3723L113.161 28.2243H115.177L114.841 30.3123ZM121.599 30.2883V22.1523H120.663L118.719 23.0523L118.839 23.9163L120.531 23.2803V30.2883H121.599ZM125.468 30.4443C127.244 30.4443 128.36 29.4963 128.36 28.0683C128.36 26.9403 127.76 26.3163 126.716 26.0283C127.592 25.7403 128.204 25.1523 128.204 24.1443C128.204 23.0523 127.448 22.0203 125.624 22.0203C124.616 22.0203 123.896 22.3083 123.272 22.7643L123.428 23.7723C124.028 23.2923 124.736 22.9923 125.576 22.9923C126.596 22.9923 127.1 23.4963 127.1 24.1923C127.1 25.0683 126.464 25.5483 125.12 25.5483H124.508L124.664 26.5323H125.036C126.596 26.5323 127.256 27.0963 127.256 28.0803C127.256 28.9923 126.596 29.4723 125.528 29.4723C124.676 29.4723 124.004 29.2203 123.32 28.7523L123.14 29.8083C123.764 30.1923 124.616 30.4443 125.468 30.4443ZM131.632 30.4443C133.408 30.4443 134.524 29.4963 134.524 28.0683C134.524 26.9403 133.924 26.3163 132.88 26.0283C133.756 25.7403 134.368 25.1523 134.368 24.1443C134.368 23.0523 133.612 22.0203 131.788 22.0203C130.78 22.0203 130.06 22.3083 129.436 22.7643L129.592 23.7723C130.192 23.2923 130.9 22.9923 131.74 22.9923C132.76 22.9923 133.264 23.4963 133.264 24.1923C133.264 25.0683 132.628 25.5483 131.284 25.5483H130.672L130.828 26.5323H131.2C132.76 26.5323 133.42 27.0963 133.42 28.0803C133.42 28.9923 132.76 29.4723 131.692 29.4723C130.84 29.4723 130.168 29.2203 129.484 28.7523L129.304 29.8083C129.928 30.1923 130.78 30.4443 131.632 30.4443ZM137.463 30.3723L140.715 23.0163V22.1763H135.339L135.483 23.1483H139.503L136.407 30.1323L137.463 30.3723Z" fill="#B9BBBE"/>
<g clip-path="url(#clip0)">
    <mask id="mask0" mask-type="alpha" maskUnits="userSpaceOnUse" x="16" y="16" width="50" height="50">
        <ellipse cx="40.6314" cy="40.7208" rx="24.3789" ry="24.4324" fill="#24193A"/>
    </mask>
    <g mask="url(#mask0)">
        <path d="M23.2958 60.6246C23.1995 60.5882 23.1031 60.5485 23.0061 60.5152C22.7043 60.4135 22.3935 60.3387 22.0916 60.237C21.3941 60.0017 20.8223 59.6326 20.2543 59.1772C19.5057 60.0573 18.8892 61.0614 18.4253 62.0982H24.5792C24.3227 61.7004 24.0859 61.2898 23.8708 60.8683C23.673 60.8536 23.4771 60.7755 23.2958 60.6246Z" fill="#9AFFD8"/>
        <path d="M19.3329 58.3098C18.8185 57.7336 18.4056 57.0703 18.1874 56.324C17.9238 55.4228 17.9902 54.3886 18.5601 53.616C19.4631 52.3918 21.0317 52.1322 22.4032 52.5524C22.4593 52.1085 22.5359 51.6672 22.6361 51.231C23.1715 48.8985 24.2602 46.8666 25.7287 45.1467C25.7887 44.5935 26.0337 44.0575 26.3279 43.5964C26.9368 42.6409 27.776 41.828 28.686 41.1264C27.513 41.0509 26.342 40.937 25.1754 40.7752C24.7804 40.7202 24.661 40.0781 24.7829 39.7858C24.9425 39.404 26.0261 39.2965 26.3892 39.2172C27.5743 38.9582 28.7977 38.8917 29.9936 38.6902C30.3421 38.6314 30.6911 38.5757 31.0415 38.5265C31.6714 38.4382 32.3051 38.3736 32.9413 38.3257C33.3434 37.6381 33.6982 36.9295 34.1615 36.2752C35.2969 34.6743 36.8291 33.2557 38.7079 32.4831C40.4629 31.7617 42.6391 31.5474 44.387 32.4057C45.0341 32.7236 45.7559 33.1796 46.4656 33.7015C48.8957 32.643 51.4855 31.903 53.9144 30.8202C56.0631 29.8628 58.2399 28.4576 59.0178 26.2338C59.9936 23.444 58.2999 20.2423 55.7778 18.7092C53.2558 17.1762 50.1408 16.9939 47.2014 17.2414C45.2013 17.4096 43.1745 17.7556 41.2038 17.3751C39.2331 16.9945 37.2739 15.6706 36.8725 13.7001C36.8406 13.5453 36.8202 13.3899 36.8081 13.2351H23.2768C22.0509 13.8235 20.7477 14.2207 19.5148 14.41C18.7604 14.5258 18.0119 14.5757 17.2684 14.5737L15.2368 38.1758L17.2684 61.5794C17.786 60.4147 18.4605 59.3229 19.2946 58.3533C19.3074 58.3386 19.3201 58.3246 19.3329 58.3098Z" fill="#9AFFD8"/>
        <path d="M41.1389 19.6034C43.1095 19.984 45.1364 19.6379 47.1364 19.4697C50.0759 19.2222 53.2552 17.1754 55.7773 18.7085C58.2993 20.2416 59.9931 23.4433 59.0173 26.2331C58.2393 28.4569 56.0625 29.8621 53.9138 30.8195C51.4849 31.9023 48.8952 32.6423 46.465 33.7008C47.5557 34.5015 48.6169 35.4564 49.3343 36.302C49.8244 36.8801 50.5091 37.6962 50.654 38.4592C51.0107 38.5462 51.3643 38.6492 51.7159 38.7688C52.0822 38.8929 52.4562 39.0304 52.8295 39.1826C54.0402 38.3806 55.3733 37.7442 56.7058 37.2249C59.6746 36.0672 62.8623 35.7372 66.0251 35.8824V13.2344H36.8075C36.8196 13.3892 36.7763 15.773 36.8076 15.9284C37.2096 17.8989 39.1682 19.2229 41.1389 19.6034Z" fill="#9FA9FF"/>
        <path d="M54.1948 39.8274C55.0251 40.2821 55.7915 40.8411 56.3831 41.5421C56.8969 42.1503 57.2887 42.9025 57.2447 43.7211C57.2115 44.3402 56.96 44.96 56.5695 45.4582C56.5937 45.5023 56.6173 45.5465 56.6403 45.5906C56.7437 45.7895 56.8394 45.9916 56.9262 46.1982C57.5714 47.73 58.0654 49.4044 58.3576 51.1242C58.724 51.0359 59.1101 51.0385 59.4827 51.1248C60.5204 51.3653 61.3009 52.2211 61.65 53.1983C61.6557 53.2143 61.6602 53.2303 61.6653 53.2463C61.8146 53.6428 61.8931 54.0739 61.9116 54.5184C62.0003 56.6904 60.2983 58.2862 58.7686 59.5589C58.4891 59.7911 58.1592 59.8909 57.8433 59.8295C57.8171 59.9062 57.7922 59.983 57.7648 60.0584C57.498 60.7965 57.1757 61.4738 56.8056 62.0968H66.0247V37.1629C61.8982 36.9781 57.7846 37.6682 54.1948 39.8274Z" fill="#9FA9FF"/>
        <path d="M20.2056 59.1385C19.8954 58.8871 19.6006 58.6095 19.3326 58.3096C19.3198 58.3243 19.307 58.3384 19.2943 58.3531C18.4602 59.3227 17.7856 60.4144 17.2681 61.5791V62.0978H18.4251C18.889 61.061 19.5049 60.0569 20.2541 59.1768C20.2381 59.1634 20.2222 59.1512 20.2056 59.1385Z" fill="white"/>
        <path d="M56.7049 37.2248C55.3724 37.7441 54.0392 38.3805 52.8286 39.1825C53.2907 39.3718 53.7521 39.5848 54.1949 39.8278C57.784 37.668 61.8984 36.9785 66.0248 37.1634V35.8829C62.862 35.7371 59.6743 36.0671 56.7049 37.2248Z" fill="white"/>
        <path d="M29.8302 14.637L10.9241 23.4148L10.8298 34.482C11.8683 34.2859 17.6819 37.4511 23.7766 33.379C36.119 25.1327 28.2754 15.7873 29.8302 14.637Z" fill="#FAFFA0"/>
        <path d="M61.9132 54.5188C61.8954 54.075 61.8162 53.6439 61.6669 53.2473C61.6618 53.2314 61.6573 53.2154 61.6516 53.1994C61.3025 52.2221 60.522 51.3664 59.4843 51.1259C59.1116 51.0395 58.7256 51.037 58.3592 51.1252C58.0663 49.4054 57.573 47.7304 56.9278 46.1992C56.841 45.9926 56.7453 45.7905 56.6419 45.5916C56.6189 45.5469 56.5947 45.5027 56.5711 45.4592C56.3777 45.7068 56.1505 45.9242 55.8972 46.0969C54.9699 46.7294 53.7274 46.6674 52.6788 46.4576C51.6603 46.2536 50.6545 45.8647 49.7471 45.3595C49.7005 45.3332 49.6539 45.3064 49.6079 45.2802C49.2238 45.0595 48.8511 44.8184 48.493 44.5574C47.7119 43.9888 46.9978 43.3294 46.3705 42.5952C46.3596 42.7378 46.3475 42.8798 46.3328 43.0212C46.1835 44.4404 45.807 46.0854 44.5555 46.943C43.6084 47.5916 42.1221 47.6447 41.5893 46.4602C41.1942 45.5827 41.2817 44.5216 41.4565 43.5539C41.454 43.5603 41.4514 43.5661 41.4489 43.5725C41.0009 44.6834 40.5854 45.7969 39.9389 46.8119C39.048 48.2094 37.7053 49.7764 36.0371 50.1851C35.5942 50.2938 35.1284 50.3219 34.6414 50.242C33.9439 50.1281 33.3064 49.7725 33.0658 49.0735C32.8673 48.4966 32.9905 47.8385 33.1787 47.2763C33.3568 46.7435 33.5936 46.2299 33.8654 45.7323C33.4066 46.079 32.9228 46.3962 32.4021 46.67C30.7205 47.5545 28.2776 48.5087 26.5896 47.1586C26.0663 46.7397 25.7331 46.1385 25.7146 45.4618C25.7115 45.3569 25.7172 45.252 25.7287 45.1478C24.2602 46.8676 23.1715 48.8995 22.6361 51.232C22.5359 51.6682 22.4593 52.1095 22.4031 52.5534C21.0317 52.1332 19.4637 52.3929 18.5601 53.617C17.9902 54.389 17.9238 55.4238 18.1874 56.325C18.4056 57.0714 18.8192 57.7346 19.3329 58.3109C19.6009 58.6108 19.8958 58.8884 20.2059 59.1398C20.2219 59.1525 20.2385 59.1653 20.2544 59.1781C20.8224 59.6335 21.3942 60.0025 22.0917 60.2379C22.3936 60.3396 22.7044 60.4144 23.0062 60.5161C23.1039 60.5487 23.1996 60.5884 23.296 60.6255C23.4772 60.7764 23.6731 60.8551 23.871 60.8692C24.086 61.2906 24.3228 61.7013 24.5793 62.0991L32.3108 67.1892H33.8654H44.0443H48.6315H49.9245L56.8066 62.0991C57.1767 61.4761 57.499 60.7982 57.7657 60.0607C57.7932 59.9846 57.8187 59.9079 57.8442 59.8318C58.1601 59.8932 58.4901 59.7934 58.7696 59.5612C60.2999 58.2872 62.0019 56.6915 61.9132 54.5188Z" fill="#24193A"/>
        <path d="M56.3831 41.542C55.7915 40.8411 55.0251 40.2821 54.1948 39.8273C53.7519 39.5843 53.2905 39.3713 52.8285 39.182C52.4552 39.0291 52.0805 38.8923 51.7149 38.7676C51.3632 38.648 51.0097 38.545 50.6529 38.458C50.7353 38.8936 50.6434 39.3112 50.2369 39.6579C50.1826 39.7039 50.1233 39.7487 50.0582 39.7922C49.9995 39.8312 49.9363 39.8676 49.8718 39.9028C49.0103 40.3697 47.6637 40.4835 46.3765 40.5245C45.8871 40.5398 45.4059 40.5456 44.9636 40.5558C44.5762 40.5648 44.2189 40.5776 43.9113 40.6044C41.76 40.7931 39.5972 40.9741 37.4312 41.0956C35.1523 41.2229 32.8695 41.283 30.5932 41.2146C29.9563 41.1954 29.32 41.1666 28.6844 41.1257C27.775 41.8273 26.9352 42.6402 26.3263 43.5957C26.0321 44.0569 25.7871 44.5928 25.7271 45.1461C25.7156 45.2503 25.7105 45.3552 25.713 45.4601C25.7316 46.1368 26.0647 46.7386 26.588 47.1569C28.2766 48.507 30.7195 47.5528 32.4005 46.6682C32.9212 46.3945 33.405 46.0773 33.8638 45.7306C33.592 46.2282 33.3552 46.7418 33.1771 47.2746C32.9889 47.8374 32.8657 48.4949 33.0642 49.0718C33.3048 49.7708 33.9423 50.1258 34.6398 50.2403C35.1268 50.3202 35.592 50.2921 36.0355 50.1833C37.7044 49.774 39.0471 48.2077 39.9373 46.8102C40.5838 45.7959 40.9993 44.6824 41.4473 43.5708C41.4498 43.5644 41.4524 43.5586 41.4549 43.5522C41.2801 44.5199 41.1926 45.581 41.5877 46.4585C42.1205 47.6436 43.6069 47.5905 44.5539 46.9413C45.8054 46.0837 46.1819 44.4387 46.3312 43.0195C46.3459 42.8781 46.358 42.7361 46.3689 42.5935C46.9956 43.3277 47.7103 43.9871 48.4914 44.5557C48.8501 44.8167 49.2222 45.0578 49.6063 45.2784C49.6529 45.3053 49.6989 45.3322 49.7455 45.3578C50.6529 45.863 51.6587 46.2519 52.6772 46.4559C53.7258 46.6657 54.9689 46.7277 55.8956 46.0952C56.1483 45.9225 56.3755 45.7044 56.5695 45.4575C56.96 44.9587 57.2115 44.3395 57.2447 43.7204C57.2893 42.9024 56.8969 42.1503 56.3831 41.542Z" fill="#FFCD2E"/>
        <path d="M50.6536 38.4586C50.5088 37.6956 49.8246 36.8795 49.3339 36.3013C48.6166 35.4558 47.5546 34.5009 46.4646 33.7002C45.755 33.1789 45.0332 32.7223 44.3861 32.4044C42.6381 31.5461 40.462 31.7604 38.707 32.4818C36.8282 33.2544 35.2959 34.673 34.1606 36.2738C33.6967 36.9281 33.3425 37.6361 32.9404 38.3243C32.3042 38.3723 31.6704 38.4369 31.0406 38.5251C30.6902 38.5744 30.3411 38.63 29.9927 38.6889C28.7967 38.891 27.574 38.9575 26.3883 39.2165C26.0245 39.2958 24.9409 39.4033 24.782 39.7851C24.6601 40.0774 24.7794 40.7195 25.1745 40.7745C26.341 40.9363 27.5121 41.0508 28.6851 41.1257C29.3207 41.1666 29.9569 41.1954 30.5938 41.2146C32.8702 41.283 35.153 41.2229 37.4319 41.0956C39.5979 40.9741 41.7606 40.7931 43.9119 40.6044C44.2195 40.5775 44.5769 40.5648 44.9643 40.5558C45.4065 40.5456 45.8871 40.5405 46.3772 40.5245C47.6644 40.4835 49.0103 40.369 49.8725 39.9028C49.937 39.8676 50.0001 39.8312 50.0588 39.7921C50.1239 39.7487 50.1839 39.7039 50.2375 39.6578C50.6434 39.3118 50.736 38.8942 50.6536 38.4586ZM29.9397 40.245C30.2626 40.0365 30.5926 39.8388 30.9302 39.6559C30.5926 39.8388 30.2626 40.0365 29.9397 40.245ZM33.7924 38.6678C33.9073 38.6723 34.0011 38.7087 34.0732 38.7656C34.0011 38.7087 33.9073 38.6723 33.7924 38.6678Z" fill="#FF5CEF"/>
        <path d="M37.5788 55.8561C37.5692 55.7889 37.5584 55.7218 37.5469 55.6553C37.5584 55.7224 37.5692 55.7896 37.5788 55.8561Z" fill="white"/>
        <path d="M37.6031 56.0557C37.5967 55.993 37.589 55.9304 37.5801 55.8677C37.589 55.9304 37.5967 55.993 37.6031 56.0557Z" fill="white"/>
        <path d="M37.5804 55.868C37.5797 55.8641 37.5797 55.8603 37.5791 55.8564C37.5797 55.8603 37.5797 55.8641 37.5804 55.868Z" fill="white"/>
        <path d="M37.603 56.0557C37.603 56.0569 37.603 56.0588 37.6037 56.0601C37.6037 56.0588 37.603 56.0575 37.603 56.0557Z" fill="white"/>
        <path d="M37.6037 56.0605C36.2438 57.1139 34.5686 57.7676 32.8538 57.9428C32.2086 58.0087 31.5583 58.0061 30.9163 57.9326C29.8748 57.8123 28.8563 57.5034 27.9245 56.986C27.8307 56.9336 27.7376 56.8792 27.6469 56.8229C27.3738 56.6541 27.1141 56.468 26.8671 56.2659C26.7165 57.1536 26.8243 58.0771 27.2111 58.8977C27.6329 59.7925 28.4038 60.5043 29.2615 60.9744C30.7172 61.7713 32.5909 62.047 34.1997 61.5347C34.5201 61.4323 34.8309 61.3 35.1251 61.133C35.21 61.0851 35.2923 61.0333 35.374 60.9802C36.9879 59.9249 37.7984 57.9537 37.6037 56.0605Z" fill="white"/>
        <path d="M53.504 55.8229C53.4817 55.4104 53.4064 55.012 53.2819 54.6353C52.5697 55.3452 51.7325 55.9317 50.7643 56.3506C50.645 56.4024 50.5238 56.451 50.4012 56.4983C50.0119 56.6474 49.608 56.7727 49.1951 56.8738C47.5294 57.2799 45.7176 57.2844 44.1011 56.8475C43.5625 56.7017 43.0284 56.4868 42.5683 56.1786C42.5446 56.4248 42.5434 56.6736 42.5663 56.9217C42.7252 58.6364 43.8918 59.9885 45.4739 60.5903C45.9002 60.7522 46.3405 60.8359 46.7917 60.8916C46.8925 60.9044 46.9889 60.8737 47.0712 60.8187C48.1836 60.992 49.3718 60.857 50.4102 60.4573C50.8224 60.2987 51.2104 60.0979 51.5614 59.8587C51.6297 59.812 51.6967 59.7647 51.7618 59.7148C52.9916 58.7791 53.587 57.3611 53.504 55.8229Z" fill="white"/>
        <path d="M37.5469 55.656C37.5456 55.6484 37.5437 55.6407 37.5424 55.6324C37.5316 55.5735 37.5201 55.5147 37.5067 55.4558C37.492 55.3881 37.4754 55.3209 37.4582 55.2544C37.044 53.6836 35.9157 52.7319 34.5411 52.3123C34.2794 52.2324 34.0082 52.1716 33.7319 52.1301C33.5245 52.0987 33.3139 52.0776 33.1014 52.0674C32.9597 52.0603 32.8174 52.0578 32.6744 52.0597C32.3885 52.0635 32.1014 52.0853 31.8155 52.1249C31.744 52.1345 31.6725 52.1454 31.6017 52.1576C31.4593 52.1819 31.317 52.21 31.1766 52.242C31.1064 52.258 31.0362 52.2752 30.966 52.2938C30.8263 52.3302 30.6878 52.3712 30.5506 52.4166C30.3451 52.4844 30.1434 52.5611 29.9462 52.6468C29.8148 52.7038 29.6859 52.7651 29.5595 52.8304C29.4331 52.8956 29.3093 52.9647 29.1881 53.0376C29.0675 53.1105 28.9494 53.1873 28.8345 53.2679C28.5486 53.4693 28.2838 53.6938 28.0464 53.9413C27.9513 54.0405 27.8613 54.1428 27.7752 54.249C27.6469 54.4082 27.5288 54.5751 27.4235 54.7498C27.3865 54.8105 27.3514 54.8726 27.3176 54.9359C27.287 54.9928 27.2576 55.051 27.2295 55.1092C27.1408 55.294 27.0655 55.4859 27.0049 55.6855C26.987 55.743 26.9711 55.8019 26.9557 55.8601C26.95 55.8812 26.9449 55.9023 26.9398 55.9234C26.9302 55.9605 26.9219 55.9982 26.9136 56.0359C26.9079 56.0609 26.9021 56.0858 26.897 56.1114C26.8926 56.1319 26.8894 56.1523 26.8855 56.1734C26.8798 56.2048 26.8734 56.2361 26.8677 56.2681C27.114 56.4702 27.3737 56.6563 27.6475 56.8252C27.7388 56.8815 27.8313 56.9358 27.9251 56.9883C28.8569 57.5057 29.8754 57.8152 30.9169 57.9348C31.5589 58.009 32.2092 58.011 32.8544 57.9451C34.5692 57.7698 36.2444 57.1162 37.6043 56.0628C37.5897 55.9253 37.5705 55.7903 37.5469 55.656Z" fill="#427EFC"/>
        <path d="M53.2811 54.6346C53.2645 54.5841 53.2466 54.5336 53.2281 54.4843C53.2256 54.4779 53.2237 54.4722 53.2211 54.4658C53.2052 54.4229 53.1879 54.3801 53.1707 54.3379C53.1675 54.3302 53.1643 54.3225 53.1611 54.3155C53.1216 54.2202 53.0782 54.1268 53.0316 54.0354C53.0271 54.027 53.0233 54.0187 53.0188 54.0104C52.9984 53.9701 52.9767 53.9298 52.955 53.8902C52.9518 53.8851 52.9493 53.8793 52.9461 53.8742C52.9205 53.8288 52.895 53.7846 52.8682 53.7399C52.865 53.7348 52.8618 53.7296 52.8586 53.7245C52.835 53.6862 52.8114 53.6484 52.7865 53.6113C52.7808 53.6024 52.7744 53.5928 52.768 53.5838C52.7406 53.5429 52.7125 53.502 52.6831 53.461C52.6825 53.4604 52.6825 53.4597 52.6819 53.4591C52.6519 53.4175 52.6212 53.3772 52.59 53.3363C52.5829 53.3273 52.5759 53.3184 52.5689 53.3094C52.5434 53.2775 52.5179 53.2455 52.4917 53.2135C52.4847 53.2046 52.477 53.1962 52.47 53.1873C52.4374 53.1489 52.4043 53.1105 52.3698 53.0728C52.366 53.069 52.3621 53.0645 52.3583 53.0606C52.3283 53.0274 52.297 52.9948 52.2658 52.9628C52.2562 52.9532 52.2466 52.943 52.2364 52.9334C52.2071 52.9033 52.1771 52.8739 52.1464 52.8451C52.1401 52.8387 52.133 52.8323 52.1266 52.8259C52.0903 52.7914 52.0526 52.7575 52.0143 52.7236C52.0048 52.7153 51.9958 52.7076 51.9863 52.6993C51.9563 52.6731 51.9256 52.6475 51.8944 52.6219C51.8835 52.6129 51.872 52.6033 51.8612 52.5944C51.821 52.5624 51.7808 52.5304 51.7399 52.4991C51.6748 52.4499 51.6091 52.4032 51.5421 52.3578C50.939 51.9484 50.2574 51.6804 49.5465 51.5436C49.4884 51.5321 49.4297 51.5218 49.3716 51.5122C49.1917 51.4828 49.0098 51.4623 48.8279 51.4496C48.5861 51.4323 48.3429 51.4297 48.0998 51.4406C48.094 51.4406 48.0883 51.4412 48.0825 51.4419C47.8451 51.4534 47.6084 51.4777 47.3735 51.5148C47.1329 51.5532 46.8949 51.605 46.6607 51.6696C46.5043 51.7124 46.3499 51.7617 46.198 51.8167C45.8942 51.926 45.5994 52.0584 45.318 52.2126C45.0365 52.3667 44.7691 52.5426 44.5196 52.7396L44.519 52.7402C44.4832 52.7684 44.4481 52.7971 44.413 52.8259C44.4015 52.8355 44.3901 52.8451 44.3792 52.8547C44.3556 52.8752 44.332 52.895 44.3084 52.9161C44.2956 52.9276 44.2822 52.9391 44.2694 52.9506C44.2477 52.9698 44.226 52.9897 44.205 53.0095C44.1916 53.0216 44.1788 53.0338 44.1654 53.0466C44.1437 53.067 44.1227 53.0875 44.1016 53.1086C44.0895 53.1201 44.0773 53.1323 44.0652 53.1444C44.0403 53.1687 44.0161 53.1943 43.9918 53.2193C43.9835 53.2276 43.9759 53.2359 43.9676 53.2442C43.9357 53.2775 43.9044 53.3114 43.8731 53.3459C43.8642 53.3555 43.8559 53.3651 43.8476 53.3747C43.8253 53.3996 43.8029 53.4252 43.7812 53.4508C43.7697 53.4642 43.7583 53.4776 43.7468 53.4911C43.7276 53.5135 43.7091 53.5359 43.6906 53.5589C43.6785 53.5736 43.667 53.5883 43.6555 53.6024C43.6376 53.6248 43.6198 53.6471 43.6025 53.6702C43.5911 53.6849 43.5796 53.6996 43.5687 53.7143C43.5502 53.7386 43.5323 53.7635 43.5138 53.7878C43.5043 53.8013 43.4947 53.8141 43.4851 53.8275C43.4583 53.8646 43.4322 53.9023 43.406 53.9407C43.4009 53.9477 43.3964 53.9554 43.3913 53.9624C43.3702 53.9938 43.3492 54.0258 43.3288 54.0577C43.3192 54.0725 43.3096 54.0878 43.3 54.1032C43.2847 54.1275 43.2694 54.1524 43.2541 54.1773C43.2439 54.194 43.2337 54.2112 43.2241 54.2279C43.2101 54.2515 43.1967 54.2752 43.1826 54.2989C43.1724 54.3161 43.1628 54.3334 43.1533 54.3513C43.1399 54.3756 43.1265 54.4006 43.1131 54.4249C43.1041 54.4415 43.0952 54.4581 43.0863 54.4754C43.0716 54.5042 43.0569 54.5329 43.0422 54.5617C43.0358 54.5745 43.0288 54.5873 43.0224 54.6007C43.0027 54.6417 42.9835 54.6826 42.965 54.7235C42.958 54.7395 42.951 54.7555 42.9439 54.7722C42.9325 54.799 42.9203 54.8252 42.9095 54.8521C42.9018 54.8706 42.8942 54.8898 42.8865 54.9084C42.8763 54.9327 42.8667 54.9576 42.8572 54.9826C42.8495 55.0018 42.8425 55.0216 42.8348 55.0408C42.8259 55.0651 42.8169 55.09 42.808 55.115C42.801 55.1342 42.794 55.1533 42.7876 55.1732C42.7787 55.1994 42.7704 55.2256 42.7614 55.2525C42.7557 55.2704 42.7499 55.2883 42.7442 55.3062C42.7308 55.349 42.7187 55.3913 42.7065 55.4341C42.7027 55.4488 42.6989 55.4635 42.6951 55.4789C42.6874 55.5089 42.6791 55.539 42.6721 55.5691C42.6676 55.5889 42.6631 55.6081 42.6587 55.6279C42.6529 55.6535 42.6472 55.6791 42.6415 55.7047C42.637 55.7251 42.6332 55.7456 42.6293 55.7667C42.6242 55.7916 42.6198 55.8172 42.6153 55.8422C42.6115 55.8626 42.6083 55.8837 42.6044 55.9042C42.6 55.9304 42.5961 55.956 42.5929 55.9822C42.5904 56.0021 42.5872 56.0219 42.5847 56.0417C42.5808 56.0718 42.5776 56.1025 42.5744 56.1332C42.5725 56.1485 42.5706 56.1639 42.5693 56.1799C43.0295 56.4881 43.5636 56.703 44.1022 56.8489C45.7187 57.2857 47.5305 57.2812 49.1961 56.8751C49.609 56.7747 50.0124 56.6493 50.4023 56.4996C50.5248 56.453 50.6461 56.4037 50.7654 56.3519C51.7323 55.9317 52.5695 55.3446 53.2811 54.6346C53.2817 54.6346 53.2811 54.6346 53.2811 54.6346Z" fill="#427EFC"/>
    </g>
</g>
<ellipse cx="96.5" cy="48.8649" rx="6.09474" ry="6.10811" fill="white"/>
<path fill-rule="evenodd" clip-rule="evenodd" d="M83.506 46.9551C83.9391 46.9551 84.2999 46.6006 84.2999 46.1751C84.2999 45.7497 83.9391 45.3952 83.506 45.3952H83.0729C82.6398 45.3952 82.2788 45.7497 82.2788 46.1751C82.2788 46.6006 82.6398 46.9551 83.0729 46.9551H83.506ZM99.8911 56.3863C104.005 54.5426 105.738 49.8625 103.861 45.9624C102.562 43.1969 99.819 41.566 96.9317 41.4241H88.7752C88.0534 41.4241 87.548 41.9915 87.548 42.6297C87.548 43.3387 88.1256 43.8351 88.7752 43.8351H90.8684C91.3015 43.8351 91.6624 44.1896 91.6624 44.615C91.6624 45.0405 91.3015 45.3952 90.8684 45.3952H85.7436C85.3105 45.3952 84.9495 45.7497 84.9495 46.1751C84.9495 46.6006 85.3105 46.9551 85.7436 46.9551H89.4249C89.858 46.9551 90.2188 47.3098 90.2188 47.7352C90.2188 48.1607 89.858 48.5152 89.4249 48.5152H87.115C86.6819 48.5152 86.321 48.8697 86.321 49.2951C86.321 49.7206 86.6819 50.0753 87.115 50.0753H88.703C88.7752 50.9262 88.9918 51.7771 89.3526 52.5571C91.1572 56.4572 95.9212 58.1591 99.8911 56.3863ZM92.5038 51.1044C91.4557 48.8622 92.4565 46.2098 94.7388 45.1802C97.0212 44.1506 99.7211 45.1337 100.769 47.3759C101.817 49.6181 100.817 52.2705 98.5341 53.3001C96.2517 54.3297 93.5518 53.3465 92.5038 51.1044Z" fill="#4F5D7F"/>
<path d="M98.3429 46.693L99.7865 49.1041C99.8587 49.2458 99.8587 49.3168 99.7865 49.4586L98.3429 51.8696C98.2707 52.0113 98.1264 52.0113 98.0541 52.0113H95.239C95.0947 52.0113 95.0225 51.9404 94.9504 51.8696L93.5067 49.4586C93.4346 49.3168 93.4346 49.2458 93.5067 49.1041L94.9504 46.693C95.0225 46.5513 95.167 46.5513 95.239 46.5513H98.0541C98.1986 46.4803 98.2707 46.5513 98.3429 46.693Z" fill="#C5CEDD"/>
<path fill-rule="evenodd" clip-rule="evenodd" d="M112.689 40.6487H126.659C126.777 40.6487 126.874 40.7486 126.874 40.8717V50.8504C126.874 50.9201 126.843 50.9846 126.79 51.027L119.805 56.6023C119.766 56.6335 119.72 56.6487 119.674 56.6487C119.627 56.6487 119.581 56.6335 119.542 56.6023L112.557 51.027C112.505 50.9846 112.474 50.9201 112.474 50.8504V40.8717C112.474 40.7486 112.57 40.6487 112.689 40.6487ZM120.713 47.9458L124.905 45.184C125.011 45.1141 125.139 45.2302 125.081 45.3432L123.342 48.7657C123.301 48.8479 123.361 48.9445 123.452 48.9445H124.493C124.612 48.9445 124.662 49.0976 124.564 49.1674L119.865 52.5447C119.823 52.5755 119.765 52.5755 119.722 52.5447L115.022 49.1674C114.926 49.0976 114.975 48.9445 115.094 48.9445H116.134C116.226 48.9445 116.285 48.8479 116.243 48.7657L114.505 45.3422C114.448 45.2302 114.576 45.1152 114.681 45.184L118.875 47.9458C118.948 47.9941 119.006 48.0598 119.045 48.1379L119.684 49.4243C119.729 49.5147 119.858 49.5147 119.903 49.4243L120.543 48.1379C120.582 48.0598 120.64 47.9931 120.713 47.9458Z" fill="#9C84EF"/>
<path d="M150.666 39.2869C150.666 39.2869 158.338 44.5231 155.423 51.8756C152.507 59.228 146.709 57.1885 148.876 55.0403C151.043 52.8921 146.319 51.4344 143.294 48.6469L150.66 39.2869" fill="#43B581"/>
<path d="M150.2 46.4858C148.582 48.5445 146.3 49.5739 144.535 49.2031L138.378 57.0478C138.274 57.1802 138.146 57.2908 137.999 57.3733C137.853 57.4559 137.692 57.5088 137.525 57.529C137.358 57.5492 137.189 57.5363 137.027 57.491C136.865 57.4457 136.714 57.369 136.581 57.2652C136.448 57.162 136.336 57.0333 136.252 56.8866C136.168 56.7399 136.115 56.578 136.094 56.4104C136.073 56.2427 136.086 56.0726 136.131 55.9099C136.176 55.7472 136.253 55.595 136.358 55.4622L142.483 47.6303C141.671 46.0063 142.118 43.5193 143.761 41.4414C145.801 38.8585 148.876 37.8931 150.66 39.2868C152.444 40.6806 152.226 43.9029 150.2 46.4858Z" fill="#B4E1CD"/>
<defs>
    <clipPath id="clip0">
        <rect width="48.7579" height="48.8649" fill="white" transform="translate(16.2524 16.2883)"/>
    </clipPath>
</defs>
</svg>
