<svg width="178" height="88" viewBox="0 0 178 88" fill="none" xmlns="http://www.w3.org/2000/svg">
<g clip-path="url(#clip0)">
    <path d="M169.5 45.7H8.5C4.08172 45.7 0.5 49.2817 0.5 53.7V79.99C0.5 84.4083 4.08172 87.99 8.5 87.99H169.5C173.918 87.99 177.5 84.4083 177.5 79.99V53.7C177.5 49.2817 173.918 45.7 169.5 45.7Z" fill="#101019"/>
    <path d="M53.0998 8.8C52.2357 8.23808 51.4966 7.50408 50.9289 6.6438C50.3611 5.78353 49.9767 4.81545 49.7998 3.8L49.2998 0.3C49.2998 0.220435 49.2682 0.144129 49.2119 0.087868C49.1556 0.0316071 49.0793 0 48.9998 0V0C48.7998 0 48.6998 0.1 48.5998 0.3L48.0998 3.8C47.9404 4.80917 47.5739 5.77442 47.0231 6.63494C46.4724 7.49547 45.7494 8.23263 44.8998 8.8L44.3998 9.1C44.2998 9.1 44.2998 9.3 44.2998 9.4C44.2952 9.45418 44.3017 9.50872 44.3189 9.5603C44.3361 9.61188 44.3636 9.65942 44.3998 9.7L44.8998 10C45.7579 10.558 46.4873 11.2927 47.0391 12.1549C47.5909 13.0171 47.9525 13.987 48.0998 15L48.5998 18.5C48.6998 18.6 48.7998 18.8 48.9998 18.8C49.0687 18.775 49.1313 18.7352 49.1832 18.6834C49.235 18.6316 49.2748 18.5689 49.2998 18.5L49.7998 15C49.9649 13.9806 50.3444 13.0078 50.9132 12.1459C51.4821 11.284 52.2273 10.5526 53.0998 10L53.4998 9.7L53.6998 9.4C53.6998 9.3 53.5998 9.1 53.4998 9.1L53.0998 8.8Z" fill="#FFF48C"/>
    <path d="M123.1 11.4C122.674 11.1417 122.309 10.7928 122.033 10.3781C121.756 9.96334 121.574 9.49287 121.5 9L121.3 7.3H120.9L120.7 9C120.625 9.49287 120.444 9.96334 120.167 10.3781C119.891 10.7928 119.526 11.1417 119.1 11.4H118.9V11.6C118.9 11.7 118.9 11.7 119 11.7L119.2 11.9C119.626 12.1583 119.991 12.5072 120.267 12.9219C120.544 13.3367 120.725 13.8071 120.8 14.3L121 16H121.4L121.6 14.3C121.674 13.8071 121.856 13.3367 122.133 12.9219C122.409 12.5072 122.774 12.1583 123.2 11.9L123.4 11.7C123.426 11.7 123.452 11.6895 123.471 11.6707C123.489 11.652 123.5 11.6265 123.5 11.6V11.4H123.1Z" fill="#66BCFF"/>
    <path d="M128.8 63.5H56.5V82.6H137.2C136.112 75.6103 133.216 69.0262 128.8 63.5Z" fill="#78DF8B"/>
    <path d="M137.9 82.5H136.5C135.338 75.7018 132.483 69.3054 128.2 63.9C128.1 63.747 128.055 63.5643 128.073 63.3823C128.092 63.2004 128.171 63.0302 128.3 62.9C128.453 62.7999 128.636 62.7552 128.818 62.7734C129 62.7916 129.17 62.8716 129.3 63C133.784 68.6216 136.745 75.3025 137.9 82.4V82.5Z" fill="#5B59A4"/>
    <path d="M86.5999 3.8C111.9 2.8 128.2 25.9 125.3 54.5C135 59.3 132.7 63.6 131 65.9C129.3 68.2 119.9 68.3 114.7 65.9C111.1 69 107.1 68.7 104.7 66.9C99.9999 70.4 93.0999 75.9 88.5999 67.1C85.1999 74.1 79.1999 74.6 75.8999 67.3C73.8999 72.6 69.4999 73.3 65.4999 71.3C64.2972 70.665 63.2622 69.7539 62.48 68.6413C61.6977 67.5288 61.1905 66.2466 60.9999 64.9C57.8999 66.2 55.2999 65.5 53.6999 63.1C52.0999 60.7 53.3999 57.2 53.3999 57.2C45.2999 55.3 46.0999 47.7 53.2999 46.7C50.1999 23.4 62.3999 4.9 86.5999 3.8Z" fill="#FFB55C"/>
    <path d="M81.9997 73.3H81.8997C79.5997 73.2 77.4997 71.7 75.8997 68.9C75.1462 70.5463 73.7842 71.8366 72.0997 72.5C70.9744 72.8814 69.7842 73.0337 68.5991 72.9479C67.414 72.862 66.2582 72.5397 65.1997 72C64.0231 71.3568 62.9959 70.4718 62.1859 69.4032C61.3758 68.3346 60.8011 67.1066 60.4997 65.8C57.3997 66.8 54.7997 66 53.1997 63.4C52.7143 62.5425 52.4026 61.5977 52.2825 60.6196C52.1624 59.6416 52.2362 58.6495 52.4997 57.7C48.2997 56.4 46.7997 53.7 46.8997 51.6C46.9997 49.5 48.7997 46.9 52.5997 46.1C50.9997 33.8 53.7997 22.8 60.2997 15C66.7997 7.19999 75.4997 3.59999 86.5997 3.09999C91.7473 2.81518 96.8947 3.66136 101.68 5.57902C106.466 7.49669 110.773 10.4393 114.3 14.2C123.3 23.8 127.5 38.3 126 54.1C130.4 56.3 132.8 58.7 133.3 61.4C133.429 62.3019 133.332 63.2219 133.018 64.0771C132.704 64.9324 132.182 65.6963 131.5 66.3C128.1 69.9 119.8 68.8 114.8 66.7C111.2 69.6 107.3 69.3 104.8 67.7H104.7C101.4 70.1 97.1997 73.2 93.2997 72.2C91.3086 71.6304 89.6208 70.3017 88.5997 68.5C86.7997 71.6 84.4997 73.3 81.9997 73.3ZM75.8997 66.6C76.1997 66.6 76.3997 66.8 76.5997 67.1C77.9997 70.1 79.8997 71.9 81.9997 71.9C84.1997 71.9 86.3997 70 87.9997 66.8C87.9997 66.6409 88.0629 66.4882 88.1754 66.3757C88.2879 66.2632 88.4405 66.2 88.5997 66.2C88.7588 66.2 88.9114 66.2632 89.0239 66.3757C89.1365 66.4882 89.1997 66.6409 89.1997 66.8C90.3997 69.2 91.8997 70.6 93.5997 71C96.8997 71.8 100.8 68.9 103.9 66.6L104.3 66.3C104.432 66.2097 104.589 66.1614 104.75 66.1614C104.91 66.1614 105.067 66.2097 105.2 66.3C107.1 67.8 110.7 68.4 114.3 65.3C114.404 65.2369 114.519 65.1956 114.639 65.1784C114.76 65.1612 114.882 65.1685 115 65.2C120.1 67.6 127.9 68.2 130.6 65.4C131.09 64.9061 131.461 64.3076 131.686 63.6494C131.911 62.9912 131.984 62.2905 131.9 61.6C131.5 59.4 129.1 57.1 125 55.1C124.869 55.0388 124.76 54.9387 124.689 54.8134C124.617 54.6881 124.586 54.5437 124.6 54.4C126.2 38.9 122.1 24.6 113.2 15.2C109.834 11.5592 105.702 8.71082 101.102 6.86047C96.5023 5.01012 91.549 4.2039 86.5997 4.49999C75.9997 4.99999 67.1997 8.89999 61.3997 15.9C55.5997 22.9 52.3997 34.4 53.9997 46.6C54.0997 47 53.7997 47.3 53.3997 47.4C49.9997 47.8 48.3997 49.9 48.2997 51.6C48.1997 53.3 49.5997 55.6 53.5997 56.5L53.9997 56.9C54.0717 57.0565 54.106 57.2278 54.0997 57.4C53.7705 58.2505 53.6185 59.1593 53.6529 60.0706C53.6873 60.982 53.9074 61.8767 54.2997 62.7C55.6997 64.9 57.8997 65.4 60.7997 64.3H61.3997C61.4957 64.3415 61.5763 64.412 61.6301 64.5017C61.6839 64.5914 61.7083 64.6957 61.6997 64.8C61.8681 66.0375 62.3274 67.2175 63.0401 68.243C63.7528 69.2686 64.6986 70.1106 65.7997 70.7C66.6762 71.1885 67.6463 71.4856 68.6461 71.5718C69.6458 71.658 70.6525 71.5312 71.5997 71.2C73.1997 70.6 74.3997 69.2 75.2997 67.1C75.3997 66.8 75.5997 66.7 75.8997 66.6Z" fill="#5B59A4"/>
    <path d="M98.7997 45.3C102.445 45.3 105.4 42.3451 105.4 38.7C105.4 35.0549 102.445 32.1 98.7997 32.1C95.1546 32.1 92.1997 35.0549 92.1997 38.7C92.1997 42.3451 95.1546 45.3 98.7997 45.3Z" fill="#5B59A4"/>
    <path d="M64.7997 41.9C68.4448 41.9 71.3997 38.9451 71.3997 35.3C71.3997 31.6549 68.4448 28.7 64.7997 28.7C61.1546 28.7 58.1997 31.6549 58.1997 35.3C58.1997 38.9451 61.1546 41.9 64.7997 41.9Z" fill="#5B59A4"/>
    <path d="M80.7 32.1C89.2 32.8 89.4 34.5 89.2 36.1C89 37.7 86.2 41.1 81.5 46.6C80.3 48 79 47.9 77.7 45.3C76.0095 42.1088 74.6362 38.7594 73.6 35.3C72.7 32.4 74.2 31.5 80.7 32.1Z" fill="#FFF48C"/>
    <path d="M65.8998 31.4L66.2998 33.8L68.7998 34C68.8918 33.9869 68.9854 33.992 69.0753 34.015C69.1653 34.0381 69.2498 34.0786 69.3241 34.1343C69.3984 34.19 69.461 34.2598 69.5083 34.3397C69.5556 34.4196 69.5867 34.5081 69.5998 34.6C69.613 34.6919 69.6079 34.7855 69.5848 34.8755C69.5618 34.9654 69.5212 35.05 69.4655 35.1243C69.4098 35.1986 69.34 35.2611 69.2601 35.3085C69.1802 35.3558 69.0918 35.3869 68.9998 35.4L66.8998 36.6L67.3998 39C67.4669 39.1569 67.4744 39.3329 67.4208 39.495C67.3672 39.657 67.2563 39.7939 67.1089 39.8798C66.9615 39.9658 66.7877 39.995 66.6203 39.9619C66.4529 39.9288 66.3034 39.8356 66.1998 39.7L64.3998 38L62.2998 39.2C62.171 39.2804 62.0195 39.3167 61.8682 39.3034C61.7169 39.2901 61.574 39.228 61.4611 39.1264C61.3482 39.0248 61.2714 38.8892 61.2423 38.7401C61.2132 38.5911 61.2334 38.4366 61.2998 38.3L62.2998 36.1L60.4998 34.4C59.8998 34 60.2998 33.1 61.0998 33.2L63.4998 33.4L64.4998 31.2C64.5853 31.0824 64.7013 30.9903 64.8353 30.9336C64.9692 30.877 65.1161 30.8579 65.2601 30.8784C65.404 30.899 65.5397 30.9584 65.6524 31.0503C65.7651 31.1422 65.8507 31.2631 65.8998 31.4Z" fill="white"/>
    <path d="M98.7998 34.7L99.7998 36.9L102.2 36.6C102.348 36.6045 102.493 36.6503 102.617 36.7324C102.741 36.8144 102.84 36.9294 102.902 37.0644C102.964 37.1994 102.988 37.3491 102.97 37.4967C102.952 37.6443 102.893 37.784 102.8 37.9L101 39.5L102 41.7C102.132 41.8326 102.207 42.0125 102.207 42.2C102.207 42.3875 102.132 42.5674 102 42.7C101.934 42.7657 101.856 42.8177 101.77 42.8533C101.685 42.8888 101.593 42.9071 101.5 42.9071C101.312 42.9071 101.132 42.8326 101 42.7L98.8998 41.5L97.0998 43.1C96.9962 43.2356 96.8467 43.3288 96.6793 43.3619C96.5119 43.395 96.3381 43.3658 96.1907 43.2798C96.0433 43.1939 95.9324 43.057 95.8788 42.895C95.8252 42.7329 95.8327 42.5569 95.8998 42.4L96.2998 40.1L94.1998 38.9C94.0836 38.8072 93.9955 38.6839 93.9455 38.5438C93.8955 38.4038 93.8855 38.2526 93.9167 38.1072C93.9478 37.9618 94.0189 37.828 94.1219 37.7207C94.2249 37.6134 94.3558 37.537 94.4998 37.5L96.8998 37.2L97.3998 34.9C97.3867 34.8081 97.3918 34.7145 97.4148 34.6245C97.4378 34.5346 97.4784 34.45 97.5341 34.3757C97.5898 34.3015 97.6596 34.2389 97.7395 34.1916C97.8194 34.1442 97.9079 34.1131 97.9998 34.1C98.0917 34.0869 98.1853 34.092 98.2753 34.115C98.3652 34.1381 98.4498 34.1786 98.524 34.2343C98.5983 34.29 98.6609 34.3598 98.7082 34.4397C98.7555 34.5196 98.7867 34.6081 98.7998 34.7Z" fill="white"/>
    <path d="M95.5 48.4C98.6 42.2 102.6 38.9 110.4 39.2L101.4 47.5L95.5 48.4Z" fill="#FFB55C"/>
    <path d="M57.5996 39.2C63.2996 38 68.5996 38 70.7996 43.8L58.7996 41.2L57.5996 39.2Z" fill="#FFB55C"/>
    <path d="M129.2 82.6C128.8 71.5 123.5 64.6 119.5 59.5C115.5 54.4 113.4 52.5 112.8 49.8C112.2 47.1 112.2 45.2 110 45.3C107.8 45.4 104 46.9 102.3 51.9C100.6 56.9 99.9999 61.4 99.7999 67.7C99.5999 74 99.3999 82.6 99.3999 82.6H129.2Z" fill="#78DF8B"/>
    <path d="M129.9 82.5H128.5C128.1 71.7 122.9 65 118.9 60C118 58.8 117.2 57.7 116.4 56.8C114.1 53.9 112.6 52.2 112.1 50L111.8 48.6C111.3 46.4 111.1 46 110 46C108.9 46 104.6 47.4 103 52.1C101.4 56.8 100.7 62 100.5 67.7C100.3 71.5 100.2 78.1 100.1 82.5H98.7998C98.7998 78.1 98.8998 71.5 99.0998 67.6C99.1503 62.1657 100.027 56.7707 101.7 51.6C103.5 46.3 107.7 44.7 109.9 44.6C112.1 44.5 112.7 46.3 113.1 48.3L113.4 49.6C113.9 51.5 115.3 53.2 117.5 56L120 59.1C123.8 64 129.5 71.2 129.9 82.5Z" fill="#5B59A4"/>
    <path d="M65.9999 69.1C66.0999 63.6 67.6999 56.9 67.5999 53.8C67.7446 51.1066 66.9297 48.4492 65.2999 46.3C63.3999 43.8 60.6999 43 58.5999 43.8C56.4999 44.6 57.7999 47.2 55.7999 50.4C50.7999 58.2 41.6999 63.5 41.9999 82.6H69.9999C68.2999 78.5 65.9999 74.5 65.9999 69.1Z" fill="#78DF8B"/>
    <path d="M68.0998 78.3C67.7998 78.5 67.3998 78.3 67.1998 77.9C65.9926 75.0855 65.3472 72.0621 65.2998 69C65.3998 66 65.8998 62.6 66.2998 59.6C66.6949 57.6918 66.8959 55.7486 66.8998 53.8C67.0385 51.2465 66.258 48.7277 64.6998 46.7C63.0998 44.6 60.7998 43.7 58.8998 44.4C56.9998 45.1 57.9998 45.2 57.7998 46.6C57.6384 48.0525 57.1605 49.4521 56.3998 50.7C55.1998 52.6 53.7998 54.3 52.3998 56.1C47.6998 61.8 42.4998 68.2 42.6998 82.5H41.2998C41.0998 67.7 46.4998 61.1 51.2998 55.2C52.6949 53.54 53.9969 51.804 55.1998 50C55.8382 48.8571 56.2459 47.6 56.3998 46.3C56.6998 44.9 56.8998 43.7 58.3998 43.1C59.8998 42.5 63.8998 43.3 65.7998 45.9C67.5773 48.1357 68.4675 50.9487 68.2998 53.8C68.2998 55.2 67.9998 57.3 67.6998 59.8C67.3998 62.3 66.7998 66.1 66.6998 69.1C66.7366 71.9594 67.3487 74.7822 68.4998 77.4C68.5998 77.8 68.4998 78.2 68.0998 78.3Z" fill="#5B59A4"/>
    <path d="M142 28.9C140.753 28.1089 139.696 27.0543 138.901 25.8104C138.106 24.5664 137.594 23.1634 137.4 21.7L136.6 16.7C136.6 16.5674 136.547 16.4402 136.453 16.3464C136.36 16.2527 136.232 16.2 136.1 16.2C135.967 16.2 135.84 16.2527 135.746 16.3464C135.652 16.4402 135.6 16.5674 135.6 16.7L134.8 21.7C134.606 23.1634 134.093 24.5664 133.299 25.8104C132.504 27.0543 131.446 28.1089 130.2 28.9L129.5 29.3C129.377 29.4385 129.307 29.6152 129.3 29.8C129.3 29.8776 129.318 29.9542 129.353 30.0236C129.387 30.093 129.438 30.1534 129.5 30.2L130.2 30.6C131.44 31.4215 132.491 32.4972 133.284 33.7557C134.077 35.0142 134.594 36.4268 134.8 37.9L135.6 42.9C135.6 43.2 135.8 43.3 136.1 43.3C136.3 43.3 136.6 43.2 136.6 42.9L137.4 37.9C137.606 36.4268 138.122 35.0142 138.915 33.7557C139.708 32.4972 140.76 31.4215 142 30.6L142.7 30.2C142.762 30.1534 142.812 30.093 142.847 30.0236C142.882 29.9542 142.9 29.8776 142.9 29.8C142.893 29.6152 142.822 29.4385 142.7 29.3L142 28.9Z" fill="#FFF48C"/>
    <path d="M15.4001 76.6H12.6001L15.1001 77.5L14.0001 79.3L17.3001 77.9L23.2001 82.2C24.4001 83.1 24.7001 82.5 30.7001 74.9L19.2001 75.4L15.4001 76.6Z" fill="#DD3E59"/>
    <path d="M19.6002 76.9C10.7002 77.2 5.60015 71.9 8.10015 64.7C6.60015 56.7 8.60015 54.1 9.00015 53.6C9.40015 53.1 11.5002 54.9 13.6002 56.5C19.0002 52.3 25.8002 51.8 30.7002 57C36.0002 54.7 37.0002 55.2 37.6002 55.2C38.2002 55.2 38.4002 58.4 37.9002 61.1C37.5769 62.7608 36.8943 64.3309 35.9002 65.7C36.9002 70.2 35.3002 76.4 19.6002 76.9Z" fill="#F6CA9D"/>
    <path d="M33.4003 68.1C32.3003 66.8 30.5003 66.6 27.2003 67C23.9003 67.4 22.9003 66.7 21.8003 65.2C21.4488 64.6511 20.9584 64.2047 20.379 63.9062C19.7995 63.6077 19.1514 63.4676 18.5003 63.5C17.4003 63.5 16.0003 63.9 15.3003 66.6C9.70034 66.6 7.70034 70.9 8.90034 72.8C10.1003 74.7 14.6003 77.1 19.6003 76.9C26.4003 76.7 30.5003 75.4 33.0003 73.7C33.415 73.3726 33.7568 72.9624 34.004 72.4955C34.2512 72.0286 34.3983 71.5152 34.4359 70.9883C34.4736 70.4613 34.4009 69.9323 34.2226 69.435C34.0443 68.9377 33.7643 68.483 33.4003 68.1Z" fill="white"/>
    <path d="M35.0001 63.9C34.1446 61.8475 32.9996 59.928 31.6001 58.2C33.1414 57.2027 34.882 56.5542 36.7001 56.3C37.0001 56.4 37.7001 59.5 35.0001 63.9Z" fill="white"/>
    <path d="M24.0272 58.7391C24.1449 58.2561 23.5879 57.7056 22.783 57.5094C21.9782 57.3132 21.2303 57.5456 21.1126 58.0285C20.9948 58.5115 21.5519 59.062 22.3567 59.2582C23.1616 59.4544 23.9095 59.222 24.0272 58.7391Z" fill="white"/>
    <path d="M15.4938 59.8416C16.1528 59.3396 16.47 58.6477 16.2023 58.2962C15.9345 57.9448 15.1833 58.0668 14.5243 58.5688C13.8653 59.0708 13.5481 59.7627 13.8158 60.1142C14.0836 60.4657 14.8349 60.3436 15.4938 59.8416Z" fill="white"/>
    <path d="M22.7002 64.1C22.7486 63.9067 22.8486 63.7302 22.9895 63.5893C23.1304 63.4484 23.3069 63.3484 23.5002 63.3C23.8746 63.1214 24.3014 63.0858 24.7002 63.2C25.0648 63.2706 25.4118 63.4131 25.7208 63.6191C26.0298 63.8252 26.2948 64.0906 26.5002 64.4C26.5002 64.5 26.5002 64.7 26.4002 64.7H26.2002C25.6938 64.341 25.1126 64.1016 24.5002 64H23.8002C23.5074 64.007 23.2255 64.1127 23.0002 64.3C22.8002 64.3 22.7002 64.3 22.7002 64.2C22.7002 64.1 22.6002 64.1 22.7002 64.1Z" fill="#5F131D"/>
    <path d="M11.4004 65.3C11.5098 64.9761 11.7201 64.6957 12.0004 64.5L12.9004 64C13.2786 63.9607 13.6602 64.0301 14.0004 64.2C14.1618 64.269 14.3022 64.3792 14.4076 64.5196C14.5129 64.6601 14.5794 64.8257 14.6004 65C14.7004 65.2 14.6004 65.3 14.4004 65.3H14.3004C14.1273 65.1702 13.9168 65.1 13.7004 65.1H12.5004L11.8004 65.5C11.775 65.517 11.7461 65.5279 11.7159 65.532C11.6856 65.5361 11.6548 65.5332 11.6259 65.5236C11.5969 65.5139 11.5706 65.4977 11.5488 65.4763C11.5271 65.4549 11.5105 65.4288 11.5004 65.4C11.4004 65.4 11.4004 65.4 11.4004 65.3Z" fill="#5F131D"/>
    <path d="M18.4003 66.2C19.2839 66.2 20.0003 65.7971 20.0003 65.3C20.0003 64.803 19.2839 64.4 18.4003 64.4C17.5166 64.4 16.8003 64.803 16.8003 65.3C16.8003 65.7971 17.5166 66.2 18.4003 66.2Z" fill="#892B25"/>
    <path d="M14.2001 69.6C13.9987 69.6167 13.7961 69.5895 13.6063 69.5205C13.4164 69.4514 13.2437 69.3421 13.1001 69.2C12.9618 68.9773 12.8804 68.724 12.8629 68.4625C12.8455 68.2009 12.8926 67.9391 13.0001 67.7C13.0435 67.6104 13.1189 67.5403 13.2114 67.5033C13.3038 67.4663 13.4068 67.4651 13.5001 67.5C13.6034 67.6116 13.6728 67.7504 13.7001 67.9C13.5001 68.3 13.5001 68.6 13.6001 68.7C13.7001 68.8 14.1001 68.9 14.5001 68.9L16.8001 68.1L18.0001 67.8L19.5001 68.1L22.5001 68.7C23.7001 68.9 24.6001 68.8 24.8001 68.5C25.0001 68.2 25.0001 68.3 24.8001 67.9C24.6001 67.5 24.9001 67.5 25.0001 67.5C25.0933 67.4651 25.1963 67.4663 25.2888 67.5033C25.3812 67.5403 25.4566 67.6104 25.5001 67.7C25.5885 67.8975 25.6166 68.1167 25.581 68.3302C25.5455 68.5436 25.4477 68.7418 25.3001 68.9C24.9001 69.4 24.0001 69.6 22.4001 69.4L19.3001 68.7L18.0001 68.4L17.1001 68.8C16.2845 69.0926 15.449 69.3265 14.6001 69.5L14.2001 69.6Z" fill="#892B25"/>
    <path d="M18.0002 68.4C17.9206 68.4 17.8443 68.3684 17.7881 68.3121C17.7318 68.2559 17.7002 68.1796 17.7002 68.1V66.2C17.8002 66 17.9002 65.9 18.1002 65.9C18.3002 65.9 18.4002 66.1 18.4002 66.3L18.2002 68.1C18.2039 68.1649 18.1864 68.2293 18.1503 68.2834C18.1142 68.3375 18.0615 68.3784 18.0002 68.4Z" fill="#892B25"/>
    <path d="M155.1 51.7C156.5 53.8 158.5 59.7 157 60.6C155.5 61.5 151.1 57.2 149.7 55.1C148.3 53 149 51.3 150.5 50.3C152 49.3 153.8 49.6 155.1 51.7Z" fill="#7DD6AF"/>
    <path d="M156.5 61.1C155.5 61.1 154.2 60.1 153.1 59.2C151.712 58.0482 150.5 56.7008 149.5 55.2C149.18 54.7765 148.953 54.2908 148.832 53.7741C148.712 53.2574 148.701 52.7212 148.8 52.2C148.908 51.7587 149.105 51.3444 149.381 50.983C149.656 50.6217 150.003 50.3211 150.4 50.1C150.778 49.847 151.203 49.6724 151.649 49.5865C152.096 49.5006 152.555 49.5052 153 49.6C154.006 49.9175 154.86 50.5937 155.4 51.5C156.6 53.5 158.9 59.8 157.1 60.9L156.5 61.1ZM152.3 50.1C151.724 50.0689 151.156 50.2464 150.7 50.6C150.356 50.7636 150.053 51.0007 149.811 51.2945C149.569 51.5882 149.395 51.9315 149.3 52.3C149.208 53.2231 149.457 54.1478 150 54.9C150.991 56.3472 152.168 57.6583 153.5 58.8C155.1 60.1 156.3 60.7 156.8 60.4C157.3 60.1 157.4 58.7 156.8 56.7C156.402 54.985 155.762 53.3352 154.9 51.8C154.439 50.9889 153.689 50.3817 152.8 50.1H152.3Z" fill="#378A84"/>
    <path d="M163.9 58.6C161.9 60.1 156.3 62.7 155.2 61.3C154.1 59.9 158 55.1 159.9 53.6C161.8 52.1 163.7 52.5 164.8 53.8C165.9 55.1 165.9 57 163.9 58.6Z" fill="#7DD6AF"/>
    <path d="M156.3 62C155.7 62 155.2 61.9 155 61.5C154.8 61.1 158 54.7 159.8 53.3C160.616 52.6296 161.645 52.2747 162.7 52.3C163.16 52.3586 163.603 52.5135 163.999 52.7548C164.396 52.996 164.737 53.3181 165 53.7C165.297 54.0377 165.513 54.4377 165.635 54.8704C165.756 55.3031 165.778 55.7575 165.7 56.2C165.622 56.7187 165.44 57.2163 165.165 57.6631C164.89 58.1098 164.528 58.4965 164.1 58.8C162.612 59.8322 160.999 60.6722 159.3 61.3C158.35 61.7099 157.334 61.947 156.3 62ZM162.4 52.9C161.558 52.9499 160.753 53.2649 160.1 53.8C158.79 54.9637 157.616 56.272 156.6 57.7C155.5 59.4 155 60.7 155.4 61.2C155.8 61.7 157.2 61.5 159.1 60.8C160.742 60.2277 162.292 59.4192 163.7 58.4C164.484 57.8616 165.024 57.0347 165.2 56.1C165.245 55.72 165.206 55.3348 165.085 54.9718C164.964 54.6088 164.764 54.277 164.5 54C164.06 53.4204 163.417 53.0277 162.7 52.9H162.4Z" fill="#378A84"/>
    <path d="M157 60.9H156.7L152.2 53.4C152.2 53.3 152.2 53.1 152.3 53.1C152.4 53.1 152.6 53 152.7 53.1L157.2 60.6C157.253 60.6133 157.299 60.6471 157.327 60.6939C157.355 60.7408 157.363 60.797 157.35 60.85C157.337 60.903 157.303 60.9486 157.256 60.9768C157.209 61.0049 157.153 61.0133 157.1 61L157 60.9Z" fill="#378A84"/>
    <path d="M155.5 61.5H155.3C155.251 61.445 155.224 61.3738 155.224 61.3C155.224 61.2262 155.251 61.155 155.3 61.1L161.9 55.4H162.3C162.349 55.455 162.376 55.5262 162.376 55.6C162.376 55.6738 162.349 55.745 162.3 55.8L155.7 61.5H155.5Z" fill="#378A84"/>
    <path d="M156.7 59.1C150.4 53.8 142.5 58.6 142.9 66.6C143.3 74.6 148.5 82 157 82C163.8 82 170.4 75.4 170.8 66.6C171.2 57.8 161.7 53.8 156.7 59.1Z" fill="#FFC194"/>
    <path d="M157 82.3C155.017 82.3007 153.059 81.851 151.275 80.9849C149.491 80.1187 147.926 78.8588 146.7 77.3C144.324 74.2067 142.9 70.4889 142.6 66.6C142.438 64.7703 142.816 62.9334 143.687 61.3161C144.558 59.6989 145.883 58.3722 147.5 57.5C148.985 56.7871 150.645 56.521 152.278 56.7341C153.911 56.9471 155.448 57.6301 156.7 58.7C157.833 57.5753 159.281 56.8203 160.852 56.5347C162.423 56.2491 164.043 56.4462 165.5 57.1C167.325 57.8791 168.852 59.2212 169.86 60.9304C170.867 62.6396 171.302 64.6263 171.1 66.6C170.7 75.1 164.3 82.3 157 82.3ZM151 57.2C149.88 57.1678 148.773 57.4445 147.8 58C144.7 59.5 143 62.8 143.2 66.6C143.8 76.4 150.7 81.8 157 81.8C163.3 81.8 170.2 74.8 170.6 66.6C170.8 61.7 168 58.7 165.2 57.6C163.814 56.9696 162.265 56.7945 160.773 57.1C159.282 57.4054 157.926 58.1756 156.9 59.3C156.845 59.3492 156.774 59.3764 156.7 59.3764C156.626 59.3764 156.555 59.3492 156.5 59.3C154.971 57.9747 153.023 57.2312 151 57.2Z" fill="#F46D59"/>
    <path d="M150.4 67.9H146C145.921 67.9 145.844 67.8684 145.788 67.8121C145.732 67.7559 145.7 67.6796 145.7 67.6C145.7 67.4 145.8 67.2 146 67.2H150.4C150.453 67.2 150.505 67.2103 150.553 67.2304C150.602 67.2505 150.646 67.28 150.683 67.3172C150.72 67.3543 150.75 67.3984 150.77 67.4469C150.79 67.4955 150.8 67.5475 150.8 67.6C150.8 67.8 150.6 67.9 150.4 67.9Z" fill="#632B26"/>
    <path d="M149 69.4C148.523 69.4 148.065 69.2104 147.727 68.8728C147.39 68.5352 147.2 68.0774 147.2 67.6C147.2 67.5475 147.211 67.4955 147.231 67.4469C147.251 67.3984 147.28 67.3543 147.317 67.3172C147.354 67.28 147.399 67.2505 147.447 67.2304C147.496 67.2103 147.548 67.2 147.6 67.2H150.4C150.453 67.2 150.505 67.2103 150.553 67.2304C150.602 67.2505 150.646 67.28 150.683 67.3172C150.72 67.3543 150.75 67.3984 150.77 67.4469C150.79 67.4955 150.8 67.5475 150.8 67.6C150.8 68.0774 150.611 68.5352 150.273 68.8728C149.935 69.2104 149.478 69.4 149 69.4Z" fill="#632B26"/>
    <path d="M163.7 67.9H159.3C159.1 67.9 158.9 67.8 158.9 67.6C158.9 67.5475 158.91 67.4955 158.93 67.4469C158.95 67.3984 158.98 67.3543 159.017 67.3172C159.054 67.28 159.098 67.2505 159.147 67.2304C159.195 67.2103 159.247 67.2 159.3 67.2H163.7C163.752 67.2 163.804 67.2103 163.853 67.2304C163.902 67.2505 163.946 67.28 163.983 67.3172C164.02 67.3543 164.049 67.3984 164.069 67.4469C164.09 67.4955 164.1 67.5475 164.1 67.6C164.1 67.8 163.9 67.9 163.7 67.9Z" fill="#632B26"/>
    <path d="M162.3 69.4C161.813 69.4007 161.344 69.2143 160.991 68.8793C160.637 68.5443 160.426 68.0864 160.4 67.6C160.4 67.5475 160.41 67.4955 160.43 67.4469C160.45 67.3984 160.48 67.3543 160.517 67.3172C160.554 67.28 160.598 67.2505 160.647 67.2304C160.695 67.2103 160.747 67.2 160.8 67.2H163.7C163.752 67.2 163.804 67.2103 163.853 67.2304C163.902 67.2505 163.946 67.28 163.983 67.3172C164.02 67.3543 164.049 67.3984 164.069 67.4469C164.09 67.4955 164.1 67.5475 164.1 67.6C164.1 68.0774 163.91 68.5352 163.573 68.8728C163.235 69.2104 162.777 69.4 162.3 69.4Z" fill="#632B26"/>
    <path d="M155.4 70.3C154.907 70.3186 154.422 70.171 154.023 69.8808C153.624 69.5906 153.334 69.1748 153.2 68.7C153.165 68.6067 153.166 68.5038 153.203 68.4113C153.24 68.3188 153.311 68.2435 153.4 68.2C153.504 68.1914 153.609 68.2158 153.698 68.2696C153.788 68.3234 153.859 68.404 153.9 68.5C154.004 68.8168 154.205 69.0932 154.474 69.2904C154.743 69.4876 155.067 69.5959 155.4 69.6C155.716 69.576 156.018 69.4586 156.267 69.2627C156.517 69.0669 156.702 68.8014 156.8 68.5C156.842 68.404 156.912 68.3234 157.002 68.2696C157.092 68.2158 157.196 68.1914 157.3 68.2C157.39 68.2435 157.46 68.3188 157.497 68.4113C157.534 68.5038 157.535 68.6067 157.5 68.7C157.386 69.1667 157.115 69.5801 156.733 69.8713C156.351 70.1624 155.88 70.3138 155.4 70.3Z" fill="#632B26"/>
    <path d="M164.3 71.7C165.294 71.7 166.1 71.2971 166.1 70.8C166.1 70.303 165.294 69.9 164.3 69.9C163.306 69.9 162.5 70.303 162.5 70.8C162.5 71.2971 163.306 71.7 164.3 71.7Z" fill="#FF9D7E"/>
    <path d="M146.6 71.7C147.594 71.7 148.4 71.2971 148.4 70.8C148.4 70.303 147.594 69.9 146.6 69.9C145.606 69.9 144.8 70.303 144.8 70.8C144.8 71.2971 145.606 71.7 146.6 71.7Z" fill="#FF9D7E"/>
    <path d="M151.1 78.7H150.9C150.8 78.6 150.8 78.5 150.9 78.3C153.2 75.5 153.4 74.4 153 73.7L152.5 73.5C151.7 73.3 150.2 74.1 148.7 75.5H148.3C148.251 75.445 148.224 75.3738 148.224 75.3C148.224 75.2262 148.251 75.155 148.3 75.1C149.9 73.6 151.6 72.8 152.6 72.9C152.779 72.9036 152.955 72.9511 153.112 73.0382C153.269 73.1254 153.402 73.2496 153.5 73.4C154.1 74.5 153.6 75.9 151.3 78.7C151.3 78.7 151.2 78.7 151.1 78.7Z" fill="#F46D59"/>
    <path d="M157.5 73.5C157.339 73.8128 157.264 74.1623 157.282 74.5134C157.299 74.8646 157.409 75.2048 157.6 75.5L156.9 75.7H156.6L152.1 74.8C151.907 74.7799 151.721 74.7167 151.555 74.6152C151.389 74.5137 151.249 74.3763 151.143 74.2132C151.038 74.0502 150.97 73.8655 150.945 73.6729C150.92 73.4802 150.939 73.2845 151 73.1C151.05 72.7729 151.222 72.4771 151.482 72.2727C151.742 72.0683 152.07 71.9708 152.4 72H152.7L157.2 72.9L157.9 73.3C157.7 73.2 157.6 73.3 157.5 73.5Z" fill="white"/>
    <path d="M159.6 78.7H159.4C157.1 75.9 156.6 74.5 157.3 73.4C157.382 73.2573 157.498 73.137 157.637 73.0497C157.777 72.9625 157.936 72.9111 158.1 72.9C159.2 72.8 160.8 73.6 162.4 75.1C162.453 75.0867 162.509 75.0951 162.556 75.1232C162.603 75.1514 162.637 75.197 162.65 75.25C162.663 75.303 162.655 75.3592 162.627 75.4061C162.599 75.4529 162.553 75.4867 162.5 75.5H162.1C160.6 74.1 159.1 73.3 158.2 73.5L157.7 73.7C157.3 74.4 157.5 75.5 159.8 78.3C159.9 78.5 159.9 78.6 159.8 78.7H159.6Z" fill="#F46D59"/>
    <path d="M154.7 62H154.6C154.5 61.9 154.4 61.8 154.5 61.6C155.001 60.5883 155.678 59.674 156.5 58.9C156.556 58.8733 156.619 58.8645 156.68 58.875C156.741 58.8855 156.797 58.9147 156.841 58.9586C156.885 59.0024 156.914 59.0588 156.925 59.12C156.935 59.1811 156.927 59.244 156.9 59.3C156.093 60.0251 155.446 60.9106 155 61.9L154.7 62Z" fill="#F46D59"/>
</g>
<defs>
    <clipPath id="clip0">
        <rect width="177" height="88" fill="white" transform="translate(0.5)"/>
    </clipPath>
</defs>
</svg>
