<svg data-name="Battle.Net" xmlns="http://www.w3.org/2000/svg" width="30" height="30" viewBox="0 0 30 30">
    <path fill="#148eff" d="M24.89 11a11.66 11.66 0 00.44-7c0-.1-.14-.34-.25-.34s-.08.16-.08.23a14.15 14.15 0 01-1.33 6.48A30.37 30.37 0 009.29 7.91c.25-1.7.89-2.88 1.93-3.13 1.43-.34 3 .6 4.49 2.32 1 .13 2.14.35 2.95.53-2.72-5.11-6.37-8-9.15-6.92-2.12.8-3.19 3.71-3.06 7.61a11.72 11.72 0 00-6.27 3.12c-.07.08-.22.29-.17.38s.18 0 .24-.05a14.34 14.34 0 016.29-2.09 30.58 30.58 0 005.05 13.69C10 24 8.65 24 7.91 23.26c-1-1.07-1-2.9-.24-5.05-.38-.91-.77-2-1-2.81-3.07 4.9-3.73 9.5-1.43 11.38 1.76 1.42 4.81.9 8.13-1.16a11.66 11.66 0 005.84 3.87c.1 0 .36.05.41 0s-.09-.15-.15-.18a14.18 14.18 0 01-5-4.39 30.46 30.46 0 009.31-11.24c1.35 1.08 2.06 2.22 1.75 3.25-.42 1.41-2 2.29-4.25 2.73-.6.78-1.37 1.67-1.94 2.28 5.8.2 10.1-1.53 10.58-4.46.4-2.28-1.58-4.67-5.03-6.48zM13 22.7A25.13 25.13 0 019.16 9.51H10a25 25 0 0112.53 3.3A25.15 25.15 0 0113 22.7z"/>
</svg>