<svg data-name="Github" xmlns="http://www.w3.org/2000/svg" width="30" height="30" viewBox="0 0 30 30">
    <path fill="#212121" d="M18 .56l-6.51.11a4.21 4.21 0 00-.49.12l-.2.06a14.78 14.78 0 00-8.91 7.39l-.06.12c-.23.47-.45.94-.64 1.44s-.25.73-.36 1.1-.2.72-.28 1.1-.13.74-.18 1.12-.08.76-.1 1.15v1.44a11.3 11.3 0 00.11 1.17c0 .19 0 .37.08.56.06.37.13.74.22 1.1l.15.54c.11.37.24.74.36 1.1s.42 1 .65 1.46a.41.41 0 000 .09A14.66 14.66 0 0010.41 29a14.45 14.45 0 004.58.73A14.66 14.66 0 0019.7 29h.15a14.86 14.86 0 007.54-6 13.47 13.47 0 00.72-1.22 12.91 12.91 0 00.86-2 4.88 4.88 0 00.2-.65c.11-.37.21-.75.29-1.13s.12-.73.17-1.1.08-.75.1-1.13v-.78-.66c0-.22-.05-.75-.1-1.11s-.11-.75-.17-1.12-.18-.76-.29-1.13-.13-.44-.2-.65a13.08 13.08 0 00-.61-1.5s-.05-.11-.08-.16A14.79 14.79 0 0019.21.85c-.26-.08-.52-.14-.79-.2z"/>
    <path fill="white" d="M30 15a14.71 14.71 0 01-10.3 14c-.76.15-1-.31-1-.7v-4a3.49 3.49 0 00-1-2.72c3.34-.37 6.84-1.61 6.84-7.27a5.68 5.68 0 00-1.53-4 5.33 5.33 0 00-.15-3.9S21.58 6 18.73 7.89a14.31 14.31 0 00-7.5 0C8.36 6 7.1 6.38 7.1 6.38a5.18 5.18 0 00-.1 3.9 5.65 5.65 0 00-1.54 4c0 5.64 3.5 6.91 6.83 7.28a3.15 3.15 0 00-.95 2 3.22 3.22 0 01-4.37-1.23 3.13 3.13 0 00-2.29-1.51s-1.47 0-.11.89a3.94 3.94 0 011.64 2.09s.88 2.86 5.05 2v2.51c0 .35-.27.85-1 .71A14.77 14.77 0 010 15 14.87 14.87 0 0115 .26 14.87 14.87 0 0130 15z"/>
</svg>