<svg data-name="Reddit" xmlns="http://www.w3.org/2000/svg" width="30" height="30" viewBox="0 0 30 30">
    <circle fill="#ff4500" cx="15" cy="15" r="15"/>
    <path fill="white" d="M22.74 12.89a2.21 2.21 0 00-1.44.61 10.73 10.73 0 00-5.77-1.85L16.5 7l3.21.67A1.5 1.5 0 1021 6a1.48 1.48 0 00-1.13.73L16.23 6a.45.45 0 00-.55.35l-1.1 5.21a10.74 10.74 0 00-5.86 1.84 2.19 2.19 0 00-3 3.19 2.09 2.09 0 00.58.41 3.64 3.64 0 000 .66c0 3.36 3.91 6.09 8.74 6.09s8.75-2.72 8.75-6.08a3.64 3.64 0 000-.66 2.16 2.16 0 00-1.05-4.11zM10 16.5a1.5 1.5 0 111.5 1.5 1.5 1.5 0 01-1.5-1.5zm8.71 4.12A5.67 5.67 0 0115 21.78a5.68 5.68 0 01-3.71-1.16.4.4 0 01.06-.57.12.12 0 01.09-.05.38.38 0 01.43.09 4.62 4.62 0 001 .54l.45.16a2.25 2.25 0 00.35.09A5.16 5.16 0 0015 21a5.16 5.16 0 001.3-.11 2.25 2.25 0 00.35-.09l.45-.16a4.62 4.62 0 001-.54.4.4 0 01.29-.12.22.22 0 01.14 0 .12.12 0 01.09.05.4.4 0 01.1.59zm1.21-3.78A1.51 1.51 0 0118.47 18 1.49 1.49 0 0117 16.5a1.53 1.53 0 010-.3 1.42 1.42 0 01.07-.22 1.48 1.48 0 011.4-1A1.5 1.5 0 0120 16.5a1.27 1.27 0 01-.07.34z"/>
</svg>