<svg data-name="Spotify" xmlns="http://www.w3.org/2000/svg" width="30" height="30" viewBox="0 0 30 30">
    <path fill="#1ed760" fill-rule="evenodd" d="M30 15A15 15 0 1115 0a15 15 0 0115 15z"/>
    <path fill="black" fill-rule="evenodd" d="M21.87 21.64a.93.93 0 01-1.27.36 14.94 14.94 0 00-7.93-2.08 24.48 24.48 0 00-5.26.62.9.9 0 01-1.11-.7.92.92 0 01.7-1.16 24.7 24.7 0 015.67-.68 16.85 16.85 0 018.9 2.36 1 1 0 01.3 1.28zM23.7 17.54a1.16 1.16 0 01-1.61.4 19.57 19.57 0 00-14.93-1.75 1.19 1.19 0 01-1.42-.88A1.15 1.15 0 016.47 14a21.78 21.78 0 0116.85 2 1.13 1.13 0 01.38 1.54zM25.79 12.81a1.4 1.4 0 01-1.93.49c-4.86-2.87-12.8-3.14-17.42-1.74a1.38 1.38 0 01-1.75-.91 1.4 1.4 0 01.91-1.77c5.29-1.61 14.1-1.3 19.67 2a1.4 1.4 0 01.52 1.93z"/>
</svg>