<svg data-name="Twitter" xmlns="http://www.w3.org/2000/svg" width="30" height="30" viewBox="0 0 30 30">
    <path fill="#1da1f2" d="M30 5.7a12.29 12.29 0 01-3.53 1 6.14 6.14 0 002.7-3.4 12.24 12.24 0 01-3.91 1.49A6.15 6.15 0 0014.62 9a6 6 0 00.16 1.4A17.48 17.48 0 012.09 3.93 6.18 6.18 0 004 12.15a6.08 6.08 0 01-2.78-.77v.08a6.17 6.17 0 004.93 6 6.15 6.15 0 01-1.62.21 6.42 6.42 0 01-1.16-.11 6.17 6.17 0 005.75 4.28 12.33 12.33 0 01-7.64 2.63A14.17 14.17 0 010 24.43a17.46 17.46 0 009.43 2.76C20.76 27.19 27 17.81 27 9.68v-.8a12.71 12.71 0 003-3.18z"/>
</svg>